<svg width="40" height="40" viewBox="0 0 40 40" fill="none" xmlns="http://www.w3.org/2000/svg">
<path fill-rule="evenodd" clip-rule="evenodd" d="M8.32886 6.24365C7.77552 6.24365 7.24523 6.46323 6.85447 6.85399C6.46372 7.24474 6.24414 7.77503 6.24414 8.32837V31.6714C6.24414 32.2248 6.46372 32.7551 6.85447 33.1458C7.24523 33.5366 7.77552 33.7562 8.32886 33.7562H31.6719C32.2253 33.7562 32.7556 33.5366 33.1463 33.1458C33.5371 32.7551 33.7566 32.2248 33.7566 31.6714V8.32837C33.7566 7.77503 33.5371 7.24474 33.1463 6.85399C32.7556 6.46323 32.2253 6.24365 31.6719 6.24365H8.32886ZM5.08671 5.08622C5.94682 4.22611 7.11321 3.74365 8.32886 3.74365H31.6719C32.8876 3.74365 34.054 4.2261 34.9141 5.08622C35.7742 5.94633 36.2566 7.11272 36.2566 8.32837V31.6714C36.2566 32.8871 35.7742 34.0535 34.9141 34.9136C34.054 35.7737 32.8876 36.2562 31.6719 36.2562H8.32886C7.11321 36.2562 5.94682 35.7737 5.08671 34.9136C4.22659 34.0535 3.74414 32.8871 3.74414 31.6714V8.32837C3.74414 7.11272 4.22659 5.94633 5.08671 5.08622Z" fill="black"/>
<path fill-rule="evenodd" clip-rule="evenodd" d="M3.74414 11.6631C3.74414 10.9727 4.30378 10.4131 4.99414 10.4131H35.0066C35.697 10.4131 36.2566 10.9727 36.2566 11.6631C36.2566 12.3534 35.697 12.9131 35.0066 12.9131H4.99414C4.30378 12.9131 3.74414 12.3534 3.74414 11.6631Z" fill="black"/>
<path fill-rule="evenodd" clip-rule="evenodd" d="M8.74609 16.665C8.74609 15.9747 9.30574 15.415 9.99609 15.415H11.6635C12.3538 15.415 12.9135 15.9747 12.9135 16.665C12.9135 17.3554 12.3538 17.915 11.6635 17.915H9.99609C9.30574 17.915 8.74609 17.3554 8.74609 16.665Z" fill="black"/>
<path fill-rule="evenodd" clip-rule="evenodd" d="M8.74609 21.6675C8.74609 20.9771 9.30574 20.4175 9.99609 20.4175H11.6635C12.3538 20.4175 12.9135 20.9771 12.9135 21.6675C12.9135 22.3578 12.3538 22.9175 11.6635 22.9175H9.99609C9.30574 22.9175 8.74609 22.3578 8.74609 21.6675Z" fill="black"/>
<path fill-rule="evenodd" clip-rule="evenodd" d="M8.74609 26.6694C8.74609 25.9791 9.30574 25.4194 9.99609 25.4194H11.6635C12.3538 25.4194 12.9135 25.9791 12.9135 26.6694C12.9135 27.3598 12.3538 27.9194 11.6635 27.9194H9.99609C9.30574 27.9194 8.74609 27.3598 8.74609 26.6694Z" fill="black"/>
<path fill-rule="evenodd" clip-rule="evenodd" d="M16.666 10.4131C17.3564 10.4131 17.916 10.9727 17.916 11.6631V35.0061C17.916 35.6965 17.3564 36.2561 16.666 36.2561C15.9757 36.2561 15.416 35.6965 15.416 35.0061V11.6631C15.416 10.9727 15.9757 10.4131 16.666 10.4131Z" fill="black"/>
</svg>
