<svg width="40" height="39" viewBox="0 0 40 39" fill="none" xmlns="http://www.w3.org/2000/svg">
<path fill-rule="evenodd" clip-rule="evenodd" d="M15.8827 15.3872C16.3708 15.8632 16.3708 16.6349 15.8827 17.1108L13.4318 19.5004L15.8827 21.8899C16.3708 22.3659 16.3708 23.1376 15.8827 23.6135C15.3945 24.0895 14.6031 24.0895 14.1149 23.6135L10.7802 20.3622C10.292 19.8862 10.292 19.1145 10.7802 18.6386L14.1149 15.3872C14.6031 14.9113 15.3945 14.9113 15.8827 15.3872Z" fill="black"/>
<path fill-rule="evenodd" clip-rule="evenodd" d="M24.1181 15.3872C24.6062 14.9113 25.3977 14.9113 25.8858 15.3872L29.2206 18.6386C29.7087 19.1145 29.7087 19.8862 29.2206 20.3622L25.8858 23.6135C25.3977 24.0895 24.6062 24.0895 24.1181 23.6135C23.6299 23.1376 23.6299 22.3659 24.1181 21.8899L26.5689 19.5004L24.1181 17.1108C23.6299 16.6349 23.6299 15.8632 24.1181 15.3872Z" fill="black"/>
<path fill-rule="evenodd" clip-rule="evenodd" d="M3.74414 12.9941C3.74414 7.83373 8.03475 3.65039 13.3275 3.65039H26.6733C31.966 3.65039 36.2566 7.83373 36.2566 12.9941V26.0063C36.2566 31.1667 31.966 35.3501 26.6733 35.3501H13.3275C8.03474 35.3501 3.74414 31.1667 3.74414 26.0063V12.9941ZM13.3275 6.08789C9.41546 6.08789 6.24414 9.17992 6.24414 12.9941V26.0063C6.24414 29.8205 9.41545 32.9126 13.3275 32.9126H26.6733C30.5853 32.9126 33.7566 29.8205 33.7566 26.0063V12.9941C33.7566 9.17992 30.5853 6.08789 26.6733 6.08789H13.3275Z" fill="black"/>
<path fill-rule="evenodd" clip-rule="evenodd" d="M21.6281 13.4491C22.2933 13.6293 22.6827 14.3011 22.4979 14.9496L19.7184 24.7037C19.5336 25.3522 18.8445 25.7319 18.1794 25.5517C17.5142 25.3715 17.1248 24.6997 17.3096 24.0512L20.0891 14.2971C20.2739 13.6486 20.9629 13.2689 21.6281 13.4491Z" fill="black"/>
</svg>
