<svg width="1946" height="489" viewBox="0 0 1946 489" fill="none" xmlns="http://www.w3.org/2000/svg">
<g opacity="0.48">
<path d="M1826.7 51.6484L1826.45 64.8584L1674.14 85.6807L1674.39 72.4835L1826.7 51.6484Z" fill="#F9FAFB" fill-opacity="0.6" stroke="#9AA2AC" stroke-linejoin="round" stroke-dasharray="4 4"/>
<path d="M1674.14 85.677L1578.46 35.0303L1578.71 21.8203L1674.39 72.4798L1674.14 85.677Z" fill="#F9FAFB" fill-opacity="0.6" stroke="#9AA2AC" stroke-linejoin="round" stroke-dasharray="4 4"/>
<path d="M1674.39 72.4817L1578.71 21.8223L1731.01 1L1826.7 51.6467L1674.39 72.4817Z" fill="#F9FAFB" fill-opacity="0.6" stroke="#9AA2AC" stroke-linejoin="round" stroke-dasharray="4 4"/>
<path d="M1674.8 72.6602L1674.55 85.8701L1522.24 106.692L1522.49 93.4952L1674.8 72.6602Z" fill="#F9FAFB" fill-opacity="0.6" stroke="#9AA2AC" stroke-linejoin="round" stroke-dasharray="4 4"/>
<path d="M1522.24 106.689L1426.56 56.042L1426.81 42.832L1522.49 93.4915L1522.24 106.689Z" fill="#F9FAFB" fill-opacity="0.6" stroke="#9AA2AC" stroke-linejoin="round" stroke-dasharray="4 4"/>
<path d="M1522.49 93.4935L1426.81 42.834L1579.11 22.0117L1674.8 72.6584L1522.49 93.4935Z" fill="#F9FAFB" fill-opacity="0.6" stroke="#9AA2AC" stroke-linejoin="round" stroke-dasharray="4 4"/>
<path d="M1522.9 93.668L1522.65 106.878L1370.35 127.7L1370.59 114.503L1522.9 93.668Z" fill="#F9FAFB" fill-opacity="0.6" stroke="#9AA2AC" stroke-linejoin="round" stroke-dasharray="4 4"/>
<path d="M1370.35 127.697L1274.66 77.0498L1274.91 63.8398L1370.6 114.499L1370.35 127.697Z" fill="#F9FAFB" fill-opacity="0.6" stroke="#9AA2AC" stroke-linejoin="round" stroke-dasharray="4 4"/>
<path d="M1370.6 114.501L1274.91 63.8418L1427.21 43.0195L1522.9 93.6662L1370.6 114.501Z" fill="#F9FAFB" fill-opacity="0.6" stroke="#9AA2AC" stroke-linejoin="round" stroke-dasharray="4 4"/>
<path d="M1371 114.68L1370.75 127.89L1218.44 148.712L1218.69 135.515L1371 114.68Z" fill="#F9FAFB" fill-opacity="0.6" stroke="#9AA2AC" stroke-linejoin="round" stroke-dasharray="4 4"/>
<path d="M1218.45 148.708L1122.76 98.0615L1123.01 84.8516L1218.69 135.511L1218.45 148.708Z" fill="#F9FAFB" fill-opacity="0.6" stroke="#9AA2AC" stroke-linejoin="round" stroke-dasharray="4 4"/>
<path d="M1218.69 135.513L1123.01 84.8535L1275.31 64.0312L1371 114.678L1218.69 135.513Z" fill="#F9FAFB" fill-opacity="0.6" stroke="#9AA2AC" stroke-linejoin="round" stroke-dasharray="4 4"/>
<path d="M1219.1 135.688L1218.85 148.897L1066.55 169.72L1066.8 156.523L1219.1 135.688Z" fill="#F9FAFB" fill-opacity="0.6" stroke="#9AA2AC" stroke-linejoin="round" stroke-dasharray="4 4"/>
<path d="M1066.55 169.716L970.859 119.069L971.108 105.859L1066.8 156.519L1066.55 169.716Z" fill="#F9FAFB" fill-opacity="0.6" stroke="#9AA2AC" stroke-linejoin="round" stroke-dasharray="4 4"/>
<path d="M1066.8 156.521L971.109 105.861L1123.41 85.0391L1219.1 135.686L1066.8 156.521Z" fill="#F9FAFB" fill-opacity="0.6" stroke="#9AA2AC" stroke-linejoin="round" stroke-dasharray="4 4"/>
<path d="M1067.2 156.695L1066.95 169.905L914.648 190.728L914.897 177.53L1067.2 156.695Z" fill="#F9FAFB" fill-opacity="0.6" stroke="#9AA2AC" stroke-linejoin="round" stroke-dasharray="4 4"/>
<path d="M914.648 190.724L818.961 140.077L819.21 126.867L914.897 177.527L914.648 190.724Z" fill="#F9FAFB" fill-opacity="0.6" stroke="#9AA2AC" stroke-linejoin="round" stroke-dasharray="4 4"/>
<path d="M914.898 177.529L819.211 126.869L971.516 106.047L1067.2 156.694L914.898 177.529Z" fill="#F9FAFB" fill-opacity="0.6" stroke="#9AA2AC" stroke-linejoin="round" stroke-dasharray="4 4"/>
<path d="M915.302 177.707L915.053 190.917L762.748 211.739L762.997 198.542L915.302 177.707Z" fill="#F9FAFB" fill-opacity="0.6" stroke="#9AA2AC" stroke-linejoin="round" stroke-dasharray="4 4"/>
<path d="M762.748 211.736L667.061 161.089L667.31 147.879L762.997 198.538L762.748 211.736Z" fill="#F9FAFB" fill-opacity="0.6" stroke="#9AA2AC" stroke-linejoin="round" stroke-dasharray="4 4"/>
<path d="M762.997 198.54L667.31 147.881L819.615 127.059L915.302 177.705L762.997 198.54Z" fill="#F9FAFB" fill-opacity="0.6" stroke="#9AA2AC" stroke-linejoin="round" stroke-dasharray="4 4"/>
<path d="M762.873 198.402L762.624 211.612L610.319 232.435L610.568 219.237L762.873 198.402Z" fill="#F9FAFB" fill-opacity="0.6" stroke="#9AA2AC" stroke-linejoin="round" stroke-dasharray="4 4"/>
<path d="M610.32 232.431L514.633 181.784L514.882 168.574L610.569 219.234L610.32 232.431Z" fill="#F9FAFB" fill-opacity="0.6" stroke="#9AA2AC" stroke-linejoin="round" stroke-dasharray="4 4"/>
<path d="M610.569 219.236L514.882 168.576L667.187 147.754L762.874 198.401L610.569 219.236Z" fill="#F9FAFB" fill-opacity="0.6" stroke="#9AA2AC" stroke-linejoin="round" stroke-dasharray="4 4"/>
<path d="M610.34 219.105L610.091 232.315L457.786 253.138L458.035 239.94L610.34 219.105Z" fill="#F9FAFB" fill-opacity="0.6" stroke="#9AA2AC" stroke-linejoin="round" stroke-dasharray="4 4"/>
<path d="M457.786 253.134L362.099 202.487L362.348 189.277L458.035 239.937L457.786 253.134Z" fill="#F9FAFB" fill-opacity="0.6" stroke="#9AA2AC" stroke-linejoin="round" stroke-dasharray="4 4"/>
<path d="M458.035 239.939L362.348 189.279L514.653 168.457L610.34 219.104L458.035 239.939Z" fill="#F9FAFB" fill-opacity="0.6" stroke="#9AA2AC" stroke-linejoin="round" stroke-dasharray="4 4"/>
<path d="M458.185 239.844L457.936 253.054L305.631 273.876L305.88 260.679L458.185 239.844Z" fill="#F9FAFB" fill-opacity="0.6" stroke="#9AA2AC" stroke-linejoin="round" stroke-dasharray="4 4"/>
<path d="M305.622 273.872L209.935 223.226L210.184 210.016L305.871 260.675L305.622 273.872Z" fill="#F9FAFB" fill-opacity="0.6" stroke="#9AA2AC" stroke-linejoin="round" stroke-dasharray="4 4"/>
<path d="M305.871 260.677L210.184 210.018L362.489 189.195L458.176 239.842L305.871 260.677Z" fill="#F9FAFB" fill-opacity="0.6" stroke="#9AA2AC" stroke-linejoin="round" stroke-dasharray="4 4"/>
<path d="M306.011 260.887L305.762 274.097L153.457 294.919L153.706 281.722L306.011 260.887Z" fill="#F9FAFB" fill-opacity="0.6" stroke="#9AA2AC" stroke-linejoin="round" stroke-dasharray="4 4"/>
<path d="M153.458 294.915L57.771 244.269L58.02 231.059L153.707 281.718L153.458 294.915Z" fill="#F9FAFB" fill-opacity="0.6" stroke="#9AA2AC" stroke-linejoin="round" stroke-dasharray="4 4"/>
<path d="M153.708 281.72L58.021 231.061L210.326 210.238L306.013 260.885L153.708 281.72Z" fill="#F9FAFB" fill-opacity="0.6" stroke="#9AA2AC" stroke-linejoin="round" stroke-dasharray="4 4"/>
<path d="M1770.39 123.188L1770.14 136.397L1617.84 157.22L1618.09 144.023L1770.39 123.188Z" fill="#F9FAFB" fill-opacity="0.6" stroke="#9AA2AC" stroke-linejoin="round" stroke-dasharray="4 4"/>
<path d="M1617.84 157.216L1522.15 106.569L1522.4 93.3594L1618.09 144.019L1617.84 157.216Z" fill="#F9FAFB" fill-opacity="0.6" stroke="#9AA2AC" stroke-linejoin="round" stroke-dasharray="4 4"/>
<path d="M1618.09 144.021L1522.4 93.3613L1674.71 72.5391L1770.39 123.186L1618.09 144.021Z" fill="#F9FAFB" fill-opacity="0.6" stroke="#9AA2AC" stroke-linejoin="round" stroke-dasharray="4 4"/>
<path d="M1618.49 144.199L1618.24 157.409L1465.94 178.231L1466.19 165.034L1618.49 144.199Z" fill="#F9FAFB" fill-opacity="0.6" stroke="#9AA2AC" stroke-linejoin="round" stroke-dasharray="4 4"/>
<path d="M1465.94 178.228L1370.25 127.581L1370.5 114.371L1466.19 165.031L1465.94 178.228Z" fill="#F9FAFB" fill-opacity="0.6" stroke="#9AA2AC" stroke-linejoin="round" stroke-dasharray="4 4"/>
<path d="M1466.19 165.033L1370.5 114.373L1522.81 93.5508L1618.49 144.197L1466.19 165.033Z" fill="#F9FAFB" fill-opacity="0.6" stroke="#9AA2AC" stroke-linejoin="round" stroke-dasharray="4 4"/>
<path d="M1466.59 165.211L1466.34 178.421L1314.04 199.243L1314.29 186.046L1466.59 165.211Z" fill="#F9FAFB" fill-opacity="0.6" stroke="#9AA2AC" stroke-linejoin="round" stroke-dasharray="4 4"/>
<path d="M1314.04 199.239L1218.35 148.593L1218.6 135.383L1314.29 186.042L1314.04 199.239Z" fill="#F9FAFB" fill-opacity="0.6" stroke="#9AA2AC" stroke-linejoin="round" stroke-dasharray="4 4"/>
<path d="M1314.29 186.044L1218.6 135.385L1370.91 114.562L1466.59 165.209L1314.29 186.044Z" fill="#F9FAFB" fill-opacity="0.6" stroke="#9AA2AC" stroke-linejoin="round" stroke-dasharray="4 4"/>
<path d="M1314.69 186.211L1314.45 199.421L1162.14 220.243L1162.39 207.046L1314.69 186.211Z" fill="#F9FAFB" fill-opacity="0.6" stroke="#9AA2AC" stroke-linejoin="round" stroke-dasharray="4 4"/>
<path d="M1162.14 220.239L1066.45 169.593L1066.7 156.383L1162.39 207.042L1162.14 220.239Z" fill="#F9FAFB" fill-opacity="0.6" stroke="#9AA2AC" stroke-linejoin="round" stroke-dasharray="4 4"/>
<path d="M1162.39 207.044L1066.7 156.385L1219.01 135.562L1314.7 186.209L1162.39 207.044Z" fill="#F9FAFB" fill-opacity="0.6" stroke="#9AA2AC" stroke-linejoin="round" stroke-dasharray="4 4"/>
<path d="M1162.79 207.23L1162.55 220.44L1010.24 241.263L1010.49 228.065L1162.79 207.23Z" fill="#F9FAFB" fill-opacity="0.6" stroke="#9AA2AC" stroke-linejoin="round" stroke-dasharray="4 4"/>
<path d="M1010.24 241.259L914.553 190.612L914.802 177.402L1010.49 228.062L1010.24 241.259Z" fill="#F9FAFB" fill-opacity="0.6" stroke="#9AA2AC" stroke-linejoin="round" stroke-dasharray="4 4"/>
<path d="M1010.49 228.064L914.803 177.404L1067.11 156.582L1162.79 207.229L1010.49 228.064Z" fill="#F9FAFB" fill-opacity="0.6" stroke="#9AA2AC" stroke-linejoin="round" stroke-dasharray="4 4"/>
<path d="M1010.9 228.242L1010.65 241.452L858.341 262.274L858.59 249.077L1010.9 228.242Z" fill="#F9FAFB" fill-opacity="0.6" stroke="#9AA2AC" stroke-linejoin="round" stroke-dasharray="4 4"/>
<path d="M858.341 262.271L762.654 211.624L762.903 198.414L858.59 249.074L858.341 262.271Z" fill="#F9FAFB" fill-opacity="0.6" stroke="#9AA2AC" stroke-linejoin="round" stroke-dasharray="4 4"/>
<path d="M858.591 249.075L762.904 198.416L915.209 177.594L1010.9 228.24L858.591 249.075Z" fill="#F9FAFB" fill-opacity="0.6" stroke="#9AA2AC" stroke-linejoin="round" stroke-dasharray="4 4"/>
<path d="M858.466 248.934L858.217 262.144L705.912 282.966L706.161 269.769L858.466 248.934Z" fill="#F9FAFB" fill-opacity="0.6" stroke="#9AA2AC" stroke-linejoin="round" stroke-dasharray="4 4"/>
<path d="M705.913 282.962L610.226 232.315L610.475 219.105L706.162 269.765L705.913 282.962Z" fill="#F9FAFB" fill-opacity="0.6" stroke="#9AA2AC" stroke-linejoin="round" stroke-dasharray="4 4"/>
<path d="M706.162 269.767L610.475 219.107L762.78 198.285L858.467 248.932L706.162 269.767Z" fill="#F9FAFB" fill-opacity="0.6" stroke="#9AA2AC" stroke-linejoin="round" stroke-dasharray="4 4"/>
<path d="M705.932 269.633L705.683 282.843L553.378 303.665L553.627 290.468L705.932 269.633Z" fill="#F9FAFB" fill-opacity="0.6" stroke="#9AA2AC" stroke-linejoin="round" stroke-dasharray="4 4"/>
<path d="M553.379 303.661L457.692 253.015L457.941 239.805L553.628 290.464L553.379 303.661Z" fill="#F9FAFB" fill-opacity="0.6" stroke="#9AA2AC" stroke-linejoin="round" stroke-dasharray="4 4"/>
<path d="M553.627 290.466L457.94 239.807L610.245 218.984L705.932 269.631L553.627 290.466Z" fill="#F9FAFB" fill-opacity="0.6" stroke="#9AA2AC" stroke-linejoin="round" stroke-dasharray="4 4"/>
<path d="M553.778 290.367L553.529 303.577L401.224 324.399L401.473 311.202L553.778 290.367Z" fill="#F9FAFB" fill-opacity="0.6" stroke="#9AA2AC" stroke-linejoin="round" stroke-dasharray="4 4"/>
<path d="M401.214 324.396L305.527 273.749L305.776 260.539L401.463 311.199L401.214 324.396Z" fill="#F9FAFB" fill-opacity="0.6" stroke="#9AA2AC" stroke-linejoin="round" stroke-dasharray="4 4"/>
<path d="M401.463 311.2L305.776 260.541L458.081 239.719L553.768 290.365L401.463 311.2Z" fill="#F9FAFB" fill-opacity="0.6" stroke="#9AA2AC" stroke-linejoin="round" stroke-dasharray="4 4"/>
<path d="M401.606 311.414L401.357 324.624L249.052 345.446L249.301 332.249L401.606 311.414Z" fill="#F9FAFB" fill-opacity="0.6" stroke="#9AA2AC" stroke-linejoin="round" stroke-dasharray="4 4"/>
<path d="M249.053 345.443L153.366 294.796L153.615 281.586L249.302 332.245L249.053 345.443Z" fill="#F9FAFB" fill-opacity="0.6" stroke="#9AA2AC" stroke-linejoin="round" stroke-dasharray="4 4"/>
<path d="M249.303 332.247L153.616 281.588L305.921 260.766L401.608 311.412L249.303 332.247Z" fill="#F9FAFB" fill-opacity="0.6" stroke="#9AA2AC" stroke-linejoin="round" stroke-dasharray="4 4"/>
<path d="M249.241 332.199L248.992 345.409L96.687 366.231L96.936 353.034L249.241 332.199Z" fill="#F9FAFB" fill-opacity="0.6" stroke="#9AA2AC" stroke-linejoin="round" stroke-dasharray="4 4"/>
<path d="M96.687 366.228L1 315.581L1.24902 302.371L96.936 353.031L96.687 366.228Z" fill="#F9FAFB" fill-opacity="0.6" stroke="#9AA2AC" stroke-linejoin="round" stroke-dasharray="4 4"/>
<path d="M96.9365 353.033L1.24951 302.373L153.555 281.551L249.241 332.197L96.9365 353.033Z" fill="#F9FAFB" fill-opacity="0.6" stroke="#9AA2AC" stroke-linejoin="round" stroke-dasharray="4 4"/>
<path d="M1865.99 173.715L1865.74 186.925L1713.43 207.747L1713.68 194.55L1865.99 173.715Z" fill="#F9FAFB" fill-opacity="0.6" stroke="#9AA2AC" stroke-linejoin="round" stroke-dasharray="4 4"/>
<path d="M1713.43 207.743L1617.74 157.097L1617.99 143.887L1713.68 194.546L1713.43 207.743Z" fill="#F9FAFB" fill-opacity="0.6" stroke="#9AA2AC" stroke-linejoin="round" stroke-dasharray="4 4"/>
<path d="M1713.68 194.548L1617.99 143.889L1770.3 123.066L1865.99 173.713L1713.68 194.548Z" fill="#F9FAFB" fill-opacity="0.6" stroke="#9AA2AC" stroke-linejoin="round" stroke-dasharray="4 4"/>
<path d="M1714.09 194.719L1713.84 207.929L1561.53 228.751L1561.78 215.554L1714.09 194.719Z" fill="#F9FAFB" fill-opacity="0.6" stroke="#9AA2AC" stroke-linejoin="round" stroke-dasharray="4 4"/>
<path d="M1561.53 228.747L1465.85 178.101L1466.09 164.891L1561.78 215.55L1561.53 228.747Z" fill="#F9FAFB" fill-opacity="0.6" stroke="#9AA2AC" stroke-linejoin="round" stroke-dasharray="4 4"/>
<path d="M1561.78 215.552L1466.09 164.893L1618.4 144.07L1714.09 194.717L1561.78 215.552Z" fill="#F9FAFB" fill-opacity="0.6" stroke="#9AA2AC" stroke-linejoin="round" stroke-dasharray="4 4"/>
<path d="M1562.19 215.734L1561.94 228.944L1409.63 249.767L1409.88 236.569L1562.19 215.734Z" fill="#F9FAFB" fill-opacity="0.6" stroke="#9AA2AC" stroke-linejoin="round" stroke-dasharray="4 4"/>
<path d="M1409.63 249.763L1313.95 199.116L1314.19 185.906L1409.88 236.566L1409.63 249.763Z" fill="#F9FAFB" fill-opacity="0.6" stroke="#9AA2AC" stroke-linejoin="round" stroke-dasharray="4 4"/>
<path d="M1409.88 236.568L1314.2 185.908L1466.5 165.086L1562.19 215.733L1409.88 236.568Z" fill="#F9FAFB" fill-opacity="0.6" stroke="#9AA2AC" stroke-linejoin="round" stroke-dasharray="4 4"/>
<path d="M1410.29 236.742L1410.04 249.952L1257.73 270.774L1257.98 257.577L1410.29 236.742Z" fill="#F9FAFB" fill-opacity="0.6" stroke="#9AA2AC" stroke-linejoin="round" stroke-dasharray="4 4"/>
<path d="M1257.73 270.771L1162.05 220.124L1162.29 206.914L1257.98 257.574L1257.73 270.771Z" fill="#F9FAFB" fill-opacity="0.6" stroke="#9AA2AC" stroke-linejoin="round" stroke-dasharray="4 4"/>
<path d="M1257.98 257.575L1162.3 206.916L1314.6 186.094L1410.29 236.74L1257.98 257.575Z" fill="#F9FAFB" fill-opacity="0.6" stroke="#9AA2AC" stroke-linejoin="round" stroke-dasharray="4 4"/>
<path d="M1258.39 257.754L1258.14 270.964L1105.83 291.786L1106.08 278.589L1258.39 257.754Z" fill="#F9FAFB" fill-opacity="0.6" stroke="#9AA2AC" stroke-linejoin="round" stroke-dasharray="4 4"/>
<path d="M1105.83 291.782L1010.15 241.136L1010.4 227.926L1106.08 278.585L1105.83 291.782Z" fill="#F9FAFB" fill-opacity="0.6" stroke="#9AA2AC" stroke-linejoin="round" stroke-dasharray="4 4"/>
<path d="M1106.08 278.587L1010.4 227.928L1162.7 207.105L1258.39 257.752L1106.08 278.587Z" fill="#F9FAFB" fill-opacity="0.6" stroke="#9AA2AC" stroke-linejoin="round" stroke-dasharray="4 4"/>
<path d="M1106.49 278.766L1106.24 291.976L953.935 312.798L954.184 299.601L1106.49 278.766Z" fill="#F9FAFB" fill-opacity="0.6" stroke="#9AA2AC" stroke-linejoin="round" stroke-dasharray="4 4"/>
<path d="M953.935 312.794L858.248 262.147L858.497 248.938L954.184 299.597L953.935 312.794Z" fill="#F9FAFB" fill-opacity="0.6" stroke="#9AA2AC" stroke-linejoin="round" stroke-dasharray="4 4"/>
<path d="M954.184 299.599L858.497 248.939L1010.8 228.117L1106.49 278.764L954.184 299.599Z" fill="#F9FAFB" fill-opacity="0.6" stroke="#9AA2AC" stroke-linejoin="round" stroke-dasharray="4 4"/>
<path d="M954.06 299.465L953.811 312.675L801.506 333.497L801.755 320.3L954.06 299.465Z" fill="#F9FAFB" fill-opacity="0.6" stroke="#9AA2AC" stroke-linejoin="round" stroke-dasharray="4 4"/>
<path d="M801.507 333.493L705.82 282.847L706.069 269.637L801.756 320.296L801.507 333.493Z" fill="#F9FAFB" fill-opacity="0.6" stroke="#9AA2AC" stroke-linejoin="round" stroke-dasharray="4 4"/>
<path d="M801.755 320.298L706.068 269.639L858.373 248.816L954.06 299.463L801.755 320.298Z" fill="#F9FAFB" fill-opacity="0.6" stroke="#9AA2AC" stroke-linejoin="round" stroke-dasharray="4 4"/>
<path d="M801.526 320.172L801.277 333.382L648.972 354.204L649.221 341.007L801.526 320.172Z" fill="#F9FAFB" fill-opacity="0.6" stroke="#9AA2AC" stroke-linejoin="round" stroke-dasharray="4 4"/>
<path d="M648.972 354.2L553.285 303.554L553.534 290.344L649.221 341.003L648.972 354.2Z" fill="#F9FAFB" fill-opacity="0.6" stroke="#9AA2AC" stroke-linejoin="round" stroke-dasharray="4 4"/>
<path d="M649.221 341.005L553.534 290.346L705.839 269.523L801.526 320.17L649.221 341.005Z" fill="#F9FAFB" fill-opacity="0.6" stroke="#9AA2AC" stroke-linejoin="round" stroke-dasharray="4 4"/>
<path d="M649.372 340.91L649.123 354.12L496.818 374.942L497.067 361.745L649.372 340.91Z" fill="#F9FAFB" fill-opacity="0.6" stroke="#9AA2AC" stroke-linejoin="round" stroke-dasharray="4 4"/>
<path d="M496.809 374.939L401.122 324.292L401.371 311.082L497.058 361.741L496.809 374.939Z" fill="#F9FAFB" fill-opacity="0.6" stroke="#9AA2AC" stroke-linejoin="round" stroke-dasharray="4 4"/>
<path d="M497.058 361.743L401.371 311.084L553.676 290.262L649.363 340.908L497.058 361.743Z" fill="#F9FAFB" fill-opacity="0.6" stroke="#9AA2AC" stroke-linejoin="round" stroke-dasharray="4 4"/>
<path d="M497.199 361.949L496.95 375.159L344.645 395.981L344.894 382.784L497.199 361.949Z" fill="#F9FAFB" fill-opacity="0.6" stroke="#9AA2AC" stroke-linejoin="round" stroke-dasharray="4 4"/>
<path d="M344.645 395.978L248.958 345.331L249.207 332.121L344.894 382.781L344.645 395.978Z" fill="#F9FAFB" fill-opacity="0.6" stroke="#9AA2AC" stroke-linejoin="round" stroke-dasharray="4 4"/>
<path d="M344.895 382.783L249.208 332.123L401.513 311.301L497.199 361.947L344.895 382.783Z" fill="#F9FAFB" fill-opacity="0.6" stroke="#9AA2AC" stroke-linejoin="round" stroke-dasharray="4 4"/>
<path d="M344.835 382.73L344.586 395.94L192.281 416.763L192.53 403.565L344.835 382.73Z" fill="#F9FAFB" fill-opacity="0.6" stroke="#9AA2AC" stroke-linejoin="round" stroke-dasharray="4 4"/>
<path d="M192.281 416.759L96.5942 366.112L96.8433 352.902L192.53 403.562L192.281 416.759Z" fill="#F9FAFB" fill-opacity="0.6" stroke="#9AA2AC" stroke-linejoin="round" stroke-dasharray="4 4"/>
<path d="M192.531 403.564L96.8438 352.904L249.149 332.082L344.836 382.729L192.531 403.564Z" fill="#F9FAFB" fill-opacity="0.6" stroke="#9AA2AC" stroke-linejoin="round" stroke-dasharray="4 4"/>
<path d="M1809.68 245.246L1809.43 258.456L1657.13 279.278L1657.38 266.081L1809.68 245.246Z" fill="#F9FAFB" fill-opacity="0.6" stroke="#9AA2AC" stroke-linejoin="round" stroke-dasharray="4 4"/>
<path d="M1657.13 279.275L1561.44 228.628L1561.69 215.418L1657.38 266.077L1657.13 279.275Z" fill="#F9FAFB" fill-opacity="0.6" stroke="#9AA2AC" stroke-linejoin="round" stroke-dasharray="4 4"/>
<path d="M1657.38 266.079L1561.69 215.42L1713.99 194.598L1809.68 245.244L1657.38 266.079Z" fill="#F9FAFB" fill-opacity="0.6" stroke="#9AA2AC" stroke-linejoin="round" stroke-dasharray="4 4"/>
<path d="M1657.78 266.273L1657.53 279.483L1505.23 300.306L1505.47 287.108L1657.78 266.273Z" fill="#F9FAFB" fill-opacity="0.6" stroke="#9AA2AC" stroke-linejoin="round" stroke-dasharray="4 4"/>
<path d="M1505.23 300.302L1409.54 249.655L1409.79 236.445L1505.48 287.105L1505.23 300.302Z" fill="#F9FAFB" fill-opacity="0.6" stroke="#9AA2AC" stroke-linejoin="round" stroke-dasharray="4 4"/>
<path d="M1505.48 287.107L1409.79 236.447L1562.09 215.625L1657.78 266.272L1505.48 287.107Z" fill="#F9FAFB" fill-opacity="0.6" stroke="#9AA2AC" stroke-linejoin="round" stroke-dasharray="4 4"/>
<path d="M1505.88 287.277L1505.63 300.487L1353.33 321.31L1353.58 308.112L1505.88 287.277Z" fill="#F9FAFB" fill-opacity="0.6" stroke="#9AA2AC" stroke-linejoin="round" stroke-dasharray="4 4"/>
<path d="M1353.33 321.306L1257.64 270.659L1257.89 257.449L1353.58 308.109L1353.33 321.306Z" fill="#F9FAFB" fill-opacity="0.6" stroke="#9AA2AC" stroke-linejoin="round" stroke-dasharray="4 4"/>
<path d="M1353.58 308.111L1257.89 257.451L1410.19 236.629L1505.88 287.276L1353.58 308.111Z" fill="#F9FAFB" fill-opacity="0.6" stroke="#9AA2AC" stroke-linejoin="round" stroke-dasharray="4 4"/>
<path d="M1353.98 308.281L1353.73 321.491L1201.43 342.313L1201.68 329.116L1353.98 308.281Z" fill="#F9FAFB" fill-opacity="0.6" stroke="#9AA2AC" stroke-linejoin="round" stroke-dasharray="4 4"/>
<path d="M1201.43 342.31L1105.74 291.663L1105.99 278.453L1201.68 329.113L1201.43 342.31Z" fill="#F9FAFB" fill-opacity="0.6" stroke="#9AA2AC" stroke-linejoin="round" stroke-dasharray="4 4"/>
<path d="M1201.68 329.115L1105.99 278.455L1258.29 257.633L1353.98 308.28L1201.68 329.115Z" fill="#F9FAFB" fill-opacity="0.6" stroke="#9AA2AC" stroke-linejoin="round" stroke-dasharray="4 4"/>
<path d="M1202.08 329.301L1201.83 342.511L1049.53 363.333L1049.78 350.136L1202.08 329.301Z" fill="#F9FAFB" fill-opacity="0.6" stroke="#9AA2AC" stroke-linejoin="round" stroke-dasharray="4 4"/>
<path d="M1049.53 363.329L953.842 312.683L954.091 299.473L1049.78 350.132L1049.53 363.329Z" fill="#F9FAFB" fill-opacity="0.6" stroke="#9AA2AC" stroke-linejoin="round" stroke-dasharray="4 4"/>
<path d="M1049.78 350.134L954.092 299.475L1106.4 278.652L1202.08 329.299L1049.78 350.134Z" fill="#F9FAFB" fill-opacity="0.6" stroke="#9AA2AC" stroke-linejoin="round" stroke-dasharray="4 4"/>
<path d="M1049.66 349.996L1049.41 363.206L897.101 384.028L897.35 370.831L1049.66 349.996Z" fill="#F9FAFB" fill-opacity="0.6" stroke="#9AA2AC" stroke-linejoin="round" stroke-dasharray="4 4"/>
<path d="M897.101 384.025L801.414 333.378L801.663 320.168L897.35 370.827L897.101 384.025Z" fill="#F9FAFB" fill-opacity="0.6" stroke="#9AA2AC" stroke-linejoin="round" stroke-dasharray="4 4"/>
<path d="M897.351 370.829L801.664 320.17L953.969 299.348L1049.66 349.994L897.351 370.829Z" fill="#F9FAFB" fill-opacity="0.6" stroke="#9AA2AC" stroke-linejoin="round" stroke-dasharray="4 4"/>
<path d="M897.119 370.691L896.87 383.901L744.565 404.724L744.814 391.526L897.119 370.691Z" fill="#F9FAFB" fill-opacity="0.6" stroke="#9AA2AC" stroke-linejoin="round" stroke-dasharray="4 4"/>
<path d="M744.565 404.72L648.878 354.073L649.127 340.863L744.814 391.523L744.565 404.72Z" fill="#F9FAFB" fill-opacity="0.6" stroke="#9AA2AC" stroke-linejoin="round" stroke-dasharray="4 4"/>
<path d="M744.814 391.525L649.127 340.865L801.432 320.043L897.119 370.69L744.814 391.525Z" fill="#F9FAFB" fill-opacity="0.6" stroke="#9AA2AC" stroke-linejoin="round" stroke-dasharray="4 4"/>
<path d="M744.963 391.434L744.714 404.644L592.409 425.466L592.658 412.269L744.963 391.434Z" fill="#F9FAFB" fill-opacity="0.6" stroke="#9AA2AC" stroke-linejoin="round" stroke-dasharray="4 4"/>
<path d="M592.4 425.462L496.713 374.815L496.962 361.605L592.649 412.265L592.4 425.462Z" fill="#F9FAFB" fill-opacity="0.6" stroke="#9AA2AC" stroke-linejoin="round" stroke-dasharray="4 4"/>
<path d="M592.649 412.267L496.962 361.607L649.267 340.785L744.954 391.432L592.649 412.267Z" fill="#F9FAFB" fill-opacity="0.6" stroke="#9AA2AC" stroke-linejoin="round" stroke-dasharray="4 4"/>
<path d="M592.792 412.477L592.543 425.687L440.238 446.509L440.487 433.312L592.792 412.477Z" fill="#F9FAFB" fill-opacity="0.6" stroke="#9AA2AC" stroke-linejoin="round" stroke-dasharray="4 4"/>
<path d="M440.239 446.505L344.552 395.858L344.801 382.648L440.488 433.308L440.239 446.505Z" fill="#F9FAFB" fill-opacity="0.6" stroke="#9AA2AC" stroke-linejoin="round" stroke-dasharray="4 4"/>
<path d="M440.489 433.31L344.802 382.65L497.107 361.828L592.794 412.475L440.489 433.31Z" fill="#F9FAFB" fill-opacity="0.6" stroke="#9AA2AC" stroke-linejoin="round" stroke-dasharray="4 4"/>
<path d="M440.428 433.27L440.179 446.479L287.874 467.302L288.123 454.105L440.428 433.27Z" fill="#F9FAFB" fill-opacity="0.6" stroke="#9AA2AC" stroke-linejoin="round" stroke-dasharray="4 4"/>
<path d="M287.874 467.298L192.187 416.651L192.436 403.441L288.123 454.101L287.874 467.298Z" fill="#F9FAFB" fill-opacity="0.6" stroke="#9AA2AC" stroke-linejoin="round" stroke-dasharray="4 4"/>
<path d="M288.124 454.103L192.437 403.443L344.742 382.621L440.428 433.268L288.124 454.103Z" fill="#F9FAFB" fill-opacity="0.6" stroke="#9AA2AC" stroke-linejoin="round" stroke-dasharray="4 4"/>
<path d="M288 453.969L287.751 467.179L135.446 488.001L135.695 474.804L288 453.969Z" fill="#F9FAFB" fill-opacity="0.6" stroke="#9AA2AC" stroke-linejoin="round" stroke-dasharray="4 4"/>
<path d="M135.446 487.997L39.7593 437.351L40.0083 424.141L135.695 474.8L135.446 487.997Z" fill="#F9FAFB" fill-opacity="0.6" stroke="#9AA2AC" stroke-linejoin="round" stroke-dasharray="4 4"/>
<path d="M135.696 474.802L40.0088 424.143L192.314 403.32L288.001 453.967L135.696 474.802Z" fill="#F9FAFB" fill-opacity="0.6" stroke="#9AA2AC" stroke-linejoin="round" stroke-dasharray="4 4"/>
<path d="M1905.27 295.789L1905.02 308.999L1752.72 329.821L1752.97 316.624L1905.27 295.789Z" fill="#F9FAFB" fill-opacity="0.6" stroke="#9AA2AC" stroke-linejoin="round" stroke-dasharray="4 4"/>
<path d="M1752.72 329.818L1657.03 279.171L1657.28 265.961L1752.97 316.62L1752.72 329.818Z" fill="#F9FAFB" fill-opacity="0.6" stroke="#9AA2AC" stroke-linejoin="round" stroke-dasharray="4 4"/>
<path d="M1752.97 316.622L1657.28 265.963L1809.59 245.141L1905.27 295.787L1752.97 316.622Z" fill="#F9FAFB" fill-opacity="0.6" stroke="#9AA2AC" stroke-linejoin="round" stroke-dasharray="4 4"/>
<path d="M1753.37 316.805L1753.12 330.015L1600.82 350.837L1601.07 337.64L1753.37 316.805Z" fill="#F9FAFB" fill-opacity="0.6" stroke="#9AA2AC" stroke-linejoin="round" stroke-dasharray="4 4"/>
<path d="M1600.82 350.833L1505.13 300.187L1505.38 286.977L1601.07 337.636L1600.82 350.833Z" fill="#F9FAFB" fill-opacity="0.6" stroke="#9AA2AC" stroke-linejoin="round" stroke-dasharray="4 4"/>
<path d="M1601.07 337.638L1505.38 286.979L1657.69 266.156L1753.37 316.803L1601.07 337.638Z" fill="#F9FAFB" fill-opacity="0.6" stroke="#9AA2AC" stroke-linejoin="round" stroke-dasharray="4 4"/>
<path d="M1848.97 367.332L1848.72 380.542L1696.41 401.364L1696.66 388.167L1848.97 367.332Z" fill="#F9FAFB" fill-opacity="0.6" stroke="#9AA2AC" stroke-linejoin="round" stroke-dasharray="4 4"/>
<path d="M1696.41 401.361L1600.73 350.714L1600.97 337.504L1696.66 388.163L1696.41 401.361Z" fill="#F9FAFB" fill-opacity="0.6" stroke="#9AA2AC" stroke-linejoin="round" stroke-dasharray="4 4"/>
<path d="M1696.66 388.165L1600.97 337.506L1753.28 316.684L1848.97 367.33L1696.66 388.165Z" fill="#F9FAFB" fill-opacity="0.6" stroke="#9AA2AC" stroke-linejoin="round" stroke-dasharray="4 4"/>
<path d="M1944.76 417.777L1944.51 430.987L1792.21 451.81L1792.46 438.612L1944.76 417.777Z" fill="#F9FAFB" fill-opacity="0.6" stroke="#9AA2AC" stroke-linejoin="round" stroke-dasharray="4 4"/>
<path d="M1792.21 451.806L1696.52 401.159L1696.77 387.949L1792.46 438.609L1792.21 451.806Z" fill="#F9FAFB" fill-opacity="0.6" stroke="#9AA2AC" stroke-linejoin="round" stroke-dasharray="4 4"/>
<path d="M1792.46 438.611L1696.77 387.951L1849.08 367.129L1944.76 417.776L1792.46 438.611Z" fill="#F9FAFB" fill-opacity="0.6" stroke="#9AA2AC" stroke-linejoin="round" stroke-dasharray="4 4"/>
<path d="M1601.47 337.809L1601.23 351.019L1448.92 371.841L1449.17 358.644L1601.47 337.809Z" fill="#F9FAFB" fill-opacity="0.6" stroke="#9AA2AC" stroke-linejoin="round" stroke-dasharray="4 4"/>
<path d="M1448.92 371.837L1353.23 321.19L1353.48 307.98L1449.17 358.64L1448.92 371.837Z" fill="#F9FAFB" fill-opacity="0.6" stroke="#9AA2AC" stroke-linejoin="round" stroke-dasharray="4 4"/>
<path d="M1449.17 358.642L1353.48 307.982L1505.79 287.16L1601.48 337.807L1449.17 358.642Z" fill="#F9FAFB" fill-opacity="0.6" stroke="#9AA2AC" stroke-linejoin="round" stroke-dasharray="4 4"/>
<path d="M1697.07 388.336L1696.82 401.546L1544.51 422.368L1544.76 409.171L1697.07 388.336Z" fill="#F9FAFB" fill-opacity="0.6" stroke="#9AA2AC" stroke-linejoin="round" stroke-dasharray="4 4"/>
<path d="M1544.51 422.364L1448.83 371.718L1449.08 358.508L1544.76 409.167L1544.51 422.364Z" fill="#F9FAFB" fill-opacity="0.6" stroke="#9AA2AC" stroke-linejoin="round" stroke-dasharray="4 4"/>
<path d="M1544.76 409.169L1449.08 358.51L1601.38 337.688L1697.07 388.334L1544.76 409.169Z" fill="#F9FAFB" fill-opacity="0.6" stroke="#9AA2AC" stroke-linejoin="round" stroke-dasharray="4 4"/>
<path d="M1792.86 438.797L1792.61 452.007L1640.31 472.829L1640.56 459.632L1792.86 438.797Z" fill="#F9FAFB" fill-opacity="0.6" stroke="#9AA2AC" stroke-linejoin="round" stroke-dasharray="4 4"/>
<path d="M1640.31 472.822L1544.62 422.175L1544.87 408.965L1640.56 459.624L1640.31 472.822Z" fill="#F9FAFB" fill-opacity="0.6" stroke="#9AA2AC" stroke-linejoin="round" stroke-dasharray="4 4"/>
<path d="M1640.56 459.626L1544.87 408.967L1697.17 388.145L1792.86 438.791L1640.56 459.626Z" fill="#F9FAFB" fill-opacity="0.6" stroke="#9AA2AC" stroke-linejoin="round" stroke-dasharray="4 4"/>
<path d="M1449.57 358.816L1449.33 372.026L1297.02 392.849L1297.27 379.651L1449.57 358.816Z" fill="#F9FAFB" fill-opacity="0.6" stroke="#9AA2AC" stroke-linejoin="round" stroke-dasharray="4 4"/>
<path d="M1297.02 392.845L1201.33 342.198L1201.58 328.988L1297.27 379.648L1297.02 392.845Z" fill="#F9FAFB" fill-opacity="0.6" stroke="#9AA2AC" stroke-linejoin="round" stroke-dasharray="4 4"/>
<path d="M1297.27 379.65L1201.58 328.99L1353.89 308.168L1449.57 358.815L1297.27 379.65Z" fill="#F9FAFB" fill-opacity="0.6" stroke="#9AA2AC" stroke-linejoin="round" stroke-dasharray="4 4"/>
<path d="M1545.17 409.352L1544.92 422.562L1392.61 443.384L1392.86 430.187L1545.17 409.352Z" fill="#F9FAFB" fill-opacity="0.6" stroke="#9AA2AC" stroke-linejoin="round" stroke-dasharray="4 4"/>
<path d="M1392.61 443.38L1296.93 392.733L1297.18 379.523L1392.86 430.183L1392.61 443.38Z" fill="#F9FAFB" fill-opacity="0.6" stroke="#9AA2AC" stroke-linejoin="round" stroke-dasharray="4 4"/>
<path d="M1392.86 430.185L1297.18 379.525L1449.48 358.703L1545.17 409.35L1392.86 430.185Z" fill="#F9FAFB" fill-opacity="0.6" stroke="#9AA2AC" stroke-linejoin="round" stroke-dasharray="4 4"/>
<path d="M1297.68 379.832L1297.43 393.042L1145.12 413.864L1145.37 400.667L1297.68 379.832Z" fill="#F9FAFB" fill-opacity="0.6" stroke="#9AA2AC" stroke-linejoin="round" stroke-dasharray="4 4"/>
<path d="M1145.12 413.861L1049.44 363.214L1049.68 350.004L1145.37 400.663L1145.12 413.861Z" fill="#F9FAFB" fill-opacity="0.6" stroke="#9AA2AC" stroke-linejoin="round" stroke-dasharray="4 4"/>
<path d="M1145.37 400.665L1049.68 350.006L1201.99 329.184L1297.68 379.83L1145.37 400.665Z" fill="#F9FAFB" fill-opacity="0.6" stroke="#9AA2AC" stroke-linejoin="round" stroke-dasharray="4 4"/>
<path d="M1145.25 400.531L1145 413.741L992.693 434.563L992.942 421.366L1145.25 400.531Z" fill="#F9FAFB" fill-opacity="0.6" stroke="#9AA2AC" stroke-linejoin="round" stroke-dasharray="4 4"/>
<path d="M992.693 434.56L897.006 383.913L897.255 370.703L992.942 421.363L992.693 434.56Z" fill="#F9FAFB" fill-opacity="0.6" stroke="#9AA2AC" stroke-linejoin="round" stroke-dasharray="4 4"/>
<path d="M992.943 421.365L897.256 370.705L1049.56 349.883L1145.25 400.53L992.943 421.365Z" fill="#F9FAFB" fill-opacity="0.6" stroke="#9AA2AC" stroke-linejoin="round" stroke-dasharray="4 4"/>
<path d="M992.713 421.223L992.464 434.433L840.159 455.255L840.408 442.058L992.713 421.223Z" fill="#F9FAFB" fill-opacity="0.6" stroke="#9AA2AC" stroke-linejoin="round" stroke-dasharray="4 4"/>
<path d="M840.16 455.251L744.473 404.604L744.722 391.395L840.409 442.054L840.16 455.251Z" fill="#F9FAFB" fill-opacity="0.6" stroke="#9AA2AC" stroke-linejoin="round" stroke-dasharray="4 4"/>
<path d="M840.408 442.056L744.721 391.396L897.026 370.574L992.713 421.221L840.408 442.056Z" fill="#F9FAFB" fill-opacity="0.6" stroke="#9AA2AC" stroke-linejoin="round" stroke-dasharray="4 4"/>
</g>
</svg>
