<svg width="87" height="120" viewBox="0 0 87 120" fill="none" xmlns="http://www.w3.org/2000/svg">
<path d="M42.944 118.948C66.0702 118.948 84.8177 112.987 84.8177 105.634C84.8177 98.2803 66.0702 92.3193 42.944 92.3193C19.8178 92.3193 1.07031 98.2803 1.07031 105.634C1.07031 112.987 19.8178 118.948 42.944 118.948Z" fill="black" stroke="black" stroke-miterlimit="10"/>
<path d="M84.218 78.5541H84.2609L84.0681 78.189C83.9824 77.9958 83.8753 77.824 83.7682 77.6522L43.7366 2.25488L2.22699 77.4374H2.26983C1.52017 78.6615 1.0918 79.9285 1.0918 81.2384C1.0918 90.2578 19.8332 97.5591 42.9655 97.5591C66.0978 97.5591 84.8392 90.2578 84.8392 81.2384C84.8392 80.3365 84.6036 79.4346 84.2395 78.5756L84.218 78.5541Z" fill="#F3F5F7" stroke="black" stroke-miterlimit="10"/>
</svg>
