<svg width="1946" height="1017" viewBox="0 0 1946 1017" fill="none" xmlns="http://www.w3.org/2000/svg">
<g opacity="0.48">
<path d="M1826.7 52.7773L1826.45 66.2821L1674.14 87.569L1674.39 74.0773L1826.7 52.7773Z" fill="#F9FAFB" fill-opacity="0.6" stroke="#9AA2AC" stroke-linejoin="round" stroke-dasharray="4 4"/>
<path d="M1674.14 87.5648L1578.46 35.788L1578.71 22.2832L1674.39 74.0731L1674.14 87.5648Z" fill="#F9FAFB" fill-opacity="0.6" stroke="#9AA2AC" stroke-linejoin="round" stroke-dasharray="4 4"/>
<path d="M1674.39 74.0769L1578.71 22.2869L1731.01 1L1826.7 52.7769L1674.39 74.0769Z" fill="#F9FAFB" fill-opacity="0.6" stroke="#9AA2AC" stroke-linejoin="round" stroke-dasharray="4 4"/>
<path d="M1674.8 74.2578L1674.55 87.7626L1522.24 109.049L1522.49 95.5578L1674.8 74.2578Z" fill="#F9FAFB" fill-opacity="0.6" stroke="#9AA2AC" stroke-linejoin="round" stroke-dasharray="4 4"/>
<path d="M1522.24 109.045L1426.56 57.2684L1426.81 43.7637L1522.49 95.5536L1522.24 109.045Z" fill="#F9FAFB" fill-opacity="0.6" stroke="#9AA2AC" stroke-linejoin="round" stroke-dasharray="4 4"/>
<path d="M1522.49 95.5573L1426.81 43.7674L1579.11 22.4805L1674.8 74.2574L1522.49 95.5573Z" fill="#F9FAFB" fill-opacity="0.6" stroke="#9AA2AC" stroke-linejoin="round" stroke-dasharray="4 4"/>
<path d="M1522.9 95.7344L1522.65 109.239L1370.35 130.526L1370.59 117.034L1522.9 95.7344Z" fill="#F9FAFB" fill-opacity="0.6" stroke="#9AA2AC" stroke-linejoin="round" stroke-dasharray="4 4"/>
<path d="M1370.35 130.522L1274.66 78.745L1274.91 65.2402L1370.6 117.03L1370.35 130.522Z" fill="#F9FAFB" fill-opacity="0.6" stroke="#9AA2AC" stroke-linejoin="round" stroke-dasharray="4 4"/>
<path d="M1370.6 117.034L1274.91 65.244L1427.21 43.957L1522.9 95.7339L1370.6 117.034Z" fill="#F9FAFB" fill-opacity="0.6" stroke="#9AA2AC" stroke-linejoin="round" stroke-dasharray="4 4"/>
<path d="M1371 117.217L1370.75 130.722L1218.45 152.008L1218.69 138.517L1371 117.217Z" fill="#F9FAFB" fill-opacity="0.6" stroke="#9AA2AC" stroke-linejoin="round" stroke-dasharray="4 4"/>
<path d="M1218.45 152.004L1122.76 100.227L1123.01 86.7227L1218.69 138.513L1218.45 152.004Z" fill="#F9FAFB" fill-opacity="0.6" stroke="#9AA2AC" stroke-linejoin="round" stroke-dasharray="4 4"/>
<path d="M1218.69 138.516L1123.01 86.7264L1275.31 65.4395L1371 117.216L1218.69 138.516Z" fill="#F9FAFB" fill-opacity="0.6" stroke="#9AA2AC" stroke-linejoin="round" stroke-dasharray="4 4"/>
<path d="M1219.1 138.691L1218.85 152.196L1066.55 173.483L1066.79 159.991L1219.1 138.691Z" fill="#F9FAFB" fill-opacity="0.6" stroke="#9AA2AC" stroke-linejoin="round" stroke-dasharray="4 4"/>
<path d="M1066.55 173.479L970.859 121.702L971.108 108.197L1066.8 159.987L1066.55 173.479Z" fill="#F9FAFB" fill-opacity="0.6" stroke="#9AA2AC" stroke-linejoin="round" stroke-dasharray="4 4"/>
<path d="M1066.8 159.991L971.109 108.201L1123.41 86.9141L1219.1 138.691L1066.8 159.991Z" fill="#F9FAFB" fill-opacity="0.6" stroke="#9AA2AC" stroke-linejoin="round" stroke-dasharray="4 4"/>
<path d="M1067.2 160.168L1066.95 173.673L914.647 194.96L914.896 181.468L1067.2 160.168Z" fill="#F9FAFB" fill-opacity="0.6" stroke="#9AA2AC" stroke-linejoin="round" stroke-dasharray="4 4"/>
<path d="M914.648 194.955L818.961 143.179L819.21 129.674L914.897 181.464L914.648 194.955Z" fill="#F9FAFB" fill-opacity="0.6" stroke="#9AA2AC" stroke-linejoin="round" stroke-dasharray="4 4"/>
<path d="M914.898 181.467L819.211 129.678L971.516 108.391L1067.2 160.168L914.898 181.467Z" fill="#F9FAFB" fill-opacity="0.6" stroke="#9AA2AC" stroke-linejoin="round" stroke-dasharray="4 4"/>
<path d="M915.301 181.65L915.052 195.155L762.747 216.442L762.996 202.95L915.301 181.65Z" fill="#F9FAFB" fill-opacity="0.6" stroke="#9AA2AC" stroke-linejoin="round" stroke-dasharray="4 4"/>
<path d="M762.748 216.438L667.061 164.661L667.31 151.156L762.997 202.946L762.748 216.438Z" fill="#F9FAFB" fill-opacity="0.6" stroke="#9AA2AC" stroke-linejoin="round" stroke-dasharray="4 4"/>
<path d="M762.997 202.95L667.31 151.16L819.615 129.873L915.302 181.65L762.997 202.95Z" fill="#F9FAFB" fill-opacity="0.6" stroke="#9AA2AC" stroke-linejoin="round" stroke-dasharray="4 4"/>
<path d="M762.872 202.807L762.623 216.311L610.318 237.598L610.567 224.107L762.872 202.807Z" fill="#F9FAFB" fill-opacity="0.6" stroke="#9AA2AC" stroke-linejoin="round" stroke-dasharray="4 4"/>
<path d="M610.32 237.594L514.633 185.817L514.882 172.312L610.569 224.102L610.32 237.594Z" fill="#F9FAFB" fill-opacity="0.6" stroke="#9AA2AC" stroke-linejoin="round" stroke-dasharray="4 4"/>
<path d="M610.569 224.106L514.882 172.316L667.187 151.029L762.874 202.806L610.569 224.106Z" fill="#F9FAFB" fill-opacity="0.6" stroke="#9AA2AC" stroke-linejoin="round" stroke-dasharray="4 4"/>
<path d="M610.339 223.971L610.09 237.475L457.785 258.762L458.034 245.271L610.339 223.971Z" fill="#F9FAFB" fill-opacity="0.6" stroke="#9AA2AC" stroke-linejoin="round" stroke-dasharray="4 4"/>
<path d="M457.786 258.758L362.099 206.981L362.348 193.477L458.035 245.266L457.786 258.758Z" fill="#F9FAFB" fill-opacity="0.6" stroke="#9AA2AC" stroke-linejoin="round" stroke-dasharray="4 4"/>
<path d="M458.035 245.27L362.348 193.48L514.653 172.193L610.34 223.97L458.035 245.27Z" fill="#F9FAFB" fill-opacity="0.6" stroke="#9AA2AC" stroke-linejoin="round" stroke-dasharray="4 4"/>
<path d="M458.185 245.172L457.936 258.677L305.631 279.964L305.88 266.472L458.185 245.172Z" fill="#F9FAFB" fill-opacity="0.6" stroke="#9AA2AC" stroke-linejoin="round" stroke-dasharray="4 4"/>
<path d="M305.622 279.959L209.935 228.182L210.184 214.678L305.871 266.468L305.622 279.959Z" fill="#F9FAFB" fill-opacity="0.6" stroke="#9AA2AC" stroke-linejoin="round" stroke-dasharray="4 4"/>
<path d="M305.871 266.471L210.184 214.681L362.489 193.395L458.176 245.171L305.871 266.471Z" fill="#F9FAFB" fill-opacity="0.6" stroke="#9AA2AC" stroke-linejoin="round" stroke-dasharray="4 4"/>
<path d="M306.011 266.684L305.762 280.188L153.457 301.475L153.706 287.984L306.011 266.684Z" fill="#F9FAFB" fill-opacity="0.6" stroke="#9AA2AC" stroke-linejoin="round" stroke-dasharray="4 4"/>
<path d="M153.458 301.471L57.7705 249.694L58.0195 236.189L153.707 287.979L153.458 301.471Z" fill="#F9FAFB" fill-opacity="0.6" stroke="#9AA2AC" stroke-linejoin="round" stroke-dasharray="4 4"/>
<path d="M153.708 287.983L58.0205 236.193L210.325 214.906L306.012 266.683L153.708 287.983Z" fill="#F9FAFB" fill-opacity="0.6" stroke="#9AA2AC" stroke-linejoin="round" stroke-dasharray="4 4"/>
<path d="M1770.39 125.914L1770.14 139.419L1617.84 160.706L1618.09 147.214L1770.39 125.914Z" fill="#F9FAFB" fill-opacity="0.6" stroke="#9AA2AC" stroke-linejoin="round" stroke-dasharray="4 4"/>
<path d="M1617.84 160.702L1522.15 108.925L1522.4 95.4199L1618.09 147.21L1617.84 160.702Z" fill="#F9FAFB" fill-opacity="0.6" stroke="#9AA2AC" stroke-linejoin="round" stroke-dasharray="4 4"/>
<path d="M1618.09 147.214L1522.4 95.4237L1674.71 74.1367L1770.39 125.914L1618.09 147.214Z" fill="#F9FAFB" fill-opacity="0.6" stroke="#9AA2AC" stroke-linejoin="round" stroke-dasharray="4 4"/>
<path d="M1618.49 147.395L1618.24 160.899L1465.94 182.186L1466.19 168.694L1618.49 147.395Z" fill="#F9FAFB" fill-opacity="0.6" stroke="#9AA2AC" stroke-linejoin="round" stroke-dasharray="4 4"/>
<path d="M1465.94 182.182L1370.25 130.405L1370.5 116.9L1466.19 168.69L1465.94 182.182Z" fill="#F9FAFB" fill-opacity="0.6" stroke="#9AA2AC" stroke-linejoin="round" stroke-dasharray="4 4"/>
<path d="M1466.19 168.694L1370.5 116.904L1522.81 95.6172L1618.49 147.394L1466.19 168.694Z" fill="#F9FAFB" fill-opacity="0.6" stroke="#9AA2AC" stroke-linejoin="round" stroke-dasharray="4 4"/>
<path d="M1466.59 168.875L1466.34 182.38L1314.04 203.667L1314.29 190.175L1466.59 168.875Z" fill="#F9FAFB" fill-opacity="0.6" stroke="#9AA2AC" stroke-linejoin="round" stroke-dasharray="4 4"/>
<path d="M1314.04 203.662L1218.35 151.886L1218.6 138.381L1314.29 190.171L1314.04 203.662Z" fill="#F9FAFB" fill-opacity="0.6" stroke="#9AA2AC" stroke-linejoin="round" stroke-dasharray="4 4"/>
<path d="M1314.29 190.175L1218.6 138.385L1370.91 117.098L1466.59 168.875L1314.29 190.175Z" fill="#F9FAFB" fill-opacity="0.6" stroke="#9AA2AC" stroke-linejoin="round" stroke-dasharray="4 4"/>
<path d="M1314.69 190.344L1314.45 203.848L1162.14 225.135L1162.39 211.644L1314.69 190.344Z" fill="#F9FAFB" fill-opacity="0.6" stroke="#9AA2AC" stroke-linejoin="round" stroke-dasharray="4 4"/>
<path d="M1162.14 225.131L1066.45 173.354L1066.7 159.85L1162.39 211.64L1162.14 225.131Z" fill="#F9FAFB" fill-opacity="0.6" stroke="#9AA2AC" stroke-linejoin="round" stroke-dasharray="4 4"/>
<path d="M1162.39 211.643L1066.7 159.853L1219.01 138.566L1314.7 190.343L1162.39 211.643Z" fill="#F9FAFB" fill-opacity="0.6" stroke="#9AA2AC" stroke-linejoin="round" stroke-dasharray="4 4"/>
<path d="M1162.79 211.83L1162.55 225.335L1010.24 246.622L1010.49 233.13L1162.79 211.83Z" fill="#F9FAFB" fill-opacity="0.6" stroke="#9AA2AC" stroke-linejoin="round" stroke-dasharray="4 4"/>
<path d="M1010.24 246.618L914.554 194.841L914.803 181.336L1010.49 233.126L1010.24 246.618Z" fill="#F9FAFB" fill-opacity="0.6" stroke="#9AA2AC" stroke-linejoin="round" stroke-dasharray="4 4"/>
<path d="M1010.49 233.13L914.804 181.34L1067.11 160.053L1162.8 211.83L1010.49 233.13Z" fill="#F9FAFB" fill-opacity="0.6" stroke="#9AA2AC" stroke-linejoin="round" stroke-dasharray="4 4"/>
<path d="M1010.89 233.311L1010.65 246.815L858.341 268.102L858.59 254.611L1010.89 233.311Z" fill="#F9FAFB" fill-opacity="0.6" stroke="#9AA2AC" stroke-linejoin="round" stroke-dasharray="4 4"/>
<path d="M858.341 268.098L762.654 216.321L762.903 202.816L858.59 254.606L858.341 268.098Z" fill="#F9FAFB" fill-opacity="0.6" stroke="#9AA2AC" stroke-linejoin="round" stroke-dasharray="4 4"/>
<path d="M858.591 254.61L762.904 202.82L915.209 181.533L1010.9 233.31L858.591 254.61Z" fill="#F9FAFB" fill-opacity="0.6" stroke="#9AA2AC" stroke-linejoin="round" stroke-dasharray="4 4"/>
<path d="M858.465 254.465L858.216 267.97L705.911 289.257L706.16 275.765L858.465 254.465Z" fill="#F9FAFB" fill-opacity="0.6" stroke="#9AA2AC" stroke-linejoin="round" stroke-dasharray="4 4"/>
<path d="M705.913 289.252L610.226 237.475L610.475 223.971L706.162 275.761L705.913 289.252Z" fill="#F9FAFB" fill-opacity="0.6" stroke="#9AA2AC" stroke-linejoin="round" stroke-dasharray="4 4"/>
<path d="M706.161 275.764L610.474 223.974L762.779 202.688L858.466 254.464L706.161 275.764Z" fill="#F9FAFB" fill-opacity="0.6" stroke="#9AA2AC" stroke-linejoin="round" stroke-dasharray="4 4"/>
<path d="M705.933 275.629L705.684 289.134L553.379 310.421L553.628 296.929L705.933 275.629Z" fill="#F9FAFB" fill-opacity="0.6" stroke="#9AA2AC" stroke-linejoin="round" stroke-dasharray="4 4"/>
<path d="M553.379 310.416L457.692 258.64L457.941 245.135L553.628 296.925L553.379 310.416Z" fill="#F9FAFB" fill-opacity="0.6" stroke="#9AA2AC" stroke-linejoin="round" stroke-dasharray="4 4"/>
<path d="M553.628 296.928L457.941 245.138L610.246 223.852L705.933 275.628L553.628 296.928Z" fill="#F9FAFB" fill-opacity="0.6" stroke="#9AA2AC" stroke-linejoin="round" stroke-dasharray="4 4"/>
<path d="M553.778 296.822L553.529 310.327L401.224 331.614L401.473 318.122L553.778 296.822Z" fill="#F9FAFB" fill-opacity="0.6" stroke="#9AA2AC" stroke-linejoin="round" stroke-dasharray="4 4"/>
<path d="M401.214 331.61L305.527 279.833L305.776 266.328L401.463 318.118L401.214 331.61Z" fill="#F9FAFB" fill-opacity="0.6" stroke="#9AA2AC" stroke-linejoin="round" stroke-dasharray="4 4"/>
<path d="M401.463 318.122L305.776 266.332L458.081 245.045L553.768 296.822L401.463 318.122Z" fill="#F9FAFB" fill-opacity="0.6" stroke="#9AA2AC" stroke-linejoin="round" stroke-dasharray="4 4"/>
<path d="M401.606 318.342L401.357 331.847L249.052 353.133L249.301 339.642L401.606 318.342Z" fill="#F9FAFB" fill-opacity="0.6" stroke="#9AA2AC" stroke-linejoin="round" stroke-dasharray="4 4"/>
<path d="M249.053 353.129L153.366 301.352L153.615 287.848L249.302 339.638L249.053 353.129Z" fill="#F9FAFB" fill-opacity="0.6" stroke="#9AA2AC" stroke-linejoin="round" stroke-dasharray="4 4"/>
<path d="M249.302 339.641L153.615 287.851L305.92 266.564L401.607 318.341L249.302 339.641Z" fill="#F9FAFB" fill-opacity="0.6" stroke="#9AA2AC" stroke-linejoin="round" stroke-dasharray="4 4"/>
<path d="M249.241 339.59L248.992 353.095L96.6865 374.382L96.9355 360.89L249.241 339.59Z" fill="#F9FAFB" fill-opacity="0.6" stroke="#9AA2AC" stroke-linejoin="round" stroke-dasharray="4 4"/>
<path d="M96.687 374.377L1 322.6L1.24902 309.096L96.936 360.886L96.687 374.377Z" fill="#F9FAFB" fill-opacity="0.6" stroke="#9AA2AC" stroke-linejoin="round" stroke-dasharray="4 4"/>
<path d="M96.937 360.889L1.25 309.099L153.555 287.812L249.242 339.589L96.937 360.889Z" fill="#F9FAFB" fill-opacity="0.6" stroke="#9AA2AC" stroke-linejoin="round" stroke-dasharray="4 4"/>
<path d="M1865.99 177.568L1865.74 191.073L1713.43 212.36L1713.68 198.868L1865.99 177.568Z" fill="#F9FAFB" fill-opacity="0.6" stroke="#9AA2AC" stroke-linejoin="round" stroke-dasharray="4 4"/>
<path d="M1713.43 212.356L1617.74 160.579L1617.99 147.074L1713.68 198.864L1713.43 212.356Z" fill="#F9FAFB" fill-opacity="0.6" stroke="#9AA2AC" stroke-linejoin="round" stroke-dasharray="4 4"/>
<path d="M1713.68 198.868L1617.99 147.078L1770.3 125.791L1865.99 177.568L1713.68 198.868Z" fill="#F9FAFB" fill-opacity="0.6" stroke="#9AA2AC" stroke-linejoin="round" stroke-dasharray="4 4"/>
<path d="M1714.09 199.041L1713.84 212.546L1561.53 233.833L1561.78 220.341L1714.09 199.041Z" fill="#F9FAFB" fill-opacity="0.6" stroke="#9AA2AC" stroke-linejoin="round" stroke-dasharray="4 4"/>
<path d="M1561.53 233.829L1465.85 182.052L1466.09 168.547L1561.78 220.337L1561.53 233.829Z" fill="#F9FAFB" fill-opacity="0.6" stroke="#9AA2AC" stroke-linejoin="round" stroke-dasharray="4 4"/>
<path d="M1561.78 220.341L1466.09 168.551L1618.4 147.264L1714.09 199.041L1561.78 220.341Z" fill="#F9FAFB" fill-opacity="0.6" stroke="#9AA2AC" stroke-linejoin="round" stroke-dasharray="4 4"/>
<path d="M1562.19 220.525L1561.94 234.03L1409.63 255.317L1409.88 241.825L1562.19 220.525Z" fill="#F9FAFB" fill-opacity="0.6" stroke="#9AA2AC" stroke-linejoin="round" stroke-dasharray="4 4"/>
<path d="M1409.63 255.313L1313.95 203.536L1314.19 190.031L1409.88 241.821L1409.63 255.313Z" fill="#F9FAFB" fill-opacity="0.6" stroke="#9AA2AC" stroke-linejoin="round" stroke-dasharray="4 4"/>
<path d="M1409.88 241.825L1314.2 190.035L1466.5 168.748L1562.19 220.525L1409.88 241.825Z" fill="#F9FAFB" fill-opacity="0.6" stroke="#9AA2AC" stroke-linejoin="round" stroke-dasharray="4 4"/>
<path d="M1410.29 242.002L1410.04 255.507L1257.73 276.794L1257.98 263.302L1410.29 242.002Z" fill="#F9FAFB" fill-opacity="0.6" stroke="#9AA2AC" stroke-linejoin="round" stroke-dasharray="4 4"/>
<path d="M1257.73 276.789L1162.05 225.013L1162.29 211.508L1257.98 263.298L1257.73 276.789Z" fill="#F9FAFB" fill-opacity="0.6" stroke="#9AA2AC" stroke-linejoin="round" stroke-dasharray="4 4"/>
<path d="M1257.98 263.301L1162.3 211.512L1314.6 190.225L1410.29 242.002L1257.98 263.301Z" fill="#F9FAFB" fill-opacity="0.6" stroke="#9AA2AC" stroke-linejoin="round" stroke-dasharray="4 4"/>
<path d="M1258.39 263.48L1258.14 276.985L1105.83 298.272L1106.08 284.78L1258.39 263.48Z" fill="#F9FAFB" fill-opacity="0.6" stroke="#9AA2AC" stroke-linejoin="round" stroke-dasharray="4 4"/>
<path d="M1105.83 298.268L1010.15 246.491L1010.4 232.986L1106.08 284.776L1105.83 298.268Z" fill="#F9FAFB" fill-opacity="0.6" stroke="#9AA2AC" stroke-linejoin="round" stroke-dasharray="4 4"/>
<path d="M1106.08 284.78L1010.4 232.99L1162.7 211.703L1258.39 263.48L1106.08 284.78Z" fill="#F9FAFB" fill-opacity="0.6" stroke="#9AA2AC" stroke-linejoin="round" stroke-dasharray="4 4"/>
<path d="M1106.49 284.961L1106.24 298.466L953.935 319.753L954.184 306.261L1106.49 284.961Z" fill="#F9FAFB" fill-opacity="0.6" stroke="#9AA2AC" stroke-linejoin="round" stroke-dasharray="4 4"/>
<path d="M953.935 319.748L858.248 267.972L858.497 254.467L954.184 306.257L953.935 319.748Z" fill="#F9FAFB" fill-opacity="0.6" stroke="#9AA2AC" stroke-linejoin="round" stroke-dasharray="4 4"/>
<path d="M954.185 306.26L858.498 254.471L1010.8 233.184L1106.49 284.961L954.185 306.26Z" fill="#F9FAFB" fill-opacity="0.6" stroke="#9AA2AC" stroke-linejoin="round" stroke-dasharray="4 4"/>
<path d="M954.06 306.125L953.811 319.63L801.506 340.917L801.755 327.425L954.06 306.125Z" fill="#F9FAFB" fill-opacity="0.6" stroke="#9AA2AC" stroke-linejoin="round" stroke-dasharray="4 4"/>
<path d="M801.507 340.912L705.82 289.136L706.069 275.631L801.756 327.421L801.507 340.912Z" fill="#F9FAFB" fill-opacity="0.6" stroke="#9AA2AC" stroke-linejoin="round" stroke-dasharray="4 4"/>
<path d="M801.756 327.425L706.069 275.635L858.374 254.348L954.061 306.125L801.756 327.425Z" fill="#F9FAFB" fill-opacity="0.6" stroke="#9AA2AC" stroke-linejoin="round" stroke-dasharray="4 4"/>
<path d="M801.527 327.291L801.278 340.796L648.973 362.083L649.222 348.591L801.527 327.291Z" fill="#F9FAFB" fill-opacity="0.6" stroke="#9AA2AC" stroke-linejoin="round" stroke-dasharray="4 4"/>
<path d="M648.972 362.079L553.285 310.302L553.534 296.797L649.221 348.587L648.972 362.079Z" fill="#F9FAFB" fill-opacity="0.6" stroke="#9AA2AC" stroke-linejoin="round" stroke-dasharray="4 4"/>
<path d="M649.221 348.591L553.534 296.801L705.839 275.514L801.526 327.291L649.221 348.591Z" fill="#F9FAFB" fill-opacity="0.6" stroke="#9AA2AC" stroke-linejoin="round" stroke-dasharray="4 4"/>
<path d="M649.372 348.492L649.123 361.997L496.818 383.284L497.067 369.792L649.372 348.492Z" fill="#F9FAFB" fill-opacity="0.6" stroke="#9AA2AC" stroke-linejoin="round" stroke-dasharray="4 4"/>
<path d="M496.809 383.28L401.122 331.503L401.371 317.998L497.058 369.788L496.809 383.28Z" fill="#F9FAFB" fill-opacity="0.6" stroke="#9AA2AC" stroke-linejoin="round" stroke-dasharray="4 4"/>
<path d="M497.058 369.792L401.371 318.002L553.676 296.715L649.363 348.492L497.058 369.792Z" fill="#F9FAFB" fill-opacity="0.6" stroke="#9AA2AC" stroke-linejoin="round" stroke-dasharray="4 4"/>
<path d="M497.199 370L496.95 383.505L344.645 404.792L344.894 391.3L497.199 370Z" fill="#F9FAFB" fill-opacity="0.6" stroke="#9AA2AC" stroke-linejoin="round" stroke-dasharray="4 4"/>
<path d="M344.645 404.787L248.958 353.011L249.207 339.506L344.894 391.296L344.645 404.787Z" fill="#F9FAFB" fill-opacity="0.6" stroke="#9AA2AC" stroke-linejoin="round" stroke-dasharray="4 4"/>
<path d="M344.895 391.3L249.208 339.51L401.513 318.223L497.2 370L344.895 391.3Z" fill="#F9FAFB" fill-opacity="0.6" stroke="#9AA2AC" stroke-linejoin="round" stroke-dasharray="4 4"/>
<path d="M344.835 391.246L344.586 404.751L192.281 426.038L192.53 412.546L344.835 391.246Z" fill="#F9FAFB" fill-opacity="0.6" stroke="#9AA2AC" stroke-linejoin="round" stroke-dasharray="4 4"/>
<path d="M192.282 426.034L96.5947 374.257L96.8437 360.752L192.531 412.542L192.282 426.034Z" fill="#F9FAFB" fill-opacity="0.6" stroke="#9AA2AC" stroke-linejoin="round" stroke-dasharray="4 4"/>
<path d="M192.531 412.546L96.8438 360.756L249.149 339.469L344.836 391.246L192.531 412.546Z" fill="#F9FAFB" fill-opacity="0.6" stroke="#9AA2AC" stroke-linejoin="round" stroke-dasharray="4 4"/>
<path d="M1809.68 250.695L1809.43 264.2L1657.13 285.487L1657.38 271.995L1809.68 250.695Z" fill="#F9FAFB" fill-opacity="0.6" stroke="#9AA2AC" stroke-linejoin="round" stroke-dasharray="4 4"/>
<path d="M1657.13 285.483L1561.44 233.706L1561.69 220.201L1657.38 271.991L1657.13 285.483Z" fill="#F9FAFB" fill-opacity="0.6" stroke="#9AA2AC" stroke-linejoin="round" stroke-dasharray="4 4"/>
<path d="M1657.38 271.995L1561.69 220.205L1713.99 198.918L1809.68 250.695L1657.38 271.995Z" fill="#F9FAFB" fill-opacity="0.6" stroke="#9AA2AC" stroke-linejoin="round" stroke-dasharray="4 4"/>
<path d="M1657.78 272.191L1657.53 285.696L1505.23 306.983L1505.47 293.491L1657.78 272.191Z" fill="#F9FAFB" fill-opacity="0.6" stroke="#9AA2AC" stroke-linejoin="round" stroke-dasharray="4 4"/>
<path d="M1505.23 306.979L1409.54 255.202L1409.79 241.697L1505.48 293.487L1505.23 306.979Z" fill="#F9FAFB" fill-opacity="0.6" stroke="#9AA2AC" stroke-linejoin="round" stroke-dasharray="4 4"/>
<path d="M1505.48 293.491L1409.79 241.701L1562.09 220.414L1657.78 272.191L1505.48 293.491Z" fill="#F9FAFB" fill-opacity="0.6" stroke="#9AA2AC" stroke-linejoin="round" stroke-dasharray="4 4"/>
<path d="M1505.88 293.664L1505.63 307.169L1353.33 328.456L1353.58 314.964L1505.88 293.664Z" fill="#F9FAFB" fill-opacity="0.6" stroke="#9AA2AC" stroke-linejoin="round" stroke-dasharray="4 4"/>
<path d="M1353.33 328.452L1257.64 276.675L1257.89 263.17L1353.58 314.96L1353.33 328.452Z" fill="#F9FAFB" fill-opacity="0.6" stroke="#9AA2AC" stroke-linejoin="round" stroke-dasharray="4 4"/>
<path d="M1353.58 314.964L1257.89 263.174L1410.19 241.887L1505.88 293.664L1353.58 314.964Z" fill="#F9FAFB" fill-opacity="0.6" stroke="#9AA2AC" stroke-linejoin="round" stroke-dasharray="4 4"/>
<path d="M1353.98 315.139L1353.73 328.643L1201.43 349.93L1201.68 336.439L1353.98 315.139Z" fill="#F9FAFB" fill-opacity="0.6" stroke="#9AA2AC" stroke-linejoin="round" stroke-dasharray="4 4"/>
<path d="M1201.43 349.926L1105.74 298.149L1105.99 284.645L1201.68 336.434L1201.43 349.926Z" fill="#F9FAFB" fill-opacity="0.6" stroke="#9AA2AC" stroke-linejoin="round" stroke-dasharray="4 4"/>
<path d="M1201.68 336.438L1105.99 284.648L1258.3 263.361L1353.98 315.138L1201.68 336.438Z" fill="#F9FAFB" fill-opacity="0.6" stroke="#9AA2AC" stroke-linejoin="round" stroke-dasharray="4 4"/>
<path d="M1202.08 336.625L1201.83 350.13L1049.53 371.417L1049.78 357.925L1202.08 336.625Z" fill="#F9FAFB" fill-opacity="0.6" stroke="#9AA2AC" stroke-linejoin="round" stroke-dasharray="4 4"/>
<path d="M1049.53 371.412L953.842 319.636L954.091 306.131L1049.78 357.921L1049.53 371.412Z" fill="#F9FAFB" fill-opacity="0.6" stroke="#9AA2AC" stroke-linejoin="round" stroke-dasharray="4 4"/>
<path d="M1049.78 357.925L954.092 306.135L1106.4 284.848L1202.08 336.625L1049.78 357.925Z" fill="#F9FAFB" fill-opacity="0.6" stroke="#9AA2AC" stroke-linejoin="round" stroke-dasharray="4 4"/>
<path d="M1049.65 357.781L1049.41 371.286L897.101 392.573L897.35 379.081L1049.65 357.781Z" fill="#F9FAFB" fill-opacity="0.6" stroke="#9AA2AC" stroke-linejoin="round" stroke-dasharray="4 4"/>
<path d="M897.101 392.569L801.414 340.792L801.663 327.287L897.35 379.077L897.101 392.569Z" fill="#F9FAFB" fill-opacity="0.6" stroke="#9AA2AC" stroke-linejoin="round" stroke-dasharray="4 4"/>
<path d="M897.351 379.081L801.664 327.291L953.969 306.004L1049.66 357.781L897.351 379.081Z" fill="#F9FAFB" fill-opacity="0.6" stroke="#9AA2AC" stroke-linejoin="round" stroke-dasharray="4 4"/>
<path d="M897.119 378.941L896.87 392.446L744.565 413.733L744.814 400.241L897.119 378.941Z" fill="#F9FAFB" fill-opacity="0.6" stroke="#9AA2AC" stroke-linejoin="round" stroke-dasharray="4 4"/>
<path d="M744.566 413.729L648.879 361.952L649.128 348.447L744.815 400.237L744.566 413.729Z" fill="#F9FAFB" fill-opacity="0.6" stroke="#9AA2AC" stroke-linejoin="round" stroke-dasharray="4 4"/>
<path d="M744.815 400.241L649.128 348.451L801.433 327.164L897.12 378.941L744.815 400.241Z" fill="#F9FAFB" fill-opacity="0.6" stroke="#9AA2AC" stroke-linejoin="round" stroke-dasharray="4 4"/>
<path d="M744.963 400.143L744.714 413.647L592.409 434.934L592.658 421.443L744.963 400.143Z" fill="#F9FAFB" fill-opacity="0.6" stroke="#9AA2AC" stroke-linejoin="round" stroke-dasharray="4 4"/>
<path d="M592.401 434.93L496.714 383.153L496.963 369.648L592.65 421.438L592.401 434.93Z" fill="#F9FAFB" fill-opacity="0.6" stroke="#9AA2AC" stroke-linejoin="round" stroke-dasharray="4 4"/>
<path d="M592.65 421.442L496.963 369.652L649.268 348.365L744.955 400.142L592.65 421.442Z" fill="#F9FAFB" fill-opacity="0.6" stroke="#9AA2AC" stroke-linejoin="round" stroke-dasharray="4 4"/>
<path d="M592.792 421.658L592.543 435.163L440.238 456.45L440.487 442.958L592.792 421.658Z" fill="#F9FAFB" fill-opacity="0.6" stroke="#9AA2AC" stroke-linejoin="round" stroke-dasharray="4 4"/>
<path d="M440.239 456.446L344.552 404.669L344.801 391.164L440.488 442.954L440.239 456.446Z" fill="#F9FAFB" fill-opacity="0.6" stroke="#9AA2AC" stroke-linejoin="round" stroke-dasharray="4 4"/>
<path d="M440.489 442.958L344.802 391.168L497.107 369.881L592.794 421.658L440.489 442.958Z" fill="#F9FAFB" fill-opacity="0.6" stroke="#9AA2AC" stroke-linejoin="round" stroke-dasharray="4 4"/>
<path d="M440.428 442.914L440.179 456.419L287.874 477.706L288.123 464.214L440.428 442.914Z" fill="#F9FAFB" fill-opacity="0.6" stroke="#9AA2AC" stroke-linejoin="round" stroke-dasharray="4 4"/>
<path d="M287.875 477.702L192.188 425.925L192.437 412.42L288.124 464.21L287.875 477.702Z" fill="#F9FAFB" fill-opacity="0.6" stroke="#9AA2AC" stroke-linejoin="round" stroke-dasharray="4 4"/>
<path d="M288.124 464.214L192.437 412.424L344.742 391.137L440.428 442.914L288.124 464.214Z" fill="#F9FAFB" fill-opacity="0.6" stroke="#9AA2AC" stroke-linejoin="round" stroke-dasharray="4 4"/>
<path d="M287.999 464.076L287.75 477.581L135.445 498.868L135.694 485.376L287.999 464.076Z" fill="#F9FAFB" fill-opacity="0.6" stroke="#9AA2AC" stroke-linejoin="round" stroke-dasharray="4 4"/>
<path d="M135.446 498.864L39.7588 447.087L40.0078 433.582L135.695 485.372L135.446 498.864Z" fill="#F9FAFB" fill-opacity="0.6" stroke="#9AA2AC" stroke-linejoin="round" stroke-dasharray="4 4"/>
<path d="M135.696 485.376L40.0088 433.586L192.314 412.299L288.001 464.076L135.696 485.376Z" fill="#F9FAFB" fill-opacity="0.6" stroke="#9AA2AC" stroke-linejoin="round" stroke-dasharray="4 4"/>
<path d="M1905.27 302.365L1905.03 315.87L1752.72 337.157L1752.97 323.665L1905.27 302.365Z" fill="#F9FAFB" fill-opacity="0.6" stroke="#9AA2AC" stroke-linejoin="round" stroke-dasharray="4 4"/>
<path d="M1752.72 337.153L1657.03 285.376L1657.28 271.871L1752.97 323.661L1752.72 337.153Z" fill="#F9FAFB" fill-opacity="0.6" stroke="#9AA2AC" stroke-linejoin="round" stroke-dasharray="4 4"/>
<path d="M1752.97 323.665L1657.28 271.875L1809.59 250.588L1905.27 302.365L1752.97 323.665Z" fill="#F9FAFB" fill-opacity="0.6" stroke="#9AA2AC" stroke-linejoin="round" stroke-dasharray="4 4"/>
<path d="M1753.37 323.852L1753.12 337.356L1600.82 358.643L1601.07 345.152L1753.37 323.852Z" fill="#F9FAFB" fill-opacity="0.6" stroke="#9AA2AC" stroke-linejoin="round" stroke-dasharray="4 4"/>
<path d="M1600.82 358.639L1505.13 306.862L1505.38 293.357L1601.07 345.147L1600.82 358.639Z" fill="#F9FAFB" fill-opacity="0.6" stroke="#9AA2AC" stroke-linejoin="round" stroke-dasharray="4 4"/>
<path d="M1601.07 345.151L1505.38 293.361L1657.69 272.074L1753.37 323.851L1601.07 345.151Z" fill="#F9FAFB" fill-opacity="0.6" stroke="#9AA2AC" stroke-linejoin="round" stroke-dasharray="4 4"/>
<path d="M1848.97 375.504L1848.72 389.009L1696.41 410.296L1696.66 396.804L1848.97 375.504Z" fill="#F9FAFB" fill-opacity="0.6" stroke="#9AA2AC" stroke-linejoin="round" stroke-dasharray="4 4"/>
<path d="M1696.41 410.291L1600.73 358.515L1600.97 345.01L1696.66 396.8L1696.41 410.291Z" fill="#F9FAFB" fill-opacity="0.6" stroke="#9AA2AC" stroke-linejoin="round" stroke-dasharray="4 4"/>
<path d="M1696.66 396.803L1600.97 345.013L1753.28 323.727L1848.97 375.503L1696.66 396.803Z" fill="#F9FAFB" fill-opacity="0.6" stroke="#9AA2AC" stroke-linejoin="round" stroke-dasharray="4 4"/>
<path d="M1944.76 427.076L1944.51 440.581L1792.21 461.868L1792.46 448.376L1944.76 427.076Z" fill="#F9FAFB" fill-opacity="0.6" stroke="#9AA2AC" stroke-linejoin="round" stroke-dasharray="4 4"/>
<path d="M1792.21 461.864L1696.52 410.087L1696.77 396.582L1792.46 448.372L1792.21 461.864Z" fill="#F9FAFB" fill-opacity="0.6" stroke="#9AA2AC" stroke-linejoin="round" stroke-dasharray="4 4"/>
<path d="M1792.46 448.376L1696.77 396.586L1849.08 375.299L1944.76 427.076L1792.46 448.376Z" fill="#F9FAFB" fill-opacity="0.6" stroke="#9AA2AC" stroke-linejoin="round" stroke-dasharray="4 4"/>
<path d="M1601.47 345.32L1601.23 358.825L1448.92 380.112L1449.17 366.62L1601.47 345.32Z" fill="#F9FAFB" fill-opacity="0.6" stroke="#9AA2AC" stroke-linejoin="round" stroke-dasharray="4 4"/>
<path d="M1448.92 380.108L1353.23 328.331L1353.48 314.826L1449.17 366.616L1448.92 380.108Z" fill="#F9FAFB" fill-opacity="0.6" stroke="#9AA2AC" stroke-linejoin="round" stroke-dasharray="4 4"/>
<path d="M1449.17 366.62L1353.48 314.83L1505.79 293.543L1601.48 345.32L1449.17 366.62Z" fill="#F9FAFB" fill-opacity="0.6" stroke="#9AA2AC" stroke-linejoin="round" stroke-dasharray="4 4"/>
<path d="M1697.07 396.979L1696.82 410.483L1544.51 431.77L1544.76 418.278L1697.07 396.979Z" fill="#F9FAFB" fill-opacity="0.6" stroke="#9AA2AC" stroke-linejoin="round" stroke-dasharray="4 4"/>
<path d="M1544.51 431.766L1448.83 379.989L1449.08 366.484L1544.76 418.274L1544.51 431.766Z" fill="#F9FAFB" fill-opacity="0.6" stroke="#9AA2AC" stroke-linejoin="round" stroke-dasharray="4 4"/>
<path d="M1544.76 418.278L1449.08 366.488L1601.38 345.201L1697.07 396.978L1544.76 418.278Z" fill="#F9FAFB" fill-opacity="0.6" stroke="#9AA2AC" stroke-linejoin="round" stroke-dasharray="4 4"/>
<path d="M1792.86 448.566L1792.61 462.071L1640.31 483.358L1640.56 469.866L1792.86 448.566Z" fill="#F9FAFB" fill-opacity="0.6" stroke="#9AA2AC" stroke-linejoin="round" stroke-dasharray="4 4"/>
<path d="M1640.31 483.35L1544.62 431.573L1544.87 418.068L1640.56 469.858L1640.31 483.35Z" fill="#F9FAFB" fill-opacity="0.6" stroke="#9AA2AC" stroke-linejoin="round" stroke-dasharray="4 4"/>
<path d="M1640.56 469.862L1544.87 418.072L1697.17 396.785L1792.86 448.562L1640.56 469.862Z" fill="#F9FAFB" fill-opacity="0.6" stroke="#9AA2AC" stroke-linejoin="round" stroke-dasharray="4 4"/>
<path d="M1888.82 500.197L1888.57 513.702L1736.27 534.989L1736.51 521.497L1888.82 500.197Z" fill="#F9FAFB" fill-opacity="0.6" stroke="#9AA2AC" stroke-linejoin="round" stroke-dasharray="4 4"/>
<path d="M1736.27 534.985L1640.58 483.208L1640.83 469.703L1736.51 521.493L1736.27 534.985Z" fill="#F9FAFB" fill-opacity="0.6" stroke="#9AA2AC" stroke-linejoin="round" stroke-dasharray="4 4"/>
<path d="M1736.52 521.497L1640.83 469.707L1793.13 448.42L1888.82 500.197L1736.52 521.497Z" fill="#F9FAFB" fill-opacity="0.6" stroke="#9AA2AC" stroke-linejoin="round" stroke-dasharray="4 4"/>
<path d="M1449.57 366.801L1449.33 380.306L1297.02 401.592L1297.27 388.101L1449.57 366.801Z" fill="#F9FAFB" fill-opacity="0.6" stroke="#9AA2AC" stroke-linejoin="round" stroke-dasharray="4 4"/>
<path d="M1297.02 401.588L1201.33 349.811L1201.58 336.307L1297.27 388.097L1297.02 401.588Z" fill="#F9FAFB" fill-opacity="0.6" stroke="#9AA2AC" stroke-linejoin="round" stroke-dasharray="4 4"/>
<path d="M1297.27 388.1L1201.58 336.31L1353.89 315.023L1449.58 366.8L1297.27 388.1Z" fill="#F9FAFB" fill-opacity="0.6" stroke="#9AA2AC" stroke-linejoin="round" stroke-dasharray="4 4"/>
<path d="M1545.17 418.461L1544.92 431.966L1392.61 453.253L1392.86 439.761L1545.17 418.461Z" fill="#F9FAFB" fill-opacity="0.6" stroke="#9AA2AC" stroke-linejoin="round" stroke-dasharray="4 4"/>
<path d="M1392.61 453.248L1296.93 401.472L1297.18 387.967L1392.86 439.757L1392.61 453.248Z" fill="#F9FAFB" fill-opacity="0.6" stroke="#9AA2AC" stroke-linejoin="round" stroke-dasharray="4 4"/>
<path d="M1392.86 439.76L1297.18 387.971L1449.48 366.684L1545.17 418.461L1392.86 439.76Z" fill="#F9FAFB" fill-opacity="0.6" stroke="#9AA2AC" stroke-linejoin="round" stroke-dasharray="4 4"/>
<path d="M1640.96 470.043L1640.71 483.548L1488.41 504.835L1488.66 491.343L1640.96 470.043Z" fill="#F9FAFB" fill-opacity="0.6" stroke="#9AA2AC" stroke-linejoin="round" stroke-dasharray="4 4"/>
<path d="M1488.41 504.83L1392.72 453.054L1392.97 439.549L1488.66 491.339L1488.41 504.83Z" fill="#F9FAFB" fill-opacity="0.6" stroke="#9AA2AC" stroke-linejoin="round" stroke-dasharray="4 4"/>
<path d="M1488.66 491.342L1392.97 439.553L1545.28 418.266L1640.96 470.043L1488.66 491.342Z" fill="#F9FAFB" fill-opacity="0.6" stroke="#9AA2AC" stroke-linejoin="round" stroke-dasharray="4 4"/>
<path d="M1736.92 521.674L1736.67 535.179L1584.37 556.466L1584.62 542.974L1736.92 521.674Z" fill="#F9FAFB" fill-opacity="0.6" stroke="#9AA2AC" stroke-linejoin="round" stroke-dasharray="4 4"/>
<path d="M1584.37 556.461L1488.68 504.684L1488.93 491.18L1584.62 542.97L1584.37 556.461Z" fill="#F9FAFB" fill-opacity="0.6" stroke="#9AA2AC" stroke-linejoin="round" stroke-dasharray="4 4"/>
<path d="M1584.62 542.973L1488.93 491.183L1641.23 469.896L1736.92 521.673L1584.62 542.973Z" fill="#F9FAFB" fill-opacity="0.6" stroke="#9AA2AC" stroke-linejoin="round" stroke-dasharray="4 4"/>
<path d="M1833.1 573.537L1832.85 587.042L1680.54 608.329L1680.79 594.837L1833.1 573.537Z" fill="#F9FAFB" fill-opacity="0.6" stroke="#9AA2AC" stroke-linejoin="round" stroke-dasharray="4 4"/>
<path d="M1680.54 608.325L1584.86 556.548L1585.11 543.043L1680.79 594.833L1680.54 608.325Z" fill="#F9FAFB" fill-opacity="0.6" stroke="#9AA2AC" stroke-linejoin="round" stroke-dasharray="4 4"/>
<path d="M1680.79 594.837L1585.11 543.047L1737.41 521.76L1833.1 573.537L1680.79 594.837Z" fill="#F9FAFB" fill-opacity="0.6" stroke="#9AA2AC" stroke-linejoin="round" stroke-dasharray="4 4"/>
<path d="M1929.06 625.172L1928.81 638.677L1776.5 659.964L1776.75 646.472L1929.06 625.172Z" fill="#F9FAFB" fill-opacity="0.6" stroke="#9AA2AC" stroke-linejoin="round" stroke-dasharray="4 4"/>
<path d="M1776.5 659.959L1680.82 608.182L1681.06 594.678L1776.75 646.468L1776.5 659.959Z" fill="#F9FAFB" fill-opacity="0.6" stroke="#9AA2AC" stroke-linejoin="round" stroke-dasharray="4 4"/>
<path d="M1776.75 646.471L1681.06 594.681L1833.37 573.395L1929.06 625.171L1776.75 646.471Z" fill="#F9FAFB" fill-opacity="0.6" stroke="#9AA2AC" stroke-linejoin="round" stroke-dasharray="4 4"/>
<path d="M1297.68 388.285L1297.43 401.79L1145.12 423.077L1145.37 409.585L1297.68 388.285Z" fill="#F9FAFB" fill-opacity="0.6" stroke="#9AA2AC" stroke-linejoin="round" stroke-dasharray="4 4"/>
<path d="M1145.12 423.073L1049.43 371.296L1049.68 357.791L1145.37 409.581L1145.12 423.073Z" fill="#F9FAFB" fill-opacity="0.6" stroke="#9AA2AC" stroke-linejoin="round" stroke-dasharray="4 4"/>
<path d="M1145.37 409.585L1049.68 357.795L1201.99 336.508L1297.68 388.285L1145.37 409.585Z" fill="#F9FAFB" fill-opacity="0.6" stroke="#9AA2AC" stroke-linejoin="round" stroke-dasharray="4 4"/>
<path d="M1145.25 409.445L1145 422.95L992.692 444.237L992.941 430.745L1145.25 409.445Z" fill="#F9FAFB" fill-opacity="0.6" stroke="#9AA2AC" stroke-linejoin="round" stroke-dasharray="4 4"/>
<path d="M992.693 444.233L897.006 392.456L897.255 378.951L992.942 430.741L992.693 444.233Z" fill="#F9FAFB" fill-opacity="0.6" stroke="#9AA2AC" stroke-linejoin="round" stroke-dasharray="4 4"/>
<path d="M992.942 430.745L897.255 378.955L1049.56 357.668L1145.25 409.445L992.942 430.745Z" fill="#F9FAFB" fill-opacity="0.6" stroke="#9AA2AC" stroke-linejoin="round" stroke-dasharray="4 4"/>
<path d="M992.713 430.6L992.464 444.104L840.159 465.391L840.408 451.9L992.713 430.6Z" fill="#F9FAFB" fill-opacity="0.6" stroke="#9AA2AC" stroke-linejoin="round" stroke-dasharray="4 4"/>
<path d="M840.16 465.387L744.473 413.61L744.722 400.105L840.409 451.895L840.16 465.387Z" fill="#F9FAFB" fill-opacity="0.6" stroke="#9AA2AC" stroke-linejoin="round" stroke-dasharray="4 4"/>
<path d="M840.409 451.899L744.722 400.109L897.027 378.822L992.714 430.599L840.409 451.899Z" fill="#F9FAFB" fill-opacity="0.6" stroke="#9AA2AC" stroke-linejoin="round" stroke-dasharray="4 4"/>
<path d="M840.559 451.803L840.31 465.307L688.005 486.594L688.254 473.103L840.559 451.803Z" fill="#F9FAFB" fill-opacity="0.6" stroke="#9AA2AC" stroke-linejoin="round" stroke-dasharray="4 4"/>
<path d="M687.995 486.59L592.308 434.813L592.557 421.309L688.244 473.099L687.995 486.59Z" fill="#F9FAFB" fill-opacity="0.6" stroke="#9AA2AC" stroke-linejoin="round" stroke-dasharray="4 4"/>
<path d="M688.245 473.102L592.558 421.312L744.863 400.025L840.55 451.802L688.245 473.102Z" fill="#F9FAFB" fill-opacity="0.6" stroke="#9AA2AC" stroke-linejoin="round" stroke-dasharray="4 4"/>
<path d="M688.385 473.32L688.136 486.825L535.831 508.112L536.08 494.62L688.385 473.32Z" fill="#F9FAFB" fill-opacity="0.6" stroke="#9AA2AC" stroke-linejoin="round" stroke-dasharray="4 4"/>
<path d="M535.833 508.108L440.146 456.331L440.395 442.826L536.082 494.616L535.833 508.108Z" fill="#F9FAFB" fill-opacity="0.6" stroke="#9AA2AC" stroke-linejoin="round" stroke-dasharray="4 4"/>
<path d="M536.083 494.62L440.396 442.83L592.7 421.543L688.387 473.32L536.083 494.62Z" fill="#F9FAFB" fill-opacity="0.6" stroke="#9AA2AC" stroke-linejoin="round" stroke-dasharray="4 4"/>
<path d="M536.022 494.566L535.773 508.071L383.468 529.358L383.717 515.866L536.022 494.566Z" fill="#F9FAFB" fill-opacity="0.6" stroke="#9AA2AC" stroke-linejoin="round" stroke-dasharray="4 4"/>
<path d="M383.467 529.354L287.78 477.577L288.029 464.072L383.716 515.862L383.467 529.354Z" fill="#F9FAFB" fill-opacity="0.6" stroke="#9AA2AC" stroke-linejoin="round" stroke-dasharray="4 4"/>
<path d="M383.717 515.866L288.03 464.076L440.335 442.789L536.022 494.566L383.717 515.866Z" fill="#F9FAFB" fill-opacity="0.6" stroke="#9AA2AC" stroke-linejoin="round" stroke-dasharray="4 4"/>
<path d="M383.594 515.727L383.345 529.231L231.04 550.518L231.289 537.027L383.594 515.727Z" fill="#F9FAFB" fill-opacity="0.6" stroke="#9AA2AC" stroke-linejoin="round" stroke-dasharray="4 4"/>
<path d="M231.041 550.514L135.354 498.737L135.603 485.232L231.29 537.022L231.041 550.514Z" fill="#F9FAFB" fill-opacity="0.6" stroke="#9AA2AC" stroke-linejoin="round" stroke-dasharray="4 4"/>
<path d="M231.291 537.026L135.604 485.236L287.909 463.949L383.595 515.726L231.291 537.026Z" fill="#F9FAFB" fill-opacity="0.6" stroke="#9AA2AC" stroke-linejoin="round" stroke-dasharray="4 4"/>
<path d="M1393.27 439.936L1393.02 453.44L1240.71 474.727L1240.96 461.236L1393.27 439.936Z" fill="#F9FAFB" fill-opacity="0.6" stroke="#9AA2AC" stroke-linejoin="round" stroke-dasharray="4 4"/>
<path d="M1240.71 474.723L1145.03 422.946L1145.28 409.441L1240.96 461.231L1240.71 474.723Z" fill="#F9FAFB" fill-opacity="0.6" stroke="#9AA2AC" stroke-linejoin="round" stroke-dasharray="4 4"/>
<path d="M1240.96 461.235L1145.28 409.445L1297.58 388.158L1393.27 439.935L1240.96 461.235Z" fill="#F9FAFB" fill-opacity="0.6" stroke="#9AA2AC" stroke-linejoin="round" stroke-dasharray="4 4"/>
<path d="M1240.84 461.096L1240.59 474.6L1088.29 495.887L1088.53 482.396L1240.84 461.096Z" fill="#F9FAFB" fill-opacity="0.6" stroke="#9AA2AC" stroke-linejoin="round" stroke-dasharray="4 4"/>
<path d="M1088.29 495.883L992.599 444.106L992.848 430.602L1088.53 482.391L1088.29 495.883Z" fill="#F9FAFB" fill-opacity="0.6" stroke="#9AA2AC" stroke-linejoin="round" stroke-dasharray="4 4"/>
<path d="M1088.54 482.395L992.849 430.605L1145.15 409.318L1240.84 461.095L1088.54 482.395Z" fill="#F9FAFB" fill-opacity="0.6" stroke="#9AA2AC" stroke-linejoin="round" stroke-dasharray="4 4"/>
<path d="M1088.3 482.266L1088.06 495.77L935.751 517.057L936 503.566L1088.3 482.266Z" fill="#F9FAFB" fill-opacity="0.6" stroke="#9AA2AC" stroke-linejoin="round" stroke-dasharray="4 4"/>
<path d="M935.751 517.053L840.064 465.276L840.313 451.771L936 503.561L935.751 517.053Z" fill="#F9FAFB" fill-opacity="0.6" stroke="#9AA2AC" stroke-linejoin="round" stroke-dasharray="4 4"/>
<path d="M936.001 503.565L840.314 451.775L992.619 430.488L1088.31 482.265L936.001 503.565Z" fill="#F9FAFB" fill-opacity="0.6" stroke="#9AA2AC" stroke-linejoin="round" stroke-dasharray="4 4"/>
<path d="M936.149 503.463L935.9 516.968L783.595 538.255L783.844 524.763L936.149 503.463Z" fill="#F9FAFB" fill-opacity="0.6" stroke="#9AA2AC" stroke-linejoin="round" stroke-dasharray="4 4"/>
<path d="M783.585 538.25L687.898 486.473L688.147 472.969L783.834 524.759L783.585 538.25Z" fill="#F9FAFB" fill-opacity="0.6" stroke="#9AA2AC" stroke-linejoin="round" stroke-dasharray="4 4"/>
<path d="M783.834 524.762L688.147 472.972L840.452 451.686L936.139 503.462L783.834 524.762Z" fill="#F9FAFB" fill-opacity="0.6" stroke="#9AA2AC" stroke-linejoin="round" stroke-dasharray="4 4"/>
<path d="M783.977 524.979L783.728 538.483L631.423 559.77L631.672 546.278L783.977 524.979Z" fill="#F9FAFB" fill-opacity="0.6" stroke="#9AA2AC" stroke-linejoin="round" stroke-dasharray="4 4"/>
<path d="M631.423 559.766L535.736 507.989L535.985 494.484L631.672 546.274L631.423 559.766Z" fill="#F9FAFB" fill-opacity="0.6" stroke="#9AA2AC" stroke-linejoin="round" stroke-dasharray="4 4"/>
<path d="M631.673 546.278L535.986 494.488L688.291 473.201L783.978 524.978L631.673 546.278Z" fill="#F9FAFB" fill-opacity="0.6" stroke="#9AA2AC" stroke-linejoin="round" stroke-dasharray="4 4"/>
<path d="M631.614 546.236L631.365 559.741L479.06 581.028L479.309 567.536L631.614 546.236Z" fill="#F9FAFB" fill-opacity="0.6" stroke="#9AA2AC" stroke-linejoin="round" stroke-dasharray="4 4"/>
<path d="M479.06 581.024L383.373 529.247L383.622 515.742L479.309 567.532L479.06 581.024Z" fill="#F9FAFB" fill-opacity="0.6" stroke="#9AA2AC" stroke-linejoin="round" stroke-dasharray="4 4"/>
<path d="M479.31 567.536L383.623 515.746L535.928 494.459L631.615 546.236L479.31 567.536Z" fill="#F9FAFB" fill-opacity="0.6" stroke="#9AA2AC" stroke-linejoin="round" stroke-dasharray="4 4"/>
<path d="M479.186 567.385L478.937 580.89L326.632 602.176L326.881 588.685L479.186 567.385Z" fill="#F9FAFB" fill-opacity="0.6" stroke="#9AA2AC" stroke-linejoin="round" stroke-dasharray="4 4"/>
<path d="M326.632 602.172L230.945 550.395L231.194 536.891L326.881 588.681L326.632 602.172Z" fill="#F9FAFB" fill-opacity="0.6" stroke="#9AA2AC" stroke-linejoin="round" stroke-dasharray="4 4"/>
<path d="M326.882 588.684L231.195 536.894L383.5 515.607L479.187 567.384L326.882 588.684Z" fill="#F9FAFB" fill-opacity="0.6" stroke="#9AA2AC" stroke-linejoin="round" stroke-dasharray="4 4"/>
<path d="M326.754 588.551L326.505 602.056L174.2 623.342L174.449 609.851L326.754 588.551Z" fill="#F9FAFB" fill-opacity="0.6" stroke="#9AA2AC" stroke-linejoin="round" stroke-dasharray="4 4"/>
<path d="M174.202 623.338L78.5146 571.561L78.7637 558.057L174.451 609.847L174.202 623.338Z" fill="#F9FAFB" fill-opacity="0.6" stroke="#9AA2AC" stroke-linejoin="round" stroke-dasharray="4 4"/>
<path d="M174.451 609.85L78.7637 558.06L231.069 536.773L326.756 588.55L174.451 609.85Z" fill="#F9FAFB" fill-opacity="0.6" stroke="#9AA2AC" stroke-linejoin="round" stroke-dasharray="4 4"/>
<path d="M1489.06 491.521L1488.81 505.026L1336.51 526.313L1336.76 512.821L1489.06 491.521Z" fill="#F9FAFB" fill-opacity="0.6" stroke="#9AA2AC" stroke-linejoin="round" stroke-dasharray="4 4"/>
<path d="M1336.51 526.309L1240.82 474.532L1241.07 461.027L1336.76 512.817L1336.51 526.309Z" fill="#F9FAFB" fill-opacity="0.6" stroke="#9AA2AC" stroke-linejoin="round" stroke-dasharray="4 4"/>
<path d="M1336.76 512.821L1241.07 461.031L1393.38 439.744L1489.06 491.521L1336.76 512.821Z" fill="#F9FAFB" fill-opacity="0.6" stroke="#9AA2AC" stroke-linejoin="round" stroke-dasharray="4 4"/>
<path d="M1585.02 543.145L1584.77 556.649L1432.47 577.936L1432.72 564.444L1585.02 543.145Z" fill="#F9FAFB" fill-opacity="0.6" stroke="#9AA2AC" stroke-linejoin="round" stroke-dasharray="4 4"/>
<path d="M1432.47 577.932L1336.78 526.155L1337.03 512.65L1432.72 564.44L1432.47 577.932Z" fill="#F9FAFB" fill-opacity="0.6" stroke="#9AA2AC" stroke-linejoin="round" stroke-dasharray="4 4"/>
<path d="M1432.72 564.444L1337.03 512.654L1489.33 491.367L1585.02 543.144L1432.72 564.444Z" fill="#F9FAFB" fill-opacity="0.6" stroke="#9AA2AC" stroke-linejoin="round" stroke-dasharray="4 4"/>
<path d="M1336.63 512.684L1336.39 526.188L1184.08 547.475L1184.33 533.984L1336.63 512.684Z" fill="#F9FAFB" fill-opacity="0.6" stroke="#9AA2AC" stroke-linejoin="round" stroke-dasharray="4 4"/>
<path d="M1184.08 547.471L1088.39 495.694L1088.64 482.189L1184.33 533.979L1184.08 547.471Z" fill="#F9FAFB" fill-opacity="0.6" stroke="#9AA2AC" stroke-linejoin="round" stroke-dasharray="4 4"/>
<path d="M1184.33 533.983L1088.64 482.193L1240.95 460.906L1336.64 512.683L1184.33 533.983Z" fill="#F9FAFB" fill-opacity="0.6" stroke="#9AA2AC" stroke-linejoin="round" stroke-dasharray="4 4"/>
<path d="M1184.1 533.852L1183.85 547.356L1031.55 568.643L1031.79 555.152L1184.1 533.852Z" fill="#F9FAFB" fill-opacity="0.6" stroke="#9AA2AC" stroke-linejoin="round" stroke-dasharray="4 4"/>
<path d="M1031.55 568.639L935.858 516.862L936.107 503.357L1031.79 555.147L1031.55 568.639Z" fill="#F9FAFB" fill-opacity="0.6" stroke="#9AA2AC" stroke-linejoin="round" stroke-dasharray="4 4"/>
<path d="M1031.8 555.151L936.108 503.361L1088.41 482.074L1184.1 533.851L1031.8 555.151Z" fill="#F9FAFB" fill-opacity="0.6" stroke="#9AA2AC" stroke-linejoin="round" stroke-dasharray="4 4"/>
<path d="M1031.94 555.051L1031.69 568.556L879.39 589.842L879.639 576.351L1031.94 555.051Z" fill="#F9FAFB" fill-opacity="0.6" stroke="#9AA2AC" stroke-linejoin="round" stroke-dasharray="4 4"/>
<path d="M879.38 589.838L783.693 538.061L783.942 524.557L879.629 576.347L879.38 589.838Z" fill="#F9FAFB" fill-opacity="0.6" stroke="#9AA2AC" stroke-linejoin="round" stroke-dasharray="4 4"/>
<path d="M879.63 576.35L783.943 524.56L936.248 503.273L1031.94 555.05L879.63 576.35Z" fill="#F9FAFB" fill-opacity="0.6" stroke="#9AA2AC" stroke-linejoin="round" stroke-dasharray="4 4"/>
<path d="M879.77 576.559L879.521 590.063L727.216 611.35L727.465 597.859L879.77 576.559Z" fill="#F9FAFB" fill-opacity="0.6" stroke="#9AA2AC" stroke-linejoin="round" stroke-dasharray="4 4"/>
<path d="M727.217 611.346L631.53 559.569L631.779 546.064L727.466 597.854L727.217 611.346Z" fill="#F9FAFB" fill-opacity="0.6" stroke="#9AA2AC" stroke-linejoin="round" stroke-dasharray="4 4"/>
<path d="M727.467 597.858L631.78 546.068L784.085 524.781L879.772 576.558L727.467 597.858Z" fill="#F9FAFB" fill-opacity="0.6" stroke="#9AA2AC" stroke-linejoin="round" stroke-dasharray="4 4"/>
<path d="M1431.99 564.424L1431.74 577.929L1279.44 599.216L1279.69 585.724L1431.99 564.424Z" fill="#F9FAFB" fill-opacity="0.6" stroke="#9AA2AC" stroke-linejoin="round" stroke-dasharray="4 4"/>
<path d="M1279.44 599.211L1183.75 547.434L1184 533.93L1279.69 585.72L1279.44 599.211Z" fill="#F9FAFB" fill-opacity="0.6" stroke="#9AA2AC" stroke-linejoin="round" stroke-dasharray="4 4"/>
<path d="M1279.69 585.723L1184 533.933L1336.3 512.646L1431.99 564.423L1279.69 585.723Z" fill="#F9FAFB" fill-opacity="0.6" stroke="#9AA2AC" stroke-linejoin="round" stroke-dasharray="4 4"/>
<path d="M1279.83 585.703L1279.58 599.208L1127.27 620.495L1127.52 607.003L1279.83 585.703Z" fill="#F9FAFB" fill-opacity="0.6" stroke="#9AA2AC" stroke-linejoin="round" stroke-dasharray="4 4"/>
<path d="M1127.27 620.491L1031.58 568.714L1031.83 555.209L1127.52 606.999L1127.27 620.491Z" fill="#F9FAFB" fill-opacity="0.6" stroke="#9AA2AC" stroke-linejoin="round" stroke-dasharray="4 4"/>
<path d="M1127.52 607.003L1031.83 555.213L1184.14 533.926L1279.83 585.703L1127.52 607.003Z" fill="#F9FAFB" fill-opacity="0.6" stroke="#9AA2AC" stroke-linejoin="round" stroke-dasharray="4 4"/>
<path d="M1127.66 606.9L1127.41 620.405L975.105 641.692L975.354 628.2L1127.66 606.9Z" fill="#F9FAFB" fill-opacity="0.6" stroke="#9AA2AC" stroke-linejoin="round" stroke-dasharray="4 4"/>
<path d="M975.106 641.688L879.419 589.911L879.668 576.406L975.355 628.196L975.106 641.688Z" fill="#F9FAFB" fill-opacity="0.6" stroke="#9AA2AC" stroke-linejoin="round" stroke-dasharray="4 4"/>
<path d="M975.356 628.2L879.669 576.41L1031.97 555.123L1127.66 606.9L975.356 628.2Z" fill="#F9FAFB" fill-opacity="0.6" stroke="#9AA2AC" stroke-linejoin="round" stroke-dasharray="4 4"/>
<path d="M975.495 628.424L975.246 641.929L822.941 663.216L823.19 649.724L975.495 628.424Z" fill="#F9FAFB" fill-opacity="0.6" stroke="#9AA2AC" stroke-linejoin="round" stroke-dasharray="4 4"/>
<path d="M822.942 663.211L727.255 611.434L727.504 597.93L823.191 649.72L822.942 663.211Z" fill="#F9FAFB" fill-opacity="0.6" stroke="#9AA2AC" stroke-linejoin="round" stroke-dasharray="4 4"/>
<path d="M823.192 649.723L727.505 597.933L879.81 576.646L975.497 628.423L823.192 649.723Z" fill="#F9FAFB" fill-opacity="0.6" stroke="#9AA2AC" stroke-linejoin="round" stroke-dasharray="4 4"/>
<path d="M727.407 597.814L727.158 611.319L574.853 632.606L575.102 619.114L727.407 597.814Z" fill="#F9FAFB" fill-opacity="0.6" stroke="#9AA2AC" stroke-linejoin="round" stroke-dasharray="4 4"/>
<path d="M574.853 632.602L479.166 580.825L479.415 567.32L575.102 619.11L574.853 632.602Z" fill="#F9FAFB" fill-opacity="0.6" stroke="#9AA2AC" stroke-linejoin="round" stroke-dasharray="4 4"/>
<path d="M575.102 619.114L479.415 567.324L631.72 546.037L727.407 597.814L575.102 619.114Z" fill="#F9FAFB" fill-opacity="0.6" stroke="#9AA2AC" stroke-linejoin="round" stroke-dasharray="4 4"/>
<path d="M823.366 649.439L823.117 662.944L670.812 684.231L671.061 670.739L823.366 649.439Z" fill="#F9FAFB" fill-opacity="0.6" stroke="#9AA2AC" stroke-linejoin="round" stroke-dasharray="4 4"/>
<path d="M670.813 684.227L575.126 632.45L575.375 618.945L671.062 670.735L670.813 684.227Z" fill="#F9FAFB" fill-opacity="0.6" stroke="#9AA2AC" stroke-linejoin="round" stroke-dasharray="4 4"/>
<path d="M671.063 670.739L575.376 618.949L727.681 597.662L823.368 649.439L671.063 670.739Z" fill="#F9FAFB" fill-opacity="0.6" stroke="#9AA2AC" stroke-linejoin="round" stroke-dasharray="4 4"/>
<path d="M574.98 618.971L574.731 632.475L422.426 653.762L422.675 640.271L574.98 618.971Z" fill="#F9FAFB" fill-opacity="0.6" stroke="#9AA2AC" stroke-linejoin="round" stroke-dasharray="4 4"/>
<path d="M422.426 653.758L326.739 601.981L326.988 588.477L422.675 640.266L422.426 653.758Z" fill="#F9FAFB" fill-opacity="0.6" stroke="#9AA2AC" stroke-linejoin="round" stroke-dasharray="4 4"/>
<path d="M422.676 640.27L326.989 588.48L479.294 567.193L574.981 618.97L422.676 640.27Z" fill="#F9FAFB" fill-opacity="0.6" stroke="#9AA2AC" stroke-linejoin="round" stroke-dasharray="4 4"/>
<path d="M670.936 670.6L670.687 684.104L518.382 705.391L518.631 691.9L670.936 670.6Z" fill="#F9FAFB" fill-opacity="0.6" stroke="#9AA2AC" stroke-linejoin="round" stroke-dasharray="4 4"/>
<path d="M518.383 705.387L422.696 653.61L422.945 640.105L518.632 691.895L518.383 705.387Z" fill="#F9FAFB" fill-opacity="0.6" stroke="#9AA2AC" stroke-linejoin="round" stroke-dasharray="4 4"/>
<path d="M518.632 691.899L422.945 640.109L575.25 618.822L670.937 670.599L518.632 691.899Z" fill="#F9FAFB" fill-opacity="0.6" stroke="#9AA2AC" stroke-linejoin="round" stroke-dasharray="4 4"/>
<path d="M422.548 640.135L422.299 653.64L269.994 674.926L270.243 661.435L422.548 640.135Z" fill="#F9FAFB" fill-opacity="0.6" stroke="#9AA2AC" stroke-linejoin="round" stroke-dasharray="4 4"/>
<path d="M269.996 674.918L174.309 623.141L174.558 609.637L270.245 661.427L269.996 674.918Z" fill="#F9FAFB" fill-opacity="0.6" stroke="#9AA2AC" stroke-linejoin="round" stroke-dasharray="4 4"/>
<path d="M270.246 661.43L174.559 609.64L326.864 588.354L422.551 640.13L270.246 661.43Z" fill="#F9FAFB" fill-opacity="0.6" stroke="#9AA2AC" stroke-linejoin="round" stroke-dasharray="4 4"/>
<path d="M518.613 691.877L518.364 705.382L366.059 726.669L366.308 713.177L518.613 691.877Z" fill="#F9FAFB" fill-opacity="0.6" stroke="#9AA2AC" stroke-linejoin="round" stroke-dasharray="4 4"/>
<path d="M366.059 726.664L270.372 674.888L270.621 661.383L366.308 713.173L366.059 726.664Z" fill="#F9FAFB" fill-opacity="0.6" stroke="#9AA2AC" stroke-linejoin="round" stroke-dasharray="4 4"/>
<path d="M366.309 713.176L270.622 661.387L422.927 640.1L518.614 691.877L366.309 713.176Z" fill="#F9FAFB" fill-opacity="0.6" stroke="#9AA2AC" stroke-linejoin="round" stroke-dasharray="4 4"/>
<path d="M366.446 713.145L366.197 726.649L213.892 747.936L214.141 734.444L366.446 713.145Z" fill="#F9FAFB" fill-opacity="0.6" stroke="#9AA2AC" stroke-linejoin="round" stroke-dasharray="4 4"/>
<path d="M213.893 747.936L118.206 696.159L118.455 682.654L214.142 734.444L213.893 747.936Z" fill="#F9FAFB" fill-opacity="0.6" stroke="#9AA2AC" stroke-linejoin="round" stroke-dasharray="4 4"/>
<path d="M214.143 734.444L118.456 682.654L270.761 661.367L366.448 713.144L214.143 734.444Z" fill="#F9FAFB" fill-opacity="0.6" stroke="#9AA2AC" stroke-linejoin="round" stroke-dasharray="4 4"/>
<path d="M1681.2 595.023L1680.95 608.528L1528.64 629.815L1528.89 616.323L1681.2 595.023Z" fill="#F9FAFB" fill-opacity="0.6" stroke="#9AA2AC" stroke-linejoin="round" stroke-dasharray="4 4"/>
<path d="M1528.64 629.811L1432.96 578.034L1433.21 564.529L1528.89 616.319L1528.64 629.811Z" fill="#F9FAFB" fill-opacity="0.6" stroke="#9AA2AC" stroke-linejoin="round" stroke-dasharray="4 4"/>
<path d="M1528.89 616.323L1433.21 564.533L1585.51 543.246L1681.2 595.023L1528.89 616.323Z" fill="#F9FAFB" fill-opacity="0.6" stroke="#9AA2AC" stroke-linejoin="round" stroke-dasharray="4 4"/>
<path d="M1777.16 646.654L1776.91 660.159L1624.6 681.446L1624.85 667.954L1777.16 646.654Z" fill="#F9FAFB" fill-opacity="0.6" stroke="#9AA2AC" stroke-linejoin="round" stroke-dasharray="4 4"/>
<path d="M1624.6 681.442L1528.92 629.665L1529.17 616.16L1624.85 667.95L1624.6 681.442Z" fill="#F9FAFB" fill-opacity="0.6" stroke="#9AA2AC" stroke-linejoin="round" stroke-dasharray="4 4"/>
<path d="M1624.85 667.954L1529.17 616.164L1681.47 594.877L1777.16 646.654L1624.85 667.954Z" fill="#F9FAFB" fill-opacity="0.6" stroke="#9AA2AC" stroke-linejoin="round" stroke-dasharray="4 4"/>
<path d="M1528.77 616.186L1528.52 629.69L1376.21 650.977L1376.46 637.486L1528.77 616.186Z" fill="#F9FAFB" fill-opacity="0.6" stroke="#9AA2AC" stroke-linejoin="round" stroke-dasharray="4 4"/>
<path d="M1376.22 650.973L1280.53 599.196L1280.78 585.691L1376.46 637.481L1376.22 650.973Z" fill="#F9FAFB" fill-opacity="0.6" stroke="#9AA2AC" stroke-linejoin="round" stroke-dasharray="4 4"/>
<path d="M1376.46 637.485L1280.78 585.695L1433.08 564.408L1528.77 616.185L1376.46 637.485Z" fill="#F9FAFB" fill-opacity="0.6" stroke="#9AA2AC" stroke-linejoin="round" stroke-dasharray="4 4"/>
<path d="M1376.24 637.34L1375.99 650.845L1223.68 672.132L1223.93 658.64L1376.24 637.34Z" fill="#F9FAFB" fill-opacity="0.6" stroke="#9AA2AC" stroke-linejoin="round" stroke-dasharray="4 4"/>
<path d="M1223.68 672.127L1128 620.35L1128.24 606.846L1223.93 658.636L1223.68 672.127Z" fill="#F9FAFB" fill-opacity="0.6" stroke="#9AA2AC" stroke-linejoin="round" stroke-dasharray="4 4"/>
<path d="M1223.93 658.639L1128.25 606.849L1280.55 585.562L1376.24 637.339L1223.93 658.639Z" fill="#F9FAFB" fill-opacity="0.6" stroke="#9AA2AC" stroke-linejoin="round" stroke-dasharray="4 4"/>
<path d="M1224.08 658.549L1223.83 672.054L1071.53 693.341L1071.78 679.849L1224.08 658.549Z" fill="#F9FAFB" fill-opacity="0.6" stroke="#9AA2AC" stroke-linejoin="round" stroke-dasharray="4 4"/>
<path d="M1071.52 693.336L975.83 641.559L976.079 628.055L1071.77 679.845L1071.52 693.336Z" fill="#F9FAFB" fill-opacity="0.6" stroke="#9AA2AC" stroke-linejoin="round" stroke-dasharray="4 4"/>
<path d="M1071.77 679.848L976.08 628.058L1128.39 606.771L1224.07 658.548L1071.77 679.848Z" fill="#F9FAFB" fill-opacity="0.6" stroke="#9AA2AC" stroke-linejoin="round" stroke-dasharray="4 4"/>
<path d="M1071.91 680.057L1071.66 693.561L919.353 714.848L919.602 701.357L1071.91 680.057Z" fill="#F9FAFB" fill-opacity="0.6" stroke="#9AA2AC" stroke-linejoin="round" stroke-dasharray="4 4"/>
<path d="M919.353 714.844L823.666 663.067L823.915 649.562L919.602 701.352L919.353 714.844Z" fill="#F9FAFB" fill-opacity="0.6" stroke="#9AA2AC" stroke-linejoin="round" stroke-dasharray="4 4"/>
<path d="M919.603 701.356L823.916 649.566L976.221 628.279L1071.91 680.056L919.603 701.356Z" fill="#F9FAFB" fill-opacity="0.6" stroke="#9AA2AC" stroke-linejoin="round" stroke-dasharray="4 4"/>
<path d="M1624.12 667.916L1623.87 681.421L1471.57 702.708L1471.82 689.216L1624.12 667.916Z" fill="#F9FAFB" fill-opacity="0.6" stroke="#9AA2AC" stroke-linejoin="round" stroke-dasharray="4 4"/>
<path d="M1471.57 702.704L1375.88 650.927L1376.13 637.422L1471.82 689.212L1471.57 702.704Z" fill="#F9FAFB" fill-opacity="0.6" stroke="#9AA2AC" stroke-linejoin="round" stroke-dasharray="4 4"/>
<path d="M1471.82 689.216L1376.13 637.426L1528.44 616.139L1624.12 667.916L1471.82 689.216Z" fill="#F9FAFB" fill-opacity="0.6" stroke="#9AA2AC" stroke-linejoin="round" stroke-dasharray="4 4"/>
<path d="M1471.96 689.209L1471.71 702.714L1319.41 724.001L1319.66 710.509L1471.96 689.209Z" fill="#F9FAFB" fill-opacity="0.6" stroke="#9AA2AC" stroke-linejoin="round" stroke-dasharray="4 4"/>
<path d="M1319.41 723.996L1223.72 672.22L1223.97 658.715L1319.66 710.505L1319.41 723.996Z" fill="#F9FAFB" fill-opacity="0.6" stroke="#9AA2AC" stroke-linejoin="round" stroke-dasharray="4 4"/>
<path d="M1319.66 710.509L1223.97 658.719L1376.27 637.432L1471.96 689.209L1319.66 710.509Z" fill="#F9FAFB" fill-opacity="0.6" stroke="#9AA2AC" stroke-linejoin="round" stroke-dasharray="4 4"/>
<path d="M1319.8 710.404L1319.55 723.909L1167.24 745.196L1167.49 731.704L1319.8 710.404Z" fill="#F9FAFB" fill-opacity="0.6" stroke="#9AA2AC" stroke-linejoin="round" stroke-dasharray="4 4"/>
<path d="M1167.24 745.192L1071.56 693.415L1071.8 679.91L1167.49 731.7L1167.24 745.192Z" fill="#F9FAFB" fill-opacity="0.6" stroke="#9AA2AC" stroke-linejoin="round" stroke-dasharray="4 4"/>
<path d="M1167.49 731.704L1071.8 679.914L1224.11 658.627L1319.8 710.404L1167.49 731.704Z" fill="#F9FAFB" fill-opacity="0.6" stroke="#9AA2AC" stroke-linejoin="round" stroke-dasharray="4 4"/>
<path d="M1167.63 731.922L1167.38 745.427L1015.08 766.714L1015.33 753.222L1167.63 731.922Z" fill="#F9FAFB" fill-opacity="0.6" stroke="#9AA2AC" stroke-linejoin="round" stroke-dasharray="4 4"/>
<path d="M1015.08 766.709L919.391 714.932L919.64 701.428L1015.33 753.218L1015.08 766.709Z" fill="#F9FAFB" fill-opacity="0.6" stroke="#9AA2AC" stroke-linejoin="round" stroke-dasharray="4 4"/>
<path d="M1015.33 753.221L919.64 701.431L1071.94 680.145L1167.63 731.921L1015.33 753.221Z" fill="#F9FAFB" fill-opacity="0.6" stroke="#9AA2AC" stroke-linejoin="round" stroke-dasharray="4 4"/>
<path d="M919.543 701.311L919.294 714.815L766.989 736.102L767.238 722.611L919.543 701.311Z" fill="#F9FAFB" fill-opacity="0.6" stroke="#9AA2AC" stroke-linejoin="round" stroke-dasharray="4 4"/>
<path d="M766.99 736.098L671.303 684.321L671.552 670.816L767.239 722.606L766.99 736.098Z" fill="#F9FAFB" fill-opacity="0.6" stroke="#9AA2AC" stroke-linejoin="round" stroke-dasharray="4 4"/>
<path d="M767.24 722.61L671.553 670.82L823.858 649.533L919.545 701.31L767.24 722.61Z" fill="#F9FAFB" fill-opacity="0.6" stroke="#9AA2AC" stroke-linejoin="round" stroke-dasharray="4 4"/>
<path d="M1015.5 752.943L1015.25 766.448L862.948 787.735L863.197 774.243L1015.5 752.943Z" fill="#F9FAFB" fill-opacity="0.6" stroke="#9AA2AC" stroke-linejoin="round" stroke-dasharray="4 4"/>
<path d="M862.949 787.731L767.262 735.954L767.511 722.449L863.198 774.239L862.949 787.731Z" fill="#F9FAFB" fill-opacity="0.6" stroke="#9AA2AC" stroke-linejoin="round" stroke-dasharray="4 4"/>
<path d="M863.199 774.243L767.512 722.453L919.817 701.166L1015.5 752.943L863.199 774.243Z" fill="#F9FAFB" fill-opacity="0.6" stroke="#9AA2AC" stroke-linejoin="round" stroke-dasharray="4 4"/>
<path d="M767.114 722.471L766.865 735.975L614.56 757.262L614.809 743.771L767.114 722.471Z" fill="#F9FAFB" fill-opacity="0.6" stroke="#9AA2AC" stroke-linejoin="round" stroke-dasharray="4 4"/>
<path d="M614.561 757.258L518.874 705.481L519.123 691.977L614.81 743.766L614.561 757.258Z" fill="#F9FAFB" fill-opacity="0.6" stroke="#9AA2AC" stroke-linejoin="round" stroke-dasharray="4 4"/>
<path d="M614.811 743.77L519.124 691.98L671.429 670.693L767.116 722.47L614.811 743.77Z" fill="#F9FAFB" fill-opacity="0.6" stroke="#9AA2AC" stroke-linejoin="round" stroke-dasharray="4 4"/>
<path d="M863.072 774.109L862.823 787.614L710.518 808.901L710.767 795.409L863.072 774.109Z" fill="#F9FAFB" fill-opacity="0.6" stroke="#9AA2AC" stroke-linejoin="round" stroke-dasharray="4 4"/>
<path d="M710.518 808.897L614.831 757.12L615.08 743.615L710.767 795.405L710.518 808.897Z" fill="#F9FAFB" fill-opacity="0.6" stroke="#9AA2AC" stroke-linejoin="round" stroke-dasharray="4 4"/>
<path d="M710.767 795.409L615.08 743.619L767.385 722.332L863.072 774.109L710.767 795.409Z" fill="#F9FAFB" fill-opacity="0.6" stroke="#9AA2AC" stroke-linejoin="round" stroke-dasharray="4 4"/>
<path d="M614.684 743.625L614.435 757.13L462.13 778.417L462.379 764.925L614.684 743.625Z" fill="#F9FAFB" fill-opacity="0.6" stroke="#9AA2AC" stroke-linejoin="round" stroke-dasharray="4 4"/>
<path d="M462.13 778.412L366.443 726.636L366.692 713.131L462.379 764.921L462.13 778.412Z" fill="#F9FAFB" fill-opacity="0.6" stroke="#9AA2AC" stroke-linejoin="round" stroke-dasharray="4 4"/>
<path d="M462.38 764.925L366.693 713.135L518.998 691.848L614.685 743.625L462.38 764.925Z" fill="#F9FAFB" fill-opacity="0.6" stroke="#9AA2AC" stroke-linejoin="round" stroke-dasharray="4 4"/>
<path d="M462.151 764.795L461.902 778.3L309.597 799.587L309.846 786.095L462.151 764.795Z" fill="#F9FAFB" fill-opacity="0.6" stroke="#9AA2AC" stroke-linejoin="round" stroke-dasharray="4 4"/>
<path d="M309.598 799.582L213.911 747.806L214.16 734.301L309.847 786.091L309.598 799.582Z" fill="#F9FAFB" fill-opacity="0.6" stroke="#9AA2AC" stroke-linejoin="round" stroke-dasharray="4 4"/>
<path d="M309.848 786.094L214.161 734.305L366.466 713.018L462.153 764.794L309.848 786.094Z" fill="#F9FAFB" fill-opacity="0.6" stroke="#9AA2AC" stroke-linejoin="round" stroke-dasharray="4 4"/>
<path d="M309.988 785.988L309.739 799.493L157.434 820.78L157.683 807.288L309.988 785.988Z" fill="#F9FAFB" fill-opacity="0.6" stroke="#9AA2AC" stroke-linejoin="round" stroke-dasharray="4 4"/>
<path d="M157.433 820.776L61.7461 768.999L61.9951 755.494L157.682 807.284L157.433 820.776Z" fill="#F9FAFB" fill-opacity="0.6" stroke="#9AA2AC" stroke-linejoin="round" stroke-dasharray="4 4"/>
<path d="M157.683 807.288L61.9961 755.498L214.301 734.211L309.988 785.988L157.683 807.288Z" fill="#F9FAFB" fill-opacity="0.6" stroke="#9AA2AC" stroke-linejoin="round" stroke-dasharray="4 4"/>
<path d="M710.747 795.375L710.498 808.88L558.193 830.167L558.442 816.675L710.747 795.375Z" fill="#F9FAFB" fill-opacity="0.6" stroke="#9AA2AC" stroke-linejoin="round" stroke-dasharray="4 4"/>
<path d="M558.194 830.162L462.507 778.386L462.756 764.881L558.443 816.671L558.194 830.162Z" fill="#F9FAFB" fill-opacity="0.6" stroke="#9AA2AC" stroke-linejoin="round" stroke-dasharray="4 4"/>
<path d="M558.444 816.675L462.757 764.885L615.062 743.598L710.749 795.375L558.444 816.675Z" fill="#F9FAFB" fill-opacity="0.6" stroke="#9AA2AC" stroke-linejoin="round" stroke-dasharray="4 4"/>
<path d="M558.582 816.662L558.333 830.167L406.028 851.454L406.277 837.962L558.582 816.662Z" fill="#F9FAFB" fill-opacity="0.6" stroke="#9AA2AC" stroke-linejoin="round" stroke-dasharray="4 4"/>
<path d="M406.03 851.45L310.343 799.673L310.592 786.168L406.279 837.958L406.03 851.45Z" fill="#F9FAFB" fill-opacity="0.6" stroke="#9AA2AC" stroke-linejoin="round" stroke-dasharray="4 4"/>
<path d="M406.28 837.962L310.593 786.172L462.898 764.885L558.585 816.662L406.28 837.962Z" fill="#F9FAFB" fill-opacity="0.6" stroke="#9AA2AC" stroke-linejoin="round" stroke-dasharray="4 4"/>
<path d="M406.417 837.85L406.168 851.354L253.863 872.641L254.112 859.15L406.417 837.85Z" fill="#F9FAFB" fill-opacity="0.6" stroke="#9AA2AC" stroke-linejoin="round" stroke-dasharray="4 4"/>
<path d="M253.864 872.637L158.177 820.86L158.426 807.355L254.113 859.145L253.864 872.637Z" fill="#F9FAFB" fill-opacity="0.6" stroke="#9AA2AC" stroke-linejoin="round" stroke-dasharray="4 4"/>
<path d="M254.114 859.149L158.427 807.359L310.732 786.072L406.419 837.849L254.114 859.149Z" fill="#F9FAFB" fill-opacity="0.6" stroke="#9AA2AC" stroke-linejoin="round" stroke-dasharray="4 4"/>
<path d="M1873.33 698.529L1873.08 712.034L1720.78 733.321L1721.03 719.829L1873.33 698.529Z" fill="#F9FAFB" fill-opacity="0.6" stroke="#9AA2AC" stroke-linejoin="round" stroke-dasharray="4 4"/>
<path d="M1720.78 733.317L1625.09 681.54L1625.34 668.035L1721.03 719.825L1720.78 733.317Z" fill="#F9FAFB" fill-opacity="0.6" stroke="#9AA2AC" stroke-linejoin="round" stroke-dasharray="4 4"/>
<path d="M1721.03 719.829L1625.34 668.039L1777.65 646.752L1873.33 698.529L1721.03 719.829Z" fill="#F9FAFB" fill-opacity="0.6" stroke="#9AA2AC" stroke-linejoin="round" stroke-dasharray="4 4"/>
<path d="M1720.9 719.678L1720.66 733.182L1568.35 754.469L1568.6 740.978L1720.9 719.678Z" fill="#F9FAFB" fill-opacity="0.6" stroke="#9AA2AC" stroke-linejoin="round" stroke-dasharray="4 4"/>
<path d="M1568.35 754.465L1472.66 702.688L1472.91 689.184L1568.6 740.974L1568.35 754.465Z" fill="#F9FAFB" fill-opacity="0.6" stroke="#9AA2AC" stroke-linejoin="round" stroke-dasharray="4 4"/>
<path d="M1568.6 740.977L1472.91 689.187L1625.22 667.9L1720.91 719.677L1568.6 740.977Z" fill="#F9FAFB" fill-opacity="0.6" stroke="#9AA2AC" stroke-linejoin="round" stroke-dasharray="4 4"/>
<path d="M1568.37 740.834L1568.12 754.339L1415.82 775.626L1416.07 762.134L1568.37 740.834Z" fill="#F9FAFB" fill-opacity="0.6" stroke="#9AA2AC" stroke-linejoin="round" stroke-dasharray="4 4"/>
<path d="M1415.82 775.621L1320.13 723.845L1320.38 710.34L1416.07 762.13L1415.82 775.621Z" fill="#F9FAFB" fill-opacity="0.6" stroke="#9AA2AC" stroke-linejoin="round" stroke-dasharray="4 4"/>
<path d="M1416.07 762.134L1320.38 710.344L1472.68 689.057L1568.37 740.834L1416.07 762.134Z" fill="#F9FAFB" fill-opacity="0.6" stroke="#9AA2AC" stroke-linejoin="round" stroke-dasharray="4 4"/>
<path d="M1416.22 762.033L1415.97 775.538L1263.66 796.825L1263.91 783.333L1416.22 762.033Z" fill="#F9FAFB" fill-opacity="0.6" stroke="#9AA2AC" stroke-linejoin="round" stroke-dasharray="4 4"/>
<path d="M1263.65 796.821L1167.97 745.044L1168.22 731.539L1263.9 783.329L1263.65 796.821Z" fill="#F9FAFB" fill-opacity="0.6" stroke="#9AA2AC" stroke-linejoin="round" stroke-dasharray="4 4"/>
<path d="M1263.9 783.333L1168.22 731.543L1320.52 710.256L1416.21 762.033L1263.9 783.333Z" fill="#F9FAFB" fill-opacity="0.6" stroke="#9AA2AC" stroke-linejoin="round" stroke-dasharray="4 4"/>
<path d="M1264.04 783.553L1263.8 797.057L1111.49 818.344L1111.74 804.853L1264.04 783.553Z" fill="#F9FAFB" fill-opacity="0.6" stroke="#9AA2AC" stroke-linejoin="round" stroke-dasharray="4 4"/>
<path d="M1111.49 818.34L1015.8 766.563L1016.05 753.059L1111.74 804.849L1111.49 818.34Z" fill="#F9FAFB" fill-opacity="0.6" stroke="#9AA2AC" stroke-linejoin="round" stroke-dasharray="4 4"/>
<path d="M1111.74 804.852L1016.05 753.062L1168.36 731.775L1264.05 783.552L1111.74 804.852Z" fill="#F9FAFB" fill-opacity="0.6" stroke="#9AA2AC" stroke-linejoin="round" stroke-dasharray="4 4"/>
<path d="M1816.26 771.42L1816.01 784.925L1663.71 806.212L1663.96 792.72L1816.26 771.42Z" fill="#F9FAFB" fill-opacity="0.6" stroke="#9AA2AC" stroke-linejoin="round" stroke-dasharray="4 4"/>
<path d="M1663.71 806.207L1568.02 754.431L1568.27 740.926L1663.96 792.716L1663.71 806.207Z" fill="#F9FAFB" fill-opacity="0.6" stroke="#9AA2AC" stroke-linejoin="round" stroke-dasharray="4 4"/>
<path d="M1663.96 792.719L1568.27 740.93L1720.58 719.643L1816.26 771.419L1663.96 792.719Z" fill="#F9FAFB" fill-opacity="0.6" stroke="#9AA2AC" stroke-linejoin="round" stroke-dasharray="4 4"/>
<path d="M1664.1 792.707L1663.85 806.212L1511.54 827.499L1511.79 814.007L1664.1 792.707Z" fill="#F9FAFB" fill-opacity="0.6" stroke="#9AA2AC" stroke-linejoin="round" stroke-dasharray="4 4"/>
<path d="M1511.54 827.495L1415.86 775.718L1416.1 762.213L1511.79 814.003L1511.54 827.495Z" fill="#F9FAFB" fill-opacity="0.6" stroke="#9AA2AC" stroke-linejoin="round" stroke-dasharray="4 4"/>
<path d="M1511.79 814.007L1416.1 762.217L1568.41 740.93L1664.1 792.707L1511.79 814.007Z" fill="#F9FAFB" fill-opacity="0.6" stroke="#9AA2AC" stroke-linejoin="round" stroke-dasharray="4 4"/>
<path d="M1915.02 823.266L1914.78 836.77L1762.47 858.057L1762.72 844.566L1915.02 823.266Z" fill="#F9FAFB" fill-opacity="0.6" stroke="#9AA2AC" stroke-linejoin="round" stroke-dasharray="4 4"/>
<path d="M1762.47 858.053L1666.78 806.276L1667.03 792.771L1762.72 844.561L1762.47 858.053Z" fill="#F9FAFB" fill-opacity="0.6" stroke="#9AA2AC" stroke-linejoin="round" stroke-dasharray="4 4"/>
<path d="M1762.72 844.565L1667.03 792.775L1819.34 771.488L1915.02 823.265L1762.72 844.565Z" fill="#F9FAFB" fill-opacity="0.6" stroke="#9AA2AC" stroke-linejoin="round" stroke-dasharray="4 4"/>
<path d="M1763.12 844.744L1762.88 858.249L1610.57 879.536L1610.82 866.044L1763.12 844.744Z" fill="#F9FAFB" fill-opacity="0.6" stroke="#9AA2AC" stroke-linejoin="round" stroke-dasharray="4 4"/>
<path d="M1610.57 879.532L1514.88 827.755L1515.13 814.25L1610.82 866.04L1610.57 879.532Z" fill="#F9FAFB" fill-opacity="0.6" stroke="#9AA2AC" stroke-linejoin="round" stroke-dasharray="4 4"/>
<path d="M1610.82 866.044L1515.13 814.254L1667.44 792.967L1763.13 844.744L1610.82 866.044Z" fill="#F9FAFB" fill-opacity="0.6" stroke="#9AA2AC" stroke-linejoin="round" stroke-dasharray="4 4"/>
<path d="M1610.09 866.008L1609.85 879.513L1457.54 900.799L1457.79 887.308L1610.09 866.008Z" fill="#F9FAFB" fill-opacity="0.6" stroke="#9AA2AC" stroke-linejoin="round" stroke-dasharray="4 4"/>
<path d="M1457.54 900.795L1361.85 849.018L1362.1 835.514L1457.79 887.304L1457.54 900.795Z" fill="#F9FAFB" fill-opacity="0.6" stroke="#9AA2AC" stroke-linejoin="round" stroke-dasharray="4 4"/>
<path d="M1457.79 887.307L1362.1 835.517L1514.41 814.23L1610.1 866.007L1457.79 887.307Z" fill="#F9FAFB" fill-opacity="0.6" stroke="#9AA2AC" stroke-linejoin="round" stroke-dasharray="4 4"/>
<path d="M1457.93 887.295L1457.68 900.8L1305.38 922.087L1305.62 908.595L1457.93 887.295Z" fill="#F9FAFB" fill-opacity="0.6" stroke="#9AA2AC" stroke-linejoin="round" stroke-dasharray="4 4"/>
<path d="M1305.38 922.082L1209.69 870.306L1209.94 856.801L1305.62 908.591L1305.38 922.082Z" fill="#F9FAFB" fill-opacity="0.6" stroke="#9AA2AC" stroke-linejoin="round" stroke-dasharray="4 4"/>
<path d="M1305.62 908.594L1209.94 856.805L1362.24 835.518L1457.93 887.294L1305.62 908.594Z" fill="#F9FAFB" fill-opacity="0.6" stroke="#9AA2AC" stroke-linejoin="round" stroke-dasharray="4 4"/>
<path d="M1853.92 895.777L1853.67 909.282L1701.37 930.569L1701.62 917.077L1853.92 895.777Z" fill="#F9FAFB" fill-opacity="0.6" stroke="#9AA2AC" stroke-linejoin="round" stroke-dasharray="4 4"/>
<path d="M1701.37 930.565L1605.68 878.788L1605.93 865.283L1701.62 917.073L1701.37 930.565Z" fill="#F9FAFB" fill-opacity="0.6" stroke="#9AA2AC" stroke-linejoin="round" stroke-dasharray="4 4"/>
<path d="M1701.62 917.077L1605.93 865.287L1758.24 844L1853.92 895.777L1701.62 917.077Z" fill="#F9FAFB" fill-opacity="0.6" stroke="#9AA2AC" stroke-linejoin="round" stroke-dasharray="4 4"/>
<path d="M1702.02 917.266L1701.78 930.77L1549.47 952.057L1549.72 938.566L1702.02 917.266Z" fill="#F9FAFB" fill-opacity="0.6" stroke="#9AA2AC" stroke-linejoin="round" stroke-dasharray="4 4"/>
<path d="M1549.47 952.053L1453.78 900.276L1454.03 886.771L1549.72 938.561L1549.47 952.053Z" fill="#F9FAFB" fill-opacity="0.6" stroke="#9AA2AC" stroke-linejoin="round" stroke-dasharray="4 4"/>
<path d="M1549.72 938.565L1454.03 886.775L1606.34 865.488L1702.02 917.265L1549.72 938.565Z" fill="#F9FAFB" fill-opacity="0.6" stroke="#9AA2AC" stroke-linejoin="round" stroke-dasharray="4 4"/>
<path d="M1550.12 938.744L1549.88 952.249L1397.57 973.536L1397.82 960.044L1550.12 938.744Z" fill="#F9FAFB" fill-opacity="0.6" stroke="#9AA2AC" stroke-linejoin="round" stroke-dasharray="4 4"/>
<path d="M1397.57 973.532L1301.88 921.755L1302.13 908.25L1397.82 960.04L1397.57 973.532Z" fill="#F9FAFB" fill-opacity="0.6" stroke="#9AA2AC" stroke-linejoin="round" stroke-dasharray="4 4"/>
<path d="M1397.82 960.044L1302.13 908.254L1454.44 886.967L1550.13 938.744L1397.82 960.044Z" fill="#F9FAFB" fill-opacity="0.6" stroke="#9AA2AC" stroke-linejoin="round" stroke-dasharray="4 4"/>
<path d="M1398.09 960.008L1397.85 973.513L1245.54 994.799L1245.79 981.308L1398.09 960.008Z" fill="#F9FAFB" fill-opacity="0.6" stroke="#9AA2AC" stroke-linejoin="round" stroke-dasharray="4 4"/>
<path d="M1245.54 994.795L1149.85 943.018L1150.1 929.514L1245.79 981.304L1245.54 994.795Z" fill="#F9FAFB" fill-opacity="0.6" stroke="#9AA2AC" stroke-linejoin="round" stroke-dasharray="4 4"/>
<path d="M1245.79 981.307L1150.1 929.517L1302.41 908.23L1398.1 960.007L1245.79 981.307Z" fill="#F9FAFB" fill-opacity="0.6" stroke="#9AA2AC" stroke-linejoin="round" stroke-dasharray="4 4"/>
<path d="M1511.93 813.908L1511.68 827.413L1359.38 848.7L1359.63 835.208L1511.93 813.908Z" fill="#F9FAFB" fill-opacity="0.6" stroke="#9AA2AC" stroke-linejoin="round" stroke-dasharray="4 4"/>
<path d="M1359.38 848.696L1263.69 796.919L1263.94 783.414L1359.63 835.204L1359.38 848.696Z" fill="#F9FAFB" fill-opacity="0.6" stroke="#9AA2AC" stroke-linejoin="round" stroke-dasharray="4 4"/>
<path d="M1359.63 835.208L1263.94 783.418L1416.25 762.131L1511.93 813.908L1359.63 835.208Z" fill="#F9FAFB" fill-opacity="0.6" stroke="#9AA2AC" stroke-linejoin="round" stroke-dasharray="4 4"/>
<path d="M1359.76 835.426L1359.51 848.931L1207.21 870.217L1207.46 856.726L1359.76 835.426Z" fill="#F9FAFB" fill-opacity="0.6" stroke="#9AA2AC" stroke-linejoin="round" stroke-dasharray="4 4"/>
<path d="M1207.21 870.213L1111.52 818.436L1111.77 804.932L1207.46 856.722L1207.21 870.213Z" fill="#F9FAFB" fill-opacity="0.6" stroke="#9AA2AC" stroke-linejoin="round" stroke-dasharray="4 4"/>
<path d="M1207.46 856.725L1111.77 804.935L1264.08 783.648L1359.76 835.425L1207.46 856.725Z" fill="#F9FAFB" fill-opacity="0.6" stroke="#9AA2AC" stroke-linejoin="round" stroke-dasharray="4 4"/>
<path d="M1111.68 804.814L1111.43 818.319L959.123 839.606L959.372 826.114L1111.68 804.814Z" fill="#F9FAFB" fill-opacity="0.6" stroke="#9AA2AC" stroke-linejoin="round" stroke-dasharray="4 4"/>
<path d="M959.125 839.602L863.438 787.825L863.687 774.32L959.374 826.11L959.125 839.602Z" fill="#F9FAFB" fill-opacity="0.6" stroke="#9AA2AC" stroke-linejoin="round" stroke-dasharray="4 4"/>
<path d="M959.374 826.114L863.688 774.324L1015.99 753.037L1111.68 804.814L959.374 826.114Z" fill="#F9FAFB" fill-opacity="0.6" stroke="#9AA2AC" stroke-linejoin="round" stroke-dasharray="4 4"/>
<path d="M1207.64 856.441L1207.39 869.946L1055.08 891.233L1055.33 877.741L1207.64 856.441Z" fill="#F9FAFB" fill-opacity="0.6" stroke="#9AA2AC" stroke-linejoin="round" stroke-dasharray="4 4"/>
<path d="M1055.09 891.229L959.398 839.452L959.647 825.947L1055.33 877.737L1055.09 891.229Z" fill="#F9FAFB" fill-opacity="0.6" stroke="#9AA2AC" stroke-linejoin="round" stroke-dasharray="4 4"/>
<path d="M1055.33 877.741L959.647 825.951L1111.95 804.664L1207.64 856.441L1055.33 877.741Z" fill="#F9FAFB" fill-opacity="0.6" stroke="#9AA2AC" stroke-linejoin="round" stroke-dasharray="4 4"/>
<path d="M959.249 825.969L959 839.473L806.695 860.76L806.944 847.269L959.249 825.969Z" fill="#F9FAFB" fill-opacity="0.6" stroke="#9AA2AC" stroke-linejoin="round" stroke-dasharray="4 4"/>
<path d="M806.697 860.756L711.01 808.979L711.259 795.475L806.946 847.265L806.697 860.756Z" fill="#F9FAFB" fill-opacity="0.6" stroke="#9AA2AC" stroke-linejoin="round" stroke-dasharray="4 4"/>
<path d="M806.946 847.268L711.259 795.478L863.564 774.191L959.251 825.968L806.946 847.268Z" fill="#F9FAFB" fill-opacity="0.6" stroke="#9AA2AC" stroke-linejoin="round" stroke-dasharray="4 4"/>
<path d="M1055.21 877.598L1054.96 891.102L902.653 912.389L902.902 898.898L1055.21 877.598Z" fill="#F9FAFB" fill-opacity="0.6" stroke="#9AA2AC" stroke-linejoin="round" stroke-dasharray="4 4"/>
<path d="M902.654 912.385L806.967 860.608L807.216 847.104L902.903 898.893L902.654 912.385Z" fill="#F9FAFB" fill-opacity="0.6" stroke="#9AA2AC" stroke-linejoin="round" stroke-dasharray="4 4"/>
<path d="M902.904 898.897L807.217 847.107L959.522 825.82L1055.21 877.597L902.904 898.897Z" fill="#F9FAFB" fill-opacity="0.6" stroke="#9AA2AC" stroke-linejoin="round" stroke-dasharray="4 4"/>
<path d="M806.821 847.129L806.572 860.634L654.267 881.921L654.516 868.429L806.821 847.129Z" fill="#F9FAFB" fill-opacity="0.6" stroke="#9AA2AC" stroke-linejoin="round" stroke-dasharray="4 4"/>
<path d="M654.267 881.916L558.58 830.14L558.829 816.635L654.516 868.425L654.267 881.916Z" fill="#F9FAFB" fill-opacity="0.6" stroke="#9AA2AC" stroke-linejoin="round" stroke-dasharray="4 4"/>
<path d="M654.517 868.428L558.83 816.638L711.135 795.352L806.822 847.128L654.517 868.428Z" fill="#F9FAFB" fill-opacity="0.6" stroke="#9AA2AC" stroke-linejoin="round" stroke-dasharray="4 4"/>
<path d="M654.286 868.289L654.037 881.794L501.732 903.081L501.981 889.589L654.286 868.289Z" fill="#F9FAFB" fill-opacity="0.6" stroke="#9AA2AC" stroke-linejoin="round" stroke-dasharray="4 4"/>
<path d="M501.734 903.077L406.047 851.3L406.296 837.795L501.983 889.585L501.734 903.077Z" fill="#F9FAFB" fill-opacity="0.6" stroke="#9AA2AC" stroke-linejoin="round" stroke-dasharray="4 4"/>
<path d="M501.984 889.589L406.297 837.799L558.602 816.512L654.289 868.289L501.984 889.589Z" fill="#F9FAFB" fill-opacity="0.6" stroke="#9AA2AC" stroke-linejoin="round" stroke-dasharray="4 4"/>
<path d="M502.123 889.494L501.874 902.999L349.569 924.286L349.818 910.794L502.123 889.494Z" fill="#F9FAFB" fill-opacity="0.6" stroke="#9AA2AC" stroke-linejoin="round" stroke-dasharray="4 4"/>
<path d="M349.569 924.282L253.882 872.505L254.131 859L349.818 910.79L349.569 924.282Z" fill="#F9FAFB" fill-opacity="0.6" stroke="#9AA2AC" stroke-linejoin="round" stroke-dasharray="4 4"/>
<path d="M349.819 910.794L254.132 859.004L406.437 837.717L502.124 889.494L349.819 910.794Z" fill="#F9FAFB" fill-opacity="0.6" stroke="#9AA2AC" stroke-linejoin="round" stroke-dasharray="4 4"/>
<path d="M349.957 911.012L349.708 924.516L197.403 945.803L197.652 932.312L349.957 911.012Z" fill="#F9FAFB" fill-opacity="0.6" stroke="#9AA2AC" stroke-linejoin="round" stroke-dasharray="4 4"/>
<path d="M197.404 945.799L101.717 894.022L101.966 880.518L197.653 932.308L197.404 945.799Z" fill="#F9FAFB" fill-opacity="0.6" stroke="#9AA2AC" stroke-linejoin="round" stroke-dasharray="4 4"/>
<path d="M197.654 932.311L101.967 880.521L254.272 859.234L349.959 911.011L197.654 932.311Z" fill="#F9FAFB" fill-opacity="0.6" stroke="#9AA2AC" stroke-linejoin="round" stroke-dasharray="4 4"/>
<path d="M902.882 898.865L902.633 912.37L750.328 933.657L750.577 920.165L902.882 898.865Z" fill="#F9FAFB" fill-opacity="0.6" stroke="#9AA2AC" stroke-linejoin="round" stroke-dasharray="4 4"/>
<path d="M750.329 933.653L654.642 881.876L654.891 868.371L750.578 920.161L750.329 933.653Z" fill="#F9FAFB" fill-opacity="0.6" stroke="#9AA2AC" stroke-linejoin="round" stroke-dasharray="4 4"/>
<path d="M750.578 920.165L654.891 868.375L807.196 847.088L902.883 898.865L750.578 920.165Z" fill="#F9FAFB" fill-opacity="0.6" stroke="#9AA2AC" stroke-linejoin="round" stroke-dasharray="4 4"/>
<path d="M750.719 920.158L750.47 933.663L598.165 954.95L598.414 941.458L750.719 920.158Z" fill="#F9FAFB" fill-opacity="0.6" stroke="#9AA2AC" stroke-linejoin="round" stroke-dasharray="4 4"/>
<path d="M598.166 954.946L502.479 903.169L502.729 889.664L598.416 941.454L598.166 954.946Z" fill="#F9FAFB" fill-opacity="0.6" stroke="#9AA2AC" stroke-linejoin="round" stroke-dasharray="4 4"/>
<path d="M598.416 941.458L502.729 889.668L655.034 868.381L750.72 920.158L598.416 941.458Z" fill="#F9FAFB" fill-opacity="0.6" stroke="#9AA2AC" stroke-linejoin="round" stroke-dasharray="4 4"/>
<path d="M598.554 941.357L598.305 954.862L446 976.149L446.249 962.657L598.554 941.357Z" fill="#F9FAFB" fill-opacity="0.6" stroke="#9AA2AC" stroke-linejoin="round" stroke-dasharray="4 4"/>
<path d="M446 976.145L350.313 924.368L350.562 910.863L446.25 962.653L446 976.145Z" fill="#F9FAFB" fill-opacity="0.6" stroke="#9AA2AC" stroke-linejoin="round" stroke-dasharray="4 4"/>
<path d="M446.25 962.657L350.563 910.867L502.868 889.58L598.555 941.357L446.25 962.657Z" fill="#F9FAFB" fill-opacity="0.6" stroke="#9AA2AC" stroke-linejoin="round" stroke-dasharray="4 4"/>
<path d="M446.39 962.875L446.141 976.38L293.836 997.667L294.085 984.175L446.39 962.875Z" fill="#F9FAFB" fill-opacity="0.6" stroke="#9AA2AC" stroke-linejoin="round" stroke-dasharray="4 4"/>
<path d="M293.837 997.662L198.15 945.886L198.399 932.381L294.086 984.171L293.837 997.662Z" fill="#F9FAFB" fill-opacity="0.6" stroke="#9AA2AC" stroke-linejoin="round" stroke-dasharray="4 4"/>
<path d="M294.086 984.175L198.399 932.385L350.704 911.098L446.391 962.875L294.086 984.175Z" fill="#F9FAFB" fill-opacity="0.6" stroke="#9AA2AC" stroke-linejoin="round" stroke-dasharray="4 4"/>
<path d="M1150.93 929.295L1150.68 942.8L998.375 964.087L998.624 950.595L1150.93 929.295Z" fill="#F9FAFB" fill-opacity="0.6" stroke="#9AA2AC" stroke-linejoin="round" stroke-dasharray="4 4"/>
<path d="M998.375 964.082L902.688 912.306L902.937 898.801L998.625 950.591L998.375 964.082Z" fill="#F9FAFB" fill-opacity="0.6" stroke="#9AA2AC" stroke-linejoin="round" stroke-dasharray="4 4"/>
<path d="M998.624 950.594L902.938 898.805L1055.24 877.518L1150.93 929.294L998.624 950.594Z" fill="#F9FAFB" fill-opacity="0.6" stroke="#9AA2AC" stroke-linejoin="round" stroke-dasharray="4 4"/>
<path d="M1245.93 981.295L1245.68 994.8L1093.38 1016.09L1093.62 1002.59L1245.93 981.295Z" fill="#F9FAFB" fill-opacity="0.6" stroke="#9AA2AC" stroke-linejoin="round" stroke-dasharray="4 4"/>
<path d="M1093.38 1016.08L997.688 964.306L997.937 950.801L1093.62 1002.59L1093.38 1016.08Z" fill="#F9FAFB" fill-opacity="0.6" stroke="#9AA2AC" stroke-linejoin="round" stroke-dasharray="4 4"/>
<path d="M1093.62 1002.59L997.938 950.805L1150.24 929.518L1245.93 981.294L1093.62 1002.59Z" fill="#F9FAFB" fill-opacity="0.6" stroke="#9AA2AC" stroke-linejoin="round" stroke-dasharray="4 4"/>
</g>
</svg>
