<svg width="1189" height="754" viewBox="0 0 1189 754" fill="none" xmlns="http://www.w3.org/2000/svg">
<path d="M1035.33 41.8809V60.3972L915.792 77.3366V58.6992L1035.33 41.8809Z" fill="#F3F5F7" stroke="#9AA2AC" stroke-linejoin="round" stroke-dasharray="4 4"/>
<path d="M915.789 77.3368L840.689 36.503L840.688 17.8086L915.789 58.6505V77.3368Z" fill="#F3F5F7" stroke="#9AA2AC" stroke-linejoin="round" stroke-dasharray="4 4"/>
<path d="M915.791 58.7009L840.69 17.808L960.228 1L1035.33 41.8827L915.791 58.7009Z" fill="#F3F5F7" stroke="#9AA2AC" stroke-linejoin="round" stroke-dasharray="4 4"/>
<path d="M1111.38 83.5391V102.354L989.922 119.566V100.628L1111.38 83.5391Z" fill="#EFF2FF" stroke="#9AA2AC" stroke-linejoin="round"/>
<path d="M989.919 119.567L913.61 78.0755L913.609 59.0801L989.919 100.579V119.567Z" fill="#EFF2FF" stroke="#9AA2AC" stroke-linejoin="round"/>
<path d="M989.921 100.63L913.611 59.0786L1035.07 42L1111.38 83.5408L989.921 100.63Z" fill="#EFF2FF" stroke="#9AA2AC" stroke-linejoin="round"/>
<path d="M1187.69 125.066V143.881L1066.23 161.093V142.155L1187.69 125.066Z" fill="#EFF2FF" stroke="#9AA2AC" stroke-linejoin="round"/>
<path d="M1066.22 161.094L989.915 119.603L989.914 100.607L1066.22 142.107V161.094Z" fill="#EFF2FF" stroke="#9AA2AC" stroke-linejoin="round"/>
<path d="M1066.23 142.157L989.916 100.606L1111.38 83.5273L1187.69 125.068L1066.23 142.157Z" fill="#EFF2FF" stroke="#9AA2AC" stroke-linejoin="round"/>
<path d="M1066.23 142.176V160.99L944.765 178.202V159.265L1066.23 142.176Z" fill="#EFF2FF" stroke="#9AA2AC" stroke-linejoin="round"/>
<path d="M944.762 178.203L868.453 136.712L868.452 117.717L944.762 159.216V178.203Z" fill="#EFF2FF" stroke="#9AA2AC" stroke-linejoin="round"/>
<path d="M944.763 159.267L868.454 117.715L989.916 100.637L1066.23 142.178L944.763 159.267Z" fill="#EFF2FF" stroke="#9AA2AC" stroke-linejoin="round"/>
<path d="M944.463 159.539V178.354L823.001 195.566V176.628L944.463 159.539Z" fill="#EFF2FF" stroke="#9AA2AC" stroke-linejoin="round"/>
<path d="M822.998 195.567L746.689 154.075L746.688 135.08L822.998 176.579V195.567Z" fill="#EFF2FF" stroke="#9AA2AC" stroke-linejoin="round"/>
<path d="M823 176.63L746.69 135.079L868.152 118L944.461 159.541L823 176.63Z" fill="#EFF2FF" stroke="#9AA2AC" stroke-linejoin="round"/>
<path d="M746.933 134.939V153.754L625.472 170.966V152.029L746.933 134.939Z" fill="#EFF2FF" stroke="#9AA2AC" stroke-linejoin="round"/>
<path d="M625.467 170.967L549.158 129.476L549.157 110.48L625.467 151.98V170.967Z" fill="#EFF2FF" stroke="#9AA2AC" stroke-linejoin="round"/>
<path d="M625.469 152.03L549.159 110.479L670.621 93.4004L746.93 134.941L625.469 152.03Z" fill="#EFF2FF" stroke="#9AA2AC" stroke-linejoin="round"/>
<path d="M823.278 176.393V195.207L701.816 212.419V193.482L823.278 176.393Z" fill="#EFF2FF" stroke="#9AA2AC" stroke-linejoin="round"/>
<path d="M701.813 212.42L625.505 170.929L625.504 151.934L701.813 193.433V212.42Z" fill="#EFF2FF" stroke="#9AA2AC" stroke-linejoin="round"/>
<path d="M701.815 193.483L625.506 151.932L746.967 134.854L823.277 176.394L701.815 193.483Z" fill="#EFF2FF" stroke="#9AA2AC" stroke-linejoin="round"/>
<path d="M625.641 151.881V170.397L506.104 187.337V168.699L625.641 151.881Z" fill="#EFF2FF" stroke="#9AA2AC" stroke-linejoin="round"/>
<path d="M506.1 187.337L431.001 146.503L431 127.809L506.1 168.65V187.337Z" fill="#EFF2FF" stroke="#9AA2AC" stroke-linejoin="round"/>
<path d="M506.102 168.701L431.002 127.808L550.539 111L625.639 151.883L506.102 168.701Z" fill="#EFF2FF" stroke="#9AA2AC" stroke-linejoin="round"/>
<path d="M506.641 168.881V187.397L387.104 204.337V185.699L506.641 168.881Z" fill="#EFF2FF" stroke="#9AA2AC" stroke-linejoin="round"/>
<path d="M387.1 204.337L312.001 163.503L312 144.809L387.1 185.65V204.337Z" fill="#EFF2FF" stroke="#9AA2AC" stroke-linejoin="round"/>
<path d="M387.102 185.701L312.002 144.808L431.539 128L506.639 168.883L387.102 185.701Z" fill="#EFF2FF" stroke="#9AA2AC" stroke-linejoin="round"/>
<path d="M387.641 185.881V204.397L268.104 221.337V202.699L387.641 185.881Z" fill="#EFF2FF" stroke="#9AA2AC" stroke-linejoin="round"/>
<path d="M268.1 221.337L193.001 180.503L193 161.809L268.1 202.65V221.337Z" fill="#EFF2FF" stroke="#9AA2AC" stroke-linejoin="round"/>
<path d="M268.102 202.701L193.002 161.808L312.539 145L387.639 185.883L268.102 202.701Z" fill="#EFF2FF" stroke="#9AA2AC" stroke-linejoin="round"/>
<path d="M967.643 666.08V684.687L847.521 701.709V682.981L967.643 666.08Z" fill="#EFF2FF" stroke="#9AA2AC" stroke-linejoin="round"/>
<path d="M847.517 701.712L772.05 660.679L772.049 641.893L847.517 682.935V701.712Z" fill="#EFF2FF" stroke="#9AA2AC" stroke-linejoin="round"/>
<path d="M847.519 682.984L772.051 641.89L892.173 625L967.642 666.083L847.519 682.984Z" fill="#EFF2FF" stroke="#9AA2AC" stroke-linejoin="round"/>
<path d="M847.596 683.1V701.707L727.474 718.729V700L847.596 683.1Z" fill="#EFF2FF" stroke="#9AA2AC" stroke-linejoin="round"/>
<path d="M727.468 718.732L652.001 677.698L652 658.912L727.468 699.954V718.732Z" fill="#EFF2FF" stroke="#9AA2AC" stroke-linejoin="round"/>
<path d="M727.47 700.003L652.002 658.91L772.125 642.02L847.593 683.102L727.47 700.003Z" fill="#EFF2FF" stroke="#9AA2AC" stroke-linejoin="round"/>
<path d="M1043.19 707.164V725.771L923.069 742.793V724.065L1043.19 707.164Z" fill="#EFF2FF" stroke="#9AA2AC" stroke-linejoin="round"/>
<path d="M923.066 742.796L847.598 701.763L847.598 682.977L923.066 724.018V742.796Z" fill="#EFF2FF" stroke="#9AA2AC" stroke-linejoin="round"/>
<path d="M923.068 724.068L847.6 682.974L967.722 666.084L1043.19 707.167L923.068 724.068Z" fill="#EFF2FF" stroke="#9AA2AC" stroke-linejoin="round"/>
<path d="M268.599 202.904V221.421L149.062 238.36V219.723L268.599 202.904Z" fill="#EFF2FF" stroke="#9AA2AC" stroke-linejoin="round"/>
<path d="M149.058 238.36L73.9588 197.526L73.958 178.832L149.058 219.674V238.36Z" fill="#EFF2FF" stroke="#9AA2AC" stroke-linejoin="round"/>
<path d="M149.06 219.724L73.96 178.831L193.497 162.023L268.597 202.906L149.06 219.724Z" fill="#EFF2FF" stroke="#9AA2AC" stroke-linejoin="round"/>
<path d="M341.702 243.791V262.307L222.165 279.247V260.609L341.702 243.791Z" fill="#EFF2FF" stroke="#9AA2AC" stroke-linejoin="round"/>
<path d="M222.162 279.247L147.062 238.413L147.062 219.719L222.162 260.561V279.247Z" fill="#EFF2FF" stroke="#9AA2AC" stroke-linejoin="round"/>
<path d="M222.164 260.611L147.063 219.718L266.601 202.91L341.701 243.793L222.164 260.611Z" fill="#EFF2FF" stroke="#9AA2AC" stroke-linejoin="round"/>
<path d="M414.704 284.584V303.1L295.167 320.04V301.402L414.704 284.584Z" fill="#EFF2FF" stroke="#9AA2AC" stroke-linejoin="round"/>
<path d="M295.164 320.04L220.064 279.206L220.063 260.512L295.164 301.354V320.04Z" fill="#EFF2FF" stroke="#9AA2AC" stroke-linejoin="round"/>
<path d="M295.166 301.404L220.065 260.511L339.603 243.703L414.703 284.586L295.166 301.404Z" fill="#EFF2FF" stroke="#9AA2AC" stroke-linejoin="round"/>
<path d="M489.846 325.379V343.895L370.309 360.835V342.197L489.846 325.379Z" fill="#EFF2FF" stroke="#9AA2AC" stroke-linejoin="round"/>
<path d="M370.305 360.835L295.206 320.001L295.205 301.307L370.305 342.149V360.835Z" fill="#EFF2FF" stroke="#9AA2AC" stroke-linejoin="round"/>
<path d="M370.307 342.199L295.207 301.306L414.744 284.498L489.844 325.381L370.307 342.199Z" fill="#EFF2FF" stroke="#9AA2AC" stroke-linejoin="round"/>
<path d="M370.311 342.199V360.716L250.773 377.655V359.018L370.311 342.199Z" fill="#EFF2FF" stroke="#9AA2AC" stroke-linejoin="round"/>
<path d="M250.77 377.655L175.671 336.821L175.67 318.127L250.77 358.969V377.655Z" fill="#EFF2FF" stroke="#9AA2AC" stroke-linejoin="round"/>
<path d="M250.772 359.019L175.672 318.126L295.209 301.318L370.309 342.201L250.772 359.019Z" fill="#EFF2FF" stroke="#9AA2AC" stroke-linejoin="round"/>
<path d="M445.413 383.088V401.604L325.876 418.544V399.906L445.413 383.088Z" fill="#EFF2FF" stroke="#9AA2AC" stroke-linejoin="round"/>
<path d="M325.873 418.544L250.773 377.71L250.772 359.016L325.873 399.858V418.544Z" fill="#EFF2FF" stroke="#9AA2AC" stroke-linejoin="round"/>
<path d="M325.875 399.908L250.774 359.015L370.312 342.207L445.412 383.09L325.875 399.908Z" fill="#EFF2FF" stroke="#9AA2AC" stroke-linejoin="round"/>
<path d="M520.518 423.975V442.491L400.98 459.43V440.793L520.518 423.975Z" fill="#EFF2FF" stroke="#9AA2AC" stroke-linejoin="round"/>
<path d="M400.977 459.431L325.878 418.597L325.877 399.902L400.977 440.744V459.431Z" fill="#EFF2FF" stroke="#9AA2AC" stroke-linejoin="round"/>
<path d="M400.979 440.795L325.879 399.902L445.416 383.094L520.516 423.976L400.979 440.795Z" fill="#EFF2FF" stroke="#9AA2AC" stroke-linejoin="round"/>
<path d="M400.985 440.777V459.294L281.448 476.233V457.596L400.985 440.777Z" fill="#EFF2FF" stroke="#9AA2AC" stroke-linejoin="round"/>
<path d="M281.445 476.233L206.345 435.4L206.345 416.705L281.445 457.547V476.233Z" fill="#EFF2FF" stroke="#9AA2AC" stroke-linejoin="round"/>
<path d="M281.447 457.597L206.347 416.704L325.884 399.896L400.984 440.779L281.447 457.597Z" fill="#EFF2FF" stroke="#9AA2AC" stroke-linejoin="round"/>
<path d="M476.072 481.799V500.315L356.535 517.255V498.617L476.072 481.799Z" fill="#EFF2FF" stroke="#9AA2AC" stroke-linejoin="round"/>
<path d="M356.532 517.255L281.432 476.421L281.432 457.727L356.532 498.568V517.255Z" fill="#EFF2FF" stroke="#9AA2AC" stroke-linejoin="round"/>
<path d="M356.534 498.619L281.434 457.726L400.971 440.918L476.071 481.801L356.534 498.619Z" fill="#EFF2FF" stroke="#9AA2AC" stroke-linejoin="round"/>
<path d="M551.176 522.674V541.19L431.639 558.13V539.492L551.176 522.674Z" fill="#EFF2FF" stroke="#9AA2AC" stroke-linejoin="round"/>
<path d="M431.635 558.13L356.536 517.296L356.535 498.602L431.635 539.443V558.13Z" fill="#EFF2FF" stroke="#9AA2AC" stroke-linejoin="round"/>
<path d="M431.637 539.494L356.537 498.601L476.074 481.793L551.175 522.676L431.637 539.494Z" fill="#EFF2FF" stroke="#9AA2AC" stroke-linejoin="round"/>
<path d="M431.631 539.482V557.999L312.094 574.938V556.301L431.631 539.482Z" fill="#EFF2FF" stroke="#9AA2AC" stroke-linejoin="round"/>
<path d="M312.091 574.938L236.991 534.105L236.99 515.41L312.091 556.252V574.938Z" fill="#EFF2FF" stroke="#9AA2AC" stroke-linejoin="round"/>
<path d="M312.093 556.303L236.992 515.41L356.529 498.602L431.63 539.484L312.093 556.303Z" fill="#EFF2FF" stroke="#9AA2AC" stroke-linejoin="round"/>
<path d="M312.096 556.301V574.817L192.559 591.757V573.119L312.096 556.301Z" fill="#EFF2FF" stroke="#9AA2AC" stroke-linejoin="round"/>
<path d="M192.553 591.757L117.454 550.923L117.453 532.229L192.553 573.07V591.757Z" fill="#EFF2FF" stroke="#9AA2AC" stroke-linejoin="round"/>
<path d="M192.555 573.121L117.455 532.228L236.992 515.42L312.093 556.303L192.555 573.121Z" fill="#EFF2FF" stroke="#9AA2AC" stroke-linejoin="round"/>
<path d="M195.643 572.881V591.397L76.1055 608.337V589.699L195.643 572.881Z" fill="#EFF2FF" stroke="#9AA2AC" stroke-linejoin="round"/>
<path d="M76.1003 608.337L1.00076 567.503L1 548.809L76.1003 589.65V608.337Z" fill="#EFF2FF" stroke="#9AA2AC" stroke-linejoin="round"/>
<path d="M76.1023 589.701L1.00195 548.808L120.539 532L195.639 572.883L76.1023 589.701Z" fill="#EFF2FF" stroke="#9AA2AC" stroke-linejoin="round"/>
<path d="M506.594 580.08V598.687L386.472 615.709V596.981L506.594 580.08Z" fill="#EFF2FF" stroke="#9AA2AC" stroke-linejoin="round"/>
<path d="M386.468 615.712L311.001 574.679L311 555.893L386.468 596.935V615.712Z" fill="#EFF2FF" stroke="#9AA2AC" stroke-linejoin="round"/>
<path d="M386.47 596.984L311.002 555.89L431.125 539L506.593 580.083L386.47 596.984Z" fill="#EFF2FF" stroke="#9AA2AC" stroke-linejoin="round"/>
<path d="M579.594 620.08V638.687L459.472 655.709V636.981L579.594 620.08Z" fill="#EFF2FF" stroke="#9AA2AC" stroke-linejoin="round"/>
<path d="M459.468 655.712L384.001 614.679L384 595.893L459.468 636.935V655.712Z" fill="#EFF2FF" stroke="#9AA2AC" stroke-linejoin="round"/>
<path d="M459.47 636.984L384.002 595.89L504.125 579L579.593 620.083L459.47 636.984Z" fill="#EFF2FF" stroke="#9AA2AC" stroke-linejoin="round"/>
<path d="M653.594 660.08V678.687L533.472 695.709V676.981L653.594 660.08Z" fill="#EFF2FF" stroke="#9AA2AC" stroke-linejoin="round"/>
<path d="M533.468 695.712L458.001 654.679L458 635.893L533.468 676.935V695.712Z" fill="#EFF2FF" stroke="#9AA2AC" stroke-linejoin="round"/>
<path d="M533.47 676.984L458.002 635.89L578.125 619L653.593 660.083L533.47 676.984Z" fill="#EFF2FF" stroke="#9AA2AC" stroke-linejoin="round"/>
<path d="M727.594 700.08V718.687L607.472 735.709V716.981L727.594 700.08Z" fill="#EFF2FF" stroke="#9AA2AC" stroke-linejoin="round"/>
<path d="M607.468 735.712L532.001 694.679L532 675.893L607.468 716.935V735.712Z" fill="#EFF2FF" stroke="#9AA2AC" stroke-linejoin="round"/>
<path d="M607.47 716.984L532.002 675.89L652.125 659L727.593 700.083L607.47 716.984Z" fill="#EFF2FF" stroke="#9AA2AC" stroke-linejoin="round"/>
<path d="M608.594 717.08V735.687L488.472 752.709V733.981L608.594 717.08Z" fill="#EFF2FF" stroke="#9AA2AC" stroke-linejoin="round"/>
<path d="M488.468 752.712L413.001 711.679L413 692.893L488.468 733.935V752.712Z" fill="#EFF2FF" stroke="#9AA2AC" stroke-linejoin="round"/>
<path d="M488.47 733.984L413.002 692.89L533.125 676L608.593 717.083L488.47 733.984Z" fill="#EFF2FF" stroke="#9AA2AC" stroke-linejoin="round"/>
</svg>
