<svg width="40" height="39" viewBox="0 0 40 39" fill="none" xmlns="http://www.w3.org/2000/svg">
<path fill-rule="evenodd" clip-rule="evenodd" d="M26.0742 13.2969C26.7646 13.2969 27.3242 13.8425 27.3242 14.5156V27.6283C27.3242 28.3014 26.7646 28.8471 26.0742 28.8471C25.3839 28.8471 24.8242 28.3014 24.8242 27.6283V14.5156C24.8242 13.8425 25.3839 13.2969 26.0742 13.2969Z" fill="#323232"/>
<path fill-rule="evenodd" clip-rule="evenodd" d="M33.3379 13.2969C34.0282 13.2969 34.5879 13.8425 34.5879 14.5156V27.6283C34.5879 28.3014 34.0282 28.8471 33.3379 28.8471C32.6475 28.8471 32.0879 28.3014 32.0879 27.6283V14.5156C32.0879 13.8425 32.6475 13.2969 33.3379 13.2969Z" fill="#323232"/>
<path fill-rule="evenodd" clip-rule="evenodd" d="M22.084 27.6284C22.084 26.9553 22.6436 26.4097 23.334 26.4097H35.0055C35.479 26.4097 35.9118 26.6705 36.1235 27.0834L37.7909 30.3347C37.8777 30.504 37.9229 30.6906 37.9229 30.8798V32.5054C37.9229 33.1785 37.3632 33.7242 36.6729 33.7242H23.334C22.6436 33.7242 22.084 33.1785 22.084 32.5054C22.084 31.8324 22.6436 31.2867 23.334 31.2867H35.4229V31.1675L34.233 28.8472H23.334C22.6436 28.8472 22.084 28.3015 22.084 27.6284Z" fill="#323232"/>
<path fill-rule="evenodd" clip-rule="evenodd" d="M10.8293 20.7187C7.37626 20.7187 4.57617 23.4488 4.57617 26.8155C4.57617 30.1823 7.37626 32.9123 10.8293 32.9123C14.2823 32.9123 17.0824 30.1823 17.0824 26.8155C17.0824 23.4488 14.2823 20.7187 10.8293 20.7187ZM10.8293 18.2812C5.99555 18.2812 2.07617 22.1026 2.07617 26.8155C2.07617 31.5285 5.99555 35.3498 10.8293 35.3498C15.663 35.3498 19.5824 31.5285 19.5824 26.8155C19.5824 22.1026 15.663 18.2812 10.8293 18.2812Z" fill="#323232"/>
<path fill-rule="evenodd" clip-rule="evenodd" d="M14.6315 24.5313C15.1196 25.0072 15.1196 25.7789 14.6315 26.2549L10.9833 29.8118C10.4951 30.2878 9.70367 30.2878 9.21552 29.8118L7.02627 27.6773C6.53812 27.2014 6.53812 26.4297 7.02627 25.9537C7.51443 25.4778 8.30588 25.4778 8.79404 25.9537L10.0994 27.2265L12.8637 24.5313C13.3519 24.0553 14.1433 24.0553 14.6315 24.5313Z" fill="#323232"/>
<path fill-rule="evenodd" clip-rule="evenodd" d="M21.1664 2.12616C21.4852 1.9905 21.8476 1.9905 22.1664 2.12616L37.1727 8.51182C37.6282 8.70567 37.9227 9.14423 37.9227 9.62882V14.5156C37.9227 15.1887 37.363 15.7344 36.6727 15.7344H6.66016C5.9698 15.7344 5.41016 15.1887 5.41016 14.5156V9.62882C5.41016 9.14423 5.70462 8.70567 6.16015 8.51182L21.1664 2.12616ZM7.91016 10.4267V13.2969H35.4227V10.4267L21.6664 4.57293L7.91016 10.4267Z" fill="#323232"/>
</svg>
