<?xml version="1.0" encoding="UTF-8"?>
<svg id="Warstwa_2" data-name="Warstwa 2" xmlns="http://www.w3.org/2000/svg" viewBox="0 0 188.74 156.96">
  <defs>
    <style>
      .cls-1 {
        fill: none;
      }

      .cls-1, .cls-2 {
        stroke: #141428;
        stroke-linejoin: round;
        stroke-width: 1.3px;
      }

      .cls-3 {
        fill: #141428;
      }

      .cls-2 {
        fill: #f4f4f8;
      }

      .cls-4 {
        isolation: isolate;
      }
    </style>
  </defs>
  <g id="Warstwa_1-2" data-name="Warstwa 1">
    <g>
      <g>
        <g class="cls-4">
          <polygon class="cls-2" points="188.09 138.68 187.93 143.65 97.84 156.31 97.99 151.34 188.09 138.68"/>
          <polygon class="cls-2" points="97.84 156.31 14.71 111.09 14.86 106.11 97.99 151.34 97.84 156.31"/>
          <polygon class="cls-2" points="97.99 151.34 14.86 106.11 104.95 93.45 188.09 138.68 97.99 151.34"/>
        </g>
        <line class="cls-1" x1="104.53" y1="122.97" x2="101.17" y2="150.89"/>
        <line class="cls-1" x1="24.47" y1="104.76" x2="101.84" y2="119.31"/>
        <polyline class="cls-1" points="188.09 138.68 101.47 122.4 104.95 93.45"/>
      </g>
      <g>
        <g class="cls-4">
          <polygon class="cls-2" points="188.09 125.83 187.93 130.8 97.84 143.46 97.99 138.49 188.09 125.83"/>
          <polygon class="cls-2" points="97.84 143.46 14.71 98.24 14.86 93.27 97.99 138.49 97.84 143.46"/>
          <polygon class="cls-2" points="97.99 138.49 14.86 93.27 104.95 80.6 188.09 125.83 97.99 138.49"/>
        </g>
        <line class="cls-1" x1="104.53" y1="110.12" x2="101.17" y2="138.04"/>
        <line class="cls-1" x1="24.47" y1="91.91" x2="101.84" y2="106.46"/>
        <polyline class="cls-1" points="188.09 125.83 101.47 109.55 104.95 80.6"/>
      </g>
      <g>
        <g class="cls-4">
          <circle class="cls-2" cx="166.45" cy="53.99" r="19.44"/>
        </g>
        <ellipse class="cls-3" cx="166.63" cy="84.64" rx="15.4" ry="4.56"/>
      </g>
      <g class="cls-4">
        <polygon class="cls-3" points="27.66 80.02 .74 65.38 47.43 58.82 74.35 73.46 27.66 80.02"/>
        <polygon class="cls-2" points="74.35 15.29 74.26 61.63 27.57 68.19 27.66 21.86 74.35 15.29"/>
        <polygon class="cls-2" points="27.57 68.19 .65 53.55 .74 7.21 27.66 21.86 27.57 68.19"/>
        <polygon class="cls-2" points="27.66 21.86 .74 7.21 47.43 .65 74.35 15.29 27.66 21.86"/>
      </g>
    </g>
  </g>
</svg>