<svg width="40" height="40" viewBox="0 0 40 40" fill="none" xmlns="http://www.w3.org/2000/svg">
<path fill-rule="evenodd" clip-rule="evenodd" d="M30.0548 29.954C30.543 30.4422 30.543 31.2336 30.0548 31.7218L28.4377 33.3389L30.0548 34.9561C30.543 35.4442 30.543 36.2357 30.0548 36.7239C29.5667 37.212 28.7752 37.212 28.2871 36.7239L25.786 34.2228C25.2979 33.7347 25.2979 32.9432 25.786 32.455L28.2871 29.954C28.7752 29.4659 29.5667 29.4659 30.0548 29.954Z" fill="black"/>
<path fill-rule="evenodd" clip-rule="evenodd" d="M35.0067 27.0869C35.6971 27.0869 36.2567 27.6466 36.2567 28.3369C36.2567 31.7898 33.4576 34.589 30.0046 34.589H26.6699C25.9796 34.589 25.4199 34.0294 25.4199 33.339C25.4199 32.6486 25.9796 32.089 26.6699 32.089H30.0046C32.0769 32.089 33.7567 30.4091 33.7567 28.3369C33.7567 27.6466 34.3164 27.0869 35.0067 27.0869Z" fill="black"/>
<path fill-rule="evenodd" clip-rule="evenodd" d="M9.94619 3.27627C10.4343 2.78812 11.2258 2.78812 11.714 3.27627L14.215 5.77731C14.7032 6.26547 14.7032 7.05693 14.215 7.54508L11.714 10.0461C11.2258 10.5343 10.4343 10.5343 9.94619 10.0461C9.45804 9.55797 9.45804 8.76651 9.94619 8.27836L11.5634 6.6612L9.94619 5.04404C9.45804 4.55588 9.45804 3.76443 9.94619 3.27627Z" fill="black"/>
<path fill-rule="evenodd" clip-rule="evenodd" d="M3.74414 11.6632C3.74414 8.21029 6.54329 5.41113 9.99622 5.41113H13.3309C14.0213 5.41113 14.5809 5.97078 14.5809 6.66113C14.5809 7.35149 14.0213 7.91113 13.3309 7.91113H9.99622C7.92401 7.91113 6.24414 9.591 6.24414 11.6632C6.24414 12.3536 5.6845 12.9132 4.99414 12.9132C4.30378 12.9132 3.74414 12.3536 3.74414 11.6632Z" fill="black"/>
<path fill-rule="evenodd" clip-rule="evenodd" d="M7.40489 19.5825C6.76383 19.5825 6.24414 20.1022 6.24414 20.7433V29.2607C6.24414 29.9017 6.76383 30.4214 7.40489 30.4214H20.9244C21.5654 30.4214 22.0851 29.9017 22.0851 29.2607V21.6672C22.0851 21.1143 21.8655 20.5841 21.4745 20.1931C21.0836 19.8022 20.5533 19.5825 20.0004 19.5825H7.40489ZM3.74414 20.7433C3.74414 18.7215 5.38312 17.0825 7.40489 17.0825H20.0004C21.2163 17.0825 22.3825 17.5656 23.2423 18.4254C24.1021 19.2852 24.5851 20.4513 24.5851 21.6672V29.2607C24.5851 31.2824 22.9461 32.9214 20.9244 32.9214H7.40489C5.38312 32.9214 3.74414 31.2824 3.74414 29.2607V20.7433Z" fill="black"/>
<path fill-rule="evenodd" clip-rule="evenodd" d="M14.1651 23.751C13.4742 23.751 12.9141 24.3111 12.9141 25.002C12.9141 25.6929 13.4742 26.2531 14.1651 26.2531C14.856 26.2531 15.4161 25.6929 15.4161 25.002C15.4161 24.3111 14.856 23.751 14.1651 23.751ZM10.4141 25.002C10.4141 22.9304 12.0935 21.251 14.1651 21.251C16.2367 21.251 17.9161 22.9304 17.9161 25.002C17.9161 27.0737 16.2367 28.7531 14.1651 28.7531C12.0935 28.7531 10.4141 27.0737 10.4141 25.002Z" fill="black"/>
<path fill-rule="evenodd" clip-rule="evenodd" d="M19.0768 9.57861C18.4357 9.57861 17.916 10.0983 17.916 10.7394V13.3307C17.916 14.0211 17.3564 14.5807 16.666 14.5807C15.9757 14.5807 15.416 14.0211 15.416 13.3307V10.7394C15.416 8.71759 17.055 7.07861 19.0768 7.07861H31.6723C34.2043 7.07861 36.257 9.13126 36.257 11.6633V19.2567C36.257 20.2276 35.8713 21.1588 35.1848 21.8453C34.4983 22.5318 33.5671 22.9175 32.5962 22.9175H28.3375C27.6472 22.9175 27.0875 22.3579 27.0875 21.6675C27.0875 20.9771 27.6472 20.4175 28.3375 20.4175H32.5962C32.9041 20.4175 33.1993 20.2952 33.417 20.0775C33.6347 19.8598 33.757 19.5646 33.757 19.2567V11.6633C33.757 10.512 32.8236 9.57861 31.6723 9.57861H19.0768Z" fill="black"/>
<path fill-rule="evenodd" clip-rule="evenodd" d="M26.1614 13.7887C25.7295 13.6731 25.2687 13.7968 24.9527 14.1131C24.4649 14.6015 23.6734 14.602 23.185 14.1141C22.6965 13.6262 22.6961 12.8348 23.184 12.3463C24.1314 11.3978 25.513 11.0271 26.808 11.3738C28.103 11.7205 29.1145 12.7321 29.4613 14.0271C29.808 15.3221 29.4373 16.7037 28.4887 17.6511C28.0003 18.139 27.2089 18.1385 26.721 17.6501C26.2331 17.1617 26.2336 16.3702 26.722 15.8823C27.0383 15.5664 27.162 15.1056 27.0463 14.6737C26.9307 14.2417 26.5933 13.9044 26.1614 13.7887Z" fill="black"/>
</svg>
