<svg width="439" height="385" viewBox="0 0 439 385" fill="none" xmlns="http://www.w3.org/2000/svg">
<path d="M256.953 312.222L180.744 270.895L242.131 196.413L318.322 237.74L256.953 312.222Z" fill="#F7EE50" stroke="black" stroke-width="1.22584" stroke-linecap="round" stroke-linejoin="round"/>
<path d="M256.96 312.225L180.751 270.898L124.521 278.778L200.72 320.104L256.96 312.225Z" fill="#F7EE50" stroke="black" stroke-width="1.22584" stroke-linecap="round" stroke-linejoin="round"/>
<path d="M200.724 364.532V320.138L124.415 278.726L124.414 324.06L200.724 364.532Z" fill="#F7EE50" stroke="black" stroke-linejoin="round"/>
<path d="M274.006 354.279L359.633 250.353L318.325 237.742L256.975 312.225L200.735 320.214V364.446L274.006 354.279Z" fill="#F7EE50" stroke="black" stroke-width="1.22584" stroke-linecap="round" stroke-linejoin="round"/>
<path d="M318.365 237.721L359.593 250.476L261.843 198.94L242.431 196.492L318.365 237.721Z" fill="#F7EE50" stroke="black" stroke-linejoin="round"/>
<path d="M42.4785 292.009L118.669 333.336L174.909 325.456L98.7089 284.13L42.4785 292.009Z" fill="#F7EE50" stroke="black" stroke-width="1.22584" stroke-linecap="round" stroke-linejoin="round"/>
<path d="M77.4309 290.863L77.2666 383.58L174.924 369.897V325.457L118.684 333.336L118.903 212.268L77.5952 199.676L77.4309 290.863Z" fill="#F7EE50" stroke="black" stroke-width="1.22584" stroke-linecap="round" stroke-linejoin="round"/>
<path d="M1.40444 158.351L1.22191 249.538L1.05762 342.254L77.2484 383.581L77.4309 290.865L77.5952 199.677L1.40444 158.351Z" fill="#F7EE50" stroke="black" stroke-width="1.22584" stroke-linecap="round" stroke-linejoin="round"/>
<path d="M77.6431 199.702L1.33496 158.22L26.7376 161.058L89.9353 192.507L118.976 212.289L77.6431 199.702Z" fill="#F7EE50" stroke="black" stroke-linejoin="round"/>
<path d="M323.093 221.174L246.902 179.848L247.085 58.7979L323.294 100.124L323.093 221.174Z" fill="#F7EE50" stroke="black" stroke-width="1.22584" stroke-linecap="round" stroke-linejoin="round"/>
<path d="M203.29 20.4737L288.48 8.53613L364.689 49.8626L279.481 61.8002L203.29 20.4737Z" fill="#F7EE50" stroke="black" stroke-width="1.22584" stroke-linecap="round" stroke-linejoin="round"/>
<path d="M364.691 49.8633L279.483 61.8008V106.278L323.292 100.143L323.192 160.659L323.091 221.174L364.399 233.785L364.524 155.108L364.691 49.8633Z" fill="#F7EE50" stroke="black" stroke-width="1.22584" stroke-linecap="round" stroke-linejoin="round"/>
<path d="M203.223 66.3112V20.4346L279.5 61.9025V106.409L203.223 66.3112Z" fill="#F7EE50" stroke="black" stroke-linejoin="round"/>
<path d="M91.4697 34.1034L177.408 22.0566L253.599 63.3831L167.66 75.4299L91.4697 34.1034Z" fill="#F7EE50" stroke="black" stroke-width="1.22584" stroke-linecap="round" stroke-linejoin="round"/>
<path d="M91.4681 34.1055L167.659 75.432L82.2865 179.34L6.0957 138.013L91.4681 34.1055Z" fill="#F7EE50" stroke="black" stroke-width="1.22584" stroke-linecap="round" stroke-linejoin="round"/>
<path d="M167.661 75.4305L82.2891 179.338L123.597 191.931L184.747 117.503L253.6 107.861V63.3838L167.661 75.4305Z" fill="#F7EE50" stroke="black" stroke-width="1.22584" stroke-linecap="round" stroke-linejoin="round"/>
<path d="M438.082 18.6201L438.068 60.3527L396.695 66.1545L396.708 24.4219L438.082 18.6201Z" fill="#3CBF30" stroke="black" stroke-linejoin="round"/>
<path d="M396.681 66.1258L364.952 48.9049L364.965 7.19922L396.694 24.4201L396.681 66.1258Z" fill="#3CBF30" stroke="black" stroke-linejoin="round"/>
<path d="M396.553 24.3469L364.962 7.20051L406.556 1.37646L438.143 18.5273L396.553 24.3469Z" fill="#3CBF30" stroke="black" stroke-linejoin="round"/>
</svg>
