<svg width="1500" height="501" viewBox="0 0 1500 501" fill="none" xmlns="http://www.w3.org/2000/svg">
<path d="M175.392 232.437V248.967L68.3851 264.088V247.451L175.392 232.437Z" fill="#F3F5F7" stroke="#9AA2AC" stroke-width="0.5" stroke-linejoin="round" stroke-dasharray="4 4"/>
<path d="M68.3822 264.09L1.15498 227.638L1.1543 210.949L68.3822 247.409V264.09Z" fill="#F3F5F7" stroke="#9AA2AC" stroke-width="0.5" stroke-linejoin="round" stroke-dasharray="4 4"/>
<path d="M68.3836 247.453L1.1557 210.948L108.162 195.943L175.39 232.439L68.3836 247.453Z" fill="#F3F5F7" stroke="#9AA2AC" stroke-width="0.5" stroke-linejoin="round" stroke-dasharray="4 4"/>
<path d="M242.622 268.931V285.461L135.616 300.582V283.945L242.622 268.931Z" fill="#F3F5F7" stroke="#9AA2AC" stroke-width="0.5" stroke-linejoin="round" stroke-dasharray="4 4"/>
<path d="M135.613 300.584L68.3854 264.132L68.3848 247.443L135.613 283.903V300.584Z" fill="#F3F5F7" stroke="#9AA2AC" stroke-width="0.5" stroke-linejoin="round" stroke-dasharray="4 4"/>
<path d="M135.614 283.947L68.3862 247.442L175.393 232.438L242.621 268.933L135.614 283.947Z" fill="#F3F5F7" stroke="#9AA2AC" stroke-width="0.5" stroke-linejoin="round" stroke-dasharray="4 4"/>
<path d="M372.361 251.504L372.333 361.802L221.727 382.86L221.756 272.561L372.361 251.504Z" fill="#F9FAFB" stroke="#9AA2AC" stroke-width="0.5" stroke-linejoin="round"/>
<path d="M312.484 326.464L301.037 320.223L310.258 308.973L321.702 315.215L312.484 326.464Z" fill="#F9EF00" stroke="#3C4149" stroke-width="0.5" stroke-linecap="round" stroke-linejoin="round"/>
<path d="M321.702 315.214L310.258 308.973L310.285 290.69L321.732 296.932L321.702 315.214Z" fill="#F9EF00" stroke="#3C4149" stroke-width="0.5" stroke-linecap="round" stroke-linejoin="round"/>
<path d="M295.592 328.843L284.147 322.602L301.04 320.222L312.487 326.463L295.592 328.843Z" fill="#F9EF00" stroke="#3C4149" stroke-width="0.5" stroke-linecap="round" stroke-linejoin="round"/>
<path d="M316.505 283.102L303.709 284.905L290.801 286.724L302.245 292.966L315.154 291.147L327.952 289.344L316.505 283.102Z" fill="#F9EF00" stroke="#3C4149" stroke-width="0.5" stroke-linecap="round" stroke-linejoin="round"/>
<path d="M290.8 286.723L302.245 292.964L289.421 308.658L277.977 302.416L290.8 286.723Z" fill="#F9EF00" stroke="#3C4149" stroke-width="0.5" stroke-linecap="round" stroke-linejoin="round"/>
<path d="M327.952 289.338L327.908 317.117L315.047 332.813L289.372 336.43L289.397 322.427L289.422 308.654L302.245 292.961L315.154 291.141L327.952 289.338ZM312.486 326.462L321.704 315.212L321.734 296.932L304.811 299.315L295.626 310.556L295.593 328.842L312.488 326.462" fill="#F9EF00"/>
<path d="M312.486 326.462L321.704 315.212L321.734 296.932L304.811 299.315L295.626 310.556L295.593 328.842L312.488 326.462M327.952 289.338L327.908 317.117L315.047 332.813L289.372 336.43L289.397 322.427L289.422 308.654L302.245 292.961L315.154 291.141L327.952 289.338Z" stroke="#3C4149" stroke-width="0.5" stroke-linecap="round" stroke-linejoin="round"/>
<path d="M277.976 302.417L277.949 316.189L277.924 330.192L289.369 336.434L289.396 322.431L289.421 308.658L277.976 302.417Z" fill="#F9EF00" stroke="#3C4149" stroke-width="0.5" stroke-linecap="round" stroke-linejoin="round"/>
<path d="M339.932 284.256L339.93 291.092L333.152 292.042L333.155 285.206L339.932 284.256Z" fill="#3CBF30" stroke="#3C4149" stroke-width="0.5" stroke-linejoin="round"/>
<path d="M333.152 292.039L327.954 289.218L327.956 282.386L333.154 285.207L333.152 292.039Z" fill="#3CBF30" stroke="#3C4149" stroke-width="0.5" stroke-linejoin="round"/>
<path d="M333.131 285.196L327.956 282.388L334.77 281.434L339.944 284.243L333.131 285.196Z" fill="#3CBF30" stroke="#3C4149" stroke-width="0.5" stroke-linejoin="round"/>
<path d="M221.731 382.863L124.947 330.487L124.976 220.188L221.76 272.564L221.731 382.863Z" fill="#F9FAFB" stroke="#9AA2AC" stroke-width="0.5" stroke-linejoin="round"/>
<path d="M206.717 356.703L140.294 321.485L140.295 245.437L206.717 281.564V356.703Z" fill="#F9FAFB" stroke="#9AA2AC" stroke-width="0.5" stroke-linejoin="round"/>
<path d="M221.756 272.561L124.973 220.184L275.588 199.118L372.362 251.504L221.756 272.561Z" fill="#F9FAFB" stroke="#9AA2AC" stroke-width="0.5" stroke-linejoin="round"/>
<path d="M224.562 259.937L161.429 226.255L274.305 210.719L337.976 245.266L224.562 259.937Z" fill="#F9FAFB" stroke="#9AA2AC" stroke-width="0.5" stroke-linejoin="round"/>
<path d="M274.309 240.127V210.82L337.777 245.309L296.324 250.676L274.309 240.127Z" fill="#F9FAFB" stroke="#9AA2AC" stroke-width="0.5" stroke-linejoin="round"/>
<path d="M274.406 210.744V240.218L203.888 248.839L161.806 226.277L274.406 210.744Z" fill="#F9FAFB" stroke="#9AA2AC" stroke-width="0.5" stroke-linejoin="round"/>
<path d="M152.71 319.784V252.184L140.347 245.469L140.346 321.46L152.71 319.784Z" stroke="#9AA2AC" stroke-width="0.5" stroke-linejoin="round"/>
<path d="M152.767 319.645L140.283 321.5L206.74 356.704V347.624L152.767 319.645Z" fill="#F9FAFB" stroke="#9AA2AC" stroke-width="0.5" stroke-linejoin="round"/>
<path d="M167.534 260.394V321.923L159.51 323.101V255.886L167.534 260.394Z" fill="#FFFB9E" stroke="#9AA2AC" stroke-width="0.5" stroke-linejoin="round"/>
<path d="M159.551 323.092L155.137 320.83V253.519L159.573 255.92L159.551 323.092Z" fill="#FFFB9E" stroke="#9AA2AC" stroke-width="0.5" stroke-linejoin="round"/>
<path d="M270.803 228.247L270.824 182.676L159.634 198.222L159.624 225.359L185.604 239.342L270.803 228.247Z" fill="#FFFB9E" stroke="#9AA2AC" stroke-width="0.5" stroke-linejoin="round"/>
<path d="M159.573 225.398L155.137 222.997L155.158 195.822L159.594 198.223L159.573 225.398Z" fill="#FFFB9E" stroke="#9AA2AC" stroke-width="0.5" stroke-linejoin="round"/>
<path d="M159.635 198.234L155.156 195.819L266.354 180.266L270.825 182.688L159.635 198.234Z" fill="#FFFB9E" stroke="#9AA2AC" stroke-width="0.5" stroke-linejoin="round"/>
<path d="M176.971 265.583V326.839L168.947 328.017V261.075L176.971 265.583Z" fill="#FFFB9E" stroke="#9AA2AC" stroke-width="0.5" stroke-linejoin="round"/>
<path d="M168.987 327.968L164.573 325.705L164.572 258.776L169.008 261.177L168.987 327.968Z" fill="#FFFB9E" stroke="#9AA2AC" stroke-width="0.5" stroke-linejoin="round"/>
<path d="M186.65 270.938V331.772L178.626 332.95V266.43L186.65 270.938Z" fill="#FFFB9E" stroke="#9AA2AC" stroke-width="0.5" stroke-linejoin="round"/>
<path d="M178.668 333.03L174.253 330.767L174.253 264.04L178.689 266.441L178.668 333.03Z" fill="#FFFB9E" stroke="#9AA2AC" stroke-width="0.5" stroke-linejoin="round"/>
<path d="M196.531 276.173V336.94L188.507 338.118V271.665L196.531 276.173Z" fill="#FFFB9E" stroke="#9AA2AC" stroke-width="0.5" stroke-linejoin="round"/>
<path d="M188.549 338.156L184.134 335.894L184.134 269.275L188.57 271.676L188.549 338.156Z" fill="#FFFB9E" stroke="#9AA2AC" stroke-width="0.5" stroke-linejoin="round"/>
<path d="M206.722 281.568V341.995L198.388 343.229L198.494 277.054L206.722 281.568Z" fill="#FFFB9E" stroke="#9AA2AC" stroke-width="0.5" stroke-linejoin="round"/>
<path d="M198.43 343.154L194.015 340.891L194.015 274.728L198.451 277.128L198.43 343.154Z" fill="#FFFB9E" stroke="#9AA2AC" stroke-width="0.5" stroke-linejoin="round"/>
<path d="M280.239 233.002L280.259 187.431L169.069 202.977L169.059 230.115L195.039 244.097L280.239 233.002Z" fill="#FFFB9E" stroke="#9AA2AC" stroke-width="0.5" stroke-linejoin="round"/>
<path d="M169.009 230.153L164.572 227.752L164.593 200.578L169.03 202.978L169.009 230.153Z" fill="#FFFB9E" stroke="#9AA2AC" stroke-width="0.5" stroke-linejoin="round"/>
<path d="M169.07 202.989L164.592 200.574L275.789 185.021L280.26 187.443L169.07 202.989Z" fill="#FFFB9E" stroke="#9AA2AC" stroke-width="0.5" stroke-linejoin="round"/>
<path d="M289.919 238.212L289.94 192.641L178.75 208.187L178.74 235.324L204.72 249.307L289.919 238.212Z" fill="#FFFB9E" stroke="#9AA2AC" stroke-width="0.5" stroke-linejoin="round"/>
<path d="M178.689 235.362L174.253 232.961L174.274 205.787L178.71 208.188L178.689 235.362Z" fill="#FFFB9E" stroke="#9AA2AC" stroke-width="0.5" stroke-linejoin="round"/>
<path d="M178.751 208.199L174.272 205.783L285.47 190.23L289.941 192.652L178.751 208.199Z" fill="#FFFB9E" stroke="#9AA2AC" stroke-width="0.5" stroke-linejoin="round"/>
<path d="M299.8 243.599L299.821 198.028L188.63 213.574L188.621 240.711L214.601 254.694L299.8 243.599Z" fill="#FFFB9E" stroke="#9AA2AC" stroke-width="0.5" stroke-linejoin="round"/>
<path d="M188.57 240.749L184.134 238.348L184.155 211.174L188.591 213.575L188.57 240.749Z" fill="#FFFB9E" stroke="#9AA2AC" stroke-width="0.5" stroke-linejoin="round"/>
<path d="M188.631 213.586L184.153 211.17L295.351 195.617L299.822 198.039L188.631 213.586Z" fill="#FFFB9E" stroke="#9AA2AC" stroke-width="0.5" stroke-linejoin="round"/>
<path d="M309.681 248.802L309.702 203.231L198.511 218.777L198.502 245.915L224.482 259.897L309.681 248.802Z" fill="#FFFB9E" stroke="#9AA2AC" stroke-width="0.5" stroke-linejoin="round"/>
<path d="M198.451 245.952L194.015 243.551L194.036 216.377L198.472 218.778L198.451 245.952Z" fill="#FFFB9E" stroke="#9AA2AC" stroke-width="0.5" stroke-linejoin="round"/>
<path d="M198.513 218.789L194.035 216.374L305.232 200.82L309.703 203.243L198.513 218.789Z" fill="#FFFB9E" stroke="#9AA2AC" stroke-width="0.5" stroke-linejoin="round"/>
<path d="M281.542 376.684V387.388H281.531V387.371C281.531 388.264 278.77 390 275.384 390C271.997 390 269.284 388.264 269.284 387.371V380.006C269.284 378.033 269.127 376.535 268.36 375.844C267.903 375.433 267.228 374.899 265.4 373.964L250.766 365.54C249.038 364.114 248.57 361.722 248.589 361.187C248.217 358.128 250.155 356.034 250.766 355.443C252.752 353.652 255.986 353.899 257.355 354.246L276.269 364.742C281.542 366.746 281.542 372.137 281.542 376.684Z" fill="#F3F5F7"/>
<path d="M281.542 387.388V376.684C281.542 372.137 281.542 366.746 276.269 364.742L257.355 354.246C255.986 353.899 252.752 353.652 250.766 355.443C250.155 356.034 248.217 358.128 248.589 361.187C248.57 361.722 249.038 364.114 250.766 365.54L265.4 373.964C267.228 374.899 267.903 375.433 268.36 375.844C269.127 376.535 269.284 378.033 269.284 380.006V387.388V387.371C269.284 388.264 271.997 390 275.384 390C278.77 390 281.531 388.264 281.531 387.371V387.388H281.542Z" stroke="#9AA2AC" stroke-width="0.5" stroke-miterlimit="10"/>
<path d="M324.542 369.684V380.388H324.531V380.371C324.531 381.264 321.686 383 318.197 383C314.708 383 311.912 381.264 311.912 380.371V373.006C311.912 371.033 311.751 369.535 310.96 368.844C310.49 368.433 309.794 367.899 307.911 366.964L292.833 358.54C291.053 357.114 290.571 354.722 290.59 354.187C290.207 351.128 292.204 349.034 292.833 348.443C294.879 346.652 298.212 346.899 299.623 347.246L319.109 357.742C324.542 359.746 324.542 365.137 324.542 369.684Z" fill="#F3F5F7"/>
<path d="M324.542 380.388V369.684C324.542 365.137 324.542 359.746 319.109 357.742L299.623 347.246C298.212 346.899 294.879 346.652 292.833 348.443C292.204 349.034 290.207 351.128 290.59 354.187C290.571 354.722 291.053 357.114 292.833 358.54L307.911 366.964C309.794 367.899 310.49 368.433 310.96 368.844C311.751 369.535 311.912 371.033 311.912 373.006V380.388V380.371C311.912 381.264 314.708 383 318.197 383C321.686 383 324.531 381.264 324.531 380.371V380.388H324.542Z" stroke="#9AA2AC" stroke-width="0.5" stroke-miterlimit="10"/>
<path d="M365.867 368.427L337.773 354.209C336.04 352.816 335.57 350.478 335.589 349.956C335.216 346.966 337.161 344.92 337.773 344.343C339.765 342.593 343.01 342.835 344.383 343.174L373.315 358.273L813.745 296.088C820.217 295.456 825.941 298.422 826.53 298.772L944.542 362.148L935.145 370L817.433 307.357L375.44 369.49C375.004 369.501 370.438 370.446 365.867 368.427Z" fill="#F3F5F7" stroke="#9AA2AC" stroke-width="0.5" stroke-miterlimit="10"/>
<path d="M473.15 347.209L597.542 413.164L588.16 421L467.462 356.805C465.97 355.594 465.566 353.561 465.583 353.107C465.262 350.507 466.935 348.728 467.462 348.226C469.176 346.704 471.968 346.914 473.15 347.209Z" fill="#F3F5F7" stroke="#9AA2AC" stroke-width="0.5" stroke-miterlimit="10"/>
<path d="M743.962 98.4843L743.649 439.558L552.467 466.366L552.779 125.308L743.962 98.4843Z" fill="#F9FAFB" stroke="#9AA2AC" stroke-width="0.5" stroke-linejoin="round"/>
<path d="M667.973 409.447V435.936L639.079 440.514L639.078 413.488L667.973 409.447Z" fill="#F9FAFB" stroke="#9AA2AC" stroke-width="0.5" stroke-linejoin="round"/>
<path d="M639.103 413.56L634.858 411.02V437.894L639.103 440.513V413.56Z" fill="#F9FAFB" stroke="#9AA2AC" stroke-width="0.5" stroke-linejoin="round"/>
<path d="M667.943 409.428L663.078 406.558L634.854 411.01L639.214 413.703L667.943 409.428Z" fill="#F9FAFB" stroke="#9AA2AC" stroke-width="0.5" stroke-linejoin="round"/>
<path d="M736.377 118.497L736.089 383.574L560.054 408.258L560.342 143.196L608.315 136.625L623.257 145.023L652.324 141.333L683.23 136.625L696.332 124.275L736.377 118.497Z" fill="white" stroke="#9AA2AC" stroke-width="0.5" stroke-linejoin="round"/>
<path d="M600.451 186.738V188.628L598.188 188.946V199.386L596.031 199.689V189.249L593.767 189.567V187.677L600.451 186.738ZM605.597 187.815L605.953 187.765V189.781L605.472 189.848C604.854 189.935 604.26 190.199 603.69 190.639V198.613L601.533 198.916V188.44L603.565 188.154V188.892C603.909 188.616 604.147 188.433 604.278 188.342C604.67 188.059 605.11 187.883 605.597 187.815ZM606.82 195.311V190.379C606.82 189.491 607.082 188.758 607.605 188.181C608.139 187.589 608.942 187.219 610.011 187.068C611.08 186.918 611.865 187.066 612.364 187.512C612.875 187.944 613.13 188.604 613.13 189.492V192.948L608.906 193.542V194.856C608.906 195.288 609.031 195.582 609.28 195.739C609.53 195.896 610.005 195.925 610.706 195.827C611.407 195.728 612.126 195.513 612.863 195.182V197.108C612.126 197.427 611.306 197.65 610.403 197.777C608.015 198.113 606.82 197.291 606.82 195.311ZM608.906 191.85L611.134 191.537V189.791C611.134 189.083 610.76 188.781 610.011 188.886C609.274 188.99 608.906 189.396 608.906 190.104V191.85ZM616.296 193.817V194.339C616.296 194.951 616.611 195.213 617.241 195.124C617.728 195.056 618.156 194.864 618.524 194.548V191.92L617.258 192.458C616.866 192.621 616.605 192.796 616.474 192.982C616.355 193.167 616.296 193.445 616.296 193.817ZM614.71 186.84C615.387 186.517 616.284 186.277 617.401 186.12C618.518 185.963 619.332 186.1 619.843 186.533C620.354 186.953 620.61 187.661 620.61 188.657V196.235L618.578 196.52V195.764C618.114 196.37 617.46 196.731 616.617 196.85C615.785 196.967 615.173 196.843 614.781 196.478C614.389 196.113 614.193 195.499 614.193 194.635V194.023C614.193 193.291 614.365 192.691 614.71 192.222C615.054 191.754 615.613 191.357 616.385 191.033L618.542 190.135V188.929C618.53 188.559 618.423 188.304 618.221 188.165C618.019 188.025 617.556 188.006 616.831 188.108C616.106 188.21 615.399 188.435 614.71 188.784V186.84ZM621.904 188.241C621.904 187.317 622.171 186.589 622.706 186.058C623.241 185.527 624.114 185.176 625.326 185.006C626.111 184.896 626.812 184.893 627.43 184.998V186.924C626.883 186.809 626.271 186.799 625.594 186.894C624.928 186.988 624.494 187.127 624.292 187.311C624.102 187.482 624.007 187.735 624.007 188.071V188.323C624.007 188.563 624.061 188.748 624.168 188.877C624.287 188.992 624.512 189.128 624.845 189.286L626.324 189.96C627.311 190.409 627.804 191.102 627.804 192.038V192.506C627.804 194.378 626.592 195.484 624.168 195.825C623.312 195.945 622.563 195.966 621.922 195.888V193.926C622.504 194.025 623.146 194.024 623.847 193.926C624.548 193.827 625.023 193.683 625.273 193.492C625.534 193.299 625.665 193.046 625.665 192.734V192.482C625.665 192.242 625.594 192.06 625.451 191.936C625.32 191.811 625.035 191.653 624.595 191.463L623.259 190.859C622.355 190.458 621.904 189.759 621.904 188.763V188.241ZM633.328 183.971L635.467 183.671V194.147L633.435 194.432V193.946C632.853 194.364 632.182 194.627 631.421 194.733C630.672 194.839 630.096 194.71 629.692 194.346C629.288 193.983 629.086 193.406 629.086 192.614V184.568L631.261 184.262V191.93C631.261 192.506 631.546 192.754 632.116 192.674C632.532 192.615 632.936 192.444 633.328 192.161V183.971ZM641.455 182.775L641.812 182.725V184.741L641.331 184.809C640.713 184.896 640.119 185.159 639.548 185.599V193.573L637.391 193.876V183.4L639.423 183.115V183.853C639.768 183.576 640.006 183.393 640.136 183.303C640.528 183.019 640.968 182.844 641.455 182.775ZM647.153 182.028L649.238 181.735L646.636 195.259L644.568 195.55L645.085 192.795L644.265 192.91L642.126 182.735L644.247 182.437L645.032 186.287C645.341 187.839 645.567 189.421 645.709 191.033C645.84 189.575 646.066 187.941 646.386 186.132L647.153 182.028ZM658.246 181.585C658.246 180.865 657.871 180.558 657.123 180.663L655.911 180.834V185.586L657.123 185.415C657.871 185.31 658.246 184.891 658.246 184.159V181.585ZM653.754 179.247L657.355 178.741C658.317 178.605 659.06 178.741 659.583 179.148C660.117 179.552 660.385 180.193 660.385 181.069V184.075C660.385 184.951 660.117 185.666 659.583 186.222C659.06 186.775 658.317 187.119 657.355 187.255L655.911 187.458V191.274L653.754 191.577V179.247ZM661.918 177.163L664.075 176.86V190.126L661.918 190.429V177.163ZM667.56 186.612V187.134C667.56 187.746 667.875 188.008 668.504 187.92C668.992 187.851 669.419 187.659 669.788 187.343V184.715L668.522 185.253C668.13 185.416 667.869 185.591 667.738 185.777C667.619 185.962 667.56 186.24 667.56 186.612ZM665.973 179.635C666.651 179.312 667.548 179.072 668.665 178.915C669.782 178.758 670.596 178.896 671.107 179.328C671.618 179.748 671.873 180.456 671.873 181.452V189.03L669.841 189.316V188.56C669.378 189.165 668.724 189.527 667.881 189.645C667.049 189.762 666.437 189.638 666.045 189.273C665.652 188.909 665.456 188.294 665.456 187.43V186.818C665.456 186.086 665.629 185.486 665.973 185.017C666.318 184.549 666.876 184.153 667.649 183.828L669.806 182.931V181.725C669.794 181.355 669.687 181.1 669.485 180.96C669.283 180.82 668.819 180.801 668.094 180.903C667.37 181.005 666.663 181.231 665.973 181.579V179.635ZM675.984 176.123V177.977L677.838 177.716V179.552L675.984 179.813V185.771C675.984 186.335 676.281 186.575 676.875 186.491C677.172 186.45 677.535 186.327 677.963 186.122V188.048C677.463 188.287 676.97 188.44 676.483 188.508C674.724 188.756 673.845 188.009 673.845 186.269V180.113L672.829 180.256V178.42L673.934 178.265L674.576 176.32L675.984 176.123ZM679.524 177.173C679.524 175.289 680.493 174.211 682.43 173.939C682.703 173.9 683.006 173.888 683.339 173.901V175.611C683.161 175.6 682.959 175.61 682.733 175.642C682.032 175.741 681.681 176.138 681.681 176.834V177.176L683.285 176.95V178.678L681.681 178.904V187.652L679.524 187.955V179.207L678.508 179.35V177.622L679.524 177.479V177.173ZM688.403 178.967C688.403 178.259 688.041 177.956 687.316 178.058C686.603 178.158 686.246 178.562 686.246 179.27V184.274C686.246 184.982 686.603 185.286 687.316 185.186C688.041 185.084 688.403 184.679 688.403 183.971V178.967ZM684.125 179.514C684.125 178.626 684.387 177.894 684.909 177.316C685.444 176.725 686.246 176.354 687.316 176.204C688.397 176.052 689.199 176.197 689.722 176.64C690.257 177.069 690.524 177.727 690.524 178.615V183.727C690.524 184.615 690.257 185.355 689.722 185.946C689.199 186.523 688.397 186.888 687.316 187.04C686.246 187.19 685.444 187.051 684.909 186.622C684.387 186.18 684.125 185.514 684.125 184.626V179.514ZM696.34 175.062L696.696 175.012V177.028L696.215 177.095C695.597 177.182 695.003 177.446 694.433 177.886V185.86L692.276 186.163V175.687L694.308 175.401V176.139C694.652 175.863 694.89 175.679 695.021 175.589C695.413 175.306 695.853 175.13 696.34 175.062ZM703.517 174.719C704.325 174.161 705.109 173.829 705.87 173.722C706.642 173.614 707.23 173.729 707.634 174.068C708.05 174.394 708.258 174.935 708.258 175.691V183.917L706.084 184.222V176.464C706.084 175.948 705.822 175.727 705.299 175.801C704.872 175.861 704.45 176.046 704.034 176.356C704.069 176.459 704.087 176.589 704.087 176.745V184.503L701.895 184.811V177.053C701.895 176.537 701.633 176.316 701.11 176.389C700.706 176.446 700.302 176.617 699.898 176.902V185.092L697.742 185.395V174.919L699.774 174.633V175.101C700.463 174.656 701.152 174.385 701.841 174.289C702.542 174.19 703.101 174.333 703.517 174.719Z" fill="#3361D8"/>
<rect width="54.4151" height="54.4151" rx="27.2075" transform="matrix(0.990268 -0.139173 0 1 624.478 228.499)" fill="#D6FCC9"/>
<path d="M661.812 244.032L649.32 258.577L641.824 251.957" stroke="#3C4149" stroke-width="2" stroke-linecap="round" stroke-linejoin="round"/>
<path d="M721.299 342.776L721.195 369.94L575.018 390.26L575.122 363.102L721.299 342.776Z" fill="#F9FAFB" stroke="#3C4149" stroke-width="0.5" stroke-linejoin="round"/>
<path d="M594.213 320.725C592.153 321.015 590.715 319.571 590.825 317.484C590.934 315.397 592.545 313.545 594.605 313.256C596.664 312.966 598.113 314.388 598.004 316.475C597.895 318.562 596.273 320.436 594.213 320.725ZM594.248 320.056C595.932 319.82 597.142 318.301 597.232 316.584C597.322 314.866 596.253 313.688 594.569 313.925C592.896 314.16 591.677 315.659 591.587 317.377C591.497 319.095 592.575 320.291 594.248 320.056ZM599.792 316.997L599.645 319.813L598.952 319.911L599.227 314.648L599.871 314.557L599.808 315.756C600.206 314.927 601.004 314.319 601.866 314.198L601.827 314.927C600.73 315.041 599.853 315.849 599.792 316.997ZM602.175 316.841C602.26 315.223 603.209 313.989 604.616 313.792C605.398 313.682 606.038 314.038 606.345 314.738L606.503 311.732L607.196 311.635L606.82 318.805L606.176 318.895L606.234 317.787C605.828 318.607 605.131 319.141 604.329 319.254C602.923 319.452 602.09 318.458 602.175 316.841ZM602.878 316.742C602.808 318.08 603.44 318.774 604.46 318.631C605.47 318.489 606.207 317.563 606.276 316.245C606.346 314.916 605.673 314.248 604.683 314.387C603.663 314.53 602.948 315.404 602.878 316.742ZM610.367 318.405C608.901 318.611 607.989 317.639 608.076 315.972C608.157 314.434 609.227 313.143 610.614 312.949C612.099 312.74 613.006 313.812 612.799 315.516L608.759 316.084C608.753 317.324 609.366 318.001 610.386 317.858C611.257 317.735 611.887 317.161 612.099 316.298L612.783 316.202C612.484 317.404 611.565 318.237 610.367 318.405ZM610.575 313.489C609.635 313.621 608.933 314.444 608.784 315.605L612.101 315.138C612.103 313.968 611.536 313.354 610.575 313.489ZM614.656 314.908L614.508 317.724L613.815 317.822L614.091 312.559L614.735 312.468L614.672 313.667C615.069 312.838 615.868 312.23 616.729 312.109L616.691 312.838C615.594 312.952 614.716 313.76 614.656 314.908ZM624.287 313.733C624.202 315.361 623.243 316.596 621.856 316.791C621.074 316.901 620.433 316.565 620.116 315.866L619.958 318.872L619.265 318.969L619.642 311.779L620.286 311.688L620.226 312.827C620.623 311.998 621.341 311.441 622.143 311.328C623.529 311.133 624.372 312.125 624.287 313.733ZM623.584 313.832C623.654 312.504 623.012 311.811 621.992 311.954C621.021 312.09 620.258 312.971 620.188 314.309C620.119 315.617 620.779 316.337 621.769 316.198C622.789 316.055 623.514 315.18 623.584 313.832ZM625.958 316.115L625.265 316.213L625.641 309.042L626.334 308.945L625.958 316.115ZM630.669 315.453L630.719 314.494C630.378 315.197 629.723 315.685 628.911 315.799C627.832 315.951 627.16 315.441 627.21 314.492C627.264 313.463 628.104 312.81 629.689 312.587C630.006 312.543 630.242 312.529 630.755 312.497L630.778 312.058C630.824 311.179 630.386 310.725 629.594 310.836C628.742 310.956 628.18 311.56 628.125 312.421L627.491 312.51C627.582 311.337 628.425 310.445 629.613 310.278C630.831 310.107 631.506 310.726 631.443 311.944L631.263 315.37L630.669 315.453ZM627.875 314.379C627.841 315.018 628.304 315.379 629.037 315.276C630.007 315.14 630.655 314.414 630.706 313.426L630.731 312.956C630.287 312.979 629.981 313.012 629.694 313.052C628.505 313.219 627.913 313.65 627.875 314.379ZM634.666 315C633.29 315.194 632.388 314.2 632.473 312.583C632.557 310.985 633.587 309.72 634.953 309.528C636.171 309.357 637 310.053 637.139 311.342L636.435 311.441C636.327 310.504 635.763 310.019 634.921 310.137C633.951 310.273 633.242 311.225 633.176 312.484C633.109 313.762 633.728 314.528 634.698 314.391C635.55 314.271 636.163 313.63 636.373 312.629L637.076 312.53C636.818 313.895 635.894 314.828 634.666 315ZM640.065 314.232C638.6 314.438 637.687 313.466 637.775 311.798C637.855 310.26 638.926 308.97 640.312 308.775C641.797 308.566 642.705 309.638 642.497 311.342L638.457 311.91C638.451 313.15 639.064 313.827 640.084 313.684C640.956 313.561 641.585 312.987 641.798 312.125L642.481 312.029C642.182 313.23 641.264 314.063 640.065 314.232ZM640.274 309.315C639.333 309.448 638.631 310.27 638.482 311.431L641.799 310.965C641.802 309.795 641.234 309.18 640.274 309.315ZM643.169 311.079C643.254 309.462 644.203 308.228 645.609 308.03C646.391 307.92 647.031 308.276 647.339 308.977L647.496 305.971L648.189 305.873L647.814 313.044L647.17 313.134L647.228 312.026C646.821 312.846 646.125 313.38 645.323 313.493C643.917 313.69 643.084 312.697 643.169 311.079ZM643.872 310.981C643.802 312.319 644.434 313.013 645.454 312.87C646.464 312.728 647.201 311.801 647.27 310.483C647.339 309.155 646.667 308.486 645.676 308.625C644.656 308.769 643.942 309.642 643.872 310.981ZM655.364 310.525C655.313 311.494 654.509 312.202 653.222 312.383C651.925 312.565 651.167 312.017 651.125 310.943L651.789 310.849C651.799 311.591 652.359 311.979 653.25 311.853C654.102 311.734 654.634 311.332 654.665 310.733C654.692 310.213 654.408 310.015 653.624 309.967L652.879 309.923C651.899 309.872 651.4 309.457 651.439 308.698C651.486 307.819 652.29 307.091 653.429 306.931C654.627 306.763 655.386 307.301 655.41 308.338L654.756 308.43C654.725 307.711 654.223 307.355 653.401 307.47C652.668 307.573 652.145 307.994 652.116 308.543C652.089 309.062 652.393 309.268 653.157 309.309L653.932 309.349C654.961 309.402 655.403 309.776 655.364 310.525ZM659.94 309.228L660.105 306.092L660.788 305.996L660.512 311.259L659.868 311.349L659.918 310.401C659.619 311.047 658.962 311.576 658.199 311.683C657.14 311.832 656.469 311.322 656.538 309.993L656.718 306.568L657.411 306.471L657.239 309.746C657.183 310.815 657.687 311.15 658.42 311.047C659.251 310.931 659.891 310.167 659.94 309.228ZM663.959 310.884C662.582 311.077 661.681 310.084 661.765 308.466C661.849 306.868 662.879 305.603 664.245 305.411C665.463 305.24 666.292 305.936 666.431 307.225L665.728 307.324C665.619 306.388 665.055 305.902 664.213 306.02C663.243 306.157 662.534 307.109 662.468 308.367C662.402 309.645 663.02 310.411 663.99 310.274C664.842 310.155 665.456 309.513 665.665 308.512L666.368 308.414C666.11 309.778 665.186 310.711 663.959 310.884ZM669.258 310.139C667.882 310.332 666.98 309.339 667.065 307.721C667.149 306.123 668.178 304.858 669.545 304.666C670.763 304.495 671.591 305.192 671.73 306.48L671.027 306.579C670.919 305.643 670.355 305.157 669.513 305.275C668.542 305.412 667.834 306.364 667.768 307.622C667.701 308.9 668.319 309.666 669.29 309.53C670.142 309.41 670.755 308.769 670.965 307.768L671.668 307.669C671.41 309.033 670.486 309.966 669.258 310.139ZM674.657 309.37C673.191 309.576 672.279 308.604 672.366 306.936C672.447 305.398 673.517 304.108 674.904 303.913C676.389 303.704 677.296 304.776 677.089 306.481L673.049 307.049C673.043 308.288 673.656 308.966 674.676 308.822C675.547 308.7 676.177 308.126 676.389 307.263L677.073 307.167C676.774 308.369 675.855 309.202 674.657 309.37ZM674.866 304.454C673.925 304.586 673.223 305.408 673.074 306.569L676.391 306.103C676.394 304.933 675.826 304.319 674.866 304.454ZM682.084 306.77C682.033 307.739 681.229 308.446 679.942 308.627C678.645 308.81 677.887 308.262 677.845 307.187L678.509 307.094C678.519 307.836 679.078 308.223 679.97 308.098C680.821 307.978 681.354 307.576 681.385 306.977C681.412 306.458 681.128 306.26 680.344 306.212L679.599 306.168C678.619 306.117 678.12 305.701 678.159 304.943C678.205 304.064 679.01 303.336 680.149 303.176C681.347 303.008 682.105 303.545 682.13 304.583L681.476 304.675C681.445 303.955 680.943 303.6 680.121 303.715C679.388 303.818 678.865 304.239 678.836 304.788C678.809 305.307 679.112 305.512 679.877 305.554L680.651 305.593C681.681 305.647 682.123 306.021 682.084 306.77ZM687.19 306.052C687.139 307.021 686.335 307.729 685.048 307.91C683.751 308.092 682.993 307.544 682.951 306.47L683.615 306.376C683.625 307.118 684.185 307.506 685.076 307.38C685.927 307.261 686.46 306.859 686.491 306.26C686.518 305.74 686.234 305.542 685.45 305.494L684.705 305.45C683.725 305.399 683.226 304.984 683.265 304.225C683.311 303.346 684.116 302.618 685.255 302.458C686.453 302.29 687.212 302.828 687.236 303.865L686.582 303.957C686.551 303.238 686.049 302.882 685.227 302.998C684.494 303.101 683.971 303.521 683.942 304.07C683.915 304.59 684.218 304.795 684.983 304.836L685.758 304.876C686.787 304.929 687.229 305.303 687.19 306.052ZM689.427 307.195L688.734 307.293L688.979 302.619L687.751 302.792L687.782 302.202L689.01 302.03L689.035 301.55C689.086 300.582 689.639 299.969 690.55 299.841C690.788 299.807 690.994 299.818 691.168 299.863L691.138 300.442C690.973 300.396 690.815 300.408 690.637 300.433C690.082 300.511 689.761 300.834 689.728 301.453L689.703 301.932L691.238 301.717L691.207 302.306L689.672 302.522L689.427 307.195ZM695.209 304.271L695.373 301.135L696.056 301.039L695.781 306.302L695.137 306.393L695.187 305.444C694.887 306.091 694.231 306.619 693.468 306.726C692.409 306.875 691.737 306.365 691.807 305.037L691.986 301.611L692.68 301.514L692.508 304.79C692.452 305.858 692.955 306.194 693.688 306.091C694.52 305.974 695.16 305.21 695.209 304.271ZM697.975 305.994L697.282 306.091L697.658 298.921L698.351 298.824L697.975 305.994ZM700.17 305.685L699.477 305.783L699.853 298.613L700.546 298.515L700.17 305.685ZM705.969 299.646L702.918 307.212L702.176 307.317L703.043 305.212L701.245 300.31L701.988 300.206L703.443 304.323L705.266 299.745L705.969 299.646Z" fill="#3C4149"/>
<path d="M652.867 368.981C651.219 369.213 650.044 368.085 650.132 366.392C650.221 364.698 651.532 363.237 653.18 363.005C654.828 362.774 656.004 363.885 655.916 365.579C655.827 367.273 654.515 368.75 652.867 368.981ZM652.908 368.19C654.113 368.021 654.948 366.936 655.012 365.706C655.077 364.476 654.343 363.627 653.139 363.796C651.934 363.966 651.1 365.034 651.035 366.265C650.971 367.495 651.704 368.36 652.908 368.19ZM657.403 368.225L656.603 368.337L656.903 362.601L657.703 362.489L657.525 365.884L659.423 363.738L660.366 363.605L658.317 365.931L660.326 367.814L659.296 367.959L657.508 366.22L657.403 368.225Z" fill="#3C4149"/>
<path d="M552.468 466.364L538.661 458.883L538.974 117.809L552.781 125.306L552.468 466.364Z" fill="#F9FAFB" stroke="#9AA2AC" stroke-width="0.5" stroke-linejoin="round"/>
<path d="M552.782 125.301L538.999 117.765L730.181 90.9571L743.964 98.4775L552.782 125.301Z" fill="#F9FAFB" stroke="#9AA2AC" stroke-width="0.5" stroke-linejoin="round"/>
<path d="M672.861 119.771V129.935L632.47 136.156L632.469 125.454L672.861 119.771Z" fill="#F9FAFB" stroke="#9AA2AC" stroke-width="0.5" stroke-linejoin="round"/>
<path d="M632.494 125.526L628.248 122.986V133.536L632.494 136.155V125.526Z" fill="#F9FAFB" stroke="#9AA2AC" stroke-width="0.5" stroke-linejoin="round"/>
<path d="M672.902 119.68L668.037 116.811L628.244 122.977L632.605 125.67L672.902 119.68Z" fill="#F9FAFB" stroke="#9AA2AC" stroke-width="0.5" stroke-linejoin="round"/>
<path d="M1083.28 499.966L862.252 379.605L862.396 366.187L1083.28 486.587V499.966Z" fill="#F9FAFB" stroke="#9AA2AC" stroke-width="0.5" stroke-linejoin="round"/>
<path d="M1083.37 486.588L862.391 366.266L1278.36 307.938L1499.34 428.252L1083.37 486.588Z" fill="#F9FAFB" stroke="#9AA2AC" stroke-width="0.5" stroke-linejoin="round"/>
<path d="M1226.96 466.426L1168.12 434.389L1293.38 416.825L1352.22 448.86L1226.96 466.426Z" fill="#F9FAFB" stroke="#9AA2AC" stroke-width="0.5" stroke-linejoin="round"/>
<path d="M1290.58 7.7724L1290.3 314.456L874.809 372.912L875.09 66.2428L1290.58 7.7724Z" fill="#F9FAFB" stroke="#9AA2AC" stroke-width="0.5" stroke-linejoin="round"/>
<path d="M1278.39 21.7094L1278.13 303.95L886.991 358.98L887.255 76.7533L1278.39 21.7094Z" fill="white" stroke="#9AA2AC" stroke-width="0.5" stroke-linejoin="round"/>
<path d="M908.844 103.795L911.001 103.492V115.822L908.844 116.125V103.795ZM914.949 105.259C915.638 104.814 916.322 104.544 916.999 104.449C917.676 104.353 918.223 104.475 918.639 104.812C919.055 105.138 919.263 105.678 919.263 106.434V114.66L917.07 114.969V107.211C917.07 106.695 916.809 106.473 916.286 106.547C915.882 106.604 915.478 106.774 915.074 107.059V115.249L912.917 115.552V105.076L914.949 104.791V105.259ZM925.305 103.335L927.426 103.037L925.198 113.826L922.578 114.195L920.314 104.037L922.471 103.734L923.22 107.444C923.529 109.021 923.754 110.651 923.897 112.335C924.028 110.817 924.254 109.135 924.574 107.29L925.305 103.335ZM928.37 110.518V105.586C928.37 104.698 928.632 103.966 929.155 103.388C929.69 102.797 930.492 102.426 931.561 102.276C932.631 102.126 933.415 102.274 933.914 102.719C934.425 103.152 934.68 103.812 934.68 104.7V108.156L930.456 108.749V110.063C930.456 110.495 930.581 110.79 930.83 110.947C931.08 111.104 931.555 111.133 932.256 111.034C932.957 110.936 933.676 110.721 934.413 110.389V112.315C933.676 112.635 932.856 112.858 931.953 112.985C929.565 113.321 928.37 112.498 928.37 110.518ZM930.456 107.057L932.684 106.744V104.998C932.684 104.29 932.31 103.989 931.561 104.094C930.824 104.198 930.456 104.603 930.456 105.311V107.057ZM935.743 104.532C935.743 103.608 936.01 102.881 936.545 102.35C937.08 101.818 937.953 101.468 939.165 101.297C939.949 101.187 940.65 101.185 941.268 101.29V103.216C940.722 103.101 940.11 103.091 939.432 103.186C938.767 103.279 938.333 103.418 938.131 103.603C937.941 103.773 937.846 104.027 937.846 104.363V104.615C937.846 104.855 937.9 105.039 938.006 105.168C938.125 105.284 938.351 105.42 938.684 105.577L940.163 106.251C941.15 106.7 941.643 107.393 941.643 108.329V108.797C941.643 110.669 940.431 111.776 938.006 112.116C937.151 112.236 936.402 112.258 935.761 112.18V110.218C936.343 110.316 936.985 110.316 937.686 110.217C938.387 110.119 938.862 109.974 939.112 109.783C939.373 109.59 939.504 109.338 939.504 109.026V108.774C939.504 108.534 939.432 108.352 939.29 108.228C939.159 108.102 938.874 107.944 938.434 107.754L937.097 107.15C936.194 106.749 935.743 106.05 935.743 105.054V104.532ZM945.296 98.6718V100.526L947.149 100.265V102.101L945.296 102.362V108.32C945.296 108.884 945.593 109.124 946.187 109.041C946.484 108.999 946.846 108.876 947.274 108.672V110.598C946.775 110.836 946.282 110.989 945.795 111.058C944.036 111.305 943.157 110.558 943.157 108.818V102.662L942.141 102.805V100.969L943.246 100.814L943.887 98.8697L945.296 98.6718ZM954.272 99.8762C955.081 99.3186 955.865 98.9864 956.625 98.8795C957.398 98.7709 957.986 98.8863 958.39 99.2255C958.806 99.551 959.014 100.092 959.014 100.848V109.074L956.839 109.379V101.621C956.839 101.105 956.578 100.884 956.055 100.958C955.627 101.018 955.205 101.203 954.789 101.514C954.825 101.617 954.843 101.746 954.843 101.902V109.66L952.65 109.968V102.21C952.65 101.694 952.389 101.473 951.866 101.546C951.462 101.603 951.058 101.774 950.654 102.059V110.249L948.497 110.552V100.076L950.529 99.7902V100.258C951.218 99.8134 951.908 99.5425 952.597 99.4457C953.298 99.3471 953.857 99.4906 954.272 99.8762ZM960.678 105.978V101.046C960.678 100.158 960.939 99.4252 961.462 98.8477C961.997 98.2566 962.799 97.8858 963.869 97.7355C964.938 97.5852 965.722 97.733 966.222 98.1788C966.732 98.611 966.988 99.2711 966.988 100.159V103.615L962.763 104.209V105.523C962.763 105.955 962.888 106.249 963.138 106.406C963.387 106.563 963.863 106.592 964.564 106.494C965.265 106.395 965.984 106.18 966.721 105.849V107.775C965.984 108.094 965.164 108.317 964.261 108.444C961.872 108.78 960.678 107.958 960.678 105.978ZM962.763 102.517L964.992 102.204V100.458C964.992 99.7497 964.617 99.4483 963.869 99.5535C963.132 99.6571 962.763 100.063 962.763 100.771V102.517ZM970.617 97.4351C971.306 96.9902 971.99 96.7202 972.667 96.625C973.344 96.5298 973.891 96.651 974.307 96.9885C974.723 97.3141 974.931 97.8549 974.931 98.6109V106.837L972.738 107.145V99.387C972.738 98.871 972.477 98.6497 971.954 98.7232C971.55 98.78 971.146 98.9508 970.742 99.2356V107.426L968.585 107.729V97.2527L970.617 96.9671V97.4351ZM979.048 93.9282V95.7822L980.902 95.5217V97.3577L979.048 97.6182V103.576C979.048 104.14 979.345 104.38 979.939 104.297C980.236 104.255 980.599 104.132 981.026 103.928V105.854C980.527 106.092 980.034 106.246 979.547 106.314C977.788 106.561 976.909 105.815 976.909 104.075V97.9188L975.893 98.0616V96.2256L976.998 96.0703L977.64 94.1261L979.048 93.9282ZM989.799 96.9893C989.799 96.4733 989.525 96.2537 988.979 96.3305C988.551 96.3906 988.135 96.5631 987.731 96.8479V103.04L988.747 102.897C989.448 102.799 989.799 102.425 989.799 101.777V96.9893ZM987.606 95.0474C988.331 94.5975 989.032 94.325 989.71 94.2298C990.387 94.1346 990.934 94.2558 991.349 94.5933C991.765 94.9189 991.973 95.4597 991.973 96.2157V101.778C991.973 102.654 991.73 103.354 991.243 103.878C990.755 104.391 990.102 104.705 989.282 104.82L987.731 105.038V107.72L985.574 108.023V94.865L987.606 94.5794V95.0474ZM993.721 90.9301L995.878 90.627V103.893L993.721 104.196V90.9301ZM999.363 100.379V100.901C999.363 101.513 999.677 101.775 1000.31 101.686C1000.79 101.618 1001.22 101.426 1001.59 101.11V98.482L1000.33 99.0199C999.933 99.183 999.672 99.3577 999.541 99.5441C999.422 99.7288 999.363 100.007 999.363 100.379ZM997.776 93.4021C998.454 93.0789 999.351 92.8388 1000.47 92.6818C1001.58 92.5249 1002.4 92.6625 1002.91 93.0946C1003.42 93.5148 1003.68 94.2229 1003.68 95.2189V102.797L1001.64 103.083V102.327C1001.18 102.932 1000.53 103.293 999.683 103.412C998.852 103.529 998.24 103.405 997.847 103.04C997.455 102.675 997.259 102.061 997.259 101.197V100.585C997.259 99.8528 997.432 99.2526 997.776 98.7841C998.121 98.3157 998.679 97.9192 999.452 97.5946L1001.61 96.6975V95.4915C1001.6 95.1212 1001.49 94.8662 1001.29 94.7266C1001.09 94.587 1000.62 94.5681 999.897 94.67C999.172 94.7719 998.465 94.9973 997.776 95.3461V93.4021ZM1007.79 89.8892V91.7432L1009.64 91.4827V93.3187L1007.79 93.5792V99.5372C1007.79 100.101 1008.08 100.341 1008.68 100.258C1008.98 100.216 1009.34 100.093 1009.77 99.8891V101.815C1009.27 102.053 1008.77 102.207 1008.29 102.275C1006.53 102.522 1005.65 101.776 1005.65 100.036V93.8798L1004.63 94.0226V92.1866L1005.74 92.0313L1006.38 90.0871L1007.79 89.8892ZM1011.33 90.9396C1011.33 89.0556 1012.3 87.9775 1014.23 87.7053C1014.51 87.6669 1014.81 87.6543 1015.14 87.6676V89.3776C1014.96 89.3666 1014.76 89.377 1014.54 89.4087C1013.83 89.5073 1013.48 89.9045 1013.48 90.6005V90.9425L1015.09 90.7171V92.4451L1013.48 92.6705V101.419L1011.33 101.722V92.9736L1010.31 93.1164V91.3884L1011.33 91.2456V90.9396ZM1020.21 92.7338C1020.21 92.0258 1019.84 91.7228 1019.12 91.8246C1018.41 91.9248 1018.05 92.3289 1018.05 93.0369V98.0409C1018.05 98.7489 1018.41 99.0528 1019.12 98.9526C1019.84 98.8508 1020.21 98.4458 1020.21 97.7378V92.7338ZM1015.93 93.2811C1015.93 92.3931 1016.19 91.6603 1016.71 91.0828C1017.25 90.4917 1018.05 90.1209 1019.12 89.9706C1020.2 89.8187 1021 89.9639 1021.52 90.4064C1022.06 90.8353 1022.33 91.4937 1022.33 92.3817V97.4937C1022.33 98.3817 1022.06 99.1213 1021.52 99.7124C1021 100.29 1020.2 100.655 1019.12 100.807C1018.05 100.957 1017.25 100.818 1016.71 100.389C1016.19 99.9463 1015.93 99.2811 1015.93 98.3931V93.2811ZM1028.14 88.8284L1028.5 88.7783V90.7943L1028.02 90.8619C1027.4 90.9488 1026.81 91.2123 1026.24 91.6524V99.6264L1024.08 99.9295V89.4535L1026.11 89.168V89.906C1026.46 89.6295 1026.69 89.4461 1026.82 89.3558C1027.22 89.0726 1027.66 88.8969 1028.14 88.8284ZM1035.32 88.4857C1036.13 87.9282 1036.91 87.5959 1037.67 87.489C1038.45 87.3805 1039.03 87.4958 1039.44 87.835C1039.85 88.1606 1040.06 88.7014 1040.06 89.4574V97.6834L1037.89 97.989V90.231C1037.89 89.715 1037.63 89.4937 1037.1 89.5672C1036.67 89.6273 1036.25 89.8126 1035.84 90.1231C1035.87 90.2261 1035.89 90.3556 1035.89 90.5116V98.2696L1033.7 98.5777V90.8197C1033.7 90.3037 1033.44 90.0824 1032.91 90.1559C1032.51 90.2127 1032.11 90.3835 1031.7 90.6683V98.8583L1029.54 99.1614V88.6854L1031.58 88.3998V88.8678C1032.27 88.4229 1032.95 88.1521 1033.64 88.0552C1034.35 87.9567 1034.9 88.1002 1035.32 88.4857Z" fill="#3361D8"/>
<path d="M874.809 372.912L862.394 366.185L862.675 59.501L875.09 66.2423L874.809 372.912Z" fill="#F9FAFB" stroke="#9AA2AC" stroke-width="0.5" stroke-linejoin="round"/>
<path d="M875.09 66.2393L862.697 59.4624L1278.16 1L1290.56 7.76209L875.09 66.2393Z" fill="#F9FAFB" stroke="#9AA2AC" stroke-width="0.5" stroke-linejoin="round"/>
<path d="M1499.35 428.234V441.619L1083.42 500L1083.28 486.61L1499.35 428.234Z" fill="#F9FAFB" stroke="#9AA2AC" stroke-width="0.5" stroke-linejoin="round"/>
<path d="M1271.53 321.616V331.532L1240.03 336.129L1240.03 326.021L1271.53 321.616Z" fill="white" stroke="#9AA2AC" stroke-width="0.5" stroke-linejoin="round"/>
<path d="M1240.04 336.122L1225.62 328.328L1225.62 318.156L1240.04 325.959V336.122Z" fill="white" stroke="#9AA2AC" stroke-width="0.5" stroke-linejoin="round"/>
<path d="M1240.1 326.006L1225.62 318.162L1257.11 313.76L1271.54 321.617L1240.1 326.006Z" fill="white" stroke="#9AA2AC" stroke-width="0.5" stroke-linejoin="round"/>
<path d="M1293.5 333.483V343.398L1262 347.995L1262 337.887L1293.5 333.483Z" fill="white" stroke="#9AA2AC" stroke-width="0.5" stroke-linejoin="round"/>
<path d="M1262.01 347.988L1247.59 340.194L1247.59 330.023L1262.01 337.826V347.988Z" fill="white" stroke="#9AA2AC" stroke-width="0.5" stroke-linejoin="round"/>
<path d="M1262.07 337.872L1247.59 330.029L1279.08 325.627L1293.51 333.483L1262.07 337.872Z" fill="white" stroke="#9AA2AC" stroke-width="0.5" stroke-linejoin="round"/>
<path d="M1315.74 345.728V355.644L1284.25 360.241L1284.24 350.133L1315.74 345.728Z" fill="white" stroke="#9AA2AC" stroke-width="0.5" stroke-linejoin="round"/>
<path d="M1284.25 360.234L1269.83 352.44L1269.83 342.269L1284.25 350.072V360.234Z" fill="white" stroke="#9AA2AC" stroke-width="0.5" stroke-linejoin="round"/>
<path d="M1284.32 350.118L1269.83 342.275L1301.33 337.873L1315.76 345.73L1284.32 350.118Z" fill="white" stroke="#9AA2AC" stroke-width="0.5" stroke-linejoin="round"/>
<path d="M1337.98 357.974V367.89L1306.49 372.487L1306.49 362.379L1337.98 357.974Z" fill="white" stroke="#9AA2AC" stroke-width="0.5" stroke-linejoin="round"/>
<path d="M1306.49 372.48L1292.08 364.686L1292.08 354.514L1306.49 362.317V372.48Z" fill="white" stroke="#9AA2AC" stroke-width="0.5" stroke-linejoin="round"/>
<path d="M1306.56 362.364L1292.08 354.52L1323.57 350.118L1338 357.975L1306.56 362.364Z" fill="white" stroke="#9AA2AC" stroke-width="0.5" stroke-linejoin="round"/>
<path d="M1360.23 370.22V380.135L1328.73 384.732L1328.73 374.624L1360.23 370.22Z" fill="white" stroke="#9AA2AC" stroke-width="0.5" stroke-linejoin="round"/>
<path d="M1328.74 384.725L1314.32 376.931L1314.32 366.76L1328.74 374.563V384.725Z" fill="white" stroke="#9AA2AC" stroke-width="0.5" stroke-linejoin="round"/>
<path d="M1328.8 374.61L1314.32 366.766L1345.82 362.365L1360.24 370.221L1328.8 374.61Z" fill="white" stroke="#9AA2AC" stroke-width="0.5" stroke-linejoin="round"/>
<path d="M1382.47 382.465V392.381L1350.98 396.978L1350.98 386.87L1382.47 382.465Z" fill="white" stroke="#9AA2AC" stroke-width="0.5" stroke-linejoin="round"/>
<path d="M1350.98 396.971L1336.56 389.178L1336.56 379.006L1350.98 386.809V396.971Z" fill="white" stroke="#9AA2AC" stroke-width="0.5" stroke-linejoin="round"/>
<path d="M1351.05 386.855L1336.56 379.012L1368.06 374.61L1382.49 382.466L1351.05 386.855Z" fill="white" stroke="#9AA2AC" stroke-width="0.5" stroke-linejoin="round"/>
<path d="M1229.05 327.714V337.629L1197.55 342.226L1197.55 332.118L1229.05 327.714Z" fill="white" stroke="#9AA2AC" stroke-width="0.5" stroke-linejoin="round"/>
<path d="M1197.56 342.219L1183.14 334.425L1183.14 324.254L1197.56 332.057V342.219Z" fill="white" stroke="#9AA2AC" stroke-width="0.5" stroke-linejoin="round"/>
<path d="M1197.62 332.103L1183.14 324.26L1214.63 319.858L1229.06 327.714L1197.62 332.103Z" fill="white" stroke="#9AA2AC" stroke-width="0.5" stroke-linejoin="round"/>
<path d="M1251.02 339.58V349.495L1219.52 354.092L1219.52 343.984L1251.02 339.58Z" fill="white" stroke="#9AA2AC" stroke-width="0.5" stroke-linejoin="round"/>
<path d="M1219.53 354.085L1205.11 346.291L1205.11 336.12L1219.53 343.923V354.085Z" fill="white" stroke="#9AA2AC" stroke-width="0.5" stroke-linejoin="round"/>
<path d="M1219.59 343.97L1205.11 336.126L1236.6 331.724L1251.03 339.581L1219.59 343.97Z" fill="white" stroke="#9AA2AC" stroke-width="0.5" stroke-linejoin="round"/>
<path d="M1273.26 351.826V361.741L1241.77 366.338L1241.77 356.23L1273.26 351.826Z" fill="white" stroke="#9AA2AC" stroke-width="0.5" stroke-linejoin="round"/>
<path d="M1241.77 366.332L1227.35 358.538L1227.35 348.366L1241.77 356.169V366.332Z" fill="white" stroke="#9AA2AC" stroke-width="0.5" stroke-linejoin="round"/>
<path d="M1241.84 356.216L1227.35 348.372L1258.85 343.97L1273.28 351.827L1241.84 356.216Z" fill="white" stroke="#9AA2AC" stroke-width="0.5" stroke-linejoin="round"/>
<path d="M1295.5 364.072V373.987L1264.01 378.584L1264.01 368.476L1295.5 364.072Z" fill="white" stroke="#9AA2AC" stroke-width="0.5" stroke-linejoin="round"/>
<path d="M1264.01 378.577L1249.6 370.783L1249.6 360.612L1264.01 368.415V378.577Z" fill="white" stroke="#9AA2AC" stroke-width="0.5" stroke-linejoin="round"/>
<path d="M1264.08 368.461L1249.6 360.618L1281.09 356.216L1295.52 364.072L1264.08 368.461Z" fill="white" stroke="#9AA2AC" stroke-width="0.5" stroke-linejoin="round"/>
<path d="M1317.75 376.317V386.233L1286.25 390.83L1286.25 380.722L1317.75 376.317Z" fill="white" stroke="#9AA2AC" stroke-width="0.5" stroke-linejoin="round"/>
<path d="M1286.26 390.823L1271.84 383.03L1271.84 372.858L1286.26 380.661V390.823Z" fill="white" stroke="#9AA2AC" stroke-width="0.5" stroke-linejoin="round"/>
<path d="M1286.33 380.707L1271.84 372.864L1303.34 368.462L1317.77 376.318L1286.33 380.707Z" fill="white" stroke="#9AA2AC" stroke-width="0.5" stroke-linejoin="round"/>
<path d="M1339.99 388.563V398.478L1308.5 403.075L1308.5 392.968L1339.99 388.563Z" fill="white" stroke="#9AA2AC" stroke-width="0.5" stroke-linejoin="round"/>
<path d="M1308.5 403.069L1294.08 395.275L1294.08 385.104L1308.5 392.907V403.069Z" fill="white" stroke="#9AA2AC" stroke-width="0.5" stroke-linejoin="round"/>
<path d="M1308.57 392.953L1294.08 385.109L1325.58 380.707L1340.01 388.564L1308.57 392.953Z" fill="white" stroke="#9AA2AC" stroke-width="0.5" stroke-linejoin="round"/>
<path d="M1186.57 333.811V343.727L1155.07 348.324L1155.07 338.216L1186.57 333.811Z" fill="white" stroke="#9AA2AC" stroke-width="0.5" stroke-linejoin="round"/>
<path d="M1155.08 348.317L1140.66 340.523L1140.66 330.352L1155.08 338.155V348.317Z" fill="white" stroke="#9AA2AC" stroke-width="0.5" stroke-linejoin="round"/>
<path d="M1155.14 338.201L1140.66 330.357L1172.15 325.955L1186.58 333.812L1155.14 338.201Z" fill="white" stroke="#9AA2AC" stroke-width="0.5" stroke-linejoin="round"/>
<path d="M1208.54 345.678V355.593L1177.04 360.19L1177.04 350.082L1208.54 345.678Z" fill="white" stroke="#9AA2AC" stroke-width="0.5" stroke-linejoin="round"/>
<path d="M1177.05 360.184L1162.63 352.39L1162.63 342.218L1177.05 350.021V360.184Z" fill="white" stroke="#9AA2AC" stroke-width="0.5" stroke-linejoin="round"/>
<path d="M1177.11 350.068L1162.63 342.224L1194.13 337.822L1208.55 345.679L1177.11 350.068Z" fill="white" stroke="#9AA2AC" stroke-width="0.5" stroke-linejoin="round"/>
<path d="M1230.78 357.923V367.839L1199.29 372.436L1199.29 362.328L1230.78 357.923Z" fill="white" stroke="#9AA2AC" stroke-width="0.5" stroke-linejoin="round"/>
<path d="M1199.29 372.429L1184.87 364.635L1184.87 354.464L1199.29 362.267V372.429Z" fill="white" stroke="#9AA2AC" stroke-width="0.5" stroke-linejoin="round"/>
<path d="M1199.36 362.313L1184.87 354.47L1216.37 350.068L1230.8 357.924L1199.36 362.313Z" fill="white" stroke="#9AA2AC" stroke-width="0.5" stroke-linejoin="round"/>
<path d="M1253.02 370.169V380.085L1221.53 384.682L1221.53 374.574L1253.02 370.169Z" fill="white" stroke="#9AA2AC" stroke-width="0.5" stroke-linejoin="round"/>
<path d="M1221.53 384.675L1207.12 376.881L1207.12 366.71L1221.53 374.513V384.675Z" fill="white" stroke="#9AA2AC" stroke-width="0.5" stroke-linejoin="round"/>
<path d="M1221.6 374.559L1207.12 366.716L1238.61 362.314L1253.04 370.17L1221.6 374.559Z" fill="white" stroke="#9AA2AC" stroke-width="0.5" stroke-linejoin="round"/>
<path d="M1275.27 382.415V392.331L1243.77 396.928L1243.77 386.82L1275.27 382.415Z" fill="white" stroke="#9AA2AC" stroke-width="0.5" stroke-linejoin="round"/>
<path d="M1243.78 396.921L1229.36 389.127L1229.36 378.955L1243.78 386.758V396.921Z" fill="white" stroke="#9AA2AC" stroke-width="0.5" stroke-linejoin="round"/>
<path d="M1243.85 386.805L1229.36 378.961L1260.86 374.56L1275.29 382.416L1243.85 386.805Z" fill="white" stroke="#9AA2AC" stroke-width="0.5" stroke-linejoin="round"/>
<path d="M1297.51 394.661V404.576L1266.02 409.173L1266.02 399.065L1297.51 394.661Z" fill="white" stroke="#9AA2AC" stroke-width="0.5" stroke-linejoin="round"/>
<path d="M1266.02 409.167L1251.6 401.373L1251.61 391.201L1266.02 399.004V409.167Z" fill="white" stroke="#9AA2AC" stroke-width="0.5" stroke-linejoin="round"/>
<path d="M1266.09 399.051L1251.61 391.207L1283.1 386.805L1297.53 394.662L1266.09 399.051Z" fill="white" stroke="#9AA2AC" stroke-width="0.5" stroke-linejoin="round"/>
<path d="M1144.09 339.909V349.824L1112.59 354.421L1112.59 344.313L1144.09 339.909Z" fill="white" stroke="#9AA2AC" stroke-width="0.5" stroke-linejoin="round"/>
<path d="M1112.6 354.414L1098.18 346.62L1098.18 336.449L1112.6 344.252V354.414Z" fill="white" stroke="#9AA2AC" stroke-width="0.5" stroke-linejoin="round"/>
<path d="M1112.66 344.298L1098.18 336.455L1129.68 332.053L1144.1 339.909L1112.66 344.298Z" fill="white" stroke="#9AA2AC" stroke-width="0.5" stroke-linejoin="round"/>
<path d="M1166.06 351.775V361.691L1134.56 366.288L1134.56 356.18L1166.06 351.775Z" fill="white" stroke="#9AA2AC" stroke-width="0.5" stroke-linejoin="round"/>
<path d="M1134.57 366.281L1120.15 358.487L1120.15 348.316L1134.57 356.118V366.281Z" fill="white" stroke="#9AA2AC" stroke-width="0.5" stroke-linejoin="round"/>
<path d="M1134.64 356.165L1120.15 348.321L1151.65 343.92L1166.08 351.776L1134.64 356.165Z" fill="white" stroke="#9AA2AC" stroke-width="0.5" stroke-linejoin="round"/>
<path d="M1188.3 364.021V373.937L1156.81 378.534L1156.81 368.426L1188.3 364.021Z" fill="white" stroke="#9AA2AC" stroke-width="0.5" stroke-linejoin="round"/>
<path d="M1156.81 378.527L1142.39 370.733L1142.39 360.562L1156.81 368.365V378.527Z" fill="white" stroke="#9AA2AC" stroke-width="0.5" stroke-linejoin="round"/>
<path d="M1156.88 368.411L1142.39 360.567L1173.89 356.165L1188.32 364.022L1156.88 368.411Z" fill="white" stroke="#9AA2AC" stroke-width="0.5" stroke-linejoin="round"/>
<path d="M1210.54 376.267V386.182L1179.05 390.779L1179.05 380.671L1210.54 376.267Z" fill="white" stroke="#9AA2AC" stroke-width="0.5" stroke-linejoin="round"/>
<path d="M1179.06 390.772L1164.64 382.978L1164.64 372.807L1179.06 380.61V390.772Z" fill="white" stroke="#9AA2AC" stroke-width="0.5" stroke-linejoin="round"/>
<path d="M1179.12 380.656L1164.64 372.813L1196.13 368.411L1210.56 376.267L1179.12 380.656Z" fill="white" stroke="#9AA2AC" stroke-width="0.5" stroke-linejoin="round"/>
<path d="M1232.79 388.512V398.428L1201.29 403.025L1201.29 392.917L1232.79 388.512Z" fill="white" stroke="#9AA2AC" stroke-width="0.5" stroke-linejoin="round"/>
<path d="M1201.3 403.018L1186.88 395.224L1186.88 385.053L1201.3 392.856V403.018Z" fill="white" stroke="#9AA2AC" stroke-width="0.5" stroke-linejoin="round"/>
<path d="M1201.37 392.902L1186.88 385.059L1218.38 380.657L1232.81 388.513L1201.37 392.902Z" fill="white" stroke="#9AA2AC" stroke-width="0.5" stroke-linejoin="round"/>
<path d="M1255.03 400.758V410.674L1223.54 415.271L1223.54 405.163L1255.03 400.758Z" fill="white" stroke="#9AA2AC" stroke-width="0.5" stroke-linejoin="round"/>
<path d="M1223.54 415.264L1209.13 407.47L1209.13 397.299L1223.54 405.101V415.264Z" fill="white" stroke="#9AA2AC" stroke-width="0.5" stroke-linejoin="round"/>
<path d="M1223.61 405.148L1209.13 397.305L1240.62 392.903L1255.05 400.759L1223.61 405.148Z" fill="white" stroke="#9AA2AC" stroke-width="0.5" stroke-linejoin="round"/>
<path d="M1101.61 346.006V355.922L1070.11 360.519L1070.11 350.411L1101.61 346.006Z" fill="white" stroke="#9AA2AC" stroke-width="0.5" stroke-linejoin="round"/>
<path d="M1070.12 360.512L1055.7 352.718L1055.7 342.547L1070.12 350.35V360.512Z" fill="white" stroke="#9AA2AC" stroke-width="0.5" stroke-linejoin="round"/>
<path d="M1070.19 350.396L1055.7 342.553L1087.2 338.151L1101.63 346.007L1070.19 350.396Z" fill="white" stroke="#9AA2AC" stroke-width="0.5" stroke-linejoin="round"/>
<path d="M1123.58 357.873V367.789L1092.08 372.386L1092.08 362.278L1123.58 357.873Z" fill="white" stroke="#9AA2AC" stroke-width="0.5" stroke-linejoin="round"/>
<path d="M1092.09 372.379L1077.67 364.585L1077.67 354.414L1092.09 362.217V372.379Z" fill="white" stroke="#9AA2AC" stroke-width="0.5" stroke-linejoin="round"/>
<path d="M1092.16 362.263L1077.67 354.419L1109.17 350.017L1123.6 357.874L1092.16 362.263Z" fill="white" stroke="#9AA2AC" stroke-width="0.5" stroke-linejoin="round"/>
<path d="M1145.82 370.119V380.034L1114.33 384.631L1114.33 374.523L1145.82 370.119Z" fill="white" stroke="#9AA2AC" stroke-width="0.5" stroke-linejoin="round"/>
<path d="M1114.33 384.625L1099.91 376.831L1099.92 366.659L1114.33 374.462V384.625Z" fill="white" stroke="#9AA2AC" stroke-width="0.5" stroke-linejoin="round"/>
<path d="M1114.4 374.508L1099.92 366.665L1131.41 362.263L1145.84 370.119L1114.4 374.508Z" fill="white" stroke="#9AA2AC" stroke-width="0.5" stroke-linejoin="round"/>
<path d="M1168.07 382.364V392.28L1136.57 396.877L1136.57 386.769L1168.07 382.364Z" fill="white" stroke="#9AA2AC" stroke-width="0.5" stroke-linejoin="round"/>
<path d="M1136.58 396.87L1122.16 389.076L1122.16 378.905L1136.58 386.707V396.87Z" fill="white" stroke="#9AA2AC" stroke-width="0.5" stroke-linejoin="round"/>
<path d="M1136.64 386.755L1122.16 378.911L1153.65 374.509L1168.08 382.366L1136.64 386.755Z" fill="white" stroke="#9AA2AC" stroke-width="0.5" stroke-linejoin="round"/>
<path d="M1190.31 394.61V404.526L1158.81 409.123L1158.81 399.015L1190.31 394.61Z" fill="white" stroke="#9AA2AC" stroke-width="0.5" stroke-linejoin="round"/>
<path d="M1158.82 409.116L1144.4 401.322L1144.4 391.151L1158.82 398.954V409.116Z" fill="white" stroke="#9AA2AC" stroke-width="0.5" stroke-linejoin="round"/>
<path d="M1158.89 399L1144.4 391.157L1175.9 386.755L1190.33 394.611L1158.89 399Z" fill="white" stroke="#9AA2AC" stroke-width="0.5" stroke-linejoin="round"/>
<path d="M1212.55 406.856V416.771L1181.06 421.368L1181.06 411.26L1212.55 406.856Z" fill="white" stroke="#9AA2AC" stroke-width="0.5" stroke-linejoin="round"/>
<path d="M1181.06 421.361L1166.65 413.567L1166.65 403.396L1181.06 411.199V421.361Z" fill="white" stroke="#9AA2AC" stroke-width="0.5" stroke-linejoin="round"/>
<path d="M1181.13 411.246L1166.65 403.402L1198.14 399L1212.57 406.857L1181.13 411.246Z" fill="white" stroke="#9AA2AC" stroke-width="0.5" stroke-linejoin="round"/>
<path d="M1059.13 352.104V362.019L1027.63 366.616L1027.63 356.508L1059.13 352.104Z" fill="white" stroke="#9AA2AC" stroke-width="0.5" stroke-linejoin="round"/>
<path d="M1027.64 366.61L1013.22 358.816L1013.22 348.644L1027.64 356.447V366.61Z" fill="white" stroke="#9AA2AC" stroke-width="0.5" stroke-linejoin="round"/>
<path d="M1027.71 356.494L1013.22 348.65L1044.72 344.248L1059.15 352.105L1027.71 356.494Z" fill="white" stroke="#9AA2AC" stroke-width="0.5" stroke-linejoin="round"/>
<path d="M1081.1 363.971V373.886L1049.6 378.483L1049.6 368.375L1081.1 363.971Z" fill="white" stroke="#9AA2AC" stroke-width="0.5" stroke-linejoin="round"/>
<path d="M1049.61 378.476L1035.19 370.682L1035.19 360.511L1049.61 368.314V378.476Z" fill="white" stroke="#9AA2AC" stroke-width="0.5" stroke-linejoin="round"/>
<path d="M1049.68 368.36L1035.19 360.517L1066.69 356.115L1081.12 363.971L1049.68 368.36Z" fill="white" stroke="#9AA2AC" stroke-width="0.5" stroke-linejoin="round"/>
<path d="M1103.34 376.216V386.132L1071.85 390.729L1071.85 380.621L1103.34 376.216Z" fill="white" stroke="#9AA2AC" stroke-width="0.5" stroke-linejoin="round"/>
<path d="M1071.85 390.722L1057.44 382.928L1057.44 372.757L1071.85 380.56V390.722Z" fill="white" stroke="#9AA2AC" stroke-width="0.5" stroke-linejoin="round"/>
<path d="M1071.92 380.606L1057.44 372.762L1088.93 368.36L1103.36 376.217L1071.92 380.606Z" fill="white" stroke="#9AA2AC" stroke-width="0.5" stroke-linejoin="round"/>
<path d="M1125.59 388.462V398.377L1094.09 402.974L1094.09 392.867L1125.59 388.462Z" fill="white" stroke="#9AA2AC" stroke-width="0.5" stroke-linejoin="round"/>
<path d="M1094.1 402.968L1079.68 395.174L1079.68 385.003L1094.1 392.805V402.968Z" fill="white" stroke="#9AA2AC" stroke-width="0.5" stroke-linejoin="round"/>
<path d="M1094.16 392.852L1079.68 385.008L1111.17 380.606L1125.6 388.463L1094.16 392.852Z" fill="white" stroke="#9AA2AC" stroke-width="0.5" stroke-linejoin="round"/>
<path d="M1147.83 400.708V410.623L1116.33 415.22L1116.33 405.112L1147.83 400.708Z" fill="white" stroke="#9AA2AC" stroke-width="0.5" stroke-linejoin="round"/>
<path d="M1116.34 415.213L1101.92 407.42L1101.92 397.248L1116.34 405.051V415.213Z" fill="white" stroke="#9AA2AC" stroke-width="0.5" stroke-linejoin="round"/>
<path d="M1116.41 405.098L1101.92 397.254L1133.42 392.852L1147.85 400.709L1116.41 405.098Z" fill="white" stroke="#9AA2AC" stroke-width="0.5" stroke-linejoin="round"/>
<path d="M1170.07 412.953V422.869L1138.58 427.466L1138.58 417.358L1170.07 412.953Z" fill="white" stroke="#9AA2AC" stroke-width="0.5" stroke-linejoin="round"/>
<path d="M1138.58 427.46L1124.17 419.666L1124.17 409.494L1138.58 417.297V427.46Z" fill="white" stroke="#9AA2AC" stroke-width="0.5" stroke-linejoin="round"/>
<path d="M1138.65 417.344L1124.17 409.5L1155.66 405.098L1170.09 412.955L1138.65 417.344Z" fill="white" stroke="#9AA2AC" stroke-width="0.5" stroke-linejoin="round"/>
<path d="M1016.65 358.202V368.117L985.154 372.714L985.154 362.606L1016.65 358.202Z" fill="white" stroke="#9AA2AC" stroke-width="0.5" stroke-linejoin="round"/>
<path d="M985.159 372.707L970.742 364.914L970.742 354.742L985.159 362.545V372.707Z" fill="white" stroke="#9AA2AC" stroke-width="0.5" stroke-linejoin="round"/>
<path d="M985.226 362.591L970.742 354.748L1002.24 350.346L1016.67 358.202L985.226 362.591Z" fill="white" stroke="#9AA2AC" stroke-width="0.5" stroke-linejoin="round"/>
<path d="M1038.62 370.068V379.984L1007.12 384.581L1007.12 374.473L1038.62 370.068Z" fill="white" stroke="#9AA2AC" stroke-width="0.5" stroke-linejoin="round"/>
<path d="M1007.13 384.574L992.713 376.78L992.713 366.609L1007.13 374.412V384.574Z" fill="white" stroke="#9AA2AC" stroke-width="0.5" stroke-linejoin="round"/>
<path d="M1007.2 374.458L992.713 366.614L1024.21 362.213L1038.64 370.069L1007.2 374.458Z" fill="white" stroke="#9AA2AC" stroke-width="0.5" stroke-linejoin="round"/>
<path d="M1060.86 382.314V392.229L1029.37 396.826L1029.37 386.718L1060.86 382.314Z" fill="white" stroke="#9AA2AC" stroke-width="0.5" stroke-linejoin="round"/>
<path d="M1029.37 396.82L1014.96 389.026L1014.96 378.854L1029.37 386.657V396.82Z" fill="white" stroke="#9AA2AC" stroke-width="0.5" stroke-linejoin="round"/>
<path d="M1029.44 386.704L1014.96 378.86L1046.45 374.458L1060.88 382.315L1029.44 386.704Z" fill="white" stroke="#9AA2AC" stroke-width="0.5" stroke-linejoin="round"/>
<path d="M1083.11 394.56V404.475L1051.61 409.072L1051.61 398.964L1083.11 394.56Z" fill="white" stroke="#9AA2AC" stroke-width="0.5" stroke-linejoin="round"/>
<path d="M1051.62 409.065L1037.2 401.271L1037.2 391.1L1051.62 398.903V409.065Z" fill="white" stroke="#9AA2AC" stroke-width="0.5" stroke-linejoin="round"/>
<path d="M1051.68 398.949L1037.2 391.106L1068.69 386.704L1083.12 394.56L1051.68 398.949Z" fill="white" stroke="#9AA2AC" stroke-width="0.5" stroke-linejoin="round"/>
<path d="M1105.35 406.805V416.721L1073.86 421.318L1073.86 411.21L1105.35 406.805Z" fill="white" stroke="#9AA2AC" stroke-width="0.5" stroke-linejoin="round"/>
<path d="M1073.86 421.312L1059.44 413.518L1059.44 403.346L1073.86 411.149V421.312Z" fill="white" stroke="#9AA2AC" stroke-width="0.5" stroke-linejoin="round"/>
<path d="M1073.93 411.195L1059.44 403.352L1090.94 398.95L1105.37 406.806L1073.93 411.195Z" fill="white" stroke="#9AA2AC" stroke-width="0.5" stroke-linejoin="round"/>
<path d="M1127.59 419.051V428.967L1096.1 433.564L1096.1 423.456L1127.59 419.051Z" fill="white" stroke="#9AA2AC" stroke-width="0.5" stroke-linejoin="round"/>
<path d="M1096.1 433.557L1081.69 425.763L1081.69 415.591L1096.1 423.394V433.557Z" fill="white" stroke="#9AA2AC" stroke-width="0.5" stroke-linejoin="round"/>
<path d="M1096.17 423.441L1081.69 415.598L1113.18 411.196L1127.61 419.052L1096.17 423.441Z" fill="white" stroke="#9AA2AC" stroke-width="0.5" stroke-linejoin="round"/>
<path d="M974.169 364.299V374.214L942.675 378.811L942.674 368.704L974.169 364.299Z" fill="white" stroke="#9AA2AC" stroke-width="0.5" stroke-linejoin="round"/>
<path d="M942.679 378.805L928.262 371.011L928.263 360.84L942.679 368.643V378.805Z" fill="white" stroke="#9AA2AC" stroke-width="0.5" stroke-linejoin="round"/>
<path d="M942.747 368.689L928.263 360.845L959.757 356.444L974.187 364.3L942.747 368.689Z" fill="white" stroke="#9AA2AC" stroke-width="0.5" stroke-linejoin="round"/>
<path d="M996.139 376.166V386.081L964.645 390.678L964.645 380.57L996.139 376.166Z" fill="white" stroke="#9AA2AC" stroke-width="0.5" stroke-linejoin="round"/>
<path d="M964.65 390.672L950.233 382.878L950.233 372.706L964.65 380.509V390.672Z" fill="white" stroke="#9AA2AC" stroke-width="0.5" stroke-linejoin="round"/>
<path d="M964.717 380.556L950.233 372.712L981.728 368.31L996.157 376.167L964.717 380.556Z" fill="white" stroke="#9AA2AC" stroke-width="0.5" stroke-linejoin="round"/>
<path d="M1018.38 388.411V398.327L986.889 402.924L986.888 392.816L1018.38 388.411Z" fill="white" stroke="#9AA2AC" stroke-width="0.5" stroke-linejoin="round"/>
<path d="M986.893 402.917L972.476 395.123L972.477 384.952L986.893 392.755V402.917Z" fill="white" stroke="#9AA2AC" stroke-width="0.5" stroke-linejoin="round"/>
<path d="M986.961 392.801L972.477 384.958L1003.97 380.556L1018.4 388.412L986.961 392.801Z" fill="white" stroke="#9AA2AC" stroke-width="0.5" stroke-linejoin="round"/>
<path d="M1040.63 400.657V410.573L1009.13 415.17L1009.13 405.062L1040.63 400.657Z" fill="white" stroke="#9AA2AC" stroke-width="0.5" stroke-linejoin="round"/>
<path d="M1009.14 415.163L994.72 407.369L994.72 397.198L1009.14 405V415.163Z" fill="white" stroke="#9AA2AC" stroke-width="0.5" stroke-linejoin="round"/>
<path d="M1009.2 405.047L994.72 397.204L1026.22 392.802L1040.64 400.658L1009.2 405.047Z" fill="white" stroke="#9AA2AC" stroke-width="0.5" stroke-linejoin="round"/>
<path d="M1062.87 412.903V422.818L1031.38 427.415L1031.38 417.308L1062.87 412.903Z" fill="white" stroke="#9AA2AC" stroke-width="0.5" stroke-linejoin="round"/>
<path d="M1031.38 427.409L1016.96 419.615L1016.96 409.444L1031.38 417.246V427.409Z" fill="white" stroke="#9AA2AC" stroke-width="0.5" stroke-linejoin="round"/>
<path d="M1031.45 417.293L1016.96 409.449L1048.46 405.047L1062.89 412.904L1031.45 417.293Z" fill="white" stroke="#9AA2AC" stroke-width="0.5" stroke-linejoin="round"/>
<path d="M1085.11 425.149V435.064L1053.62 439.661L1053.62 429.553L1085.11 425.149Z" fill="white" stroke="#9AA2AC" stroke-width="0.5" stroke-linejoin="round"/>
<path d="M1053.62 439.655L1039.21 431.861L1039.21 421.689L1053.62 429.492V439.655Z" fill="white" stroke="#9AA2AC" stroke-width="0.5" stroke-linejoin="round"/>
<path d="M1053.69 429.539L1039.21 421.695L1070.7 417.294L1085.13 425.15L1053.69 429.539Z" fill="white" stroke="#9AA2AC" stroke-width="0.5" stroke-linejoin="round"/>
<path d="M912.614 157.688L909.467 150.444V158.13L908.067 158.327V148.275L909.939 148.012L913.28 155.704L916.607 147.074L918.493 146.809V156.861L917.078 157.06V149.36L913.918 157.504L912.614 157.688ZM927.923 152.596C927.923 154.346 926.537 155.871 924.124 156.21C921.726 156.547 920.27 155.422 920.145 153.437L921.698 153.219C921.768 154.483 922.572 155.196 924.097 154.982C925.358 154.805 926.301 154.07 926.301 153.034C926.301 152.194 925.76 151.85 924.61 151.76L923.168 151.682C921.768 151.599 920.492 151.064 920.492 149.356C920.492 147.662 921.962 146.182 924.027 145.892C926.093 145.601 927.66 146.655 927.784 148.64L926.232 148.858C926.149 147.665 925.289 146.946 924.041 147.122C922.752 147.303 922.045 148.172 922.045 149.04C922.045 149.992 922.863 150.213 923.792 150.279L925.261 150.366C926.966 150.477 927.923 151.098 927.923 152.596ZM933.757 154.926C930.984 155.316 928.835 153.336 928.835 150.368C928.835 147.414 930.984 144.844 933.757 144.454C936.253 144.103 938.249 145.503 938.623 147.928L937.001 148.156C936.724 146.571 935.421 145.606 933.771 145.838C931.802 146.115 930.416 147.92 930.416 150.146C930.416 152.4 931.802 153.815 933.771 153.538C935.421 153.306 936.724 151.961 937.001 150.298L938.623 150.07C938.249 152.615 936.253 154.575 933.757 154.926ZM941.733 153.595L940.208 153.81V143.758L941.733 143.543V153.595ZM954.372 151.819L952.264 144.233L950.143 152.413L948.576 152.633L945.984 142.946L947.481 142.735L949.394 150.208L951.488 142.172L953.068 141.95L955.134 149.416L957.047 141.391L958.545 141.181L955.952 151.597L954.372 151.819ZM962.251 150.852C960.172 151.144 958.647 149.706 958.647 147.508C958.647 145.31 960.172 143.444 962.251 143.152C964.331 142.859 965.856 144.297 965.856 146.495C965.856 148.693 964.331 150.559 962.251 150.852ZM962.251 149.606C963.457 149.436 964.414 148.322 964.414 146.698C964.414 145.074 963.457 144.242 962.251 144.412C961.045 144.581 960.102 145.68 960.102 147.304C960.102 148.928 961.045 149.775 962.251 149.606ZM968.683 146.014V149.808L967.283 150.004V142.584L968.586 142.401V143.969C969.099 142.875 970.208 142.075 971.415 141.906V143.376C969.834 143.514 968.683 144.376 968.683 146.014ZM973.937 149.069L972.523 149.268V139.216L973.937 139.017V149.069ZM975.354 145.16C975.354 142.906 976.629 141.131 978.612 140.852C979.596 140.714 980.455 141.097 980.968 141.935V138.029L982.369 137.832V147.884L981.065 148.067V146.737C980.539 147.749 979.651 148.406 978.612 148.552C976.629 148.831 975.354 147.386 975.354 145.16ZM976.809 144.956C976.809 146.608 977.669 147.425 978.889 147.253C980.081 147.086 980.968 145.981 980.968 144.343C980.968 142.677 980.053 141.896 978.889 142.059C977.669 142.231 976.809 143.276 976.809 144.956ZM994.99 136.058V142.498C994.99 144.808 993.52 146.527 991.136 146.862C988.751 147.197 987.296 145.89 987.296 143.58V137.14L988.821 136.925V143.407C988.821 144.863 989.666 145.683 991.136 145.476C992.619 145.268 993.465 144.211 993.465 142.755V136.273L994.99 136.058ZM1004.39 141.849C1004.39 143.599 1003 145.124 1000.59 145.463C998.193 145.8 996.738 144.675 996.613 142.69L998.166 142.472C998.235 143.736 999.039 144.449 1000.56 144.235C1001.83 144.058 1002.77 143.323 1002.77 142.287C1002.77 141.447 1002.23 141.103 1001.08 141.013L999.635 140.936C998.235 140.852 996.959 140.318 996.959 138.61C996.959 136.916 998.429 135.435 1000.49 135.145C1002.56 134.854 1004.13 135.908 1004.25 137.893L1002.7 138.111C1002.62 136.919 1001.76 136.2 1000.51 136.375C999.219 136.556 998.512 137.425 998.512 138.293C998.512 139.245 999.33 139.466 1000.26 139.532L1001.73 139.619C1003.43 139.73 1004.39 140.351 1004.39 141.849ZM1009.3 144.099L1006.16 144.541V134.489L1009.3 134.047C1012.48 133.601 1014.31 135.388 1014.31 138.328C1014.31 141.226 1012.41 143.662 1009.3 144.099ZM1007.68 135.605V142.997L1009.23 142.779C1011.52 142.457 1012.75 140.856 1012.75 138.546C1012.75 136.278 1011.53 135.063 1009.23 135.387L1007.68 135.605ZM1021.7 145.059L1018.87 145.456V132.702L1021.7 132.305V133.523L1020.31 133.718V144.036L1021.7 143.841V145.059ZM1030.01 141.189L1029.11 138.823L1024.81 139.427L1023.9 142.048L1022.36 142.264L1026.17 131.677L1027.85 131.441L1031.63 140.961L1030.01 141.189ZM1026.97 133.244L1025.27 138.117L1028.65 137.642L1026.97 133.244ZM1035.37 140.589C1033.36 140.872 1031.95 139.475 1031.95 137.207C1031.95 134.967 1033.39 133.154 1035.37 132.875C1037.19 132.62 1038.5 133.653 1038.77 135.548L1037.3 135.755C1037.14 134.586 1036.41 133.975 1035.38 134.119C1034.18 134.289 1033.39 135.436 1033.39 137.004C1033.39 138.586 1034.18 139.497 1035.38 139.327C1036.42 139.181 1037.14 138.38 1037.31 137.153L1038.77 136.948C1038.52 138.943 1037.21 140.33 1035.37 140.589ZM1043.01 139.516C1041 139.799 1039.58 138.401 1039.58 136.133C1039.58 133.893 1041.02 132.081 1043.01 131.802C1044.82 131.547 1046.14 132.58 1046.4 134.475L1044.93 134.681C1044.78 133.513 1044.05 132.902 1043.02 133.046C1041.81 133.216 1041.02 134.363 1041.02 135.931C1041.02 137.513 1041.81 138.424 1043.02 138.254C1044.06 138.108 1044.78 137.307 1044.95 136.079L1046.4 135.875C1046.15 137.87 1044.85 139.257 1043.01 139.516ZM1050.04 141.075L1047.22 141.473V140.255L1048.62 140.058V129.74L1047.22 129.937V128.719L1050.04 128.321V141.075Z" fill="#3C4149"/>
<path d="M914.763 185.615V186.945C914.223 187.315 913.654 187.535 912.878 187.644C910.729 187.946 909.232 186.841 908.802 184.633L907.332 184.84V183.958L908.677 183.769C908.663 183.477 908.677 183.027 908.691 182.717L907.332 182.908V182.026L908.83 181.815C909.315 179.619 910.784 178.195 912.878 177.9C913.668 177.789 914.236 177.835 914.763 178.041V179.399C914.264 179.134 913.696 179.059 913.016 179.155C911.658 179.346 910.715 180.206 910.341 181.603L913.377 181.176V182.058L910.077 182.522C910.05 182.806 910.05 183.268 910.063 183.574L913.377 183.108V183.99L910.299 184.423C910.632 185.86 911.602 186.536 913.016 186.337C913.682 186.243 914.292 185.99 914.763 185.615ZM919.127 186.752C917.187 187.025 915.828 186.068 915.814 184.404L917.187 184.211C917.242 185.225 917.991 185.778 919.127 185.618C920.306 185.452 921.027 184.707 921.027 183.685C921.027 182.691 920.209 182.176 918.92 182.357L917.949 182.494V181.36L918.85 181.233C919.904 181.085 920.597 180.372 920.597 179.448C920.597 178.552 919.973 178.037 919.03 178.17C918.074 178.304 917.436 179.01 917.395 179.982L916.036 180.173C916.077 178.613 917.381 177.268 919.086 177.028C920.888 176.775 922.053 177.661 922.053 179.145C922.053 180.069 921.512 180.887 920.542 181.485C921.775 181.648 922.483 182.361 922.483 183.453C922.483 185.133 921.124 186.472 919.127 186.752ZM926.978 185.649C924.996 185.927 923.554 184.73 923.554 183.008C923.554 181.804 923.984 180.988 924.788 179.895L927.616 175.969L929.21 175.745L926.452 179.605C926.729 179.468 927.006 179.373 927.256 179.338C929.086 179.081 930.417 180.14 930.417 181.974C930.417 183.766 928.989 185.366 926.978 185.649ZM926.992 184.457C928.101 184.301 928.961 183.396 928.961 182.22C928.961 180.974 928.101 180.339 926.992 180.495C925.897 180.649 925.024 181.443 925.024 182.759C925.024 183.949 925.897 184.611 926.992 184.457ZM934.684 184.566C932.743 184.839 931.384 183.882 931.37 182.218L932.743 182.025C932.798 183.039 933.547 183.592 934.684 183.432C935.862 183.266 936.583 182.521 936.583 181.499C936.583 180.505 935.765 179.99 934.476 180.171L933.505 180.307V179.173L934.406 179.047C935.46 178.899 936.153 178.185 936.153 177.261C936.153 176.365 935.529 175.851 934.587 175.983C933.63 176.118 932.992 176.824 932.951 177.795L931.592 177.986C931.634 176.426 932.937 175.081 934.642 174.842C936.444 174.588 937.609 175.475 937.609 176.959C937.609 177.883 937.068 178.701 936.098 179.299C937.332 179.462 938.039 180.174 938.039 181.266C938.039 182.946 936.68 184.285 934.684 184.566ZM941.509 182.473C941.509 183.103 941.079 183.611 940.442 183.701C939.818 183.788 939.374 183.403 939.374 182.773C939.374 182.115 939.818 181.604 940.442 181.517C941.079 181.427 941.509 181.815 941.509 182.473ZM949.58 179.686C949.58 181.338 948.193 182.667 946.155 182.954C944.103 183.242 942.703 182.305 942.703 180.653C942.703 179.505 943.479 178.64 944.464 178.137C943.674 177.898 943.077 177.24 943.077 176.274C943.077 174.734 944.353 173.477 946.155 173.224C947.93 172.974 949.219 173.871 949.219 175.411C949.219 176.377 948.609 177.205 947.833 177.664C948.817 177.89 949.58 178.538 949.58 179.686ZM944.519 176.114C944.519 177.038 945.185 177.504 946.155 177.368C947.112 177.233 947.777 176.58 947.777 175.656C947.777 174.718 947.112 174.223 946.155 174.358C945.185 174.494 944.519 175.176 944.519 176.114ZM944.173 180.418C944.173 181.468 944.977 181.985 946.155 181.82C947.32 181.656 948.138 180.911 948.138 179.861C948.138 178.839 947.32 178.338 946.155 178.502C944.977 178.667 944.173 179.396 944.173 180.418ZM950.935 177.438C950.935 174.302 952.169 172.378 954.387 172.067C956.605 171.755 957.853 173.33 957.853 176.466C957.853 179.602 956.633 181.495 954.387 181.811C952.141 182.126 950.935 180.574 950.935 177.438ZM952.377 177.235C952.377 179.573 953.07 180.722 954.387 180.537C955.704 180.352 956.411 179.02 956.411 176.668C956.411 174.302 955.704 173.156 954.387 173.341C953.098 173.522 952.377 174.869 952.377 177.235Z" fill="#3C4149"/>
<path d="M910.967 216.978L910.087 217.101V209.289L907.223 209.692V208.888L913.83 207.959V208.763L910.967 209.166V216.978ZM916.581 216.309C914.858 216.551 913.611 215.346 913.611 213.438C913.611 211.542 914.858 209.999 916.581 209.757C918.316 209.513 919.564 210.705 919.564 212.601C919.564 214.509 918.316 216.065 916.581 216.309ZM916.581 215.577C917.805 215.405 918.72 214.292 918.72 212.72C918.72 211.172 917.805 210.317 916.581 210.489C915.369 210.659 914.454 211.772 914.454 213.32C914.454 214.892 915.369 215.747 916.581 215.577ZM920.446 212.478C920.446 210.534 921.515 209.051 923.203 208.814C924.141 208.682 924.938 209.11 925.354 209.952V206.34L926.185 206.223V214.839L925.413 214.947V213.615C924.973 214.601 924.165 215.243 923.203 215.378C921.515 215.615 920.446 214.422 920.446 212.478ZM921.29 212.359C921.29 213.967 922.098 214.801 923.322 214.629C924.534 214.459 925.365 213.346 925.365 211.762C925.365 210.166 924.51 209.362 923.322 209.529C922.098 209.701 921.29 210.751 921.29 212.359ZM931.838 214.044V212.892C931.47 213.736 930.709 214.323 929.735 214.46C928.44 214.642 927.596 214.029 927.596 212.889C927.596 211.653 928.57 210.868 930.472 210.6C930.852 210.547 931.137 210.531 931.755 210.492V209.964C931.755 208.908 931.197 208.363 930.246 208.496C929.224 208.64 928.582 209.366 928.57 210.4L927.81 210.507C927.846 209.098 928.808 208.026 930.234 207.826C931.696 207.62 932.551 208.364 932.551 209.828V213.944L931.838 214.044ZM928.392 212.753C928.392 213.521 928.974 213.955 929.854 213.831C931.018 213.668 931.755 212.796 931.755 211.608V211.044C931.22 211.071 930.852 211.111 930.507 211.159C929.081 211.36 928.392 211.877 928.392 212.753ZM938.94 206.722L935.732 215.813L934.84 215.939L935.755 213.41L933.272 207.519L934.163 207.394L936.183 212.342L938.096 206.841L938.94 206.722Z" fill="#3C4149"/>
<path d="M1183.92 177.572L1183.16 177.679V175.051L1180.57 175.415V174.707L1183.16 174.343V171.727L1183.92 171.62V174.236L1186.51 173.872V174.58L1183.92 174.944V177.572ZM1188.07 173.989C1188.07 171.301 1189.09 169.658 1190.92 169.4C1192.74 169.145 1193.78 170.5 1193.78 173.188C1193.78 175.876 1192.77 177.493 1190.92 177.752C1189.07 178.013 1188.07 176.677 1188.07 173.989ZM1188.93 173.869C1188.93 176.101 1189.6 177.194 1190.92 177.008C1192.22 176.826 1192.92 175.552 1192.92 173.308C1192.92 171.052 1192.22 169.962 1190.92 170.144C1189.63 170.326 1188.93 171.601 1188.93 173.869ZM1196.43 176.162C1196.43 176.594 1196.12 176.962 1195.68 177.023C1195.25 177.084 1194.93 176.805 1194.93 176.373C1194.93 175.917 1195.25 175.56 1195.68 175.499C1196.12 175.438 1196.43 175.706 1196.43 176.162ZM1200.27 176.427C1198.67 176.652 1197.48 175.655 1197.48 174.167C1197.48 173.111 1197.91 172.415 1198.54 171.534L1200.96 168.11L1201.9 167.978L1199.49 171.401C1199.82 171.234 1200.14 171.129 1200.44 171.087C1201.94 170.877 1203.08 171.76 1203.08 173.356C1203.08 174.868 1201.89 176.199 1200.27 176.427ZM1200.28 175.729C1201.39 175.574 1202.22 174.629 1202.22 173.501C1202.22 172.289 1201.39 171.602 1200.28 171.757C1199.17 171.914 1198.33 172.727 1198.33 174.023C1198.33 175.175 1199.17 175.886 1200.28 175.729ZM1206.4 167.237C1208 167.012 1209.19 168.009 1209.19 169.497C1209.19 170.493 1208.8 171.172 1208.12 172.131L1205.71 175.554L1204.76 175.688L1207.17 172.253C1206.85 172.43 1206.52 172.525 1206.22 172.566C1204.72 172.777 1203.59 171.891 1203.59 170.307C1203.59 168.795 1204.78 167.464 1206.4 167.237ZM1206.39 167.935C1205.26 168.094 1204.45 169.035 1204.45 170.163C1204.45 171.375 1205.26 172.066 1206.39 171.907C1207.49 171.752 1208.34 170.937 1208.34 169.641C1208.34 168.489 1207.49 167.78 1206.39 167.935ZM1215.42 176.506L1214.63 176.616C1213.66 175.253 1213.12 173.348 1213.12 171.356C1213.12 169.376 1213.66 167.321 1214.63 165.684L1215.42 165.574C1214.43 167.213 1213.96 169.259 1213.96 171.239C1213.96 173.231 1214.43 175.145 1215.42 176.506ZM1220.02 172.498L1219.26 172.605V169.977L1216.67 170.341V169.633L1219.26 169.269V166.653L1220.02 166.546V169.162L1222.62 168.798V169.506L1220.02 169.87V172.498ZM1224.17 168.915C1224.17 166.227 1225.2 164.584 1227.03 164.326C1228.84 164.071 1229.88 165.426 1229.88 168.114C1229.88 170.802 1228.87 172.42 1227.03 172.678C1225.17 172.939 1224.17 171.603 1224.17 168.915ZM1225.03 168.795C1225.03 171.027 1225.71 172.12 1227.03 171.934C1228.32 171.752 1229.02 170.478 1229.02 168.234C1229.02 165.978 1228.32 164.888 1227.03 165.07C1225.73 165.253 1225.03 166.527 1225.03 168.795ZM1232.53 171.088C1232.53 171.52 1232.22 171.888 1231.78 171.95C1231.36 172.01 1231.04 171.731 1231.04 171.299C1231.04 170.843 1231.36 170.486 1231.78 170.426C1232.22 170.364 1232.53 170.632 1232.53 171.088ZM1235.51 171.366L1234.69 171.481V164.089L1233.11 164.311V163.591L1235.51 163.254V171.366ZM1239.77 162.547C1241.38 162.321 1242.57 163.318 1242.57 164.806C1242.57 165.802 1242.17 166.481 1241.5 167.441L1239.08 170.864L1238.13 170.997L1240.55 167.562C1240.23 167.739 1239.89 167.834 1239.6 167.876C1238.1 168.086 1236.97 167.201 1236.97 165.617C1236.97 164.105 1238.16 162.774 1239.77 162.547ZM1239.76 163.244C1238.63 163.403 1237.83 164.345 1237.83 165.473C1237.83 166.685 1238.63 167.375 1239.76 167.216C1240.87 167.061 1241.71 166.247 1241.71 164.951C1241.71 163.799 1240.87 163.089 1239.76 163.244ZM1245.83 166.771C1244.41 166.972 1243.43 165.981 1243.43 164.589C1243.43 163.197 1244.41 161.932 1245.83 161.731C1247.27 161.529 1248.25 162.52 1248.25 163.912C1248.25 165.304 1247.27 166.569 1245.83 166.771ZM1247.31 169.708L1246.61 169.807L1251.12 161.06L1251.83 160.96L1247.31 169.708ZM1245.83 166.159C1246.76 166.029 1247.52 165.226 1247.52 164.014C1247.52 162.79 1246.76 162.213 1245.83 162.343C1244.92 162.472 1244.15 163.264 1244.15 164.488C1244.15 165.7 1244.92 166.288 1245.83 166.159ZM1252.69 169.048C1251.25 169.25 1250.28 168.271 1250.28 166.867C1250.28 165.475 1251.25 164.21 1252.69 164.008C1254.13 163.805 1255.1 164.797 1255.1 166.189C1255.1 167.593 1254.13 168.845 1252.69 169.048ZM1252.69 168.436C1253.61 168.307 1254.38 167.502 1254.38 166.29C1254.38 165.066 1253.61 164.503 1252.69 164.632C1251.78 164.76 1251 165.541 1251 166.765C1251 167.977 1251.78 168.564 1252.69 168.436ZM1256.61 170.717L1255.82 170.827C1256.8 169.19 1257.29 167.142 1257.29 165.15C1257.29 163.17 1256.8 161.258 1255.82 159.895L1256.61 159.785C1257.58 161.148 1258.12 163.053 1258.12 165.033C1258.12 167.025 1257.58 169.08 1256.61 170.717Z" fill="#3C4149"/>
<line x1="906.952" y1="230.171" x2="1258.1" y2="182.54" stroke="#DDE0E3" stroke-width="0.5"/>
<path d="M913.961 255.379L913.07 253.116L909.089 253.676L908.186 256.191L907.307 256.314L910.622 247.232L911.596 247.096L914.9 255.247L913.961 255.379ZM911.085 248.127L909.362 252.905L912.785 252.424L911.085 248.127ZM920.81 252.653C920.81 253.817 919.883 254.667 918.338 254.884C916.782 255.103 915.831 254.444 915.712 253.153L916.508 253.041C916.568 253.933 917.269 254.398 918.338 254.248C919.36 254.104 919.978 253.622 919.978 252.902C919.978 252.278 919.622 252.04 918.671 251.981L917.768 251.928C916.58 251.867 915.95 251.368 915.95 250.456C915.95 249.4 916.877 248.525 918.243 248.333C919.681 248.131 920.632 248.778 920.727 250.024L919.943 250.135C919.859 249.27 919.23 248.843 918.243 248.981C917.364 249.105 916.758 249.61 916.758 250.27C916.758 250.894 917.138 251.141 918.065 251.19L919.004 251.238C920.252 251.303 920.81 251.753 920.81 252.653ZM923.087 254.097L922.255 254.213V245.597L923.087 245.481V250.713L926.106 247.348L927.092 247.21L923.931 250.75L927.353 253.497L926.272 253.649L923.087 251.061V254.097Z" fill="#3C4149"/>
<path d="M1221.23 211.127V211.931C1220.78 212.258 1220.32 212.443 1219.65 212.537C1217.81 212.796 1216.59 211.792 1216.29 209.77L1215.04 209.945V209.393L1216.22 209.228C1216.21 208.977 1216.22 208.46 1216.23 208.182L1215.04 208.349V207.797L1216.31 207.618C1216.68 205.67 1217.88 204.434 1219.65 204.185C1220.32 204.091 1220.78 204.134 1221.23 204.335V205.163C1220.81 204.911 1220.34 204.844 1219.76 204.926C1218.39 205.118 1217.5 206.011 1217.21 207.493L1219.97 207.104V207.656L1217.06 208.065C1217.04 208.308 1217.03 208.826 1217.04 209.112L1219.97 208.7V209.252L1217.16 209.648C1217.41 211.221 1218.33 211.966 1219.76 211.766C1220.32 211.687 1220.82 211.473 1221.23 211.127ZM1225 211.773C1223.41 211.997 1222.32 211.203 1222.28 209.804L1223.09 209.69C1223.14 210.703 1223.88 211.246 1225 211.089C1226.15 210.927 1226.86 210.193 1226.86 209.173C1226.86 208.201 1226.07 207.687 1224.84 207.861L1224.04 207.973V207.277L1224.81 207.168C1225.8 207.029 1226.49 206.297 1226.49 205.385C1226.49 204.509 1225.85 203.999 1224.93 204.127C1223.98 204.261 1223.35 204.949 1223.3 205.892L1222.51 206.004C1222.54 204.727 1223.59 203.632 1224.95 203.44C1226.38 203.24 1227.34 203.98 1227.34 205.228C1227.34 206.068 1226.84 206.81 1225.96 207.306C1227.07 207.427 1227.71 208.056 1227.71 209.04C1227.71 210.432 1226.62 211.546 1225 211.773ZM1231.59 210.847C1229.99 211.073 1228.8 210.076 1228.8 208.588C1228.8 207.532 1229.23 206.836 1229.85 205.955L1232.28 202.53L1233.22 202.399L1230.81 205.822C1231.14 205.655 1231.46 205.55 1231.76 205.508C1233.25 205.298 1234.39 206.181 1234.39 207.777C1234.39 209.289 1233.21 210.62 1231.59 210.847ZM1231.6 210.15C1232.71 209.994 1233.54 209.049 1233.54 207.921C1233.54 206.709 1232.71 206.022 1231.6 206.178C1230.48 206.335 1229.65 207.148 1229.65 208.444C1229.65 209.596 1230.48 210.307 1231.6 210.15ZM1238.08 209.935C1236.49 210.159 1235.39 209.365 1235.36 207.966L1236.17 207.852C1236.21 208.865 1236.96 209.408 1238.08 209.251C1239.23 209.089 1239.93 208.355 1239.93 207.335C1239.93 206.363 1239.15 205.849 1237.91 206.023L1237.12 206.134V205.438L1237.89 205.33C1238.88 205.191 1239.57 204.458 1239.57 203.546C1239.57 202.67 1238.92 202.161 1238.01 202.289C1237.06 202.423 1236.43 203.111 1236.38 204.054L1235.58 204.166C1235.62 202.889 1236.67 201.794 1238.03 201.602C1239.46 201.401 1240.42 202.142 1240.42 203.39C1240.42 204.23 1239.92 204.972 1239.04 205.468C1240.15 205.589 1240.79 206.218 1240.79 207.202C1240.79 208.594 1239.7 209.708 1238.08 209.935ZM1243.65 208.349C1243.65 208.781 1243.34 209.148 1242.9 209.21C1242.47 209.27 1242.15 208.991 1242.15 208.559C1242.15 208.103 1242.47 207.746 1242.9 207.686C1243.34 207.624 1243.65 207.893 1243.65 208.349ZM1247.46 208.628C1246 208.834 1244.89 207.995 1244.84 206.622L1245.65 206.508C1245.72 207.494 1246.45 208.026 1247.46 207.884C1248.69 207.712 1249.39 206.846 1249.39 205.706C1249.39 204.686 1248.63 203.977 1247.49 204.137C1246.72 204.246 1246.12 204.665 1245.73 205.344L1245.09 205.242L1245.79 200.632L1249.78 200.071V200.803L1246.38 201.28L1245.94 204.27C1246.43 203.758 1246.98 203.489 1247.59 203.402C1249.23 203.172 1250.23 204.183 1250.23 205.575C1250.23 207.099 1249.19 208.386 1247.46 208.628ZM1251.33 203.922C1251.33 201.234 1252.35 199.59 1254.18 199.333C1256 199.077 1257.03 200.432 1257.03 203.12C1257.03 205.808 1256.02 207.426 1254.18 207.685C1252.32 207.945 1251.33 206.61 1251.33 203.922ZM1252.18 203.801C1252.18 206.033 1252.86 207.126 1254.18 206.941C1255.47 206.759 1256.17 205.484 1256.17 203.24C1256.17 200.984 1255.47 199.895 1254.18 200.077C1252.88 200.259 1252.18 201.533 1252.18 203.801Z" fill="#3C4149"/>
<path d="M913.688 276.006C913.688 277.542 912.571 278.575 910.895 278.81L907.948 279.224V270.608L910.717 270.219C912.369 269.987 913.343 270.654 913.343 272.07C913.343 272.922 912.808 273.729 911.941 274.175C913.094 274.301 913.688 274.974 913.688 276.006ZM910.669 270.958L908.78 271.223V274.295L910.669 274.03C911.822 273.868 912.476 273.2 912.476 272.24C912.476 271.28 911.822 270.796 910.669 270.958ZM910.848 274.737L908.78 275.027V278.375L910.848 278.085C912.095 277.909 912.832 277.182 912.832 276.102C912.832 275.07 912.095 274.561 910.848 274.737ZM916.386 270.25C916.386 270.622 916.112 270.925 915.708 270.982C915.316 271.037 915.043 270.811 915.043 270.439C915.043 270.079 915.316 269.777 915.708 269.722C916.112 269.665 916.386 269.89 916.386 270.25ZM916.136 278.073L915.304 278.19V271.866L916.136 271.749V278.073ZM917.475 274.717C917.475 272.773 918.544 271.291 920.232 271.054C921.171 270.922 921.967 271.35 922.383 272.192V268.58L923.215 268.463V277.079L922.442 277.187V275.855C922.003 276.841 921.194 277.483 920.232 277.618C918.544 277.855 917.475 276.661 917.475 274.717ZM918.319 274.599C918.319 276.207 919.127 277.041 920.351 276.869C921.563 276.699 922.395 275.586 922.395 274.002C922.395 272.406 921.539 271.602 920.351 271.769C919.127 271.941 918.319 272.991 918.319 274.599Z" fill="#3C4149"/>
<path d="M1224.31 233.695V234.499C1223.86 234.826 1223.39 235.011 1222.73 235.105C1220.89 235.364 1219.66 234.36 1219.37 232.337L1218.12 232.513V231.961L1219.29 231.795C1219.28 231.545 1219.29 231.027 1219.31 230.75L1218.12 230.917V230.365L1219.39 230.186C1219.76 228.238 1220.96 227.002 1222.73 226.753C1223.39 226.659 1223.86 226.702 1224.31 226.903V227.731C1223.88 227.479 1223.42 227.412 1222.84 227.494C1221.47 227.686 1220.58 228.579 1220.28 230.061L1223.05 229.672V230.224L1220.14 230.633C1220.11 230.876 1220.1 231.394 1220.11 231.68L1223.05 231.268V231.82L1220.23 232.215C1220.48 233.788 1221.41 234.534 1222.84 234.334C1223.39 234.255 1223.89 234.041 1224.31 233.695ZM1228.08 234.341C1226.48 234.565 1225.39 233.77 1225.36 232.371L1226.16 232.258C1226.21 233.271 1226.96 233.814 1228.08 233.657C1229.23 233.495 1229.93 232.76 1229.93 231.74C1229.93 230.768 1229.15 230.255 1227.91 230.428L1227.11 230.54V229.844L1227.89 229.736C1228.87 229.597 1229.56 228.864 1229.56 227.952C1229.56 227.076 1228.92 226.566 1228.01 226.695C1227.06 226.829 1226.43 227.517 1226.38 228.46L1225.58 228.572C1225.62 227.295 1226.66 226.2 1228.03 226.008C1229.46 225.807 1230.42 226.548 1230.42 227.796C1230.42 228.636 1229.92 229.378 1229.04 229.874C1230.14 229.994 1230.79 230.624 1230.79 231.608C1230.79 233 1229.69 234.114 1228.08 234.341ZM1234.67 233.415C1233.06 233.641 1231.87 232.644 1231.87 231.156C1231.87 230.1 1232.3 229.403 1232.93 228.523L1235.35 225.098L1236.29 224.966L1233.88 228.389C1234.21 228.223 1234.53 228.117 1234.83 228.076C1236.33 227.865 1237.47 228.749 1237.47 230.345C1237.47 231.857 1236.28 233.188 1234.67 233.415ZM1234.68 232.717C1235.78 232.562 1236.61 231.617 1236.61 230.489C1236.61 229.277 1235.78 228.59 1234.68 228.745C1233.56 228.902 1232.73 229.715 1232.73 231.011C1232.73 232.163 1233.56 232.874 1234.68 232.717ZM1241.16 232.503C1239.56 232.727 1238.47 231.932 1238.43 230.533L1239.24 230.42C1239.29 231.433 1240.04 231.976 1241.16 231.819C1242.31 231.657 1243.01 230.922 1243.01 229.902C1243.01 228.93 1242.23 228.417 1240.99 228.59L1240.19 228.702V228.006L1240.97 227.898C1241.95 227.759 1242.64 227.026 1242.64 226.114C1242.64 225.238 1242 224.728 1241.08 224.857C1240.13 224.991 1239.5 225.679 1239.46 226.622L1238.66 226.734C1238.7 225.457 1239.74 224.362 1241.11 224.17C1242.53 223.969 1243.5 224.71 1243.5 225.958C1243.5 226.798 1243 227.54 1242.12 228.036C1243.22 228.156 1243.86 228.786 1243.86 229.77C1243.86 231.162 1242.77 232.276 1241.16 232.503ZM1246.72 230.916C1246.72 231.348 1246.41 231.716 1245.97 231.778C1245.55 231.838 1245.23 231.559 1245.23 231.127C1245.23 230.671 1245.55 230.314 1245.97 230.254C1246.41 230.192 1246.72 230.46 1246.72 230.916ZM1249.7 231.194L1248.88 231.309V223.917L1247.3 224.139V223.419L1249.7 223.082V231.194ZM1251.33 226.922C1251.33 224.234 1252.35 222.59 1254.18 222.333C1256 222.077 1257.03 223.432 1257.03 226.12C1257.03 228.808 1256.02 230.426 1254.18 230.685C1252.32 230.945 1251.33 229.61 1251.33 226.922ZM1252.18 226.801C1252.18 229.033 1252.86 230.126 1254.18 229.941C1255.47 229.759 1256.17 228.484 1256.17 226.24C1256.17 223.984 1255.47 222.895 1254.18 223.077C1252.88 223.259 1252.18 224.533 1252.18 226.801Z" fill="#3C4149"/>
<path d="M907.978 317.031L912.868 318.999L922.648 309.656L926.315 312.461L929.372 306.055L933.039 307.2L940.985 306.083L948.321 308.04L954.433 299.877L961.157 304.244L968.492 299.893L975.827 308.491L987.441 291.586L994.776 302.84L1002.72 285.122L1008.22 287.005L1013.11 283.661L1022.28 286.689L1027.17 284.342L1035.73 291.107L1047.96 276.108L1056.82 284.226L1064.32 276.93L1070.74 279.879L1073.95 277.767L1083.59 283.717L1089.48 272.929L1100.72 287.418L1105.01 284.027L1110.9 285.192L1116.25 276.497L1123.75 274.82L1132.31 269.565L1142.49 273.448L1150.52 266.064L1163.9 273.858L1171.93 268.048L1182.64 271.224L1188.53 259.008L1196.03 269.343L1207.27 271.647L1214.23 258.67L1219.58 263.223L1228.15 260.147L1237.16 244.676" stroke="#3A5AF9"/>
<path opacity="0.16" d="M913.064 318.722L908.175 317.188V340.217L1237.36 293.953V248.814L1228.26 262.265L1219.7 265.034L1214.34 261.351L1207.38 272.361L1196.14 270.693L1188.65 262.224L1182.76 272.574L1172.06 270.164L1164.03 275.206L1150.65 268.998L1142.62 275.356L1132.45 272.344L1123.88 276.934L1116.39 278.509L1111.04 285.902L1105.15 285.064L1100.87 287.997L1089.63 276.141L1083.74 285.297L1074.11 280.543L1070.89 282.383L1064.47 280.065L1056.98 286.337L1048.11 279.754L1035.89 292.576L1027.34 287.116L1022.45 289.191L1013.28 286.871L1008.39 289.779L1002.89 288.331L994.949 303.327L987.616 294.087L976.006 308.488L968.673 301.468L961.34 305.275L954.618 301.778L948.507 308.744L941.174 307.276L933.23 308.393L929.563 307.52L926.508 312.946L922.841 310.686L913.064 318.722Z" fill="url(#paint0_linear_2_482)"/>
<defs>
<linearGradient id="paint0_linear_2_482" x1="1072.77" y1="276.29" x2="1077.35" y2="308.886" gradientUnits="userSpaceOnUse">
<stop stop-color="#3A5AF9"/>
<stop offset="1" stop-color="#3A5AF9" stop-opacity="0"/>
</linearGradient>
</defs>
</svg>
