<svg width="40" height="40" viewBox="0 0 40 40" fill="none" xmlns="http://www.w3.org/2000/svg">
<path fill-rule="evenodd" clip-rule="evenodd" d="M20.416 8.3335C20.416 7.64314 20.9757 7.0835 21.666 7.0835H32.4993C33.1897 7.0835 33.7493 7.64314 33.7493 8.3335C33.7493 9.02385 33.1897 9.5835 32.4993 9.5835H21.666C20.9757 9.5835 20.416 9.02385 20.416 8.3335Z" fill="black"/>
<path fill-rule="evenodd" clip-rule="evenodd" d="M10 22.0835C10.6904 22.0835 11.25 22.6431 11.25 23.3335V28.3335C11.25 29.0239 10.6904 29.5835 10 29.5835C9.30964 29.5835 8.75 29.0239 8.75 28.3335V23.3335C8.75 22.6431 9.30964 22.0835 10 22.0835Z" fill="black"/>
<path fill-rule="evenodd" clip-rule="evenodd" d="M32.5 9.5835C31.8096 9.5835 31.25 10.1431 31.25 10.8335V15.4168H33.3333C33.5635 15.4168 33.75 15.2303 33.75 15.0002V10.8335C33.75 10.1431 33.1904 9.5835 32.5 9.5835ZM32.5 7.0835C34.5711 7.0835 36.25 8.76243 36.25 10.8335V15.0002C36.25 16.611 34.9442 17.9168 33.3333 17.9168H31.25V32.5002C31.25 34.5712 29.5711 36.2502 27.5 36.2502H8.33333C5.80203 36.2502 3.75 34.1981 3.75 31.6668V30.0002C3.75 28.3893 5.05584 27.0835 6.66667 27.0835H23.3333C24.9442 27.0835 26.25 28.3893 26.25 30.0002V32.5002C26.25 33.1905 26.8096 33.7502 27.5 33.7502C28.1904 33.7502 28.75 33.1905 28.75 32.5002V10.8335C28.75 8.76243 30.4289 7.0835 32.5 7.0835ZM23.9634 33.7502C23.8252 33.3592 23.75 32.9385 23.75 32.5002V30.0002C23.75 29.77 23.5635 29.5835 23.3333 29.5835H6.66667C6.43655 29.5835 6.25 29.77 6.25 30.0002V31.6668C6.25 32.8174 7.18274 33.7502 8.33333 33.7502H23.9634Z" fill="black"/>
<path fill-rule="evenodd" clip-rule="evenodd" d="M20.416 16.667C20.416 15.9766 20.9757 15.417 21.666 15.417H23.3327C24.023 15.417 24.5827 15.9766 24.5827 16.667C24.5827 17.3573 24.023 17.917 23.3327 17.917H21.666C20.9757 17.917 20.416 17.3573 20.416 16.667Z" fill="black"/>
<path fill-rule="evenodd" clip-rule="evenodd" d="M15.416 21.667C15.416 20.9766 15.9757 20.417 16.666 20.417H23.3327C24.023 20.417 24.5827 20.9766 24.5827 21.667C24.5827 22.3573 24.023 22.917 23.3327 22.917H16.666C15.9757 22.917 15.416 22.3573 15.416 21.667Z" fill="black"/>
<path fill-rule="evenodd" clip-rule="evenodd" d="M11.25 6.25C8.48858 6.25 6.25 8.48858 6.25 11.25C6.25 14.0114 8.48858 16.25 11.25 16.25C14.0114 16.25 16.25 14.0114 16.25 11.25C16.25 8.48858 14.0114 6.25 11.25 6.25ZM3.75 11.25C3.75 7.10786 7.10786 3.75 11.25 3.75C15.3921 3.75 18.75 7.10786 18.75 11.25C18.75 15.3921 15.3921 18.75 11.25 18.75C7.10786 18.75 3.75 15.3921 3.75 11.25Z" fill="black"/>
<path fill-rule="evenodd" clip-rule="evenodd" d="M13.9871 9.54713C14.4484 10.0608 14.406 10.8511 13.8923 11.3124L11.6653 13.3124C11.1517 13.7736 10.3613 13.7312 9.90007 13.2175C9.4388 12.7039 9.48125 11.9136 9.99488 11.4523L12.2219 9.45232C12.7355 8.99105 13.5259 9.0335 13.9871 9.54713Z" fill="black"/>
<path fill-rule="evenodd" clip-rule="evenodd" d="M8.79285 10.5528C9.25425 10.0392 10.0446 9.99698 10.5581 10.4584L11.6644 11.4524C12.1779 11.9138 12.2202 12.7041 11.7588 13.2176C11.2974 13.7311 10.5071 13.7734 9.99354 13.312L8.88724 12.318C8.37371 11.8566 8.33146 11.0663 8.79285 10.5528Z" fill="black"/>
</svg>
