<svg width="40" height="40" viewBox="0 0 40 40" fill="none" xmlns="http://www.w3.org/2000/svg">
<path fill-rule="evenodd" clip-rule="evenodd" d="M17.084 5C17.084 4.30964 17.6436 3.75 18.334 3.75H28.334C29.0243 3.75 29.584 4.30964 29.584 5C29.584 5.69036 29.0243 6.25 28.334 6.25H18.334C17.6436 6.25 17.084 5.69036 17.084 5Z" fill="black"/>
<path fill-rule="evenodd" clip-rule="evenodd" d="M17.084 10C17.084 9.30964 17.6436 8.75 18.334 8.75H35.0007C35.691 8.75 36.2507 9.30964 36.2507 10C36.2507 10.6904 35.691 11.25 35.0007 11.25H18.334C17.6436 11.25 17.084 10.6904 17.084 10Z" fill="black"/>
<path fill-rule="evenodd" clip-rule="evenodd" d="M25.418 21.667C25.418 20.9766 25.9776 20.417 26.668 20.417H33.3346C34.025 20.417 34.5846 20.9766 34.5846 21.667C34.5846 22.3573 34.025 22.917 33.3346 22.917H26.668C25.9776 22.917 25.418 22.3573 25.418 21.667Z" fill="black"/>
<path fill-rule="evenodd" clip-rule="evenodd" d="M8.33398 17.0835C9.02434 17.0835 9.58398 17.6431 9.58398 18.3335V20.0002C9.58398 20.6905 9.02434 21.2502 8.33398 21.2502C7.64363 21.2502 7.08398 20.6905 7.08398 20.0002V18.3335C7.08398 17.6431 7.64363 17.0835 8.33398 17.0835Z" fill="black"/>
<path fill-rule="evenodd" clip-rule="evenodd" d="M8.33398 23.75C9.02434 23.75 9.58398 24.3096 9.58398 25V26.6667C9.58398 27.357 9.02434 27.9167 8.33398 27.9167C7.64363 27.9167 7.08398 27.357 7.08398 26.6667V25C7.08398 24.3096 7.64363 23.75 8.33398 23.75Z" fill="black"/>
<path fill-rule="evenodd" clip-rule="evenodd" d="M8.33398 30.417C9.02434 30.417 9.58398 30.9766 9.58398 31.667V33.3337C9.58398 34.024 9.02434 34.5837 8.33398 34.5837C7.64363 34.5837 7.08398 34.024 7.08398 33.3337V31.667C7.08398 30.9766 7.64363 30.417 8.33398 30.417Z" fill="black"/>
<path fill-rule="evenodd" clip-rule="evenodd" d="M22.5575 16.7468C23.0425 17.2381 23.0374 18.0296 22.5461 18.5146L19.4228 21.5979C18.9362 22.0782 18.154 22.0785 17.6671 21.5985L15.7904 19.7485C15.2988 19.2639 15.2931 18.4724 15.7778 17.9808C16.2624 17.4892 17.0539 17.4835 17.5455 17.9681L18.544 18.9525L20.7898 16.7354C21.2811 16.2504 22.0725 16.2555 22.5575 16.7468Z" fill="black"/>
<path fill-rule="evenodd" clip-rule="evenodd" d="M25.418 33.3335C25.418 32.6431 25.9776 32.0835 26.668 32.0835H33.3346C34.025 32.0835 34.5846 32.6431 34.5846 33.3335C34.5846 34.0239 34.025 34.5835 33.3346 34.5835H26.668C25.9776 34.5835 25.418 34.0239 25.418 33.3335Z" fill="black"/>
<path fill-rule="evenodd" clip-rule="evenodd" d="M25.418 28.3335C25.418 27.6431 25.9776 27.0835 26.668 27.0835H35.0013C35.6917 27.0835 36.2513 27.6431 36.2513 28.3335C36.2513 29.0239 35.6917 29.5835 35.0013 29.5835H26.668C25.9776 29.5835 25.418 29.0239 25.418 28.3335Z" fill="black"/>
<path fill-rule="evenodd" clip-rule="evenodd" d="M22.5575 28.4138C23.0425 28.9051 23.0374 29.6966 22.5461 30.1816L19.4228 33.2649C18.9362 33.7452 18.154 33.7455 17.6671 33.2655L15.7904 31.4155C15.2988 30.9309 15.2931 30.1394 15.7778 29.6478C16.2624 29.1562 17.0539 29.1505 17.5455 29.6351L18.544 30.6195L20.7898 28.4024C21.2811 27.9174 22.0725 27.9225 22.5575 28.4138Z" fill="black"/>
<path fill-rule="evenodd" clip-rule="evenodd" d="M25.418 16.667C25.418 15.9766 25.9776 15.417 26.668 15.417H35.0013C35.6917 15.417 36.2513 15.9766 36.2513 16.667C36.2513 17.3573 35.6917 17.917 35.0013 17.917H26.668C25.9776 17.917 25.418 17.3573 25.418 16.667Z" fill="black"/>
<path fill-rule="evenodd" clip-rule="evenodd" d="M8.63062 4.70567C8.4676 4.54273 8.20336 4.54278 8.0404 4.70579L4.70619 8.04099C4.54322 8.204 4.54326 8.46826 4.70627 8.63123L8.04141 11.9655C8.1196 12.0436 8.22577 12.0877 8.33672 12.0877C8.44718 12.0877 8.55331 12.0437 8.63165 11.9654L11.9659 8.63019C11.9659 8.63019 11.9659 8.63019 11.9659 8.63019C12.1289 8.46718 12.1288 8.20292 11.9658 8.03996L8.63062 4.70567C8.63063 4.70567 8.63061 4.70566 8.63062 4.70567ZM6.27237 2.93829C7.41148 1.79882 9.25863 1.79853 10.3981 2.93763L13.7334 6.27194C14.8728 7.41108 14.8731 9.25824 13.7339 10.3977L10.3997 13.7329C10.3997 13.7329 10.3997 13.7329 10.3997 13.7329C9.85272 14.28 9.11069 14.5877 8.33672 14.5877C7.56324 14.5877 6.82117 14.2806 6.27388 13.7335L2.93875 10.3992C1.79929 9.2601 1.79903 7.41294 2.93816 6.27348M6.27237 2.93829C6.27236 2.93829 6.27237 2.93829 6.27237 2.93829L2.93816 6.27348L6.27237 2.93829Z" fill="black"/>
</svg>
