<svg width="40" height="40" viewBox="0 0 40 40" fill="none" xmlns="http://www.w3.org/2000/svg">
<path fill-rule="evenodd" clip-rule="evenodd" d="M8.32886 6.24365C7.1775 6.24365 6.24414 7.17701 6.24414 8.32837V26.6693C6.24414 27.8207 7.1775 28.7541 8.32886 28.7541H18.333C19.0234 28.7541 19.583 29.3137 19.583 30.0041C19.583 30.6944 19.0234 31.2541 18.333 31.2541H8.32886C5.79679 31.2541 3.74414 29.2014 3.74414 26.6693V8.32837C3.74414 5.7963 5.79679 3.74365 8.32886 3.74365H26.6698C29.2019 3.74365 31.2546 5.7963 31.2546 8.32837V18.3325C31.2546 19.0229 30.6949 19.5825 30.0046 19.5825C29.3142 19.5825 28.7546 19.0229 28.7546 18.3325V8.32837C28.7546 7.17701 27.8212 6.24365 26.6698 6.24365H8.32886Z" fill="black"/>
<path fill-rule="evenodd" clip-rule="evenodd" d="M11.9648 17.0825C12.6552 17.0825 13.2148 17.6422 13.2148 18.3325V19.9999C13.2148 20.6902 12.6552 21.2499 11.9648 21.2499C11.2745 21.2499 10.7148 20.6902 10.7148 19.9999V18.3325C10.7148 17.6422 11.2745 17.0825 11.9648 17.0825Z" fill="black"/>
<path fill-rule="evenodd" clip-rule="evenodd" d="M23.0332 15.415C23.7236 15.415 24.2832 15.9747 24.2832 16.665V19.9998C24.2832 20.6901 23.7236 21.2498 23.0332 21.2498C22.3428 21.2498 21.7832 20.6901 21.7832 19.9998V16.665C21.7832 15.9747 22.3428 15.415 23.0332 15.415Z" fill="black"/>
<path fill-rule="evenodd" clip-rule="evenodd" d="M17.5 13.748C18.1904 13.748 18.75 14.3077 18.75 14.998V20.0001C18.75 20.6905 18.1904 21.2501 17.5 21.2501C16.8096 21.2501 16.25 20.6905 16.25 20.0001V14.998C16.25 14.3077 16.8096 13.748 17.5 13.748Z" fill="black"/>
<path fill-rule="evenodd" clip-rule="evenodd" d="M31.5947 27.2406C32.0829 27.7288 32.0829 28.5202 31.5947 29.0084L29.51 31.0931C29.0219 31.5813 28.2304 31.5813 27.7423 31.0931L26.3524 29.7033C25.8643 29.2151 25.8643 28.4237 26.3524 27.9355C26.8406 27.4474 27.6321 27.4474 28.1202 27.9355L28.6261 28.4415L29.827 27.2406C30.3151 26.7525 31.1066 26.7525 31.5947 27.2406Z" fill="black"/>
<path fill-rule="evenodd" clip-rule="evenodd" d="M28.9666 24.2369C28.8369 24.143 28.6617 24.143 28.532 24.2369L28.5295 24.2387L28.5295 24.2387C27.2394 25.1679 25.7393 25.7594 24.166 25.962V29.5747C24.166 30.4414 24.7233 31.3485 25.7124 32.236C26.6715 33.0965 27.834 33.7536 28.5763 34.1247L28.5793 34.1262C28.6864 34.1801 28.8127 34.1801 28.9198 34.1261L28.9235 34.1242L28.9235 34.1242C29.6667 33.7524 30.8287 33.0964 31.7872 32.2367C32.7753 31.3505 33.3327 30.4436 33.3327 29.5747V25.962C31.7594 25.7594 30.2593 25.1679 28.9691 24.2387L28.9666 24.2369L28.9666 24.2369ZM30.4312 22.2108C29.4274 21.4851 28.0712 21.4851 27.0674 22.2108C26.0474 22.9453 24.8496 23.3938 23.5982 23.51C22.5319 23.5965 21.6995 24.4705 21.6666 25.5411C21.6662 25.5539 21.666 25.5667 21.666 25.5796V29.5747C21.666 31.5137 22.874 33.048 24.0428 34.0967C25.2413 35.172 26.6287 35.9459 27.4572 36.3603C28.2704 36.7688 29.2288 36.7687 30.0419 36.3601C30.8698 35.946 32.2577 35.173 33.4565 34.0978C34.6256 33.0492 35.8327 31.5152 35.8327 29.5747V25.5796C35.8327 25.5667 35.8325 25.5539 35.8321 25.5411C35.7992 24.4704 34.9667 23.5964 33.9004 23.51C32.649 23.3938 31.4513 22.9452 30.4312 22.2108Z" fill="black"/>
</svg>
