<svg width="262" height="194" viewBox="0 0 262 194" fill="none" xmlns="http://www.w3.org/2000/svg">
<path d="M43.2993 170.865L7.25781 151.361L7.2685 66.6093L43.31 86.1138L43.2993 170.865Z" fill="#EFF2FF" stroke="#9AA2AC" stroke-linejoin="round"/>
<path d="M109.139 80.1909L109.126 90.8476L43.3013 100.051L43.3138 89.3944L109.139 80.1909Z" fill="#FDFAC3" stroke="#9AA2AC" stroke-linejoin="round"/>
<path d="M43.3012 100.092L1 77.1994L1.01265 66.5007L43.3139 89.3929L43.3012 100.092Z" fill="#FDFAC3" stroke="#9AA2AC" stroke-linejoin="round"/>
<path d="M43.3134 89.3935L1.01221 66.5013L66.8416 57.2937L109.139 80.19L43.3134 89.3935Z" fill="#FDFAC3" stroke="#9AA2AC" stroke-linejoin="round"/>
<path d="M43.3012 141.603L1 118.71L1.01265 108.012L43.3139 130.904L43.3012 141.603Z" fill="#FDFAC3" stroke="#9AA2AC" stroke-linejoin="round"/>
<path d="M1.01611 108.018L43.3117 130.905L49.0412 130.164V125.698L43.3835 126.261L7.21359 107.108L1.01611 108.018Z" fill="#FDFAC3" stroke="#9AA2AC" stroke-linejoin="round"/>
<path d="M135.519 20.5078L135.509 182.602L79.4243 190.443L79.435 64.0853L135.519 20.5078Z" fill="#F9FAFB" stroke="#9AA2AC" stroke-linejoin="round"/>
<path d="M79.4248 190.446L43.3833 170.941L43.394 44.5835L79.4355 64.088L79.4248 190.446Z" fill="#F9FAFB" stroke="#9AA2AC" stroke-linejoin="round"/>
<path d="M79.436 64.0856L43.3945 44.5811L99.4824 1L135.52 20.5081L79.436 64.0856Z" fill="#F9FAFB" stroke="#9AA2AC" stroke-linejoin="round"/>
<path d="M121.994 55.0355L121.994 165.898" stroke="#9AA2AC"/>
<path d="M108.269 66.4369L108.269 167.608" stroke="#9AA2AC"/>
<path d="M94.543 79.3765L94.543 170.165" stroke="#9AA2AC"/>
<path d="M54.5791 68.0181L54.5791 159.058" stroke="#9AA2AC"/>
<path d="M63.7589 83.1614V71.8053L68.0081 74.0646C69.0645 74.6263 69.8685 75.3821 70.4201 76.3318C70.8502 77.0688 71.0652 77.829 71.0652 78.6125C71.0652 79.8196 70.5276 80.3279 69.4525 80.1374V80.1851C70.0508 80.662 70.537 81.2382 70.9109 81.9135C71.2849 82.5782 71.4719 83.2759 71.4719 84.0065C71.4719 84.8748 71.2288 85.4708 70.7427 85.7947C70.1537 86.2015 69.3169 86.1166 68.2324 85.54L63.7589 83.1614ZM65.0211 82.546L68.1764 84.2237C68.8682 84.5915 69.3917 84.6793 69.747 84.487C70.0462 84.2861 70.1957 83.9262 70.1957 83.4074C70.1957 82.7191 70.0041 82.0931 69.6208 81.5293C69.2375 80.9655 68.7279 80.5145 68.0922 80.1765L65.0211 78.5436V82.546ZM65.0211 77.3365L67.8538 78.8427C68.4615 79.1658 68.9383 79.2552 69.2842 79.1109C69.6301 78.9666 69.8031 78.6032 69.8031 78.0209C69.8031 77.4703 69.6442 76.9569 69.3263 76.4808C69.0178 75.9991 68.583 75.6092 68.0221 75.3109L65.0211 73.7152V77.3365Z" fill="#9AA2AC"/>
<path d="M62.8911 98.5826L66.5793 89.1876L67.9957 89.9407L71.6979 103.265L70.3236 102.535L69.2578 98.5055L65.2611 96.3804L64.1813 99.2686L62.8911 98.5826ZM66.8177 92.2368L65.6257 95.4148L68.9072 97.1596L67.7573 92.7363L67.3085 90.8936L67.2805 90.8787C67.1029 91.4195 66.9486 91.8722 66.8177 92.2368Z" fill="#9AA2AC"/>
<path d="M63.0605 114.555V103.199L64.3927 103.908L68.9644 114.232L69.6936 116.081L69.7217 116.096V106.741L70.8997 107.367V118.724L69.6095 118.038L65.0098 107.682L64.2665 105.873L64.2385 105.859V115.182L63.0605 114.555Z" fill="#9AA2AC"/>
<path d="M63.7589 130.809V119.453L65.0211 120.124V125.763L69.9573 122.749L71.542 123.592L67.4892 125.979L71.8786 135.127L70.4061 134.344L66.6338 126.493L65.0211 127.462V131.48L63.7589 130.809Z" fill="#9AA2AC"/>
<path d="M37.1727 167.515L37.1788 146.765L30.1916 147.742L30.1855 168.491L37.1727 167.515Z" fill="#F9FAFB" stroke="#9AA2AC" stroke-linejoin="round"/>
<path d="M30.1716 168.449L27.1545 166.848V150.132L12.6265 142.254V158.954L9.61719 157.325L9.62328 136.617L30.1777 147.74L30.1716 168.449Z" fill="#F9FAFB" stroke="#9AA2AC" stroke-linejoin="round"/>
<path d="M30.1716 147.746L9.61724 136.623L16.6255 135.642L37.1778 146.767L30.1716 147.746Z" fill="#F9FAFB" stroke="#9AA2AC" stroke-linejoin="round"/>
<path d="M27.1315 156.868L12.6343 158.941L12.6338 142.235L27.1315 150.167V156.868Z" fill="#DDE0E3" stroke="#9AA2AC" stroke-linejoin="round"/>
<path d="M27.1383 156.872L12.6113 158.95L27.1383 166.842V156.872Z" fill="#DDE0E3" stroke="#9AA2AC" stroke-linejoin="round"/>
<path d="M261.267 160.734V183.349L195.223 192.989L195.222 169.97L261.267 160.734Z" fill="#F9FAFB" stroke="#9AA2AC" stroke-linejoin="round"/>
<path d="M256.671 165.368V168.736L251.456 169.525L251.456 166.097L256.671 165.368Z" fill="#DDE0E3" stroke="#9AA2AC" stroke-linejoin="round"/>
<path d="M245.673 167.087V170.455L240.458 171.244L240.458 167.816L245.673 167.087Z" fill="#DDE0E3" stroke="#9AA2AC" stroke-linejoin="round"/>
<path d="M234.676 168.892V172.26L229.46 173.049L229.46 169.621L234.676 168.892Z" fill="#DDE0E3" stroke="#9AA2AC" stroke-linejoin="round"/>
<path d="M195.232 192.991L165 176.647L165.001 153.495L195.232 169.858V192.991Z" fill="#F9FAFB" stroke="#9AA2AC" stroke-linejoin="round"/>
<path d="M184.406 171.857L179.87 169.405L179.87 165.931L184.406 168.386V171.857Z" fill="#F9FAFB" stroke="#9AA2AC" stroke-linejoin="round"/>
<path d="M184.406 178.355L179.87 175.902L179.87 172.428L184.406 174.884V178.355Z" fill="#F9FAFB" stroke="#9AA2AC" stroke-linejoin="round"/>
<path d="M191.453 175.474L186.917 173.021L186.917 169.547L191.453 172.002V175.474Z" fill="#F9FAFB" stroke="#9AA2AC" stroke-linejoin="round"/>
<path d="M191.453 181.971L186.917 179.519L186.917 176.045L191.453 178.5V181.971Z" fill="#F9FAFB" stroke="#9AA2AC" stroke-linejoin="round"/>
<path d="M195.376 169.949L165.002 153.501L231.047 144.27L261.305 160.745L195.376 169.949Z" fill="#F9FAFB" stroke="#9AA2AC" stroke-linejoin="round"/>
<path d="M199.35 163.359L186.625 156.468L227.779 150.466L240.457 157.369L199.35 163.359Z" fill="#F9FAFB" stroke="#9AA2AC" stroke-linejoin="round"/>
<path d="M240.392 157.369L227.722 150.476V159.137L240.392 157.369Z" fill="#F9FAFB" stroke="#9AA2AC" stroke-linejoin="round"/>
<path d="M234.556 170.645L240.205 169.741" stroke="#9AA2AC" stroke-linejoin="round"/>
<path d="M245.806 168.769L251.456 167.865" stroke="#9AA2AC" stroke-linejoin="round"/>
<path d="M261.267 131.76V154.376L195.223 164.015L195.222 140.997L261.267 131.76Z" fill="#F9FAFB" stroke="#9AA2AC" stroke-linejoin="round"/>
<path d="M195.232 164.017L165 147.674L165.001 124.522L195.232 140.884V164.017Z" fill="#F9FAFB" stroke="#9AA2AC" stroke-linejoin="round"/>
<path d="M184.406 142.884L179.87 140.431L179.87 136.957L184.406 139.413V142.884Z" fill="#F9FAFB" stroke="#9AA2AC" stroke-linejoin="round"/>
<path d="M184.406 149.381L179.87 146.929L179.87 143.455L184.406 145.91V149.381Z" fill="#F9FAFB" stroke="#9AA2AC" stroke-linejoin="round"/>
<path d="M191.453 146.5L186.917 144.048L186.917 140.573L191.453 143.029V146.5Z" fill="#F9FAFB" stroke="#9AA2AC" stroke-linejoin="round"/>
<path d="M191.453 152.998L186.917 150.545L186.917 147.071L191.453 149.526V152.998Z" fill="#F9FAFB" stroke="#9AA2AC" stroke-linejoin="round"/>
<path d="M195.376 140.975L165.002 124.527L231.047 115.297L261.305 131.772L195.376 140.975Z" fill="#F9FAFB" stroke="#9AA2AC" stroke-linejoin="round"/>
<path d="M199.35 134.386L186.625 127.494L227.779 121.493L240.457 128.395L199.35 134.386Z" fill="#F9FAFB" stroke="#9AA2AC" stroke-linejoin="round"/>
<path d="M240.392 128.396L227.722 121.502V130.164L240.392 128.396Z" fill="#F9FAFB" stroke="#9AA2AC" stroke-linejoin="round"/>
<path d="M256.671 136.395V139.763L251.456 140.552L251.456 137.125L256.671 136.395Z" fill="#DDE0E3" stroke="#9AA2AC" stroke-linejoin="round"/>
<path d="M245.673 138.114V141.482L240.457 142.271L240.457 138.844L245.673 138.114Z" fill="#DDE0E3" stroke="#9AA2AC" stroke-linejoin="round"/>
<path d="M234.676 139.919V143.287L229.46 144.076L229.46 140.649L234.676 139.919Z" fill="#DDE0E3" stroke="#9AA2AC" stroke-linejoin="round"/>
<path d="M234.555 141.672L240.205 140.768" stroke="#9AA2AC" stroke-linejoin="round"/>
<path d="M245.806 139.797L251.456 138.892" stroke="#9AA2AC" stroke-linejoin="round"/>
<path d="M261.267 102.757V125.372L195.223 135.012L195.222 111.993L261.267 102.757Z" fill="#F9FAFB" stroke="#9AA2AC" stroke-linejoin="round"/>
<path d="M256.671 107.391V110.759L251.456 111.548L251.456 108.12L256.671 107.391Z" fill="#DDE0E3" stroke="#9AA2AC" stroke-linejoin="round"/>
<path d="M245.673 109.11V112.478L240.458 113.267L240.458 109.839L245.673 109.11Z" fill="#DDE0E3" stroke="#9AA2AC" stroke-linejoin="round"/>
<path d="M234.676 110.915V114.283L229.46 115.072L229.46 111.644L234.676 110.915Z" fill="#DDE0E3" stroke="#9AA2AC" stroke-linejoin="round"/>
<path d="M195.232 135.014L165 118.67L165.001 95.5181L195.232 111.881V135.014Z" fill="#F9FAFB" stroke="#9AA2AC" stroke-linejoin="round"/>
<path d="M184.406 113.88L179.87 111.428L179.87 107.954L184.406 110.409V113.88Z" fill="#F9FAFB" stroke="#9AA2AC" stroke-linejoin="round"/>
<path d="M184.406 120.378L179.87 117.925L179.87 114.451L184.406 116.906V120.378Z" fill="#F9FAFB" stroke="#9AA2AC" stroke-linejoin="round"/>
<path d="M191.453 117.496L186.917 115.044L186.917 111.57L191.453 114.025V117.496Z" fill="#F9FAFB" stroke="#9AA2AC" stroke-linejoin="round"/>
<path d="M191.453 123.994L186.917 121.541L186.917 118.067L191.453 120.523V123.994Z" fill="#F9FAFB" stroke="#9AA2AC" stroke-linejoin="round"/>
<path d="M195.376 111.972L165.002 95.5237L231.047 86.293L261.305 102.768L195.376 111.972Z" fill="#F9FAFB" stroke="#9AA2AC" stroke-linejoin="round"/>
<path d="M199.35 105.382L186.625 98.4908L227.779 92.4891L240.457 99.3917L199.35 105.382Z" fill="#F9FAFB" stroke="#9AA2AC" stroke-linejoin="round"/>
<path d="M240.392 99.392L227.722 92.4984V101.16L240.392 99.392Z" fill="#F9FAFB" stroke="#9AA2AC" stroke-linejoin="round"/>
<path d="M234.555 112.668L240.205 111.764" stroke="#9AA2AC" stroke-linejoin="round"/>
<path d="M245.806 110.792L251.456 109.888" stroke="#9AA2AC" stroke-linejoin="round"/>
</svg>
