<svg width="205" height="225" viewBox="0 0 205 225" fill="none" xmlns="http://www.w3.org/2000/svg">
<path d="M204.267 185.229V207.844L138.223 217.484L138.222 194.465L204.267 185.229Z" fill="#F9FAFB" stroke="#9AA2AC" stroke-linejoin="round"/>
<path d="M199.671 189.863V193.231L194.456 194.02L194.456 190.592L199.671 189.863Z" fill="#DDE0E3" stroke="#9AA2AC" stroke-linejoin="round"/>
<path d="M188.673 191.582V194.95L183.458 195.739L183.458 192.311L188.673 191.582Z" fill="#DDE0E3" stroke="#9AA2AC" stroke-linejoin="round"/>
<path d="M177.676 193.387V196.755L172.46 197.544L172.46 194.116L177.676 193.387Z" fill="#DDE0E3" stroke="#9AA2AC" stroke-linejoin="round"/>
<path d="M138.232 217.486L108 201.142L108.001 177.99L138.232 194.353V217.486Z" fill="#F9FAFB" stroke="#9AA2AC" stroke-linejoin="round"/>
<path d="M127.406 196.352L122.87 193.9L122.87 190.426L127.406 192.881V196.352Z" fill="#F9FAFB" stroke="#9AA2AC" stroke-linejoin="round"/>
<path d="M127.406 202.85L122.87 200.397L122.87 196.923L127.406 199.379V202.85Z" fill="#F9FAFB" stroke="#9AA2AC" stroke-linejoin="round"/>
<path d="M134.453 199.969L129.917 197.516L129.917 194.042L134.453 196.497V199.969Z" fill="#F9FAFB" stroke="#9AA2AC" stroke-linejoin="round"/>
<path d="M134.453 206.466L129.917 204.014L129.917 200.54L134.453 202.995V206.466Z" fill="#F9FAFB" stroke="#9AA2AC" stroke-linejoin="round"/>
<path d="M138.376 194.444L108.002 177.996L174.047 168.765L204.305 185.24L138.376 194.444Z" fill="#F9FAFB" stroke="#9AA2AC" stroke-linejoin="round"/>
<path d="M142.35 187.854L129.625 180.963L170.779 174.961L183.457 181.864L142.35 187.854Z" fill="#F9FAFB" stroke="#9AA2AC" stroke-linejoin="round"/>
<path d="M183.392 181.864L170.722 174.971V183.632L183.392 181.864Z" fill="#F9FAFB" stroke="#9AA2AC" stroke-linejoin="round"/>
<path d="M177.556 195.14L183.205 194.236" stroke="#9AA2AC" stroke-linejoin="round"/>
<path d="M188.806 193.264L194.456 192.36" stroke="#9AA2AC" stroke-linejoin="round"/>
<path d="M204.267 156.255V178.871L138.223 188.511L138.222 165.492L204.267 156.255Z" fill="#F9FAFB" stroke="#9AA2AC" stroke-linejoin="round"/>
<path d="M138.232 188.512L108 172.169L108.001 149.017L138.232 165.379V188.512Z" fill="#F9FAFB" stroke="#9AA2AC" stroke-linejoin="round"/>
<path d="M127.406 167.379L122.87 164.926L122.87 161.452L127.406 163.908V167.379Z" fill="#F9FAFB" stroke="#9AA2AC" stroke-linejoin="round"/>
<path d="M127.406 173.877L122.87 171.424L122.87 167.95L127.406 170.405V173.877Z" fill="#F9FAFB" stroke="#9AA2AC" stroke-linejoin="round"/>
<path d="M134.453 170.995L129.917 168.543L129.917 165.069L134.453 167.524V170.995Z" fill="#F9FAFB" stroke="#9AA2AC" stroke-linejoin="round"/>
<path d="M134.453 177.493L129.917 175.04L129.917 171.566L134.453 174.021V177.493Z" fill="#F9FAFB" stroke="#9AA2AC" stroke-linejoin="round"/>
<path d="M138.376 165.47L108.002 149.022L174.047 139.792L204.305 156.267L138.376 165.47Z" fill="#F9FAFB" stroke="#9AA2AC" stroke-linejoin="round"/>
<path d="M142.35 158.881L129.625 151.99L170.779 145.988L183.457 152.891L142.35 158.881Z" fill="#F9FAFB" stroke="#9AA2AC" stroke-linejoin="round"/>
<path d="M183.392 152.891L170.722 145.997V154.659L183.392 152.891Z" fill="#F9FAFB" stroke="#9AA2AC" stroke-linejoin="round"/>
<path d="M199.671 160.89V164.258L194.456 165.048L194.456 161.62L199.671 160.89Z" fill="#DDE0E3" stroke="#9AA2AC" stroke-linejoin="round"/>
<path d="M188.673 162.609V165.977L183.457 166.767L183.457 163.339L188.673 162.609Z" fill="#DDE0E3" stroke="#9AA2AC" stroke-linejoin="round"/>
<path d="M177.676 164.414V167.782L172.46 168.572L172.46 165.144L177.676 164.414Z" fill="#DDE0E3" stroke="#9AA2AC" stroke-linejoin="round"/>
<path d="M177.555 166.167L183.205 165.263" stroke="#9AA2AC" stroke-linejoin="round"/>
<path d="M188.806 164.292L194.456 163.387" stroke="#9AA2AC" stroke-linejoin="round"/>
<path d="M204.267 127.252V149.867L138.223 159.507L138.222 136.488L204.267 127.252Z" fill="#F9FAFB" stroke="#9AA2AC" stroke-linejoin="round"/>
<path d="M199.671 131.886V135.254L194.456 136.043L194.456 132.615L199.671 131.886Z" fill="#DDE0E3" stroke="#9AA2AC" stroke-linejoin="round"/>
<path d="M188.673 133.605V136.973L183.458 137.762L183.458 134.334L188.673 133.605Z" fill="#DDE0E3" stroke="#9AA2AC" stroke-linejoin="round"/>
<path d="M177.676 135.41V138.778L172.46 139.567L172.46 136.139L177.676 135.41Z" fill="#DDE0E3" stroke="#9AA2AC" stroke-linejoin="round"/>
<path d="M138.232 159.509L108 143.165L108.001 120.013L138.232 136.376V159.509Z" fill="#F9FAFB" stroke="#9AA2AC" stroke-linejoin="round"/>
<path d="M127.406 138.375L122.87 135.923L122.87 132.449L127.406 134.904V138.375Z" fill="#F9FAFB" stroke="#9AA2AC" stroke-linejoin="round"/>
<path d="M127.406 144.873L122.87 142.42L122.87 138.946L127.406 141.402V144.873Z" fill="#F9FAFB" stroke="#9AA2AC" stroke-linejoin="round"/>
<path d="M134.453 141.992L129.917 139.539L129.917 136.065L134.453 138.52V141.992Z" fill="#F9FAFB" stroke="#9AA2AC" stroke-linejoin="round"/>
<path d="M134.453 148.489L129.917 146.037L129.917 142.562L134.453 145.018V148.489Z" fill="#F9FAFB" stroke="#9AA2AC" stroke-linejoin="round"/>
<path d="M138.376 136.467L108.002 120.019L174.047 110.788L204.305 127.263L138.376 136.467Z" fill="#F9FAFB" stroke="#9AA2AC" stroke-linejoin="round"/>
<path d="M142.35 129.877L129.625 122.986L170.779 116.984L183.457 123.887L142.35 129.877Z" fill="#F9FAFB" stroke="#9AA2AC" stroke-linejoin="round"/>
<path d="M183.392 123.887L170.722 116.994V125.655L183.392 123.887Z" fill="#F9FAFB" stroke="#9AA2AC" stroke-linejoin="round"/>
<path d="M177.555 137.163L183.205 136.259" stroke="#9AA2AC" stroke-linejoin="round"/>
<path d="M188.806 135.287L194.456 134.383" stroke="#9AA2AC" stroke-linejoin="round"/>
<path d="M204.267 98.4637V121.079L138.223 130.719L138.222 107.7L204.267 98.4637Z" fill="#F9FAFB" stroke="#9AA2AC" stroke-linejoin="round"/>
<path d="M199.671 103.098V106.466L194.456 107.255L194.456 103.827L199.671 103.098Z" fill="#DDE0E3" stroke="#9AA2AC" stroke-linejoin="round"/>
<path d="M188.673 104.817V108.185L183.458 108.974L183.458 105.546L188.673 104.817Z" fill="#DDE0E3" stroke="#9AA2AC" stroke-linejoin="round"/>
<path d="M177.676 106.622V109.99L172.46 110.779L172.46 107.351L177.676 106.622Z" fill="#DDE0E3" stroke="#9AA2AC" stroke-linejoin="round"/>
<path d="M138.232 130.721L108 114.377L108.001 91.2251L138.232 107.588V130.721Z" fill="#F9FAFB" stroke="#9AA2AC" stroke-linejoin="round"/>
<path d="M127.406 109.587L122.87 107.135L122.87 103.661L127.406 106.116V109.587Z" fill="#F9FAFB" stroke="#9AA2AC" stroke-linejoin="round"/>
<path d="M127.406 116.085L122.87 113.632L122.87 110.158L127.406 112.614V116.085Z" fill="#F9FAFB" stroke="#9AA2AC" stroke-linejoin="round"/>
<path d="M134.453 113.203L129.917 110.751L129.917 107.277L134.453 109.732V113.203Z" fill="#F9FAFB" stroke="#9AA2AC" stroke-linejoin="round"/>
<path d="M134.453 119.701L129.917 117.249L129.917 113.774L134.453 116.23V119.701Z" fill="#F9FAFB" stroke="#9AA2AC" stroke-linejoin="round"/>
<path d="M138.376 107.679L108.002 91.2307L174.047 82L204.305 98.475L138.376 107.679Z" fill="#F9FAFB" stroke="#9AA2AC" stroke-linejoin="round"/>
<path d="M142.35 101.089L129.625 94.1978L170.779 88.1962L183.457 95.0988L142.35 101.089Z" fill="#F9FAFB" stroke="#9AA2AC" stroke-linejoin="round"/>
<path d="M183.392 95.099L170.722 88.2054V96.8673L183.392 95.099Z" fill="#F9FAFB" stroke="#9AA2AC" stroke-linejoin="round"/>
<path d="M177.556 108.375L183.205 107.471" stroke="#9AA2AC" stroke-linejoin="round"/>
<path d="M188.806 106.499L194.456 105.595" stroke="#9AA2AC" stroke-linejoin="round"/>
<path d="M50.7528 200.796L8.36035 177.855L8.37292 78.1687L50.7654 101.11L50.7528 200.796Z" fill="#EFF2FF" stroke="#9AA2AC" stroke-linejoin="round"/>
<path d="M128.194 94.147L128.179 106.682L50.7549 117.507L50.7696 104.972L128.194 94.147Z" fill="#FDFAC3" stroke="#9AA2AC" stroke-linejoin="round"/>
<path d="M50.7553 117.554L1 90.6281L1.01488 78.0442L50.7702 104.97L50.7553 117.554Z" fill="#FDFAC3" stroke="#9AA2AC" stroke-linejoin="round"/>
<path d="M50.7695 104.971L1.01416 78.0445L78.4435 67.2144L128.194 94.1453L50.7695 104.971Z" fill="#FDFAC3" stroke="#9AA2AC" stroke-linejoin="round"/>
<path d="M50.7553 166.378L1 139.452L1.01488 126.868L50.7702 153.794L50.7553 166.378Z" fill="#FDFAC3" stroke="#9AA2AC" stroke-linejoin="round"/>
<path d="M1.01904 126.875L50.7676 153.795L57.5068 152.923V147.671L50.8522 148.332L8.3086 125.805L1.01904 126.875Z" fill="#FDFAC3" stroke="#9AA2AC" stroke-linejoin="round"/>
<path d="M159.223 23.9446L159.211 214.602L93.2437 223.825L93.2562 75.2011L159.223 23.9446Z" fill="#F9FAFB" stroke="#9AA2AC" stroke-linejoin="round"/>
<path d="M93.244 223.829L50.8516 200.888L50.8641 52.2637L93.2566 75.2052L93.244 223.829Z" fill="#F9FAFB" stroke="#9AA2AC" stroke-linejoin="round"/>
<path d="M93.2572 75.2021L50.8647 52.2606L116.836 1L159.224 23.9457L93.2572 75.2021Z" fill="#F9FAFB" stroke="#9AA2AC" stroke-linejoin="round"/>
<path d="M143.314 64.5571L143.314 194.955" stroke="#9AA2AC"/>
<path d="M127.17 77.9674L127.17 196.967" stroke="#9AA2AC"/>
<path d="M111.026 93.1862L111.026 199.973" stroke="#9AA2AC"/>
<path d="M64.0205 79.8265L64.0205 186.909" stroke="#9AA2AC"/>
<path d="M74.8181 97.6376V84.2804L79.816 86.9378C81.0586 87.5985 82.0043 88.4874 82.6531 89.6046C83.1589 90.4713 83.4118 91.3655 83.4118 92.2871C83.4118 93.7069 82.7795 94.3048 81.515 94.0808V94.1368C82.2187 94.6978 82.7905 95.3755 83.2304 96.1698C83.6703 96.9517 83.8902 97.7723 83.8902 98.6316C83.8902 99.6529 83.6043 100.354 83.0325 100.735C82.3397 101.213 81.3555 101.114 80.0799 100.435L74.8181 97.6376ZM76.3026 96.9137L80.0139 98.8871C80.8277 99.3198 81.4435 99.423 81.8613 99.1968C82.2132 98.9605 82.3892 98.5372 82.3892 97.9269C82.3892 97.1174 82.1637 96.3811 81.7129 95.7179C81.262 95.0547 80.6627 94.5243 79.915 94.1267L76.3026 92.206V96.9137ZM76.3026 90.7862L79.6346 92.5579C80.3493 92.9379 80.9101 93.0431 81.317 92.8733C81.7239 92.7036 81.9273 92.2762 81.9273 91.5912C81.9273 90.9436 81.7404 90.3398 81.3665 89.7798C81.0036 89.2133 80.4923 88.7546 79.8325 88.4037L76.3026 86.5269V90.7862Z" fill="#9AA2AC"/>
<path d="M73.7974 115.776L78.1355 104.726L79.8014 105.611L84.156 121.284L82.5396 120.425L81.286 115.685L76.585 113.186L75.3149 116.583L73.7974 115.776ZM78.4159 108.312L77.0138 112.05L80.8736 114.102L79.521 108.9L78.9932 106.732L78.9602 106.715C78.7513 107.351 78.5698 107.883 78.4159 108.312Z" fill="#9AA2AC"/>
<path d="M73.9966 134.564V121.206L75.5636 122.04L80.9409 134.183L81.7986 136.358L81.8316 136.376V125.372L83.2171 126.109V139.466L81.6996 138.659L76.2894 126.479L75.4151 124.352L75.3821 124.334V135.3L73.9966 134.564Z" fill="#9AA2AC"/>
<path d="M74.8181 153.682V140.325L76.3026 141.114V147.746L82.1088 144.201L83.9727 145.192L79.2057 148L84.3685 158.76L82.6366 157.839L78.1995 148.605L76.3026 149.745V154.471L74.8181 153.682Z" fill="#9AA2AC"/>
<path d="M43.5475 196.855L43.5547 172.449L35.3363 173.598L35.3291 198.004L43.5475 196.855Z" fill="#F9FAFB" stroke="#9AA2AC" stroke-linejoin="round"/>
<path d="M35.3121 197.955L31.7634 196.071V176.41L14.6754 167.144V186.787L11.1357 184.871L11.1429 160.513L35.3193 173.596L35.3121 197.955Z" fill="#F9FAFB" stroke="#9AA2AC" stroke-linejoin="round"/>
<path d="M35.3121 173.603L11.1358 160.52L19.379 159.366L43.553 172.452L35.3121 173.603Z" fill="#F9FAFB" stroke="#9AA2AC" stroke-linejoin="round"/>
<path d="M31.7364 184.333L14.6846 186.771L14.6841 167.122L31.7364 176.451V184.333Z" fill="#DDE0E3" stroke="#9AA2AC" stroke-linejoin="round"/>
<path d="M31.7441 184.338L14.6572 186.782L31.7441 196.065V184.338Z" fill="#DDE0E3" stroke="#9AA2AC" stroke-linejoin="round"/>
</svg>
