<svg width="547" height="472" viewBox="0 0 547 472" fill="none" xmlns="http://www.w3.org/2000/svg">
<path d="M288.745 364.687V358.705L120.219 267.893V274.216L288.745 364.687Z" fill="#F3F5F7" stroke="#9AA2AC" stroke-width="0.75" stroke-linejoin="round"/>
<path d="M120.219 267.9L141.613 264.922L297.232 347.135L288.89 358.89L120.219 267.9Z" fill="#F3F5F7" stroke="#9AA2AC" stroke-width="0.75" stroke-linejoin="round"/>
<path d="M382.404 322.967L382.171 362.575L239.617 382.619L239.85 343.023L382.404 322.967Z" fill="#F9FAFB" stroke="#9AA2AC" stroke-width="0.75" stroke-linejoin="round"/>
<path d="M239.618 382.618L150.058 333.864L150.291 294.256L239.851 343.023L239.618 382.618Z" fill="#F9FAFB" stroke="#9AA2AC" stroke-width="0.75" stroke-linejoin="round"/>
<path d="M239.852 343.02L150.291 294.253L292.845 274.209L382.405 322.963L239.852 343.02Z" fill="#F9FAFB" stroke="#9AA2AC" stroke-width="0.75" stroke-linejoin="round"/>
<path d="M330.24 255.297L330.226 310.644L254.958 321.197L254.972 265.85L292.606 260.573L330.24 255.297Z" fill="#F3F5F7" stroke="#9AA2AC" stroke-width="0.75" stroke-linejoin="round"/>
<path d="M254.959 321.197L206.59 294.949L206.604 239.602L254.973 265.85L254.959 321.197Z" fill="#F3F5F7" stroke="#9AA2AC" stroke-width="0.75" stroke-linejoin="round"/>
<path d="M255.06 266.08L206.471 239.92L211.252 232.115L255.06 255.531V266.08Z" fill="#F3F5F7" stroke="#9AA2AC" stroke-width="0.75" stroke-linejoin="round"/>
<path d="M255.092 265.978V255.594L326.844 246.375L330.223 255.457L255.092 265.978Z" fill="#F3F5F7" stroke="#9AA2AC" stroke-width="0.75" stroke-linejoin="round"/>
<path d="M255.175 255.619L211.331 232.16L282.523 222.393L326.678 246.353L255.175 255.619Z" fill="#F3F5F7" stroke="#9AA2AC" stroke-width="0.75" stroke-linejoin="round"/>
<path d="M256.346 248.89L230.954 235.343L280.406 228.559L306.014 242.453L256.346 248.89Z" fill="#DDE0E3" stroke="#9AA2AC" stroke-width="0.75" stroke-linejoin="round"/>
<path d="M280.373 238.794V228.551L306.016 242.457L291.477 244.326L280.373 238.794Z" fill="#DDE0E3" stroke="#9AA2AC" stroke-width="0.75" stroke-linejoin="round"/>
<path d="M280.371 238.786V228.559L230.946 235.34L246.476 243.629L280.371 238.786Z" fill="#DDE0E3" stroke="#9AA2AC" stroke-width="0.75" stroke-linejoin="round"/>
<path d="M290.397 319.106V326.215H290.39V326.204C290.39 326.797 288.556 327.95 286.306 327.95C284.056 327.95 282.253 326.797 282.253 326.204V321.312C282.253 320.002 282.149 319.007 281.639 318.549C281.336 318.276 280.887 317.92 279.673 317.3L269.95 311.705C268.802 310.758 268.491 309.17 268.504 308.814C268.257 306.782 269.545 305.392 269.95 304.999C271.269 303.81 273.418 303.974 274.328 304.205L286.894 311.175C290.397 312.506 290.397 316.087 290.397 319.106Z" fill="#EAECEF" stroke="#9AA2AC" stroke-width="0.75" stroke-miterlimit="10"/>
<path d="M311.55 316.206V323.314H311.543V323.304C311.543 323.897 309.709 325.049 307.459 325.049C305.209 325.049 303.406 323.897 303.406 323.304V318.412C303.406 317.102 303.302 316.107 302.792 315.648C302.489 315.375 302.041 315.02 300.826 314.399L291.103 308.805C289.955 307.858 289.645 306.269 289.657 305.914C289.41 303.882 290.698 302.491 291.103 302.099C292.423 300.909 294.572 301.074 295.481 301.304L308.047 308.274C311.55 309.606 311.55 313.186 311.55 316.206Z" fill="#EAECEF" stroke="#9AA2AC" stroke-width="0.75" stroke-miterlimit="10"/>
<path d="M331.572 312.886V319.994H331.565V319.983C331.565 320.576 329.73 321.729 327.48 321.729C325.23 321.729 323.428 320.576 323.428 319.983V315.092C323.428 313.782 323.324 312.787 322.814 312.328C322.51 312.055 322.062 311.7 320.848 311.079L311.125 305.485C309.977 304.538 309.666 302.949 309.679 302.594C309.432 300.562 310.719 299.171 311.125 298.778C312.444 297.589 314.593 297.753 315.503 297.984L328.069 304.954C331.572 306.286 331.572 309.866 331.572 312.886Z" fill="#EAECEF" stroke="#9AA2AC" stroke-width="0.75" stroke-miterlimit="10"/>
<path d="M206.182 290.915L221.33 288.609C223.445 288.609 225.035 289.176 225.586 291.296C226.542 294.981 224.683 296.453 222.746 296.895L212.137 298.239C210.138 298.493 208.64 300.193 208.64 302.208V308.24C207.982 309.282 206.827 309.853 204.692 309.853C202.543 309.721 201.286 308.99 200.474 308.24L200.474 299.877C200.474 295.6 201.09 291.296 206.182 290.915Z" fill="#EAECEF" stroke="#9AA2AC" stroke-width="0.75" stroke-linejoin="round"/>
<path d="M226.033 300.891L241.18 298.586C243.295 298.586 244.886 299.152 245.436 301.273C246.393 304.958 244.533 306.429 242.597 306.871L231.987 308.216C229.988 308.469 228.49 310.169 228.49 312.184V318.217C227.832 319.259 226.677 319.829 224.543 319.829C222.394 319.698 221.136 318.967 220.325 318.217L220.324 309.854C220.324 305.576 220.941 301.273 226.033 300.891Z" fill="#EAECEF" stroke="#9AA2AC" stroke-width="0.75" stroke-linejoin="round"/>
<path d="M298.658 291.548L291.849 287.825L297.333 281.115L304.141 284.838L298.658 291.548Z" fill="#F9EF00" stroke="#3C4149" stroke-width="0.75" stroke-linecap="round" stroke-linejoin="round"/>
<path d="M304.14 284.839L297.333 281.116L297.349 270.211L304.158 273.934L304.14 284.839Z" fill="#F9EF00" stroke="#3C4149" stroke-width="0.75" stroke-linecap="round" stroke-linejoin="round"/>
<path d="M288.609 292.965L281.802 289.242L291.85 287.822L298.659 291.545L288.609 292.965Z" fill="#F9EF00" stroke="#3C4149" stroke-width="0.75" stroke-linecap="round" stroke-linejoin="round"/>
<path d="M301.049 265.684L293.438 266.759L285.76 267.844L292.567 271.567L300.245 270.482L307.858 269.407L301.049 265.684Z" fill="#F9EF00" stroke="#3C4149" stroke-width="0.75" stroke-linecap="round" stroke-linejoin="round"/>
<path d="M285.76 267.846L292.567 271.569L284.939 280.93L278.132 277.207L285.76 267.846Z" fill="#F9EF00" stroke="#3C4149" stroke-width="0.75" stroke-linecap="round" stroke-linejoin="round"/>
<path d="M307.857 269.404L307.831 285.974L300.181 295.336L284.909 297.493L284.924 289.141L284.939 280.926L292.566 271.565L300.244 270.48L307.857 269.404ZM298.658 291.547L304.141 284.837L304.159 273.934L294.093 275.355L288.629 282.06L288.61 292.967L298.659 291.547" fill="#F9EF00"/>
<path d="M298.658 291.547L304.141 284.837L304.159 273.934L294.093 275.355L288.629 282.06L288.61 292.967L298.659 291.547M307.857 269.404L307.831 285.974L300.181 295.336L284.909 297.493L284.924 289.141L284.939 280.926L292.566 271.565L300.244 270.48L307.857 269.404Z" stroke="#3C4149" stroke-width="0.75" stroke-linecap="round" stroke-linejoin="round"/>
<path d="M278.132 277.203L278.115 285.418L278.101 293.771L284.908 297.494L284.924 289.141L284.939 280.926L278.132 277.203Z" fill="#F9EF00" stroke="#3C4149" stroke-width="0.75" stroke-linecap="round" stroke-linejoin="round"/>
<path d="M314.986 266.373L314.984 270.451L310.953 271.017L310.954 266.94L314.986 266.373Z" fill="#3CBF30" stroke="#3C4149" stroke-width="0.75" stroke-linejoin="round"/>
<path d="M310.952 271.013L307.86 269.331L307.862 265.256L310.953 266.938L310.952 271.013Z" fill="#3CBF30" stroke="#3C4149" stroke-width="0.75" stroke-linejoin="round"/>
<path d="M310.94 266.934L307.862 265.258L311.915 264.689L314.993 266.365L310.94 266.934Z" fill="#3CBF30" stroke="#3C4149" stroke-width="0.75" stroke-linejoin="round"/>
<path d="M306.242 358.311L305.202 355.671L300.558 356.324L299.504 359.258L298.478 359.402L302.346 348.806L303.483 348.647L307.337 358.157L306.242 358.311ZM302.887 349.85L300.877 355.425L304.87 354.864L302.887 349.85ZM312.111 353.79L309.879 354.104V357.8L308.84 357.946V347.894L312.111 347.434C314.163 347.146 315.563 348.083 315.563 350.113C315.563 352.143 314.163 353.502 312.111 353.79ZM312.098 348.332L309.879 348.644V353.208L312.098 352.896C313.581 352.687 314.524 351.729 314.524 350.259C314.524 348.803 313.581 348.123 312.098 348.332ZM318.206 356.629L317.166 356.776V346.724L318.206 346.577V356.629Z" fill="#3C4149"/>
<path d="M376 411.586V405.591L305 366.586V372.923L376 411.586Z" fill="#F3F5F7" stroke="#9AA2AC" stroke-width="0.75" stroke-linejoin="round"/>
<path d="M305 366.556L326.488 363.586L409 406.864L400.622 418.586L305 366.556Z" fill="#F3F5F7" stroke="#9AA2AC" stroke-width="0.75" stroke-linejoin="round"/>
<path d="M545.865 165.846L545.606 448.447L387.639 470.659L387.897 188.071L545.865 165.846Z" fill="#EFF2FF" stroke="#9AA2AC" stroke-width="0.75" stroke-linejoin="round"/>
<path d="M483.037 422.564L483.133 444.431L459.259 448.225L459.203 426.109L483.037 422.564Z" fill="#F9FAFB" stroke="#9AA2AC" stroke-width="0.75" stroke-linejoin="round"/>
<path d="M459.224 425.957L455.716 423.857V446.063L459.224 448.227V425.957Z" fill="#F9FAFB" stroke="#9AA2AC" stroke-width="0.75" stroke-linejoin="round"/>
<path d="M483.054 422.541L479.034 420.17L455.713 423.848L459.316 426.073L483.054 422.541Z" fill="#F9FAFB" stroke="#9AA2AC" stroke-width="0.75" stroke-linejoin="round"/>
<path d="M539.598 182.428L539.36 402.061L393.908 422.513L394.146 202.892L433.785 197.448L446.131 204.406L470.148 201.349L495.685 197.448L506.511 187.215L539.598 182.428Z" fill="#F9FAFB" stroke="#9AA2AC" stroke-width="0.75" stroke-linejoin="round"/>
<path d="M402.34 387.587L404.266 389.441L408.12 382.527L409.565 384.979L410.769 380.031L412.214 381.155L415.345 380.715L418.234 382.699L420.643 376.519L423.292 380.395L426.182 377.334L429.072 384.627L433.647 371.771L436.537 381.188L439.668 367.474L441.836 369.293L443.762 366.898L447.375 369.842L449.301 368.244L452.673 374.142L457.489 362.845L460.982 369.841L463.935 364.435L466.467 367.159L467.732 365.653L471.529 370.961L473.85 362.67L478.28 374.897L479.967 372.43L482.287 373.697L484.397 367.05L487.35 366.135L490.725 362.422L494.733 366.107L497.897 360.66L503.171 367.655L506.335 363.467L510.554 366.618L512.874 357.185L515.828 365.877L520.257 368.36L523 358.38L525.109 362.326L528.484 360.354L532.034 348.497" stroke="#3A5AF9" stroke-width="0.75"/>
<path opacity="0.16" d="M404.267 389.776L402.34 387.885V410.296L532.089 392.061V348.132L528.502 360.482L525.127 362.48L523.017 358.46L520.274 368.609L515.844 366.071L512.89 357.219L510.569 366.812L506.35 363.595L503.185 367.85L497.911 360.718L494.746 366.253L490.738 362.494L487.362 366.264L484.409 367.187L482.299 373.946L479.978 372.651L478.29 375.158L473.86 362.704L471.539 371.135L467.742 365.725L466.476 367.254L463.944 364.476L460.991 369.97L457.497 362.843L452.68 374.326L449.308 368.316L447.381 369.938L443.768 366.933L441.841 369.366L439.673 367.509L436.542 381.457L433.652 371.867L429.075 384.938L426.185 377.51L423.295 380.617L420.645 376.667L418.237 382.949L415.346 380.924L412.215 381.364L410.77 380.216L409.566 385.249L408.121 382.75L404.267 389.776Z" fill="url(#paint0_linear_683_40571)"/>
<path d="M407.118 236.447L409.035 236.178V247.138L407.118 247.407V236.447ZM412.545 237.748C413.158 237.353 413.765 237.113 414.367 237.028C414.969 236.944 415.455 237.051 415.825 237.351C416.195 237.641 416.38 238.122 416.38 238.794V246.106L414.431 246.379V239.483C414.431 239.025 414.198 238.828 413.734 238.893C413.374 238.944 413.015 239.096 412.656 239.349V246.629L410.739 246.898V237.586L412.545 237.332V237.748ZM421.75 236.039L423.636 235.774L421.655 245.364L419.326 245.691L417.314 236.662L419.231 236.393L419.897 239.691C420.171 241.093 420.372 242.542 420.499 244.039C420.615 242.689 420.816 241.194 421.101 239.554L421.75 236.039ZM424.475 242.424V238.04C424.475 237.25 424.708 236.599 425.172 236.086C425.648 235.56 426.361 235.231 427.311 235.097C428.262 234.964 428.959 235.095 429.403 235.491C429.857 235.875 430.084 236.462 430.084 237.251V240.323L426.329 240.851V242.019C426.329 242.403 426.44 242.665 426.662 242.804C426.884 242.944 427.306 242.97 427.929 242.882C428.552 242.795 429.192 242.604 429.846 242.309V244.021C429.192 244.305 428.463 244.503 427.66 244.616C425.537 244.915 424.475 244.184 424.475 242.424ZM426.329 239.347L428.31 239.069V237.517C428.31 236.888 427.977 236.62 427.311 236.713C426.656 236.805 426.329 237.166 426.329 237.795V239.347ZM431.028 237.103C431.028 236.281 431.266 235.635 431.741 235.163C432.217 234.69 432.993 234.379 434.07 234.227C434.768 234.129 435.391 234.127 435.94 234.22V235.932C435.454 235.83 434.91 235.821 434.308 235.906C433.717 235.989 433.331 236.112 433.151 236.276C432.982 236.428 432.898 236.653 432.898 236.952V237.176C432.898 237.389 432.945 237.553 433.041 237.668C433.146 237.77 433.347 237.892 433.643 238.031L434.958 238.631C435.834 239.03 436.273 239.646 436.273 240.478V240.894C436.273 242.558 435.195 243.541 433.041 243.844C432.28 243.951 431.615 243.97 431.044 243.901V242.157C431.562 242.244 432.132 242.244 432.755 242.156C433.379 242.068 433.801 241.94 434.023 241.77C434.255 241.599 434.371 241.374 434.371 241.097V240.873C434.371 240.66 434.308 240.498 434.181 240.388C434.065 240.276 433.812 240.136 433.421 239.967L432.232 239.43C431.43 239.073 431.028 238.452 431.028 237.567V237.103ZM439.52 231.893V233.541L441.168 233.31V234.942L439.52 235.173V240.469C439.52 240.971 439.784 241.184 440.312 241.11C440.576 241.073 440.898 240.964 441.278 240.782V242.494C440.835 242.706 440.396 242.842 439.963 242.903C438.4 243.123 437.618 242.459 437.618 240.913V235.441L436.715 235.568V233.936L437.698 233.797L438.268 232.069L439.52 231.893ZM447.499 232.964C448.217 232.468 448.915 232.173 449.591 232.078C450.277 231.982 450.8 232.084 451.159 232.386C451.529 232.675 451.714 233.156 451.714 233.828V241.14L449.781 241.411V234.515C449.781 234.057 449.548 233.86 449.084 233.925C448.703 233.979 448.328 234.143 447.959 234.419C447.99 234.511 448.006 234.626 448.006 234.765V241.661L446.057 241.935V235.039C446.057 234.58 445.825 234.383 445.36 234.449C445.001 234.499 444.642 234.651 444.283 234.904V242.184L442.366 242.453V233.141L444.172 232.888V233.304C444.785 232.908 445.397 232.667 446.01 232.581C446.633 232.494 447.129 232.621 447.499 232.964ZM453.193 238.388V234.004C453.193 233.214 453.425 232.563 453.89 232.05C454.365 231.524 455.078 231.195 456.029 231.061C456.98 230.928 457.677 231.059 458.121 231.455C458.575 231.839 458.802 232.426 458.802 233.215V236.287L455.047 236.815V237.983C455.047 238.367 455.158 238.629 455.379 238.768C455.601 238.908 456.024 238.934 456.647 238.846C457.27 238.759 457.909 238.568 458.564 238.273V239.985C457.909 240.269 457.18 240.467 456.378 240.58C454.255 240.879 453.193 240.148 453.193 238.388ZM455.047 235.311L457.027 235.033V233.481C457.027 232.852 456.695 232.584 456.029 232.677C455.374 232.769 455.047 233.13 455.047 233.759V235.311ZM462.028 230.794C462.64 230.399 463.248 230.159 463.85 230.074C464.452 229.989 464.938 230.097 465.307 230.397C465.677 230.687 465.862 231.167 465.862 231.839V239.151L463.913 239.425V232.529C463.913 232.07 463.681 231.874 463.216 231.939C462.857 231.99 462.498 232.141 462.139 232.395V239.675L460.221 239.944V230.632L462.028 230.378V230.794ZM469.522 227.677V229.325L471.17 229.093V230.725L469.522 230.957V236.253C469.522 236.754 469.786 236.968 470.314 236.894C470.578 236.856 470.9 236.747 471.28 236.566V238.278C470.837 238.489 470.398 238.626 469.965 238.687C468.402 238.906 467.62 238.243 467.62 236.696V231.224L466.717 231.351V229.719L467.7 229.581L468.27 227.853L469.522 227.677ZM479.078 230.398C479.078 229.939 478.835 229.744 478.349 229.812C477.969 229.866 477.599 230.019 477.24 230.272V235.776L478.143 235.649C478.766 235.562 479.078 235.23 479.078 234.654V230.398ZM477.129 228.672C477.774 228.272 478.397 228.03 478.999 227.945C479.601 227.86 480.087 227.968 480.457 228.268C480.826 228.557 481.011 229.038 481.011 229.71V234.654C481.011 235.433 480.795 236.055 480.361 236.521C479.928 236.977 479.347 237.256 478.619 237.358L477.24 237.552V239.936L475.323 240.206V228.51L477.129 228.256V228.672ZM482.564 225.012L484.481 224.742V236.534L482.564 236.804V225.012ZM487.579 233.411V233.875C487.579 234.419 487.859 234.652 488.419 234.573C488.852 234.512 489.232 234.341 489.56 234.061V231.725L488.435 232.203C488.086 232.348 487.854 232.503 487.738 232.669C487.632 232.833 487.579 233.08 487.579 233.411ZM486.169 227.209C486.771 226.922 487.569 226.709 488.562 226.569C489.555 226.429 490.278 226.552 490.732 226.936C491.187 227.309 491.414 227.939 491.414 228.824V235.56L489.607 235.814V235.142C489.195 235.68 488.614 236.002 487.865 236.107C487.125 236.211 486.581 236.101 486.233 235.776C485.884 235.452 485.71 234.906 485.71 234.138V233.594C485.71 232.943 485.863 232.41 486.169 231.993C486.475 231.577 486.972 231.224 487.659 230.936L489.576 230.138V229.066C489.565 228.737 489.47 228.511 489.29 228.387C489.111 228.262 488.699 228.246 488.055 228.336C487.41 228.427 486.782 228.627 486.169 228.937V227.209ZM495.068 224.087V225.735L496.715 225.503V227.135L495.068 227.367V232.663C495.068 233.164 495.332 233.378 495.86 233.303C496.124 233.266 496.446 233.157 496.826 232.975V234.687C496.383 234.899 495.944 235.035 495.511 235.096C493.948 235.316 493.166 234.653 493.166 233.106V227.634L492.263 227.761V226.129L493.245 225.991L493.816 224.263L495.068 224.087ZM498.215 225.02C498.215 223.346 499.075 222.387 500.797 222.145C501.04 222.111 501.309 222.1 501.605 222.112V223.632C501.447 223.622 501.267 223.631 501.067 223.66C500.443 223.747 500.132 224.1 500.132 224.719V225.023L501.558 224.823V226.359L500.132 226.559V234.335L498.215 234.604V226.828L497.311 226.955V225.419L498.215 225.292V225.02ZM506.107 226.615C506.107 225.986 505.785 225.716 505.14 225.807C504.506 225.896 504.19 226.255 504.19 226.885V231.333C504.19 231.962 504.506 232.232 505.14 232.143C505.785 232.052 506.107 231.693 506.107 231.063V226.615ZM502.304 227.102C502.304 226.312 502.536 225.661 503.001 225.148C503.477 224.622 504.19 224.293 505.14 224.159C506.101 224.024 506.814 224.153 507.279 224.546C507.755 224.928 507.992 225.513 507.992 226.302V230.846C507.992 231.636 507.755 232.293 507.279 232.818C506.814 233.332 506.101 233.656 505.14 233.791C504.19 233.925 503.477 233.801 503.001 233.42C502.536 233.026 502.304 232.435 502.304 231.646V227.102ZM513.162 223.144L513.479 223.099V224.891L513.051 224.951C512.501 225.028 511.973 225.263 511.466 225.654V232.742L509.549 233.011V223.699L511.355 223.446V224.102C511.662 223.856 511.873 223.693 511.989 223.612C512.338 223.361 512.729 223.205 513.162 223.144ZM519.541 222.839C520.259 222.343 520.957 222.048 521.633 221.953C522.319 221.857 522.842 221.959 523.201 222.261C523.571 222.55 523.756 223.031 523.756 223.703V231.015L521.823 231.286V224.39C521.823 223.932 521.59 223.735 521.126 223.8C520.745 223.854 520.37 224.019 520.001 224.295C520.032 224.386 520.048 224.501 520.048 224.64V231.536L518.099 231.81V224.914C518.099 224.455 517.867 224.258 517.402 224.324C517.043 224.374 516.684 224.526 516.325 224.779V232.059L514.408 232.329V223.017L516.214 222.763V223.179C516.827 222.783 517.439 222.543 518.052 222.456C518.675 222.369 519.171 222.496 519.541 222.839Z" fill="#3361D8"/>
<path d="M407.619 280.708L406.271 277.603V280.897L405.67 280.982V276.674L406.473 276.561L407.905 279.858L409.331 276.159L410.139 276.046V280.354L409.533 280.439V277.139L408.178 280.629L407.619 280.708ZM414.18 278.526C414.18 279.276 413.586 279.929 412.552 280.075C411.524 280.219 410.9 279.737 410.847 278.886L411.512 278.793C411.542 279.335 411.887 279.64 412.54 279.548C413.081 279.472 413.485 279.157 413.485 278.713C413.485 278.353 413.253 278.206 412.76 278.167L412.142 278.134C411.542 278.099 410.996 277.869 410.996 277.137C410.996 276.411 411.625 275.777 412.511 275.652C413.396 275.528 414.067 275.98 414.121 276.83L413.455 276.924C413.42 276.413 413.051 276.104 412.517 276.18C411.964 276.257 411.661 276.63 411.661 277.002C411.661 277.41 412.012 277.505 412.41 277.533L413.039 277.57C413.77 277.617 414.18 277.884 414.18 278.526ZM416.681 279.524C415.492 279.691 414.571 278.843 414.571 277.571C414.571 276.305 415.492 275.203 416.681 275.036C417.75 274.886 418.606 275.486 418.766 276.525L418.071 276.623C417.952 275.944 417.394 275.53 416.686 275.63C415.843 275.748 415.249 276.522 415.249 277.476C415.249 278.442 415.843 279.048 416.686 278.93C417.394 278.83 417.952 278.254 418.071 277.541L418.766 277.443C418.606 278.534 417.75 279.374 416.681 279.524ZM420.099 278.954L419.445 279.046V274.738L420.099 274.646V278.954ZM425.515 278.193L424.612 274.942L423.703 278.447L423.032 278.542L421.921 274.39L422.562 274.3L423.382 277.503L424.279 274.058L424.957 273.963L425.842 277.163L426.662 273.724L427.304 273.633L426.193 278.098L425.515 278.193ZM428.892 277.778C428.001 277.903 427.347 277.287 427.347 276.345C427.347 275.403 428.001 274.603 428.892 274.478C429.784 274.353 430.437 274.969 430.437 275.911C430.437 276.853 429.784 277.653 428.892 277.778ZM428.892 277.244C429.409 277.171 429.819 276.694 429.819 275.998C429.819 275.302 429.409 274.945 428.892 275.018C428.375 275.091 427.971 275.562 427.971 276.258C427.971 276.954 428.375 277.317 428.892 277.244ZM431.649 275.705V277.331L431.049 277.415V274.235L431.607 274.157V274.829C431.827 274.36 432.303 274.017 432.819 273.944V274.574C432.142 274.633 431.649 275.003 431.649 275.705ZM433.9 277.014L433.294 277.099V272.791L433.9 272.706V277.014ZM434.508 275.339C434.508 274.373 435.054 273.612 435.904 273.493C436.326 273.433 436.694 273.598 436.914 273.957V272.283L437.514 272.198V276.506L436.956 276.585V276.015C436.73 276.449 436.349 276.73 435.904 276.793C435.054 276.912 434.508 276.293 434.508 275.339ZM435.131 275.251C435.131 275.959 435.5 276.31 436.023 276.236C436.534 276.164 436.914 275.691 436.914 274.989C436.914 274.275 436.522 273.94 436.023 274.01C435.5 274.084 435.131 274.531 435.131 275.251ZM442.923 271.438V274.198C442.923 275.188 442.293 275.925 441.271 276.068C440.249 276.212 439.626 275.652 439.626 274.662V271.902L440.279 271.81V274.588C440.279 275.212 440.642 275.563 441.271 275.474C441.907 275.385 442.27 274.932 442.27 274.308V271.53L442.923 271.438ZM446.952 273.92C446.952 274.67 446.358 275.324 445.324 275.469C444.296 275.613 443.672 275.131 443.619 274.28L444.284 274.187C444.314 274.729 444.658 275.034 445.312 274.942C445.853 274.866 446.257 274.552 446.257 274.108C446.257 273.748 446.025 273.6 445.532 273.562L444.914 273.528C444.314 273.493 443.767 273.264 443.767 272.532C443.767 271.806 444.397 271.171 445.282 271.047C446.168 270.922 446.839 271.374 446.892 272.224L446.227 272.318C446.191 271.807 445.823 271.499 445.288 271.574C444.736 271.651 444.433 272.024 444.433 272.396C444.433 272.804 444.783 272.899 445.181 272.927L445.811 272.964C446.542 273.012 446.952 273.278 446.952 273.92ZM449.057 274.884L447.709 275.074V270.766L449.057 270.576C450.418 270.385 451.202 271.151 451.202 272.411C451.202 273.653 450.388 274.697 449.057 274.884ZM448.362 271.244V274.412L449.028 274.318C450.008 274.181 450.537 273.494 450.537 272.504C450.537 271.532 450.014 271.012 449.028 271.15L448.362 271.244ZM454.37 275.296L453.158 275.466V270L454.37 269.83V270.352L453.776 270.435V274.857L454.37 274.774V275.296ZM457.931 273.637L457.545 272.623L455.703 272.882L455.311 274.005L454.652 274.098L456.286 269.56L457.005 269.459L458.627 273.539L457.931 273.637ZM456.63 270.232L455.899 272.321L457.349 272.117L456.63 270.232ZM460.229 273.38C459.367 273.501 458.761 272.902 458.761 271.93C458.761 270.97 459.379 270.193 460.229 270.074C461.007 269.965 461.572 270.407 461.685 271.219L461.055 271.308C460.989 270.807 460.675 270.545 460.235 270.607C459.718 270.68 459.379 271.171 459.379 271.843C459.379 272.521 459.718 272.912 460.235 272.839C460.681 272.777 460.989 272.433 461.061 271.907L461.685 271.819C461.578 272.674 461.019 273.269 460.229 273.38ZM463.502 272.92C462.64 273.041 462.034 272.442 462.034 271.47C462.034 270.51 462.652 269.734 463.502 269.614C464.28 269.505 464.844 269.947 464.957 270.76L464.327 270.848C464.262 270.347 463.947 270.085 463.507 270.147C462.991 270.22 462.652 270.712 462.652 271.384C462.652 272.062 462.991 272.452 463.507 272.379C463.953 272.317 464.262 271.973 464.333 271.447L464.957 271.36C464.85 272.215 464.292 272.809 463.502 272.92ZM466.518 273.588L465.306 273.759V273.237L465.906 273.152V268.73L465.306 268.815V268.293L466.518 268.122V273.588Z" fill="#3C4149"/>
<path d="M411.494 300.734V301.874C411.03 302.191 410.543 302.379 409.878 302.473C408.036 302.732 406.752 301.784 406.384 299.892L405.124 300.069V299.313L406.277 299.151C406.265 298.9 406.277 298.515 406.289 298.249L405.124 298.413V297.657L406.408 297.476C406.824 295.594 408.083 294.373 409.878 294.121C410.555 294.026 411.042 294.065 411.494 294.242V295.406C411.066 295.178 410.579 295.114 409.996 295.196C408.832 295.36 408.024 296.097 407.703 297.294L410.305 296.929V297.685L407.477 298.082C407.453 298.325 407.453 298.721 407.465 298.984L410.305 298.585V299.341L407.667 299.711C407.952 300.943 408.784 301.522 409.996 301.352C410.567 301.272 411.09 301.054 411.494 300.734ZM415.234 301.708C413.571 301.942 412.406 301.121 412.394 299.695L413.571 299.53C413.618 300.399 414.26 300.873 415.234 300.736C416.245 300.594 416.862 299.955 416.862 299.079C416.862 298.227 416.161 297.786 415.056 297.941L414.224 298.058V297.086L414.997 296.977C415.9 296.85 416.494 296.239 416.494 295.447C416.494 294.679 415.959 294.238 415.151 294.352C414.331 294.467 413.785 295.072 413.749 295.905L412.584 296.068C412.62 294.731 413.737 293.578 415.199 293.373C416.744 293.156 417.742 293.915 417.742 295.187C417.742 295.979 417.278 296.681 416.447 297.194C417.504 297.333 418.11 297.944 418.11 298.88C418.11 300.32 416.946 301.467 415.234 301.708ZM421.964 300.762C420.264 301.001 419.029 299.975 419.029 298.499C419.029 297.467 419.397 296.767 420.086 295.83L422.51 292.465L423.877 292.273L421.512 295.582C421.75 295.464 421.988 295.383 422.201 295.353C423.77 295.132 424.911 296.04 424.911 297.612C424.911 299.148 423.687 300.52 421.964 300.762ZM421.976 299.74C422.926 299.607 423.663 298.831 423.663 297.823C423.663 296.755 422.926 296.211 421.976 296.344C421.037 296.476 420.288 297.158 420.288 298.286C420.288 299.306 421.037 299.872 421.976 299.74ZM428.568 299.834C426.905 300.068 425.74 299.247 425.728 297.821L426.905 297.656C426.952 298.525 427.594 298.999 428.568 298.862C429.578 298.72 430.196 298.081 430.196 297.205C430.196 296.353 429.495 295.912 428.39 296.067L427.558 296.184V295.212L428.331 295.103C429.234 294.976 429.828 294.365 429.828 293.573C429.828 292.805 429.293 292.364 428.485 292.478C427.665 292.593 427.118 293.198 427.083 294.031L425.918 294.194C425.954 292.857 427.071 291.704 428.533 291.499C430.077 291.282 431.076 292.042 431.076 293.314C431.076 294.106 430.612 294.807 429.78 295.32C430.838 295.459 431.444 296.07 431.444 297.006C431.444 298.446 430.279 299.593 428.568 299.834ZM434.419 298.04C434.419 298.58 434.05 299.015 433.504 299.092C432.969 299.167 432.589 298.837 432.589 298.297C432.589 297.733 432.969 297.295 433.504 297.22C434.05 297.143 434.419 297.476 434.419 298.04ZM441.336 295.651C441.336 297.067 440.148 298.206 438.401 298.452C436.642 298.699 435.442 297.896 435.442 296.48C435.442 295.496 436.108 294.754 436.951 294.324C436.274 294.119 435.763 293.555 435.763 292.727C435.763 291.407 436.856 290.329 438.401 290.112C439.922 289.898 441.027 290.667 441.027 291.987C441.027 292.815 440.504 293.524 439.839 293.918C440.683 294.111 441.336 294.667 441.336 295.651ZM436.999 292.589C436.999 293.381 437.569 293.781 438.401 293.664C439.221 293.549 439.791 292.989 439.791 292.197C439.791 291.393 439.221 290.969 438.401 291.084C437.569 291.201 436.999 291.785 436.999 292.589ZM436.702 296.279C436.702 297.179 437.391 297.622 438.401 297.48C439.399 297.34 440.1 296.701 440.1 295.801C440.1 294.925 439.399 294.496 438.401 294.636C437.391 294.778 436.702 295.403 436.702 296.279ZM442.498 293.724C442.498 291.036 443.556 289.388 445.457 289.12C447.358 288.853 448.428 290.203 448.428 292.891C448.428 295.579 447.382 297.202 445.457 297.472C443.532 297.743 442.498 296.412 442.498 293.724ZM443.734 293.551C443.734 295.555 444.328 296.539 445.457 296.38C446.586 296.222 447.192 295.081 447.192 293.065C447.192 291.037 446.586 290.054 445.457 290.212C444.352 290.368 443.734 291.523 443.734 293.551Z" fill="#3C4149"/>
<path d="M406.898 319.527L406.458 319.589V315.683L405.026 315.884V315.482L408.33 315.018V315.42L406.898 315.621V319.527ZM409.705 319.192C408.844 319.313 408.22 318.711 408.22 317.757C408.22 316.809 408.844 316.037 409.705 315.916C410.573 315.794 411.196 316.391 411.196 317.339C411.196 318.293 410.573 319.07 409.705 319.192ZM409.705 318.826C410.317 318.74 410.775 318.184 410.775 317.398C410.775 316.624 410.317 316.196 409.705 316.282C409.099 316.368 408.642 316.924 408.642 317.698C408.642 318.484 409.099 318.912 409.705 318.826ZM411.637 317.277C411.637 316.305 412.172 315.564 413.016 315.445C413.485 315.379 413.883 315.593 414.091 316.014V314.208L414.507 314.149V318.457L414.121 318.512V317.846C413.901 318.339 413.497 318.659 413.016 318.727C412.172 318.846 411.637 318.249 411.637 317.277ZM412.059 317.218C412.059 318.022 412.463 318.439 413.075 318.353C413.681 318.268 414.097 317.711 414.097 316.919C414.097 316.121 413.669 315.719 413.075 315.803C412.463 315.889 412.059 316.414 412.059 317.218ZM417.334 318.06V317.484C417.149 317.906 416.769 318.2 416.282 318.268C415.634 318.359 415.212 318.052 415.212 317.482C415.212 316.864 415.7 316.472 416.65 316.338C416.84 316.312 416.983 316.304 417.292 316.284V316.02C417.292 315.492 417.013 315.219 416.537 315.286C416.026 315.358 415.706 315.721 415.7 316.238L415.319 316.291C415.337 315.587 415.818 315.051 416.531 314.951C417.262 314.848 417.69 315.22 417.69 315.952V318.01L417.334 318.06ZM415.61 317.414C415.61 317.798 415.902 318.015 416.341 317.954C416.924 317.872 417.292 317.436 417.292 316.842V316.56C417.025 316.574 416.84 316.594 416.668 316.618C415.955 316.718 415.61 316.976 415.61 317.414ZM420.884 314.399L419.28 318.945L418.835 319.007L419.292 317.743L418.05 314.798L418.496 314.735L419.506 317.209L420.463 314.458L420.884 314.399Z" fill="#3C4149"/>
<path d="M494.7 306.667L494.32 306.72V305.406L493.025 305.588V305.234L494.32 305.052V303.744L494.7 303.691V304.999L495.995 304.817V305.171L494.7 305.353V306.667ZM496.775 304.875C496.775 303.531 497.286 302.709 498.201 302.581C499.11 302.453 499.627 303.13 499.627 304.474C499.627 305.818 499.122 306.627 498.201 306.757C497.274 306.887 496.775 306.219 496.775 304.875ZM497.202 304.815C497.202 305.931 497.541 306.477 498.201 306.385C498.848 306.294 499.199 305.656 499.199 304.534C499.199 303.406 498.848 302.862 498.201 302.953C497.553 303.044 497.202 303.681 497.202 304.815ZM500.955 305.962C500.955 306.178 500.8 306.361 500.58 306.392C500.366 306.422 500.206 306.283 500.206 306.067C500.206 305.839 500.366 305.66 500.58 305.63C500.8 305.599 500.955 305.734 500.955 305.962ZM502.875 306.094C502.073 306.207 501.478 305.708 501.478 304.964C501.478 304.436 501.692 304.088 502.007 303.648L503.219 301.935L503.689 301.869L502.483 303.581C502.649 303.498 502.809 303.445 502.958 303.424C503.707 303.319 504.277 303.761 504.277 304.559C504.277 305.315 503.683 305.98 502.875 306.094ZM502.881 305.745C503.433 305.667 503.849 305.195 503.849 304.631C503.849 304.025 503.433 303.681 502.881 303.759C502.322 303.838 501.906 304.244 501.906 304.892C501.906 305.468 502.322 305.824 502.881 305.745ZM505.939 301.499C506.741 301.387 507.335 301.885 507.335 302.629C507.335 303.127 507.139 303.467 506.8 303.946L505.594 305.658L505.119 305.724L506.325 304.007C506.164 304.096 505.998 304.143 505.849 304.164C505.101 304.269 504.536 303.826 504.536 303.034C504.536 302.278 505.13 301.613 505.939 301.499ZM505.933 301.848C505.368 301.927 504.964 302.398 504.964 302.962C504.964 303.568 505.368 303.913 505.933 303.834C506.485 303.756 506.907 303.349 506.907 302.701C506.907 302.125 506.485 301.77 505.933 301.848ZM510.448 306.134L510.055 306.189C509.568 305.507 509.301 304.555 509.301 303.559C509.301 302.569 509.568 301.541 510.055 300.723L510.448 300.668C509.954 301.487 509.717 302.51 509.717 303.5C509.717 304.496 509.954 305.453 510.448 306.134ZM512.751 304.13L512.371 304.183V302.869L511.076 303.051V302.697L512.371 302.515V301.207L512.751 301.154V302.462L514.047 302.28V302.634L512.751 302.816V304.13ZM514.826 302.338C514.826 300.994 515.337 300.172 516.252 300.044C517.161 299.916 517.678 300.593 517.678 301.937C517.678 303.281 517.173 304.09 516.252 304.22C515.325 304.35 514.826 303.682 514.826 302.338ZM515.254 302.278C515.254 303.394 515.592 303.941 516.252 303.848C516.899 303.757 517.25 303.12 517.25 301.998C517.25 300.87 516.899 300.325 516.252 300.416C515.604 300.507 515.254 301.144 515.254 302.278ZM519.006 303.425C519.006 303.641 518.851 303.824 518.631 303.855C518.418 303.885 518.257 303.746 518.257 303.53C518.257 303.302 518.418 303.123 518.631 303.093C518.851 303.062 519.006 303.197 519.006 303.425ZM520.495 303.563L520.085 303.621V299.925L519.295 300.036V299.676L520.495 299.507V303.563ZM522.626 299.154C523.428 299.041 524.022 299.54 524.022 300.284C524.022 300.782 523.826 301.121 523.488 301.601L522.281 303.312L521.806 303.379L523.012 301.662C522.852 301.75 522.685 301.798 522.537 301.818C521.788 301.924 521.224 301.481 521.224 300.689C521.224 299.933 521.818 299.268 522.626 299.154ZM522.62 299.503C522.056 299.582 521.652 300.053 521.652 300.617C521.652 301.223 522.056 301.568 522.62 301.489C523.173 301.411 523.595 301.004 523.595 300.356C523.595 299.78 523.173 299.425 522.62 299.503ZM525.656 301.266C524.943 301.366 524.456 300.871 524.456 300.175C524.456 299.479 524.943 298.846 525.656 298.746C526.375 298.645 526.862 299.141 526.862 299.837C526.862 300.533 526.375 301.165 525.656 301.266ZM526.393 302.735L526.042 302.784L528.3 298.411L528.656 298.36L526.393 302.735ZM525.656 300.96C526.119 300.895 526.5 300.494 526.5 299.888C526.5 299.276 526.119 298.987 525.656 299.052C525.198 299.116 524.812 299.513 524.812 300.125C524.812 300.731 525.198 301.024 525.656 300.96ZM529.084 302.404C528.365 302.505 527.878 302.016 527.878 301.314C527.878 300.618 528.365 299.985 529.084 299.884C529.803 299.783 530.29 300.279 530.29 300.975C530.29 301.677 529.803 302.303 529.084 302.404ZM529.084 302.098C529.542 302.034 529.928 301.632 529.928 301.026C529.928 300.414 529.542 300.132 529.084 300.196C528.627 300.261 528.24 300.651 528.24 301.263C528.24 301.869 528.627 302.163 529.084 302.098ZM531.043 303.239L530.651 303.294C531.138 302.476 531.382 301.451 531.382 300.455C531.382 299.465 531.138 298.51 530.651 297.828L531.043 297.773C531.531 298.455 531.798 299.407 531.798 300.397C531.798 301.393 531.531 302.421 531.043 303.239Z" fill="#3C4149"/>
<path d="M409.971 341.885L409.526 340.753L407.535 341.033L407.084 342.291L406.644 342.352L408.302 337.811L408.789 337.743L410.441 341.819L409.971 341.885ZM408.533 338.259L407.672 340.648L409.383 340.408L408.533 338.259ZM413.396 340.522C413.396 341.104 412.932 341.529 412.16 341.637C411.381 341.747 410.906 341.417 410.847 340.772L411.245 340.716C411.274 341.162 411.625 341.394 412.16 341.319C412.671 341.247 412.98 341.006 412.98 340.646C412.98 340.334 412.801 340.215 412.326 340.186L411.875 340.159C411.28 340.129 410.966 339.879 410.966 339.423C410.966 338.895 411.429 338.458 412.112 338.362C412.831 338.261 413.307 338.584 413.354 339.207L412.962 339.263C412.92 338.83 412.605 338.617 412.112 338.686C411.673 338.748 411.37 339 411.37 339.33C411.37 339.642 411.56 339.766 412.023 339.79L412.493 339.814C413.116 339.847 413.396 340.072 413.396 340.522ZM414.534 341.244L414.118 341.302V336.994L414.534 336.936V339.552L416.043 337.869L416.537 337.8L414.956 339.57L416.667 340.944L416.127 341.02L414.534 339.726V341.244Z" fill="#3C4149"/>
<path d="M514.099 326.719V327.121C513.873 327.284 513.641 327.377 513.309 327.424C512.388 327.553 511.776 327.051 511.627 326.04L511.003 326.128V325.852L511.592 325.769C511.586 325.644 511.592 325.385 511.598 325.246L511.003 325.33V325.054L511.639 324.964C511.823 323.99 512.423 323.372 513.309 323.248C513.641 323.201 513.873 323.222 514.099 323.323V323.737C513.885 323.611 513.653 323.577 513.362 323.618C512.679 323.714 512.233 324.161 512.085 324.902L513.469 324.707V324.983L512.013 325.188C512.002 325.309 511.996 325.568 512.002 325.711L513.469 325.505V325.781L512.061 325.979C512.186 326.765 512.649 327.138 513.362 327.038C513.641 326.999 513.891 326.892 514.099 326.719ZM515.983 327.042C515.187 327.154 514.64 326.757 514.622 326.057L515.026 326C515.05 326.507 515.425 326.778 515.983 326.7C516.559 326.619 516.91 326.252 516.91 325.742C516.91 325.256 516.518 324.999 515.9 325.086L515.502 325.141V324.793L515.888 324.739C516.381 324.67 516.726 324.303 516.726 323.847C516.726 323.409 516.405 323.155 515.947 323.219C515.472 323.286 515.157 323.63 515.133 324.101L514.735 324.157C514.753 323.519 515.276 322.971 515.959 322.875C516.672 322.775 517.154 323.145 517.154 323.769C517.154 324.189 516.904 324.56 516.464 324.808C517.017 324.869 517.338 325.183 517.338 325.675C517.338 326.371 516.791 326.928 515.983 327.042ZM519.277 326.579C518.475 326.692 517.881 326.193 517.881 325.449C517.881 324.921 518.095 324.573 518.41 324.133L519.622 322.42L520.091 322.354L518.885 324.066C519.051 323.983 519.212 323.93 519.36 323.909C520.109 323.804 520.679 324.246 520.679 325.044C520.679 325.8 520.085 326.465 519.277 326.579ZM519.283 326.23C519.836 326.152 520.252 325.68 520.252 325.116C520.252 324.51 519.836 324.166 519.283 324.244C518.725 324.323 518.309 324.729 518.309 325.377C518.309 325.953 518.725 326.309 519.283 326.23ZM522.522 326.123C521.726 326.235 521.18 325.838 521.162 325.138L521.566 325.081C521.589 325.588 521.964 325.859 522.522 325.781C523.099 325.7 523.449 325.333 523.449 324.823C523.449 324.337 523.057 324.08 522.439 324.166L522.041 324.222V323.874L522.427 323.82C522.92 323.751 523.265 323.384 523.265 322.928C523.265 322.49 522.944 322.235 522.487 322.3C522.011 322.367 521.696 322.711 521.673 323.182L521.275 323.238C521.292 322.6 521.815 322.052 522.499 321.956C523.212 321.856 523.693 322.226 523.693 322.85C523.693 323.27 523.443 323.641 523.004 323.889C523.556 323.949 523.877 324.264 523.877 324.756C523.877 325.452 523.33 326.009 522.522 326.123ZM525.306 325.33C525.306 325.546 525.152 325.729 524.932 325.76C524.718 325.79 524.558 325.651 524.558 325.435C524.558 325.207 524.718 325.028 524.932 324.998C525.152 324.967 525.306 325.102 525.306 325.33ZM527.214 325.469C526.483 325.572 525.925 325.153 525.901 324.466L526.305 324.409C526.341 324.902 526.709 325.168 527.214 325.097C527.826 325.011 528.177 324.578 528.177 324.008C528.177 323.498 527.796 323.144 527.226 323.224C526.84 323.278 526.543 323.488 526.347 323.827L526.026 323.776L526.376 321.471L528.373 321.191V321.557L526.673 321.795L526.454 323.29C526.697 323.034 526.97 322.9 527.279 322.856C528.099 322.741 528.598 323.247 528.598 323.943C528.598 324.705 528.076 325.348 527.214 325.469ZM529.145 323.116C529.145 321.772 529.656 320.95 530.571 320.822C531.48 320.694 531.997 321.371 531.997 322.715C531.997 324.059 531.492 324.868 530.571 324.998C529.644 325.128 529.145 324.46 529.145 323.116ZM529.573 323.056C529.573 324.172 529.912 324.718 530.571 324.626C531.219 324.535 531.569 323.897 531.569 322.775C531.569 321.647 531.219 321.103 530.571 321.194C529.924 321.285 529.573 321.922 529.573 323.056Z" fill="#3C4149"/>
<path d="M409.834 359.077C409.834 359.845 409.276 360.361 408.438 360.479L406.965 360.686V356.378L408.349 356.184C409.175 356.068 409.662 356.401 409.662 357.109C409.662 357.535 409.395 357.939 408.961 358.162C409.537 358.225 409.834 358.561 409.834 359.077ZM408.325 356.553L407.381 356.686V358.222L408.325 358.089C408.902 358.008 409.228 357.674 409.228 357.194C409.228 356.714 408.902 356.472 408.325 356.553ZM408.414 358.443L407.381 358.588V360.262L408.414 360.117C409.038 360.029 409.407 359.665 409.407 359.125C409.407 358.609 409.038 358.355 408.414 358.443ZM411.183 356.199C411.183 356.385 411.047 356.537 410.845 356.565C410.649 356.593 410.512 356.48 410.512 356.294C410.512 356.114 410.649 355.963 410.845 355.935C411.047 355.907 411.183 356.019 411.183 356.199ZM411.059 360.111L410.643 360.169V357.007L411.059 356.949V360.111ZM411.728 358.433C411.728 357.461 412.263 356.72 413.107 356.601C413.576 356.535 413.974 356.749 414.182 357.17V355.364L414.598 355.305V359.613L414.212 359.668V359.002C413.992 359.495 413.588 359.815 413.107 359.883C412.263 360.002 411.728 359.405 411.728 358.433ZM412.15 358.374C412.15 359.178 412.554 359.595 413.166 359.509C413.772 359.424 414.188 358.867 414.188 358.075C414.188 357.277 413.76 356.875 413.166 356.959C412.554 357.045 412.15 357.57 412.15 358.374Z" fill="#3C4149"/>
<path d="M515.637 344.88V345.282C515.411 345.446 515.18 345.538 514.847 345.585C513.926 345.714 513.314 345.212 513.165 344.201L512.541 344.289V344.013L513.13 343.93C513.124 343.805 513.13 343.546 513.136 343.407L512.541 343.491V343.215L513.177 343.125C513.361 342.152 513.961 341.533 514.847 341.409C515.18 341.362 515.411 341.384 515.637 341.484V341.898C515.423 341.772 515.191 341.738 514.9 341.779C514.217 341.875 513.771 342.322 513.623 343.063L515.007 342.868V343.144L513.552 343.349C513.54 343.471 513.534 343.729 513.54 343.873L515.007 343.666V343.942L513.599 344.14C513.724 344.927 514.187 345.3 514.9 345.199C515.18 345.16 515.429 345.053 515.637 344.88ZM517.521 345.203C516.725 345.315 516.178 344.918 516.16 344.218L516.565 344.161C516.588 344.668 516.963 344.939 517.521 344.861C518.097 344.78 518.448 344.413 518.448 343.903C518.448 343.417 518.056 343.16 517.438 343.247L517.04 343.303V342.955L517.426 342.9C517.919 342.831 518.264 342.465 518.264 342.009C518.264 341.571 517.943 341.316 517.485 341.38C517.01 341.447 516.695 341.791 516.671 342.262L516.273 342.318C516.291 341.68 516.814 341.132 517.497 341.036C518.21 340.936 518.692 341.306 518.692 341.93C518.692 342.35 518.442 342.722 518.002 342.969C518.555 343.03 518.876 343.345 518.876 343.837C518.876 344.533 518.329 345.089 517.521 345.203ZM520.815 344.74C520.013 344.853 519.419 344.354 519.419 343.61C519.419 343.082 519.633 342.734 519.948 342.294L521.16 340.582L521.629 340.516L520.423 342.227C520.589 342.144 520.75 342.091 520.898 342.07C521.647 341.965 522.217 342.407 522.217 343.205C522.217 343.961 521.623 344.626 520.815 344.74ZM520.821 344.391C521.374 344.314 521.79 343.841 521.79 343.277C521.79 342.671 521.374 342.328 520.821 342.405C520.263 342.484 519.847 342.89 519.847 343.538C519.847 344.114 520.263 344.47 520.821 344.391ZM524.06 344.284C523.264 344.396 522.718 343.999 522.7 343.299L523.104 343.242C523.128 343.749 523.502 344.02 524.06 343.942C524.637 343.861 524.987 343.494 524.987 342.984C524.987 342.498 524.595 342.241 523.977 342.328L523.579 342.384V342.036L523.965 341.981C524.458 341.912 524.803 341.546 524.803 341.09C524.803 340.652 524.482 340.397 524.025 340.461C523.549 340.528 523.234 340.872 523.211 341.343L522.813 341.399C522.83 340.761 523.353 340.213 524.037 340.117C524.75 340.017 525.231 340.387 525.231 341.011C525.231 341.431 524.981 341.803 524.542 342.05C525.094 342.111 525.415 342.426 525.415 342.918C525.415 343.614 524.868 344.17 524.06 344.284ZM526.844 343.491C526.844 343.707 526.69 343.89 526.47 343.921C526.256 343.951 526.096 343.812 526.096 343.596C526.096 343.368 526.256 343.189 526.47 343.159C526.69 343.128 526.844 343.263 526.844 343.491ZM528.334 343.629L527.924 343.687V339.991L527.133 340.102V339.742L528.334 339.573V343.629ZM529.146 341.493C529.146 340.149 529.657 339.327 530.572 339.199C531.481 339.071 531.998 339.748 531.998 341.092C531.998 342.436 531.493 343.245 530.572 343.375C529.645 343.505 529.146 342.837 529.146 341.493ZM529.573 341.433C529.573 342.549 529.912 343.096 530.572 343.003C531.219 342.912 531.57 342.275 531.57 341.153C531.57 340.025 531.219 339.48 530.572 339.571C529.924 339.662 529.573 340.299 529.573 341.433Z" fill="#3C4149"/>
<path d="M406.341 326.672L531.727 308.918" stroke="#DDE0E3" stroke-width="0.75"/>
<path d="M387.641 470.659L376.232 464.461L376.491 181.859L387.899 188.071L387.641 470.659Z" fill="#EFF2FF" stroke="#9AA2AC" stroke-width="0.75" stroke-linejoin="round"/>
<path d="M387.9 188.066L376.512 181.821L534.48 159.609L545.868 165.841L387.9 188.066Z" fill="#EFF2FF" stroke="#9AA2AC" stroke-width="0.75" stroke-linejoin="round"/>
<path d="M487.115 182.428V190.886L453.742 196.04L453.741 187.428L487.115 182.428Z" fill="#F9FAFB" stroke="#9AA2AC" stroke-width="0.75" stroke-linejoin="round"/>
<path d="M453.764 187.228L450.256 185.129V193.846L453.764 196.01V187.228Z" fill="#F9FAFB" stroke="#9AA2AC" stroke-width="0.75" stroke-linejoin="round"/>
<path d="M487.151 182.398L483.131 180.027L450.252 185.122L453.855 187.347L487.151 182.398Z" fill="#F9FAFB" stroke="#9AA2AC" stroke-width="0.75" stroke-linejoin="round"/>
<path d="M178.521 259.842L178.348 266.341L73.6553 281.061L73.8291 274.572L178.521 259.842Z" fill="#EAECEF" stroke="#9AA2AC" stroke-width="0.75" stroke-linejoin="round"/>
<path d="M73.6346 281.062L5.13867 243.799L5.31246 237.301L73.8084 274.572L73.6346 281.062Z" fill="#EAECEF" stroke="#9AA2AC" stroke-width="0.75" stroke-linejoin="round"/>
<path d="M73.7743 274.579L5.32812 237.254L110.075 222.525L178.521 259.841L73.7743 274.579Z" fill="#EAECEF" stroke="#9AA2AC" stroke-width="0.75" stroke-linejoin="round"/>
<path d="M178.521 247.395L178.348 253.893L73.6553 268.614L73.8291 262.124L178.521 247.395Z" fill="#EAECEF" stroke="#9AA2AC" stroke-width="0.75" stroke-linejoin="round"/>
<path d="M73.6346 268.614L5.13867 231.352L5.31246 224.854L73.8084 262.125L73.6346 268.614Z" fill="#EAECEF" stroke="#9AA2AC" stroke-width="0.75" stroke-linejoin="round"/>
<path d="M73.7743 262.132L5.32812 224.806L110.075 210.078L178.521 247.394L73.7743 262.132Z" fill="#EAECEF" stroke="#9AA2AC" stroke-width="0.75" stroke-linejoin="round"/>
<path d="M128.707 152.912V194.214" stroke="#9AA2AC" stroke-width="0.75" stroke-linejoin="round"/>
<path d="M109.996 130.473L59.9471 137.613V161.322L5.32812 168.994V219.138L109.996 204.45V130.473Z" fill="#F9FAFB" fill-opacity="0.64" stroke="#9AA2AC" stroke-width="0.75" stroke-linejoin="round"/>
<path d="M73.7116 256.341L5.27344 219.603L5.29374 121.072L73.7319 157.136L73.7116 256.341Z" fill="#EAECEF" stroke="#9AA2AC" stroke-width="0.75" stroke-linejoin="round"/>
<path d="M178.392 241.555L109.989 204.474V131.635L178.412 167.726L178.392 241.555Z" fill="#F9FAFB" fill-opacity="0.64" stroke="#9AA2AC" stroke-width="0.75" stroke-linejoin="round"/>
<path d="M73.8084 157.098L1.00001 118.713L1 44.9785L73.8084 83.2929L73.8084 157.098Z" fill="#EFF2FF" stroke="#9AA2AC" stroke-width="0.75" stroke-linejoin="round"/>
<path d="M178.251 117.764L125.819 125.486L125.819 149.201L73.8511 157.045L73.8511 256.719L178.251 241.233L178.251 117.764Z" fill="#EAECEF" stroke="#9AA2AC" stroke-width="0.75" stroke-linejoin="round"/>
<path d="M73.6924 157.093L128.436 149.379V125.684L182.696 117.847V67.4316L73.6924 82.9033V157.093Z" fill="#EFF2FF" stroke="#9AA2AC" stroke-width="0.75" stroke-linejoin="round"/>
<path d="M73.7604 82.988L1.06543 44.7867L113.203 29.3574L182.696 67.3678L73.7604 82.988Z" fill="#EFF2FF" stroke="#9AA2AC" stroke-width="0.75" stroke-linejoin="round"/>
<path d="M117.014 98.6378C114.186 99.034 111.954 97.0507 111.954 94.0967C111.954 91.1567 114.186 88.562 117.014 88.1658C119.746 87.7832 121.853 89.322 122.172 91.9373L119.399 92.3257C119.191 91.0949 118.262 90.357 117.042 90.5279C115.572 90.7338 114.643 92.0119 114.643 93.7199C114.643 95.4419 115.572 96.4738 117.042 96.2679C118.248 96.0989 119.177 95.1008 119.399 93.7957L122.172 93.4073C121.839 96.1419 119.746 98.2552 117.014 98.6378ZM127.703 96.9304V96.2024C127.177 96.8782 126.525 97.2355 125.568 97.3695C124.015 97.587 122.976 96.7947 122.976 95.3667C122.976 93.8967 124.154 92.9336 126.289 92.6345C126.691 92.5782 127.066 92.5538 127.385 92.5651V92.2011C127.385 91.5431 127.01 91.2315 126.345 91.3248C125.693 91.416 125.305 91.8344 125.222 92.5041L123.086 92.8032C123.225 91.0338 124.515 89.7051 126.359 89.4468C128.411 89.1594 129.617 90.1104 129.617 92.0144V96.6624L127.703 96.9304ZM125.208 94.984C125.208 95.474 125.541 95.7214 126.123 95.6398C126.913 95.5291 127.385 95.0851 127.385 94.4691V93.9931C127.024 93.9736 126.747 93.9844 126.442 94.0272C125.638 94.1398 125.208 94.466 125.208 94.984ZM137.708 92.967C137.708 94.633 136.488 95.8399 134.242 96.1545C131.995 96.4692 130.775 95.5761 130.623 93.8615L132.897 93.5429C132.897 94.1729 133.465 94.4993 134.283 94.3847C134.824 94.309 135.309 94.115 135.309 93.723C135.309 93.387 135.06 93.282 134.547 93.2558L133.077 93.1957C131.774 93.1403 130.942 92.5008 130.942 91.2828C130.942 89.8268 132.162 88.6339 134.117 88.36C136.072 88.0862 137.43 88.9458 137.569 90.6064L135.295 90.9249C135.24 90.3307 134.782 90.0308 134.131 90.1221C133.576 90.1998 133.216 90.4043 133.216 90.7403C133.216 91.0623 133.451 91.1272 133.923 91.1452L135.503 91.2178C136.945 91.2818 137.708 91.889 137.708 92.967ZM141.223 91.0745V95.0365L138.853 95.3686V85.3166L141.223 84.9845V88.3165C141.764 87.6528 142.305 87.213 143.248 87.081C144.717 86.8751 145.757 87.7234 145.757 89.5574V94.4014L143.386 94.7335V90.6875C143.386 89.7355 143.054 89.2641 142.333 89.3651C141.75 89.4467 141.223 89.9405 141.223 91.0745ZM107.753 115.725L107.143 113.949L103.649 114.438L103.025 116.387L100.377 116.758L104.065 106.19L106.935 105.788L110.581 115.329L107.753 115.725ZM105.424 108.911L104.356 112.253L106.463 111.958L105.424 108.911ZM114.308 114.947C112.089 115.258 110.55 113.863 110.55 111.567C110.55 109.327 112.159 107.436 114.308 107.135C116.36 106.847 117.885 108.034 118.093 110.105L115.569 110.458C115.528 109.638 115.042 109.188 114.322 109.289C113.49 109.406 113.004 110.118 113.004 111.224C113.004 112.358 113.476 112.921 114.322 112.803C115.056 112.7 115.514 112.132 115.569 111.27L118.093 110.917C117.885 113.102 116.429 114.65 114.308 114.947ZM122.459 113.805C120.24 114.116 118.701 112.721 118.701 110.425C118.701 108.185 120.31 106.294 122.459 105.993C124.51 105.706 126.036 106.892 126.244 108.963L123.72 109.316C123.679 108.496 123.193 108.046 122.472 108.147C121.641 108.264 121.155 108.976 121.155 110.082C121.155 111.216 121.627 111.78 122.472 111.661C123.207 111.558 123.665 110.99 123.72 110.128L126.244 109.775C126.036 111.96 124.58 113.508 122.459 113.805ZM130.748 112.644C128.544 112.953 126.852 111.44 126.852 109.284C126.852 107.128 128.544 105.141 130.748 104.832C132.953 104.523 134.644 106.036 134.644 108.192C134.644 110.348 132.953 112.335 130.748 112.644ZM130.748 110.502C131.483 110.399 132.176 109.714 132.176 108.538C132.176 107.362 131.483 106.885 130.748 106.988C130.013 107.091 129.32 107.762 129.32 108.938C129.32 110.114 130.013 110.605 130.748 110.502ZM140.154 107.952V103.654L142.525 103.322V110.854L140.349 111.159V110.347C139.933 110.965 139.142 111.468 138.269 111.59C136.785 111.798 135.662 111.018 135.662 109.03V104.284L138.033 103.951V108.249C138.033 109.075 138.435 109.425 139.101 109.332C139.572 109.266 140.154 108.806 140.154 107.952ZM146.443 106.343V110.305L144.072 110.637V103.105L146.249 102.801V103.711C146.831 102.971 147.524 102.482 148.467 102.35C149.937 102.144 150.977 102.992 150.977 104.826V109.67L148.606 110.002V105.956C148.606 105.004 148.273 104.533 147.552 104.634C146.97 104.716 146.443 105.209 146.443 106.343ZM157.404 106.418V108.504C156.877 108.872 156.378 109.054 155.713 109.147C154.035 109.382 153.051 108.512 153.051 106.79V103.934L151.664 104.128V102.042L153.051 101.848V99.6357L155.421 99.3036V101.516L157.46 101.23V103.316L155.421 103.602V105.898C155.421 106.626 155.726 106.919 156.378 106.828C156.766 106.773 157.141 106.623 157.404 106.418Z" fill="#3C4149"/>
<path d="M73.8084 76.1154L1.00001 37.7115L1 30.2773L73.8084 68.5918V76.1154Z" fill="#EFF2FF" stroke="#9AA2AC" stroke-width="0.75" stroke-linejoin="round"/>
<path d="M73.8192 68.5234L73.8184 76.1001L182.695 60.2496V52.9766L73.8192 68.5234Z" fill="#EFF2FF" stroke="#9AA2AC" stroke-width="0.75" stroke-linejoin="round"/>
<path d="M73.7604 68.5349L1.06543 30.3336L113.203 14.9043L182.696 52.9147L73.7604 68.5349Z" fill="#EFF2FF" stroke="#9AA2AC" stroke-width="0.75" stroke-linejoin="round"/>
<path d="M73.8084 62.5392L1.00001 24.1354L1 16.7012L73.8084 55.0156V62.5392Z" fill="#EFF2FF" stroke="#9AA2AC" stroke-width="0.75" stroke-linejoin="round"/>
<path d="M73.8192 54.9472L73.8184 62.5239L182.695 46.6735V39.4004L73.8192 54.9472Z" fill="#EFF2FF" stroke="#9AA2AC" stroke-width="0.75" stroke-linejoin="round"/>
<path d="M73.7604 54.9587L1.06543 16.7574L113.203 1.32812L182.696 39.3385L73.7604 54.9587Z" fill="#EFF2FF" stroke="#9AA2AC" stroke-width="0.75" stroke-linejoin="round"/>
<path d="M101.123 195.848C101.123 197.672 99.6498 199.398 97.0037 199.769C94.3575 200.139 92.8047 198.869 92.6937 196.708L93.898 196.54C94.0089 198.156 95.023 199.07 96.9878 198.795C98.604 198.569 99.8717 197.559 99.8717 196.183C99.8717 194.999 99.2062 194.548 97.5899 194.439L96.148 194.353C94.6427 194.259 93.0582 193.777 93.0582 191.777C93.0582 189.937 94.6586 188.289 96.9244 187.972C99.1428 187.661 100.854 188.829 100.981 191.004L99.7607 191.175C99.6815 189.666 98.5723 188.717 96.9403 188.946C95.1973 189.19 94.2624 190.393 94.2624 191.545C94.2624 192.905 95.4033 193.161 96.6709 193.239L98.1128 193.341C100.03 193.473 101.123 194.12 101.123 195.848ZM106.536 198.433C104.191 198.762 102.638 197.203 102.638 194.531C102.638 192.067 104.254 190.001 106.472 189.69C108.849 189.357 110.402 191.076 110.212 193.806L103.747 194.712C103.842 196.699 104.888 197.784 106.52 197.556C107.914 197.36 108.881 196.441 109.15 195.059L110.244 194.906C109.863 196.831 108.453 198.165 106.536 198.433ZM106.457 190.557C104.951 190.767 103.89 192.084 103.747 193.944L109.055 193.201C108.96 191.326 107.994 190.341 106.457 190.557ZM115.012 197.262C112.809 197.571 111.272 195.978 111.272 193.386C111.272 190.826 112.825 188.8 115.012 188.494C116.961 188.221 118.355 189.338 118.688 191.403L117.563 191.561C117.309 190.06 116.359 189.281 115.012 189.47C113.459 189.688 112.397 191.212 112.397 193.228C112.397 195.276 113.459 196.504 115.012 196.286C116.375 196.095 117.309 195.068 117.563 193.465L118.688 193.307C118.387 195.493 116.977 196.987 115.012 197.262ZM125.818 192.164V187.14L126.912 186.987V195.419L125.882 195.563V194.043C125.454 195.079 124.44 195.925 123.22 196.096C121.524 196.334 120.399 195.515 120.399 193.387V187.899L121.508 187.744V192.992C121.508 194.704 122.348 195.242 123.521 195.078C124.852 194.892 125.818 193.668 125.818 192.164ZM130.423 190.415V194.927L129.314 195.083V186.651L130.344 186.506V188.426C130.914 187.098 132.15 186.125 133.529 185.932V187.1C131.77 187.283 130.423 188.575 130.423 190.415ZM136.326 183.716C136.326 184.212 135.962 184.615 135.423 184.691C134.9 184.764 134.536 184.463 134.536 183.967C134.536 183.487 134.9 183.084 135.423 183.011C135.962 182.935 136.326 183.236 136.326 183.716ZM135.994 194.147L134.885 194.302V185.87L135.994 185.715V194.147ZM142.691 192.137V193.129C142.263 193.365 141.899 193.48 141.487 193.537C140.108 193.731 139.047 193.159 139.047 191.335V186.231L137.082 186.506V185.562L139.047 185.287V182.791L140.156 182.636V185.132L142.77 184.766V185.71L140.156 186.076V190.94C140.156 192.252 140.79 192.611 141.709 192.482C142.057 192.434 142.343 192.33 142.691 192.137ZM145.889 182.377C145.889 182.873 145.525 183.276 144.986 183.351C144.463 183.424 144.099 183.124 144.099 182.628C144.099 182.148 144.463 181.744 144.986 181.671C145.525 181.596 145.889 181.897 145.889 182.377ZM145.557 192.807L144.447 192.963V184.531L145.557 184.375V192.807ZM151.24 192.171C148.895 192.5 147.342 190.941 147.342 188.269C147.342 185.805 148.958 183.739 151.177 183.428C153.553 183.095 155.106 184.814 154.916 187.544L148.451 188.45C148.546 190.437 149.592 191.522 151.224 191.293C152.619 191.098 153.585 190.179 153.854 188.797L154.948 188.644C154.567 190.569 153.157 191.903 151.24 192.171ZM151.161 184.294C149.655 184.505 148.594 185.822 148.451 187.682L153.759 186.938C153.664 185.064 152.698 184.079 151.161 184.294ZM162.992 188.013C162.992 189.565 161.756 190.698 159.696 190.987C157.621 191.277 156.353 190.399 156.195 188.677L157.256 188.528C157.335 189.717 158.27 190.338 159.696 190.139C161.059 189.948 161.883 189.304 161.883 188.344C161.883 187.512 161.408 187.195 160.14 187.116L158.936 187.045C157.351 186.963 156.512 186.297 156.512 185.081C156.512 183.673 157.747 182.508 159.57 182.252C161.487 181.984 162.755 182.846 162.881 184.508L161.836 184.655C161.725 183.502 160.885 182.932 159.57 183.116C158.397 183.281 157.589 183.954 157.589 184.834C157.589 185.666 158.096 185.995 159.332 186.062L160.584 186.126C162.248 186.213 162.992 186.813 162.992 188.013ZM106.873 216.226L105.685 213.209L100.377 213.952L99.1723 217.305L97.9998 217.469L102.421 205.362L103.72 205.18L108.125 216.051L106.873 216.226ZM103.039 206.555L100.741 212.925L105.304 212.286L103.039 206.555ZM112.404 215.627C110.202 215.936 108.665 214.343 108.665 211.751C108.665 209.191 110.218 207.166 112.404 206.859C114.353 206.586 115.748 207.703 116.081 209.768L114.956 209.926C114.702 208.426 113.751 207.647 112.404 207.835C110.852 208.053 109.79 209.578 109.79 211.594C109.79 213.642 110.852 214.869 112.404 214.651C113.767 214.46 114.702 213.434 114.956 211.83L116.081 211.672C115.78 213.859 114.369 215.352 112.404 215.627ZM120.884 214.44C118.682 214.748 117.145 213.155 117.145 210.563C117.145 208.003 118.698 205.978 120.884 205.672C122.833 205.398 124.228 206.515 124.56 208.581L123.435 208.738C123.182 207.238 122.231 206.459 120.884 206.648C119.331 206.865 118.27 208.39 118.27 210.406C118.27 212.454 119.331 213.681 120.884 213.464C122.247 213.273 123.182 212.246 123.435 210.642L124.56 210.485C124.259 212.671 122.849 214.164 120.884 214.44ZM129.586 213.205C127.288 213.526 125.624 211.919 125.624 209.375C125.624 206.847 127.288 204.79 129.586 204.469C131.899 204.145 133.563 205.735 133.563 208.263C133.563 210.807 131.899 212.881 129.586 213.205ZM129.586 212.229C131.218 212 132.438 210.517 132.438 208.421C132.438 206.357 131.218 205.216 129.586 205.445C127.97 205.671 126.749 207.154 126.749 209.218C126.749 211.314 127.97 212.455 129.586 212.229ZM140.696 208.08V203.056L141.79 202.903V211.335L140.76 211.479V209.959C140.332 210.995 139.318 211.841 138.098 212.012C136.402 212.25 135.277 211.431 135.277 209.303V203.815L136.386 203.66V208.908C136.386 210.62 137.226 211.158 138.399 210.994C139.73 210.808 140.696 209.584 140.696 208.08ZM145.301 205.931V210.843L144.192 210.998V202.566L145.222 202.422V204.006C145.761 202.891 146.775 202.045 147.979 201.876C149.722 201.632 150.847 202.594 150.847 204.594V210.066L149.738 210.222V205.134C149.738 203.518 149.009 202.708 147.646 202.899C146.347 203.081 145.301 204.363 145.301 205.931ZM157.461 208.068V209.06C157.033 209.296 156.669 209.411 156.257 209.468C154.878 209.662 153.817 209.09 153.817 207.266V202.162L151.852 202.437V201.493L153.817 201.218V198.722L154.926 198.567V201.063L157.54 200.697V201.641L154.926 202.007V206.871C154.926 208.183 155.56 208.542 156.479 208.413C156.827 208.365 157.112 208.261 157.461 208.068Z" fill="#3C4149"/>
<defs>
<linearGradient id="paint0_linear_683_40571" x1="467.214" y1="361.477" x2="471.673" y2="393.2" gradientUnits="userSpaceOnUse">
<stop stop-color="#3A5AF9"/>
<stop offset="1" stop-color="#3A5AF9" stop-opacity="0"/>
</linearGradient>
</defs>
</svg>
