<svg width="174" height="31" viewBox="0 0 174 31" fill="none" xmlns="http://www.w3.org/2000/svg">
<g clip-path="url(#clip0_290_5617)">
<path d="M43.3735 0.506021C42.7544 0.581316 41.6849 0.713079 40.9907 0.788374C39.8274 0.901316 39.7148 0.938963 39.7148 1.35308C39.7148 1.65426 40.0713 2.0872 40.8969 2.78367C41.5348 3.34837 42.1164 3.87543 42.1915 3.98837C42.2665 4.08249 42.3416 9.54132 42.3416 16.0919V28.0072L42.9608 28.2707C45.1372 29.1743 50.447 29.5884 52.8298 29.0237C56.3947 28.1766 59.0215 25.466 59.9033 21.6637C60.3348 19.7813 60.1847 16.0731 59.6219 14.586C58.9839 12.9107 58.1021 11.9131 56.6574 11.1978C55.5129 10.6331 55.2314 10.5766 53.6929 10.5766C51.6853 10.5766 50.7097 10.9531 48.6833 12.5343L47.4075 13.4943L47.3699 6.96249L47.3137 0.411903L45.9065 0.39308C45.1372 0.374256 43.9927 0.430727 43.3735 0.506021ZM52.2107 14.2472C53.7304 15.0001 54.4997 16.7131 54.6686 19.819C54.9312 24.619 53.6366 27.8001 51.4226 27.8001C50.9536 27.8001 50.2594 27.6307 49.8654 27.4237C49.0586 27.0284 47.6326 25.5037 47.4825 24.9013C47.445 24.6754 47.4262 22.2284 47.445 19.4237L47.5013 14.3601L48.2518 14.1343C49.4713 13.7578 51.3101 13.8143 52.2107 14.2472Z" fill="white"/>
<path d="M0.125 15.5647V30.2471H14.7604H29.3958V29.4188C29.3958 28.9671 29.3395 28.2141 29.2832 27.7247L29.1519 26.8588H18.9634C12.9216 26.8588 8.75613 26.7835 8.75613 26.6894C8.75613 26.5953 12.6026 24.28 17.2934 21.5694C21.9843 18.84 25.8308 16.5247 25.8308 16.4306C25.8308 16.3365 25.493 15.6588 25.0615 14.9435C24.5549 14.0965 24.2171 13.6824 24.0295 13.7577C23.8981 13.8141 20.0517 16.0165 15.4922 18.6706C10.9327 21.3059 7.12372 23.4706 7.02991 23.4706C6.91733 23.4706 6.8798 23.3577 6.93609 23.2259C6.97362 23.0941 9.18769 19.2165 11.8333 14.6235C14.4789 10.0306 16.618 6.17177 16.5617 6.05883C16.4679 5.77648 13.9723 4.2706 13.8035 4.36472C13.7284 4.42119 11.4581 8.31766 8.75613 13.0235C6.05421 17.7294 3.76509 21.5882 3.67127 21.5882C3.57745 21.5882 3.5024 17.0894 3.5024 11.3482V1.12707L2.80816 0.995304C2.41413 0.938833 1.64483 0.882362 1.11946 0.882362H0.125V15.5647Z" fill="white"/>
<path d="M101.765 8.05412C99.9826 10.4071 99.8888 10.52 98.6317 11.0847C97.3746 11.6306 97.3184 11.6871 97.3184 12.2894V12.9294H98.4441H99.5511L99.6074 19.8376L99.6637 26.7647L100.133 27.6118C100.395 28.0635 100.902 28.6471 101.258 28.8918C101.84 29.2871 102.084 29.3247 103.416 29.2682C104.561 29.2118 105.161 29.08 105.949 28.6847C106.925 28.2141 109.514 26.2188 109.514 25.9553C109.514 25.88 109.383 25.6541 109.233 25.4659C108.97 25.1082 108.932 25.1082 108.294 25.4094C106.944 26.0494 105.78 25.7106 105.199 24.5059C104.842 23.7906 104.823 23.3576 104.823 18.4259V13.1365L106.85 13.08L108.857 13.0235V12.0824V11.1412L106.85 11.0847L104.823 11.0282V8.31765V5.58824L104.223 5.60706C103.66 5.60706 103.454 5.81412 101.765 8.05412Z" fill="white"/>
<path d="M165.862 8.01662C164.061 10.3884 163.986 10.4637 162.672 11.066C161.359 11.6307 161.303 11.6872 161.303 12.2896V12.9296H162.428H163.535L163.592 19.7437L163.648 26.5766L164.117 27.499C164.849 28.9484 165.337 29.2119 167.269 29.2119C168.658 29.2119 169.052 29.1366 169.933 28.7037C170.947 28.2143 173.498 26.2378 173.498 25.9554C173.498 25.8801 173.367 25.6543 173.217 25.466C172.954 25.1084 172.917 25.1084 172.279 25.4096C170.834 26.106 169.408 25.5225 168.995 24.0731C168.902 23.6778 168.808 21.1743 168.808 18.2566V13.1366L170.834 13.0802L172.842 13.0237L172.898 12.026L172.954 11.0472H170.89H168.808V8.3178V5.58839H168.245C167.757 5.58839 167.494 5.87074 165.862 8.01662Z" fill="white"/>
<path d="M68.6288 10.7833C63.8068 12.0821 61.1238 16.4492 61.8555 21.8139C62.531 26.6704 65.4204 29.3057 70.0923 29.3057C72.7566 29.3057 74.9705 28.421 76.9594 26.5951C77.9725 25.6727 77.9913 25.6163 77.7286 25.2398L77.4284 24.8257L76.3027 25.2963C71.8935 27.0845 67.8408 24.7692 67.2404 20.1198L67.1466 19.3292H72.4564H77.7849L77.9162 18.4633C78.2164 16.3927 77.5222 13.7386 76.3402 12.4963C74.7079 10.7457 71.4244 10.0304 68.6288 10.7833ZM71.4057 12.101C72.1937 12.6657 72.5502 13.7763 72.5502 15.7904V17.5974L71.6683 17.7104C71.1617 17.7668 69.9422 17.861 68.929 17.9363L67.0715 18.0492L67.2029 16.9386C67.5406 13.7951 68.7226 11.7998 70.2424 11.7998C70.6364 11.7998 71.1617 11.9315 71.4057 12.101Z" fill="white"/>
<path d="M86.6243 10.8589C82.7217 11.913 80.2075 14.0401 80.2075 16.2989C80.2075 17.2777 80.6203 18.2754 81.0893 18.4636C82.1213 18.8589 83.6598 18.426 85.1796 17.3154L86.0802 16.6377L85.5173 16.2989C84.4666 15.6589 84.0163 13.9083 84.6542 12.986C85.2734 12.1013 87.356 12.0071 88.5568 12.8166C89.5512 13.4754 89.9828 14.6048 90.0391 16.7695L90.0954 18.6518L87.2435 19.7248C83.3784 21.1742 82.4965 21.6071 81.5584 22.4542C80.0011 23.866 79.6446 25.6542 80.5828 27.4424C81.3145 28.873 82.2901 29.3624 84.1852 29.2683C85.9676 29.193 87.2247 28.6095 88.9508 27.0283C90.1704 25.8989 90.1892 25.8989 90.1892 26.426C90.2079 27.273 90.8646 28.5154 91.5401 28.9295C92.2906 29.3813 93.7353 29.4377 94.861 29.0236C96.1932 28.553 97.6942 27.4424 97.6942 26.9342C97.6942 26.5954 97.5628 26.4636 97.1876 26.3695C96.8874 26.313 96.3433 26.1813 95.968 26.0871L95.2738 25.9177L95.2175 20.026C95.1612 14.5107 95.1237 14.0966 94.7485 13.306C94.2606 12.2707 93.3413 11.3671 92.3469 10.9342C91.1648 10.426 88.3504 10.3883 86.6243 10.8589ZM90.1892 22.4354V24.9577L89.5888 25.2777C89.251 25.4471 88.4255 25.6354 87.75 25.673C86.6993 25.7483 86.4367 25.7107 85.8926 25.3154C84.7668 24.5624 84.7856 23.3013 85.9301 22.1907C86.4742 21.6636 89.6075 19.9318 90.0578 19.8942C90.1329 19.8942 90.1892 21.0424 90.1892 22.4354Z" fill="white"/>
<path d="M135.521 10.7649C132.238 11.5931 129.798 14.0401 128.935 17.3719C128.579 18.7837 128.579 21.7578 128.935 23.1884C129.611 25.7484 131.374 27.9319 133.495 28.779C134.414 29.1554 134.902 29.2119 137.003 29.2119H139.442L141.075 28.4025C142.088 27.9131 143.12 27.2166 143.795 26.5954C144.827 25.6166 144.865 25.5601 144.546 25.2401C144.264 24.939 144.152 24.9201 143.608 25.146C139.292 26.8778 135.727 25.5225 134.452 21.6449C134.245 21.0613 134.095 20.3084 134.095 19.9507V19.3296H139.349H144.602L144.715 18.859C144.959 17.8613 144.677 15.1319 144.227 14.0966C143.664 12.7978 142.163 11.4237 140.831 10.9719C139.48 10.5013 136.928 10.4072 135.521 10.7649ZM138.504 12.4213C139.273 13.1931 139.63 14.699 139.442 16.4307L139.33 17.6166L138.542 17.7107C138.11 17.7672 136.909 17.8613 135.896 17.9178L134.039 18.0307L134.151 16.6566C134.301 14.7743 134.789 13.3813 135.615 12.5154C136.196 11.9131 136.403 11.8001 137.078 11.8001C137.735 11.8001 137.998 11.9131 138.504 12.4213Z" fill="white"/>
<path d="M151.45 10.8397C149.912 11.2914 148.955 11.8185 148.129 12.6844C147.229 13.6255 146.854 14.5479 146.854 15.8844C146.854 18.4444 147.717 19.5549 151.263 21.5126C152.557 22.2279 153.983 23.0938 154.452 23.4326C155.935 24.5055 156.385 25.6726 155.766 26.8585C155.372 27.6114 154.584 27.9879 153.327 27.9879C151.488 27.9879 151.206 27.7808 149.499 24.9008C148.054 22.5102 147.923 22.3408 147.379 22.3408C146.872 22.3408 146.816 22.3973 146.929 22.7549C146.985 22.9997 147.041 24.3926 147.041 25.8608V28.5149L148.411 28.8349C151.375 29.5126 154.696 29.4938 156.648 28.7408C157.792 28.3079 159.443 26.9714 159.893 26.0867C160.419 25.0891 160.588 23.7526 160.363 22.642C159.931 20.5714 158.674 19.2914 155.147 17.3714C152.782 16.0726 152.182 15.6397 151.713 14.8867C150.625 13.0985 152.276 11.3667 154.509 11.9691C155.165 12.1573 155.447 12.4585 156.873 14.3408C158.186 16.0914 158.58 16.5055 158.955 16.5055H159.424V14.0585V11.6302L158.899 11.3479C158.111 10.9338 155.428 10.482 153.908 10.5008C153.176 10.5008 152.069 10.6514 151.45 10.8397Z" fill="white"/>
<path d="M110.078 11.5179C110.078 11.7815 110.341 12.045 110.885 12.3462L111.692 12.7791L114.863 20.8544L118.052 28.9297H119.572H121.073L124.544 20.9109L127.996 12.9109L128.897 12.3462C129.404 12.0262 129.779 11.6685 129.779 11.4803C129.779 11.1603 129.497 11.1415 126.495 11.1415C123.512 11.1415 123.212 11.1791 123.212 11.4615C123.212 11.6873 123.625 12.0073 124.356 12.365C124.994 12.7038 125.463 13.0426 125.407 13.1744C125.37 13.3062 124.544 15.772 123.587 18.652C122.536 21.852 121.786 23.7909 121.711 23.6403C121.542 23.3015 117.808 13.6638 117.733 13.3626C117.696 13.2309 118.184 12.8356 118.803 12.4967C119.478 12.1203 119.947 11.7062 119.985 11.4991C120.041 11.1603 119.853 11.1415 115.05 11.1415C110.191 11.1415 110.078 11.1415 110.078 11.5179Z" fill="white"/>
</g>
<defs>
<clipPath id="clip0_290_5617">
<rect width="174" height="31" fill="white"/>
</clipPath>
</defs>
</svg>
