<svg width="134" height="24" viewBox="0 0 134 24" fill="none" xmlns="http://www.w3.org/2000/svg">
<path d="M33.88 1.12951C33.4121 1.18599 32.604 1.28481 32.0794 1.34128C31.2003 1.42599 31.1152 1.45422 31.1152 1.76481C31.1152 1.99069 31.3846 2.3154 32.0085 2.83775C32.4905 3.26128 32.9301 3.65657 32.9868 3.74128C33.0435 3.81187 33.1002 7.90599 33.1002 12.8189V21.7554L33.5681 21.953C35.2128 22.6307 39.2253 22.9413 41.026 22.5178C43.7199 21.8825 45.7049 19.8495 46.3713 16.9978C46.6974 15.586 46.584 12.8048 46.1586 11.6895C45.6765 10.433 45.0101 9.68481 43.9184 9.14834C43.0535 8.72481 42.8408 8.68246 41.6782 8.68246C40.1611 8.68246 39.4238 8.96481 37.8925 10.1507L36.9284 10.8707L36.9001 5.97187L36.8575 1.05893L35.7941 1.04481C35.2128 1.03069 34.3479 1.07304 33.88 1.12951ZM40.5581 11.4354C41.7066 12.0001 42.2879 13.2848 42.4155 15.6142C42.614 19.2142 41.6357 21.6001 39.9626 21.6001C39.6081 21.6001 39.0835 21.473 38.7858 21.3178C38.1761 21.0213 37.0986 19.8778 36.9851 19.426C36.9568 19.2566 36.9426 17.4213 36.9568 15.3178L36.9993 11.5201L37.5664 11.3507C38.488 11.0683 39.8775 11.1107 40.5581 11.4354Z" fill="black"/>
<path d="M1.19727 12.4238V23.4355H12.257H23.3167V22.8144C23.3167 22.4755 23.2741 21.9108 23.2316 21.5438L23.1323 20.8944H15.4331C10.8674 20.8944 7.71966 20.8379 7.71966 20.7673C7.71966 20.6967 10.6264 18.9603 14.1711 16.9273C17.7159 14.8803 20.6226 13.1438 20.6226 13.0732C20.6226 13.0026 20.3674 12.4944 20.0413 11.9579C19.6585 11.3226 19.4032 11.012 19.2614 11.0685C19.1622 11.1108 16.2555 12.7626 12.81 14.7532C9.36443 16.7297 6.48607 18.3532 6.41518 18.3532C6.3301 18.3532 6.30174 18.2685 6.34428 18.1697C6.37264 18.0708 8.04577 15.1626 10.045 11.7179C12.0443 8.27319 13.6607 5.37908 13.6182 5.29437C13.5473 5.08261 11.6614 3.95319 11.5338 4.02378C11.4771 4.06613 9.76145 6.98849 7.71966 10.5179C5.67786 14.0473 3.94801 16.9414 3.87712 16.9414C3.80622 16.9414 3.74951 13.5673 3.74951 9.26143V1.59554L3.22488 1.49672C2.92712 1.45437 2.34577 1.41202 1.94876 1.41202H1.19727V12.4238Z" fill="black"/>
<path d="M78.0048 6.79059C76.6579 8.55529 76.587 8.64 75.637 9.06353C74.6871 9.47294 74.6445 9.5153 74.6445 9.96706V10.4471H75.4952H76.3318L76.3743 15.6282L76.4168 20.8235L76.7713 21.4588C76.9698 21.7976 77.3526 22.2353 77.622 22.4188C78.0615 22.7153 78.2459 22.7435 79.2525 22.7012C80.1174 22.6588 80.5711 22.56 81.1666 22.2635C81.9039 21.9106 83.8605 20.4141 83.8605 20.2165C83.8605 20.16 83.7613 19.9906 83.6479 19.8494C83.4494 19.5812 83.421 19.5812 82.9389 19.8071C81.9181 20.2871 81.039 20.0329 80.5995 19.1294C80.3301 18.5929 80.3159 18.2682 80.3159 14.5694V10.6024L81.8472 10.56L83.3643 10.5176V9.81177V9.10588L81.8472 9.06353L80.3159 9.02118V6.98824V4.94118L79.8622 4.9553C79.4369 4.9553 79.2809 5.11059 78.0048 6.79059Z" fill="black"/>
<path d="M126.441 6.76271C125.08 8.54153 125.024 8.598 124.031 9.04977C123.039 9.4733 122.996 9.51565 122.996 9.96742V10.4474H123.847H124.683L124.726 15.558L124.768 20.6827L125.123 21.3745C125.676 22.4615 126.044 22.6592 127.505 22.6592C128.554 22.6592 128.852 22.6027 129.518 22.278C130.284 21.9109 132.212 20.4286 132.212 20.2168C132.212 20.1604 132.113 19.9909 131.999 19.8498C131.801 19.5815 131.773 19.5815 131.291 19.8074C130.199 20.3298 129.121 19.8921 128.809 18.8051C128.738 18.5086 128.667 16.6309 128.667 14.4427V10.6027L130.199 10.5604L131.716 10.518L131.758 9.76977L131.801 9.03565H130.241H128.667V6.98859V4.94153H128.242C127.873 4.94153 127.675 5.1533 126.441 6.76271Z" fill="black"/>
<path d="M52.9644 8.83773C49.3205 9.81185 47.293 13.0871 47.846 17.1107C48.3564 20.753 50.5399 22.7295 54.0703 22.7295C56.0836 22.7295 57.7567 22.066 59.2596 20.6966C60.0253 20.0048 60.0394 19.9624 59.8409 19.6801L59.6141 19.3695L58.7634 19.7224C55.4314 21.0636 52.3689 19.3271 51.9152 15.8401L51.8443 15.2471H55.8568H59.8835L59.9827 14.5977C60.2096 13.0448 59.685 11.0542 58.7917 10.1224C57.5582 8.80949 55.077 8.27302 52.9644 8.83773ZM55.0628 9.82596C55.6583 10.2495 55.9277 11.0824 55.9277 12.593V13.9483L55.2613 14.033C54.8785 14.0754 53.9569 14.146 53.1912 14.2024L51.7876 14.2871L51.8868 13.4542C52.142 11.0966 53.0353 9.60008 54.1837 9.60008C54.4815 9.60008 54.8785 9.6989 55.0628 9.82596Z" fill="black"/>
<path d="M66.5636 8.89394C63.6144 9.68453 61.7145 11.2798 61.7145 12.9739C61.7145 13.7081 62.0265 14.4563 62.3809 14.5975C63.1607 14.8939 64.3234 14.5692 65.4718 13.7363L66.1524 13.2281L65.727 12.9739C64.933 12.4939 64.5928 11.181 65.0748 10.4892C65.5427 9.8257 67.1165 9.75511 68.024 10.3622C68.7754 10.8563 69.1015 11.7033 69.1441 13.3269L69.1866 14.7386L67.0315 15.5433C64.1107 16.6304 63.4443 16.9551 62.7354 17.5904C61.5586 18.6492 61.2892 19.9904 61.9981 21.3316C62.5511 22.4045 63.2883 22.7716 64.7204 22.701C66.0673 22.6445 67.0173 22.2069 68.3217 21.021C69.2433 20.1739 69.2575 20.1739 69.2575 20.5692C69.2717 21.2045 69.7679 22.1363 70.2783 22.4469C70.8455 22.7857 71.9372 22.8281 72.7879 22.5175C73.7946 22.1645 74.9289 21.3316 74.9289 20.9504C74.9289 20.6963 74.8296 20.5975 74.5461 20.5269C74.3192 20.4845 73.908 20.3857 73.6245 20.3151L73.0999 20.1881L73.0573 15.7692C73.0148 11.6328 72.9864 11.3222 72.7029 10.7292C72.3342 9.95276 71.6395 9.27511 70.888 8.95041C69.9948 8.56923 67.868 8.541 66.5636 8.89394ZM69.2575 17.5763V19.4681L68.8038 19.7081C68.5486 19.8351 67.9247 19.9763 67.4143 20.0045C66.6203 20.061 66.4218 20.0328 66.0106 19.7363C65.1599 19.1716 65.1741 18.2257 66.039 17.3928C66.4501 16.9975 68.818 15.6986 69.1582 15.6704C69.2149 15.6704 69.2575 16.5316 69.2575 17.5763Z" fill="black"/>
<path d="M103.513 8.82389C101.031 9.44506 99.1882 11.2804 98.536 13.7792C98.2666 14.838 98.2666 17.0686 98.536 18.1415C99.0465 20.0615 100.379 21.6992 101.981 22.3345C102.676 22.6168 103.045 22.6592 104.633 22.6592H106.476L107.71 22.0521C108.475 21.6851 109.255 21.1627 109.765 20.6968C110.545 19.9627 110.574 19.9204 110.333 19.6804C110.12 19.4545 110.035 19.4404 109.624 19.6098C106.363 20.9086 103.669 19.8921 102.705 16.9839C102.549 16.5462 102.435 15.9815 102.435 15.7133V15.2474H106.405H110.375L110.46 14.8945C110.644 14.1462 110.432 12.0992 110.091 11.3227C109.666 10.3486 108.532 9.318 107.525 8.97918C106.504 8.62624 104.576 8.55565 103.513 8.82389ZM105.767 10.0662C106.348 10.6451 106.618 11.7745 106.476 13.0733L106.391 13.9627L105.795 14.0333C105.469 14.0757 104.562 14.1462 103.796 14.1886L102.393 14.2733L102.478 13.2427C102.591 11.8309 102.96 10.7862 103.584 10.1368C104.023 9.68506 104.179 9.60036 104.689 9.60036C105.186 9.60036 105.384 9.68506 105.767 10.0662Z" fill="black"/>
<path d="M115.552 8.87998C114.389 9.21881 113.666 9.6141 113.042 10.2635C112.362 10.9694 112.078 11.6612 112.078 12.6635C112.078 14.5835 112.73 15.4165 115.41 16.8847C116.388 17.4212 117.466 18.0706 117.82 18.3247C118.941 19.1294 119.281 20.0047 118.813 20.8941C118.515 21.4588 117.92 21.7412 116.97 21.7412C115.58 21.7412 115.368 21.5859 114.077 19.4259C112.986 17.6329 112.886 17.5059 112.475 17.5059C112.092 17.5059 112.05 17.5482 112.135 17.8165C112.177 18 112.22 19.0447 112.22 20.1459V22.1365L113.255 22.3765C115.495 22.8847 118.005 22.8706 119.479 22.3059C120.344 21.9812 121.592 20.9788 121.932 20.3153C122.329 19.567 122.457 18.5647 122.287 17.7317C121.961 16.1788 121.011 15.2188 118.345 13.7788C116.559 12.8047 116.105 12.48 115.75 11.9153C114.928 10.5741 116.176 9.27528 117.863 9.72704C118.359 9.86822 118.572 10.0941 119.649 11.5059C120.642 12.8188 120.94 13.1294 121.223 13.1294H121.578V11.2941V9.47293L121.181 9.26116C120.585 8.95057 118.558 8.61175 117.409 8.62587C116.856 8.62587 116.02 8.73881 115.552 8.87998Z" fill="black"/>
<path d="M84.2871 9.38844C84.2871 9.58609 84.4856 9.78374 84.8968 10.0096L85.5065 10.3343L87.9026 16.3908L90.313 22.4473H91.4614H92.5957L95.2187 16.4331L97.8276 10.4331L98.5081 10.0096C98.8909 9.76962 99.1745 9.50138 99.1745 9.36021C99.1745 9.12021 98.9618 9.10609 96.6933 9.10609C94.4389 9.10609 94.212 9.13432 94.212 9.34609C94.212 9.5155 94.524 9.7555 95.0769 10.0237C95.559 10.2779 95.9135 10.532 95.8709 10.6308C95.8426 10.7296 95.2187 12.579 94.4956 14.739C93.7016 17.139 93.1345 18.5931 93.0778 18.4802C92.9502 18.2261 90.1286 10.9979 90.0719 10.772C90.0436 10.6731 90.4122 10.3767 90.8801 10.1226C91.3905 9.84021 91.745 9.52962 91.7733 9.37432C91.8159 9.12021 91.6741 9.10609 88.0444 9.10609C84.3722 9.10609 84.2871 9.10609 84.2871 9.38844Z" fill="black"/>
</svg>
