<svg width="317" height="174" viewBox="0 0 317 174" fill="none" xmlns="http://www.w3.org/2000/svg">
<path d="M315.987 136.733L315.811 158.43L208.439 173.485L208.615 151.798L315.987 136.733Z" fill="#F9FAFB" stroke="#9AA2AC" stroke-linejoin="round"/>
<path d="M208.44 173.485L140.982 136.864L141.158 115.168L208.615 151.798L208.44 173.485Z" fill="#F9FAFB" stroke="#9AA2AC" stroke-linejoin="round"/>
<path d="M208.616 151.795L141.158 115.165L248.53 100.11L315.987 136.73L208.616 151.795Z" fill="#F9FAFB" stroke="#9AA2AC" stroke-linejoin="round"/>
<path d="M281.947 113.66L281.934 130.445L213.513 140.012L213.526 123.227L281.947 113.66Z" fill="#FDFAC3" stroke="#9AA2AC" stroke-linejoin="round"/>
<path d="M213.513 140.015L169.543 116.22L169.556 99.4349L213.526 123.23L213.513 140.015Z" fill="#FDFAC3" stroke="#9AA2AC" stroke-linejoin="round"/>
<path d="M213.605 123.314L169.435 99.5339L173.782 92.4392L213.605 113.725V123.314Z" fill="#FDFAC3" stroke="#9AA2AC" stroke-linejoin="round"/>
<path d="M213.633 123.223V113.784L278.858 105.404L281.93 113.659L213.633 123.223Z" fill="#FDFAC3" stroke="#9AA2AC" stroke-linejoin="round"/>
<path d="M213.71 113.806L173.854 92.4805L238.57 83.6016L278.709 105.382L213.71 113.806Z" fill="#FDFAC3" stroke="#9AA2AC" stroke-linejoin="round"/>
<path d="M214.773 107.692L191.691 95.3781L236.645 89.2104L259.924 101.841L214.773 107.692Z" fill="#FFFB9E" stroke="#9AA2AC" stroke-linejoin="round"/>
<path d="M236.618 98.5099V89.1981L259.928 101.84L246.712 103.539L236.618 98.5099Z" fill="#FFFB9E" stroke="#9AA2AC" stroke-linejoin="round"/>
<path d="M236.614 98.5074V89.2104L191.685 95.375L205.802 102.91L236.614 98.5074Z" fill="#FFFB9E" stroke="#9AA2AC" stroke-linejoin="round"/>
<path d="M170.425 114.503L179.921 113.057C181.247 113.057 182.244 113.412 182.589 114.742C183.189 117.052 182.023 117.975 180.809 118.252L175.462 118.929C173.464 119.183 171.965 120.883 171.965 122.898V125.365C171.553 126.018 170.829 126.376 169.491 126.376C168.143 126.293 167.355 125.835 166.846 125.365L166.846 120.122C166.846 117.44 167.232 114.742 170.425 114.503Z" fill="#E3FFD9" stroke="#9AA2AC" stroke-linejoin="round"/>
<path d="M183.685 119.518L193.181 118.073C194.507 118.073 195.505 118.428 195.85 119.757C196.449 122.068 195.284 122.99 194.069 123.267L188.723 123.945C186.724 124.198 185.225 125.898 185.225 127.913V130.38C184.813 131.034 184.089 131.391 182.751 131.391C181.403 131.308 180.615 130.85 180.106 130.38L180.106 125.137C180.106 122.455 180.492 119.757 183.685 119.518Z" fill="#E3FFD9" stroke="#9AA2AC" stroke-linejoin="round"/>
<path d="M196.65 127.089L206.146 125.644C207.472 125.644 208.47 125.999 208.815 127.328C209.414 129.638 208.249 130.561 207.034 130.838L201.687 131.516C199.689 131.769 198.19 133.469 198.19 135.484V137.951C197.778 138.604 197.054 138.962 195.716 138.962C194.368 138.879 193.58 138.421 193.071 137.951L193.071 132.708C193.071 130.026 193.457 127.328 196.65 127.089Z" fill="#E3FFD9" stroke="#9AA2AC" stroke-linejoin="round"/>
<path d="M97.2666 104.229V126.844L31.2228 136.484L31.2222 113.465L97.2666 104.229Z" fill="#F9FAFB" stroke="#9AA2AC" stroke-linejoin="round"/>
<path d="M92.6715 108.863V112.231L87.4557 113.02L87.4556 109.592L92.6715 108.863Z" fill="#DDE0E3" stroke="#9AA2AC" stroke-linejoin="round"/>
<path d="M81.6734 110.582V113.95L76.4576 114.739L76.4575 111.311L81.6734 110.582Z" fill="#DDE0E3" stroke="#9AA2AC" stroke-linejoin="round"/>
<path d="M70.6759 112.387V115.755L65.4601 116.544L65.46 113.116L70.6759 112.387Z" fill="#DDE0E3" stroke="#9AA2AC" stroke-linejoin="round"/>
<path d="M31.2319 136.486L1 120.142L1.00052 96.9902L31.2319 113.353V136.486Z" fill="#F9FAFB" stroke="#9AA2AC" stroke-linejoin="round"/>
<path d="M20.4062 115.352L15.8696 112.9L15.8697 109.426L20.4062 111.881V115.352Z" fill="#F9FAFB" stroke="#9AA2AC" stroke-linejoin="round"/>
<path d="M20.4062 121.85L15.8696 119.397L15.8697 115.923L20.4062 118.379V121.85Z" fill="#F9FAFB" stroke="#9AA2AC" stroke-linejoin="round"/>
<path d="M27.453 118.969L22.9165 116.516L22.9166 113.042L27.453 115.497V118.969Z" fill="#F9FAFB" stroke="#9AA2AC" stroke-linejoin="round"/>
<path d="M27.453 125.466L22.9165 123.014L22.9166 119.54L27.453 121.995V125.466Z" fill="#F9FAFB" stroke="#9AA2AC" stroke-linejoin="round"/>
<path d="M31.3756 113.444L1.00244 96.9958L67.0468 87.7651L97.3053 104.24L31.3756 113.444Z" fill="#F9FAFB" stroke="#9AA2AC" stroke-linejoin="round"/>
<path d="M35.3501 106.854L22.6245 99.963L63.7794 93.9613L76.4569 100.864L35.3501 106.854Z" fill="#F9FAFB" stroke="#9AA2AC" stroke-linejoin="round"/>
<path d="M76.392 100.864L63.7222 93.9706V102.632L76.392 100.864Z" fill="#F9FAFB" stroke="#9AA2AC" stroke-linejoin="round"/>
<path d="M70.5557 114.14L76.2051 113.236" stroke="#9AA2AC" stroke-linejoin="round"/>
<path d="M81.8062 112.264L87.4556 111.36" stroke="#9AA2AC" stroke-linejoin="round"/>
<path d="M97.2666 75.2555V97.8706L31.2228 107.511L31.2222 84.4918L97.2666 75.2555Z" fill="#F9FAFB" stroke="#9AA2AC" stroke-linejoin="round"/>
<path d="M31.2319 107.512L1 91.1686L1.00052 68.0168L31.2319 84.3794V107.512Z" fill="#F9FAFB" stroke="#9AA2AC" stroke-linejoin="round"/>
<path d="M20.4062 86.379L15.8696 83.9265L15.8697 80.4524L20.4062 82.9077V86.379Z" fill="#F9FAFB" stroke="#9AA2AC" stroke-linejoin="round"/>
<path d="M20.4062 92.8765L15.8696 90.424L15.8697 86.95L20.4062 89.4053V92.8765Z" fill="#F9FAFB" stroke="#9AA2AC" stroke-linejoin="round"/>
<path d="M27.453 89.9952L22.9165 87.5427L22.9166 84.0686L27.453 86.5239V89.9952Z" fill="#F9FAFB" stroke="#9AA2AC" stroke-linejoin="round"/>
<path d="M27.453 96.4928L22.9165 94.0403L22.9166 90.5662L27.453 93.0215V96.4928Z" fill="#F9FAFB" stroke="#9AA2AC" stroke-linejoin="round"/>
<path d="M31.3756 84.4703L1.00244 68.0225L67.0468 58.7917L97.3053 75.2667L31.3756 84.4703Z" fill="#F9FAFB" stroke="#9AA2AC" stroke-linejoin="round"/>
<path d="M35.3501 77.8808L22.6245 70.9896L63.7794 64.9879L76.4569 71.8905L35.3501 77.8808Z" fill="#F9FAFB" stroke="#9AA2AC" stroke-linejoin="round"/>
<path d="M76.392 71.8908L63.7222 64.9972V73.659L76.392 71.8908Z" fill="#F9FAFB" stroke="#9AA2AC" stroke-linejoin="round"/>
<path d="M92.6715 79.8904V83.2582L87.4557 84.0476L87.4556 80.6197L92.6715 79.8904Z" fill="#DDE0E3" stroke="#9AA2AC" stroke-linejoin="round"/>
<path d="M81.6729 81.6094V84.9771L76.4571 85.7666L76.457 82.3387L81.6729 81.6094Z" fill="#DDE0E3" stroke="#9AA2AC" stroke-linejoin="round"/>
<path d="M70.6759 83.4144V86.7822L65.4601 87.5716L65.46 84.1437L70.6759 83.4144Z" fill="#DDE0E3" stroke="#9AA2AC" stroke-linejoin="round"/>
<path d="M70.5552 85.1674L76.2046 84.2631" stroke="#9AA2AC" stroke-linejoin="round"/>
<path d="M81.8062 83.2917L87.4556 82.3873" stroke="#9AA2AC" stroke-linejoin="round"/>
<path d="M97.2666 46.2518V68.867L31.2228 78.5069L31.2222 55.4882L97.2666 46.2518Z" fill="#F9FAFB" stroke="#9AA2AC" stroke-linejoin="round"/>
<path d="M92.6715 50.886V54.2538L87.4557 55.0432L87.4556 51.6153L92.6715 50.886Z" fill="#DDE0E3" stroke="#9AA2AC" stroke-linejoin="round"/>
<path d="M81.6734 52.6049V55.9726L76.4576 56.762L76.4575 53.3342L81.6734 52.6049Z" fill="#DDE0E3" stroke="#9AA2AC" stroke-linejoin="round"/>
<path d="M70.6759 54.4099V57.7777L65.4601 58.5671L65.46 55.1392L70.6759 54.4099Z" fill="#DDE0E3" stroke="#9AA2AC" stroke-linejoin="round"/>
<path d="M31.2319 78.5087L1 62.165L1.00052 39.0132L31.2319 55.3757V78.5087Z" fill="#F9FAFB" stroke="#9AA2AC" stroke-linejoin="round"/>
<path d="M20.4062 57.3753L15.8696 54.9228L15.8697 51.4487L20.4062 53.904V57.3753Z" fill="#F9FAFB" stroke="#9AA2AC" stroke-linejoin="round"/>
<path d="M20.4062 63.8729L15.8696 61.4204L15.8697 57.9463L20.4062 60.4016V63.8729Z" fill="#F9FAFB" stroke="#9AA2AC" stroke-linejoin="round"/>
<path d="M27.453 60.9915L22.9165 58.539L22.9166 55.0649L27.453 57.5203V60.9915Z" fill="#F9FAFB" stroke="#9AA2AC" stroke-linejoin="round"/>
<path d="M27.453 67.4891L22.9165 65.0366L22.9166 61.5625L27.453 64.0178V67.4891Z" fill="#F9FAFB" stroke="#9AA2AC" stroke-linejoin="round"/>
<path d="M31.3756 55.4666L1.00244 39.0188L67.0468 29.7881L97.3053 46.2631L31.3756 55.4666Z" fill="#F9FAFB" stroke="#9AA2AC" stroke-linejoin="round"/>
<path d="M35.3501 48.8771L22.6245 41.9859L63.7794 35.9843L76.4569 42.8869L35.3501 48.8771Z" fill="#F9FAFB" stroke="#9AA2AC" stroke-linejoin="round"/>
<path d="M76.392 42.8871L63.7222 35.9935V44.6554L76.392 42.8871Z" fill="#F9FAFB" stroke="#9AA2AC" stroke-linejoin="round"/>
<path d="M70.5552 56.163L76.2046 55.2587" stroke="#9AA2AC" stroke-linejoin="round"/>
<path d="M81.8062 54.2873L87.4556 53.3829" stroke="#9AA2AC" stroke-linejoin="round"/>
<path d="M97.2666 17.4637V40.0789L31.2228 49.7188L31.2222 26.7001L97.2666 17.4637Z" fill="#F9FAFB" stroke="#9AA2AC" stroke-linejoin="round"/>
<path d="M92.6715 22.0979V25.4657L87.4557 26.2551L87.4556 22.8272L92.6715 22.0979Z" fill="#DDE0E3" stroke="#9AA2AC" stroke-linejoin="round"/>
<path d="M81.6734 23.8168V27.1845L76.4576 27.974L76.4575 24.5461L81.6734 23.8168Z" fill="#DDE0E3" stroke="#9AA2AC" stroke-linejoin="round"/>
<path d="M70.6759 25.6218V28.9896L65.4601 29.779L65.46 26.3511L70.6759 25.6218Z" fill="#DDE0E3" stroke="#9AA2AC" stroke-linejoin="round"/>
<path d="M31.2319 49.7206L1 33.3769L1.00052 10.2251L31.2319 26.5876V49.7206Z" fill="#F9FAFB" stroke="#9AA2AC" stroke-linejoin="round"/>
<path d="M20.4062 28.5872L15.8696 26.1347L15.8697 22.6606L20.4062 25.116V28.5872Z" fill="#F9FAFB" stroke="#9AA2AC" stroke-linejoin="round"/>
<path d="M20.4062 35.0848L15.8696 32.6323L15.8697 29.1582L20.4062 31.6135V35.0848Z" fill="#F9FAFB" stroke="#9AA2AC" stroke-linejoin="round"/>
<path d="M27.453 32.2034L22.9165 29.751L22.9166 26.2769L27.453 28.7322V32.2034Z" fill="#F9FAFB" stroke="#9AA2AC" stroke-linejoin="round"/>
<path d="M27.453 38.701L22.9165 36.2485L22.9166 32.7744L27.453 35.2297V38.701Z" fill="#F9FAFB" stroke="#9AA2AC" stroke-linejoin="round"/>
<path d="M31.3756 26.6785L1.00244 10.2307L67.0468 1L97.3053 17.475L31.3756 26.6785Z" fill="#F9FAFB" stroke="#9AA2AC" stroke-linejoin="round"/>
<path d="M35.3501 20.0891L22.6245 13.1978L63.7794 7.19617L76.4569 14.0988L35.3501 20.0891Z" fill="#F9FAFB" stroke="#9AA2AC" stroke-linejoin="round"/>
<path d="M76.392 14.099L63.7222 7.20544V15.8673L76.392 14.099Z" fill="#F9FAFB" stroke="#9AA2AC" stroke-linejoin="round"/>
<path d="M70.5557 27.3749L76.2051 26.4706" stroke="#9AA2AC" stroke-linejoin="round"/>
<path d="M81.8062 25.4992L87.4556 24.5948" stroke="#9AA2AC" stroke-linejoin="round"/>
</svg>
