<svg width="220" height="231" viewBox="0 0 220 231" fill="none" xmlns="http://www.w3.org/2000/svg">
<path d="M219.093 17.4637V142.021L153.049 151.661L153.049 26.7001L219.093 17.4637Z" fill="#F9FAFB" stroke="#9AA2AC" stroke-linejoin="round"/>
<path d="M153.059 151.663L122.827 135.319L122.827 10.2251L153.059 26.5876V151.663Z" fill="#F9FAFB" stroke="#9AA2AC" stroke-linejoin="round"/>
<path d="M153.202 26.6785L122.829 10.2307L188.873 1L219.132 17.475L153.202 26.6785Z" fill="#F9FAFB" stroke="#9AA2AC" stroke-linejoin="round"/>
<path d="M214.01 28.1846V43.3749L163.581 50.7357L163.581 35.2372L214.01 28.1846Z" fill="#F9FAFB" stroke="#9AA2AC" stroke-linejoin="round"/>
<path d="M195.206 36.16V39.5278L189.99 40.3172L189.99 36.8893L195.206 36.16Z" fill="#DDE0E3" stroke="#9AA2AC" stroke-linejoin="round"/>
<path d="M184.208 37.879V41.2468L178.992 42.0362L178.992 38.6083L184.208 37.879Z" fill="#DDE0E3" stroke="#9AA2AC" stroke-linejoin="round"/>
<path d="M173.211 39.6841V43.0519L167.995 43.8413L167.995 40.4134L173.211 39.6841Z" fill="#DDE0E3" stroke="#9AA2AC" stroke-linejoin="round"/>
<path d="M173.09 41.4371L178.739 40.5327" stroke="#9AA2AC" stroke-linejoin="round"/>
<path d="M184.341 39.5613L189.99 38.657" stroke="#9AA2AC" stroke-linejoin="round"/>
<path d="M163.595 35.2789L159.735 32.9694V48.381L163.595 50.7353V35.2789Z" fill="#F9FAFB" stroke="#9AA2AC" stroke-linejoin="round"/>
<path d="M214.028 28.2475L209.871 25.7584L159.792 32.9724L163.659 35.3606L214.028 28.2475Z" fill="#F9FAFB" stroke="#9AA2AC" stroke-linejoin="round"/>
<path d="M214.01 51.0513V66.2416L163.581 73.6024L163.581 58.1039L214.01 51.0513Z" fill="#F9FAFB" stroke="#9AA2AC" stroke-linejoin="round"/>
<path d="M195.206 59.0262V62.394L189.99 63.1834L189.99 59.7556L195.206 59.0262Z" fill="#DDE0E3" stroke="#9AA2AC" stroke-linejoin="round"/>
<path d="M184.208 60.7452V64.113L178.992 64.9024L178.992 61.4746L184.208 60.7452Z" fill="#DDE0E3" stroke="#9AA2AC" stroke-linejoin="round"/>
<path d="M173.211 62.5503V65.9181L167.995 66.7075L167.995 63.2796L173.211 62.5503Z" fill="#DDE0E3" stroke="#9AA2AC" stroke-linejoin="round"/>
<path d="M173.09 64.3033L178.739 63.3989" stroke="#9AA2AC" stroke-linejoin="round"/>
<path d="M184.341 62.4275L189.99 61.5232" stroke="#9AA2AC" stroke-linejoin="round"/>
<path d="M163.595 58.1455L159.735 55.8359V71.2476L163.595 73.6019V58.1455Z" fill="#F9FAFB" stroke="#9AA2AC" stroke-linejoin="round"/>
<path d="M214.028 51.1141L209.871 48.625L159.792 55.8389L163.659 58.2272L214.028 51.1141Z" fill="#F9FAFB" stroke="#9AA2AC" stroke-linejoin="round"/>
<path d="M214.01 73.9183V89.1087L163.581 96.4695L163.581 80.971L214.01 73.9183Z" fill="#F9FAFB" stroke="#9AA2AC" stroke-linejoin="round"/>
<path d="M195.206 81.8953V85.263L189.99 86.0524L189.99 82.6246L195.206 81.8953Z" fill="#DDE0E3" stroke="#9AA2AC" stroke-linejoin="round"/>
<path d="M184.208 83.6143V86.982L178.992 87.7714L178.992 84.3436L184.208 83.6143Z" fill="#DDE0E3" stroke="#9AA2AC" stroke-linejoin="round"/>
<path d="M173.211 85.4193V88.7871L167.995 89.5765L167.995 86.1486L173.211 85.4193Z" fill="#DDE0E3" stroke="#9AA2AC" stroke-linejoin="round"/>
<path d="M173.09 87.1723L178.739 86.2679" stroke="#9AA2AC" stroke-linejoin="round"/>
<path d="M184.341 85.2966L189.99 84.3922" stroke="#9AA2AC" stroke-linejoin="round"/>
<path d="M163.595 81.0126L159.735 78.703V94.1146L163.595 96.4689V81.0126Z" fill="#F9FAFB" stroke="#9AA2AC" stroke-linejoin="round"/>
<path d="M214.028 73.9811L209.871 71.4921L159.792 78.706L163.659 81.0942L214.028 73.9811Z" fill="#F9FAFB" stroke="#9AA2AC" stroke-linejoin="round"/>
<path d="M214.01 96.7831V111.973L163.581 119.334L163.581 103.836L214.01 96.7831Z" fill="#F9FAFB" stroke="#9AA2AC" stroke-linejoin="round"/>
<path d="M195.206 104.759V108.127L189.99 108.916L189.99 105.488L195.206 104.759Z" fill="#DDE0E3" stroke="#9AA2AC" stroke-linejoin="round"/>
<path d="M184.208 106.478V109.846L178.992 110.635L178.992 107.207L184.208 106.478Z" fill="#DDE0E3" stroke="#9AA2AC" stroke-linejoin="round"/>
<path d="M173.211 108.283V111.651L167.995 112.44L167.995 109.012L173.211 108.283Z" fill="#DDE0E3" stroke="#9AA2AC" stroke-linejoin="round"/>
<path d="M173.09 110.036L178.739 109.132" stroke="#9AA2AC" stroke-linejoin="round"/>
<path d="M184.341 108.16L189.99 107.256" stroke="#9AA2AC" stroke-linejoin="round"/>
<path d="M163.595 103.877L159.735 101.568V116.979L163.595 119.334V103.877Z" fill="#F9FAFB" stroke="#9AA2AC" stroke-linejoin="round"/>
<path d="M214.028 96.846L209.871 94.3569L159.792 101.571L163.659 103.959L214.028 96.846Z" fill="#F9FAFB" stroke="#9AA2AC" stroke-linejoin="round"/>
<path d="M135.656 33.2674L131.12 30.8149L131.12 27.3408L135.656 29.7961V33.2674Z" fill="#F9FAFB" stroke="#9AA2AC" stroke-linejoin="round"/>
<path d="M135.656 56.1334L131.12 53.6809L131.12 50.2068L135.656 52.6621V56.1334Z" fill="#F9FAFB" stroke="#9AA2AC" stroke-linejoin="round"/>
<path d="M135.656 78.9995L131.12 76.547L131.12 73.0729L135.656 75.5282V78.9995Z" fill="#F9FAFB" stroke="#9AA2AC" stroke-linejoin="round"/>
<path d="M135.656 101.865L131.12 99.4129L131.12 95.9388L135.656 98.3942V101.865Z" fill="#F9FAFB" stroke="#9AA2AC" stroke-linejoin="round"/>
<path d="M135.656 39.765L131.12 37.3125L131.12 33.8384L135.656 36.2937V39.765Z" fill="#F9FAFB" stroke="#9AA2AC" stroke-linejoin="round"/>
<path d="M135.656 62.6309L131.12 60.1784L131.12 56.7043L135.656 59.1597V62.6309Z" fill="#F9FAFB" stroke="#9AA2AC" stroke-linejoin="round"/>
<path d="M135.656 85.497L131.12 83.0445L131.12 79.5704L135.656 82.0258V85.497Z" fill="#F9FAFB" stroke="#9AA2AC" stroke-linejoin="round"/>
<path d="M135.656 108.363L131.12 105.91L131.12 102.436L135.656 104.892V108.363Z" fill="#F9FAFB" stroke="#9AA2AC" stroke-linejoin="round"/>
<path d="M142.703 36.8867L138.167 34.4342L138.167 30.9601L142.703 33.4154V36.8867Z" fill="#F9FAFB" stroke="#9AA2AC" stroke-linejoin="round"/>
<path d="M142.703 59.7497L138.167 57.2972L138.167 53.8231L142.703 56.2784V59.7497Z" fill="#F9FAFB" stroke="#9AA2AC" stroke-linejoin="round"/>
<path d="M142.703 82.6157L138.167 80.1632L138.167 76.6891L142.703 79.1444V82.6157Z" fill="#F9FAFB" stroke="#9AA2AC" stroke-linejoin="round"/>
<path d="M142.703 105.482L138.167 103.029L138.167 99.5551L142.703 102.01V105.482Z" fill="#F9FAFB" stroke="#9AA2AC" stroke-linejoin="round"/>
<path d="M142.703 43.3844L138.167 40.9319L138.167 37.4578L142.703 39.9131V43.3844Z" fill="#F9FAFB" stroke="#9AA2AC" stroke-linejoin="round"/>
<path d="M142.703 66.2503L138.167 63.7978L138.167 60.3237L142.703 62.779V66.2503Z" fill="#F9FAFB" stroke="#9AA2AC" stroke-linejoin="round"/>
<path d="M142.703 89.1132L138.167 86.6607L138.167 83.1866L142.703 85.642V89.1132Z" fill="#F9FAFB" stroke="#9AA2AC" stroke-linejoin="round"/>
<path d="M142.703 111.979L138.167 109.527L138.167 106.053L142.703 108.508V111.979Z" fill="#F9FAFB" stroke="#9AA2AC" stroke-linejoin="round"/>
<path d="M115.542 127.101L135.555 124.055C138.349 124.055 140.451 124.803 141.178 127.604C142.441 132.473 139.985 134.417 137.426 135.001L122.286 136.92C120.287 137.173 118.789 138.874 118.789 140.888V149.991C117.92 151.368 116.394 152.121 113.574 152.121C110.734 151.947 109.073 150.981 108.001 149.991L108 138.942C108 133.29 108.815 127.604 115.542 127.101Z" fill="#E3FFD9" stroke="#9AA2AC" stroke-linejoin="round"/>
<path d="M208.753 208.565V220.149L139.063 230.321L139.062 218.311L208.753 208.565Z" fill="#EFF2FF" stroke="#9AA2AC" stroke-linejoin="round"/>
<path d="M139.073 230.324L107.172 213.078L107.172 200.928L139.073 218.194V230.324Z" fill="#EFF2FF" stroke="#9AA2AC" stroke-linejoin="round"/>
<path d="M139.225 218.288L107.174 200.932L176.865 191.191L208.794 208.576L139.225 218.288Z" fill="#EFF2FF" stroke="#9AA2AC" stroke-linejoin="round"/>
<path d="M176.81 196.578V199.83L166.482 201.337L166.481 198.022L176.81 196.578Z" fill="#E3FFD9" stroke="#9AA2AC" stroke-linejoin="round"/>
<path d="M166.483 201.334L161.755 198.778L161.755 195.442L166.483 198.001V201.334Z" fill="#E3FFD9" stroke="#9AA2AC" stroke-linejoin="round"/>
<path d="M166.506 198.017L161.755 195.444L172.084 194.001L176.817 196.577L166.506 198.017Z" fill="#E3FFD9" stroke="#9AA2AC" stroke-linejoin="round"/>
<path d="M185.174 200.595V203.847L174.845 205.355L174.845 202.04L185.174 200.595Z" fill="#E3FFD9" stroke="#9AA2AC" stroke-linejoin="round"/>
<path d="M174.846 205.351L170.118 202.795L170.118 199.459L174.846 202.018V205.351Z" fill="#E3FFD9" stroke="#9AA2AC" stroke-linejoin="round"/>
<path d="M174.869 202.034L170.119 199.461L180.448 198.018L185.18 200.594L174.869 202.034Z" fill="#E3FFD9" stroke="#9AA2AC" stroke-linejoin="round"/>
<path d="M193.495 204.61V207.862L183.167 209.37L183.167 206.055L193.495 204.61Z" fill="#E3FFD9" stroke="#9AA2AC" stroke-linejoin="round"/>
<path d="M183.168 209.366L178.44 206.81L178.44 203.474L183.168 206.033V209.366Z" fill="#E3FFD9" stroke="#9AA2AC" stroke-linejoin="round"/>
<path d="M183.191 206.049L178.44 203.477L188.769 202.033L193.502 204.61L183.191 206.049Z" fill="#E3FFD9" stroke="#9AA2AC" stroke-linejoin="round"/>
<path d="M157.761 199.544V202.796L147.432 204.303L147.432 200.988L157.761 199.544Z" fill="#E3FFD9" stroke="#9AA2AC" stroke-linejoin="round"/>
<path d="M147.433 204.3L142.705 201.744L142.705 198.408L147.433 200.967V204.3Z" fill="#E3FFD9" stroke="#9AA2AC" stroke-linejoin="round"/>
<path d="M147.456 200.983L142.706 198.41L153.034 196.967L157.767 199.543L147.456 200.983Z" fill="#E3FFD9" stroke="#9AA2AC" stroke-linejoin="round"/>
<path d="M138.367 202.469V205.721L128.039 207.228L128.039 203.913L138.367 202.469Z" fill="#E3FFD9" stroke="#9AA2AC" stroke-linejoin="round"/>
<path d="M128.04 207.225L123.312 204.669L123.312 201.333L128.04 203.892V207.225Z" fill="#E3FFD9" stroke="#9AA2AC" stroke-linejoin="round"/>
<path d="M128.063 203.907L123.312 201.335L133.641 199.891L138.374 202.468L128.063 203.907Z" fill="#E3FFD9" stroke="#9AA2AC" stroke-linejoin="round"/>
<path d="M166.124 203.559V206.811L155.796 208.318L155.795 205.003L166.124 203.559Z" fill="#E3FFD9" stroke="#9AA2AC" stroke-linejoin="round"/>
<path d="M155.797 208.315L151.069 205.759L151.069 202.423L155.797 204.982V208.315Z" fill="#E3FFD9" stroke="#9AA2AC" stroke-linejoin="round"/>
<path d="M155.82 204.998L151.069 202.425L161.398 200.982L166.13 203.558L155.82 204.998Z" fill="#E3FFD9" stroke="#9AA2AC" stroke-linejoin="round"/>
<path d="M146.731 206.486V209.738L136.402 211.246L136.402 207.931L146.731 206.486Z" fill="#E3FFD9" stroke="#9AA2AC" stroke-linejoin="round"/>
<path d="M136.404 211.242L131.676 208.686L131.676 205.35L136.404 207.909V211.242Z" fill="#E3FFD9" stroke="#9AA2AC" stroke-linejoin="round"/>
<path d="M136.426 207.925L131.676 205.352L142.005 203.909L146.737 206.485L136.426 207.925Z" fill="#E3FFD9" stroke="#9AA2AC" stroke-linejoin="round"/>
<path d="M174.446 207.576V210.828L164.117 212.336L164.117 209.021L174.446 207.576Z" fill="#E3FFD9" stroke="#9AA2AC" stroke-linejoin="round"/>
<path d="M164.119 212.332L159.391 209.776L159.391 206.44L164.119 208.999V212.332Z" fill="#E3FFD9" stroke="#9AA2AC" stroke-linejoin="round"/>
<path d="M164.141 209.015L159.391 206.443L169.72 204.999L174.452 207.576L164.141 209.015Z" fill="#E3FFD9" stroke="#9AA2AC" stroke-linejoin="round"/>
<path d="M155.053 210.501V213.753L144.724 215.261L144.724 211.946L155.053 210.501Z" fill="#E3FFD9" stroke="#9AA2AC" stroke-linejoin="round"/>
<path d="M144.726 215.257L139.998 212.701L139.998 209.365L144.726 211.924V215.257Z" fill="#E3FFD9" stroke="#9AA2AC" stroke-linejoin="round"/>
<path d="M144.748 211.94L139.998 209.368L150.327 207.924L155.059 210.501L144.748 211.94Z" fill="#E3FFD9" stroke="#9AA2AC" stroke-linejoin="round"/>
<path d="M175.115 168.869L174.94 184.291L68.1167 199.27L68.2914 183.857L175.115 168.869Z" fill="#F3F5F7" stroke="#9AA2AC" stroke-linejoin="round"/>
<path d="M68.1127 199.269L1 162.836L1.17466 147.415L68.2874 183.857L68.1127 199.269Z" fill="#F3F5F7" stroke="#9AA2AC" stroke-linejoin="round"/>
<path d="M68.2885 183.857L1.17578 147.414L107.999 132.436L175.112 168.869L68.2885 183.857Z" fill="#F3F5F7" stroke="#9AA2AC" stroke-linejoin="round"/>
<path d="M156.472 100.089L156.456 163.604L69.7305 175.729L69.747 112.215L156.472 100.089Z" fill="#EFF2FF" stroke="#9AA2AC" stroke-linejoin="round"/>
<path d="M139.685 114.465C142.092 114.128 144.24 115.997 144.239 118.427L144.23 148.839C144.229 151.831 142.024 154.365 139.061 154.779L86.5181 162.125C84.1117 162.462 81.9635 160.593 81.9642 158.163L81.9732 127.751C81.9741 124.759 84.1792 122.225 87.1424 121.811L139.685 114.465Z" fill="#F9FAFB" stroke="#9AA2AC" stroke-linejoin="round"/>
<path d="M69.7308 175.729L13.9985 145.568L14.0151 100.473L41.7941 97.0616L69.7474 112.214L69.7308 175.729Z" fill="#EFF2FF" stroke="#9AA2AC" stroke-linejoin="round"/>
<path d="M69.7481 112.211L41.7745 97.0537L128.612 85L156.473 100.085L69.7481 112.211Z" fill="#EFF2FF" stroke="#9AA2AC" stroke-linejoin="round"/>
</svg>
