<svg width="790" height="494" viewBox="0 0 790 494" fill="none" xmlns="http://www.w3.org/2000/svg">
<path d="M593.616 331.269L241.875 141.484C238.894 139.875 235.479 139.254 232.122 139.711L187.201 145.819L173.198 136.051L232.021 127.918C235.192 127.61 240.254 126.581 246.794 130.158L603.917 322.531L593.616 331.269Z" fill="#F3F5F7"/>
<path d="M241.875 141.484L242.112 141.044L242.112 141.044L241.875 141.484ZM593.616 331.269L593.378 331.709L593.679 331.871L593.939 331.65L593.616 331.269ZM603.917 322.531L604.24 322.913L604.799 322.439L604.154 322.091L603.917 322.531ZM246.794 130.158L246.554 130.597L246.557 130.598L246.794 130.158ZM232.122 139.711L232.054 139.216L232.054 139.216L232.122 139.711ZM187.201 145.819L186.915 146.229L187.075 146.341L187.268 146.315L187.201 145.819ZM173.198 136.051L173.129 135.556L171.864 135.731L172.912 136.462L173.198 136.051ZM232.021 127.918L231.972 127.421L231.962 127.422L231.952 127.423L232.021 127.918ZM242.112 141.044C241.858 140.907 241.6 140.776 241.34 140.653L240.912 141.557C241.156 141.672 241.398 141.795 241.638 141.924L242.112 141.044ZM239.738 139.995C239.192 139.803 238.638 139.641 238.076 139.508L237.846 140.481C238.373 140.606 238.894 140.759 239.407 140.938L239.738 139.995ZM236.373 139.199C235.801 139.125 235.224 139.082 234.646 139.069L234.624 140.069C235.167 140.081 235.708 140.122 236.246 140.191L236.373 139.199ZM232.915 139.121C232.628 139.145 232.341 139.177 232.054 139.216L232.189 140.206C232.458 140.17 232.728 140.14 232.998 140.118L232.915 139.121ZM232.054 139.216L231.033 139.354L231.168 140.345L232.189 140.206L232.054 139.216ZM228.991 139.632L226.95 139.91L227.084 140.901L229.126 140.623L228.991 139.632ZM224.908 140.187L222.866 140.465L223.001 141.456L225.043 141.178L224.908 140.187ZM220.824 140.743L218.782 141.02L218.917 142.011L220.959 141.733L220.824 140.743ZM216.74 141.298L214.699 141.576L214.833 142.566L216.875 142.289L216.74 141.298ZM212.657 141.853L210.615 142.131L210.75 143.122L212.791 142.844L212.657 141.853ZM208.573 142.408L206.531 142.686L206.666 143.677L208.708 143.399L208.573 142.408ZM204.489 142.964L202.447 143.241L202.582 144.232L204.624 143.955L204.489 142.964ZM200.406 143.519L198.364 143.797L198.498 144.788L200.54 144.51L200.406 143.519ZM196.322 144.074L194.28 144.352L194.415 145.343L196.457 145.065L196.322 144.074ZM192.238 144.63L190.196 144.907L190.331 145.898L192.373 145.621L192.238 144.63ZM188.154 145.185L187.133 145.324L187.268 146.315L188.289 146.176L188.154 145.185ZM187.487 145.409L186.612 144.799L186.04 145.619L186.915 146.229L187.487 145.409ZM184.861 143.578L183.111 142.357L182.539 143.177L184.289 144.398L184.861 143.578ZM181.361 141.136L179.61 139.915L179.038 140.735L180.788 141.956L181.361 141.136ZM177.86 138.694L176.109 137.473L175.537 138.293L177.288 139.514L177.86 138.694ZM174.359 136.252L173.484 135.641L172.912 136.462L173.787 137.072L174.359 136.252ZM173.266 136.547L174.247 136.411L174.11 135.421L173.129 135.556L173.266 136.547ZM176.207 136.14L178.168 135.869L178.031 134.878L176.07 135.149L176.207 136.14ZM180.129 135.598L182.09 135.327L181.953 134.336L179.992 134.607L180.129 135.598ZM184.05 135.056L186.011 134.785L185.874 133.794L183.914 134.065L184.05 135.056ZM187.972 134.513L189.933 134.242L189.796 133.252L187.835 133.523L187.972 134.513ZM191.894 133.971L193.854 133.7L193.717 132.71L191.757 132.981L191.894 133.971ZM195.815 133.429L197.776 133.158L197.639 132.167L195.678 132.438L195.815 133.429ZM199.737 132.887L201.697 132.616L201.56 131.625L199.6 131.896L199.737 132.887ZM203.658 132.345L205.619 132.074L205.482 131.083L203.521 131.354L203.658 132.345ZM207.58 131.802L209.541 131.531L209.404 130.541L207.443 130.812L207.58 131.802ZM211.501 131.26L213.462 130.989L213.325 129.999L211.364 130.27L211.501 131.26ZM215.423 130.718L217.384 130.447L217.247 129.456L215.286 129.727L215.423 130.718ZM219.344 130.176L221.305 129.905L221.168 128.914L219.207 129.185L219.344 130.176ZM223.266 129.634L225.227 129.363L225.09 128.372L223.129 128.643L223.266 129.634ZM227.187 129.091L229.148 128.82L229.011 127.83L227.051 128.101L227.187 129.091ZM231.109 128.549L232.089 128.414L231.952 127.423L230.972 127.559L231.109 128.549ZM232.069 128.416C232.373 128.387 232.692 128.351 233.024 128.313L232.912 127.319C232.579 127.357 232.267 127.392 231.972 127.421L232.069 128.416ZM234.902 128.124C235.49 128.078 236.112 128.046 236.769 128.043L236.764 127.043C236.078 127.046 235.43 127.08 234.823 127.127L234.902 128.124ZM238.626 128.118C239.216 128.17 239.829 128.251 240.464 128.37L240.649 127.387C239.979 127.262 239.334 127.176 238.713 127.122L238.626 128.118ZM242.267 128.802C242.837 128.968 243.423 129.168 244.025 129.405L244.392 128.475C243.762 128.226 243.146 128.017 242.547 127.842L242.267 128.802ZM245.725 130.164C245.999 130.3 246.275 130.444 246.554 130.597L247.034 129.719C246.743 129.56 246.455 129.41 246.17 129.268L245.725 130.164ZM246.557 130.598L247.441 131.074L247.915 130.194L247.031 129.718L246.557 130.598ZM249.209 132.027L250.977 132.979L251.451 132.099L249.683 131.146L249.209 132.027ZM252.745 133.931L254.513 134.884L254.987 134.003L253.219 133.051L252.745 133.931ZM256.281 135.836L258.049 136.788L258.523 135.908L256.755 134.956L256.281 135.836ZM259.817 137.741L261.584 138.693L262.059 137.813L260.291 136.86L259.817 137.741ZM263.352 139.645L265.12 140.598L265.595 139.717L263.827 138.765L263.352 139.645ZM266.888 141.55L268.656 142.502L269.13 141.622L267.363 140.67L266.888 141.55ZM270.424 143.455L272.192 144.407L272.666 143.527L270.898 142.574L270.424 143.455ZM273.96 145.36L275.728 146.312L276.202 145.431L274.434 144.479L273.96 145.36ZM277.496 147.264L279.264 148.217L279.738 147.336L277.97 146.384L277.496 147.264ZM281.032 149.169L282.8 150.121L283.274 149.241L281.506 148.288L281.032 149.169ZM284.568 151.074L286.336 152.026L286.81 151.146L285.042 150.193L284.568 151.074ZM288.103 152.978L289.871 153.931L290.346 153.05L288.578 152.098L288.103 152.978ZM291.639 154.883L293.407 155.835L293.882 154.955L292.114 154.003L291.639 154.883ZM295.175 156.788L296.943 157.74L297.417 156.86L295.649 155.907L295.175 156.788ZM298.711 158.692L300.479 159.645L300.953 158.764L299.185 157.812L298.711 158.692ZM302.247 160.597L304.015 161.549L304.489 160.669L302.721 159.717L302.247 160.597ZM305.783 162.502L307.551 163.454L308.025 162.574L306.257 161.621L305.783 162.502ZM309.319 164.406L311.087 165.359L311.561 164.478L309.793 163.526L309.319 164.406ZM312.855 166.311L314.622 167.263L315.097 166.383L313.329 165.431L312.855 166.311ZM316.39 168.216L318.158 169.168L318.633 168.288L316.865 167.335L316.39 168.216ZM319.926 170.12L321.694 171.073L322.168 170.192L320.401 169.24L319.926 170.12ZM323.462 172.025L325.23 172.977L325.704 172.097L323.936 171.145L323.462 172.025ZM326.998 173.93L328.766 174.882L329.24 174.002L327.472 173.049L326.998 173.93ZM330.534 175.834L332.302 176.787L332.776 175.906L331.008 174.954L330.534 175.834ZM334.07 177.739L335.838 178.692L336.312 177.811L334.544 176.859L334.07 177.739ZM337.606 179.644L339.374 180.596L339.848 179.716L338.08 178.763L337.606 179.644ZM341.141 181.549L342.909 182.501L343.384 181.62L341.616 180.668L341.141 181.549ZM344.677 183.453L346.445 184.406L346.919 183.525L345.152 182.573L344.677 183.453ZM348.213 185.358L349.981 186.31L350.455 185.43L348.687 184.478L348.213 185.358ZM351.749 187.263L353.517 188.215L353.991 187.335L352.223 186.382L351.749 187.263ZM355.285 189.167L357.053 190.12L357.527 189.239L355.759 188.287L355.285 189.167ZM358.821 191.072L360.589 192.024L361.063 191.144L359.295 190.192L358.821 191.072ZM362.357 192.977L364.125 193.929L364.599 193.049L362.831 192.096L362.357 192.977ZM365.892 194.881L367.66 195.834L368.135 194.953L366.367 194.001L365.892 194.881ZM369.428 196.786L371.196 197.738L371.671 196.858L369.903 195.906L369.428 196.786ZM372.964 198.691L374.732 199.643L375.206 198.763L373.438 197.81L372.964 198.691ZM376.5 200.595L378.268 201.548L378.742 200.667L376.974 199.715L376.5 200.595ZM380.036 202.5L381.804 203.452L382.278 202.572L380.51 201.62L380.036 202.5ZM383.572 204.405L385.34 205.357L385.814 204.477L384.046 203.524L383.572 204.405ZM387.108 206.309L388.876 207.262L389.35 206.381L387.582 205.429L387.108 206.309ZM390.644 208.214L392.411 209.166L392.886 208.286L391.118 207.334L390.644 208.214ZM394.179 210.119L395.947 211.071L396.422 210.191L394.654 209.238L394.179 210.119ZM397.715 212.024L399.483 212.976L399.957 212.095L398.189 211.143L397.715 212.024ZM401.251 213.928L403.019 214.881L403.493 214L401.725 213.048L401.251 213.928ZM404.787 215.833L406.555 216.785L407.029 215.905L405.261 214.952L404.787 215.833ZM408.323 217.738L410.091 218.69L410.565 217.81L408.797 216.857L408.323 217.738ZM411.859 219.642L413.627 220.595L414.101 219.714L412.333 218.762L411.859 219.642ZM415.395 221.547L417.162 222.499L417.637 221.619L415.869 220.667L415.395 221.547ZM418.93 223.452L420.698 224.404L421.173 223.524L419.405 222.571L418.93 223.452ZM422.466 225.356L424.234 226.309L424.708 225.428L422.941 224.476L422.466 225.356ZM426.002 227.261L427.77 228.213L428.244 227.333L426.476 226.381L426.002 227.261ZM429.538 229.166L431.306 230.118L431.78 229.238L430.012 228.285L429.538 229.166ZM433.074 231.07L434.842 232.023L435.316 231.142L433.548 230.19L433.074 231.07ZM436.61 232.975L438.378 233.927L438.852 233.047L437.084 232.095L436.61 232.975ZM440.146 234.88L441.914 235.832L442.388 234.952L440.62 233.999L440.146 234.88ZM443.681 236.784L445.449 237.737L445.924 236.856L444.156 235.904L443.681 236.784ZM447.217 238.689L448.985 239.641L449.46 238.761L447.692 237.809L447.217 238.689ZM450.753 240.594L452.521 241.546L452.995 240.666L451.227 239.713L450.753 240.594ZM454.289 242.498L456.057 243.451L456.531 242.57L454.763 241.618L454.289 242.498ZM457.825 244.403L459.593 245.355L460.067 244.475L458.299 243.523L457.825 244.403ZM461.361 246.308L463.129 247.26L463.603 246.38L461.835 245.427L461.361 246.308ZM464.897 248.213L466.665 249.165L467.139 248.284L465.371 247.332L464.897 248.213ZM468.432 250.117L470.2 251.07L470.675 250.189L468.907 249.237L468.432 250.117ZM471.968 252.022L473.736 252.974L474.211 252.094L472.443 251.141L471.968 252.022ZM475.504 253.927L477.272 254.879L477.746 253.999L475.978 253.046L475.504 253.927ZM479.04 255.831L480.808 256.784L481.282 255.903L479.514 254.951L479.04 255.831ZM482.576 257.736L484.344 258.688L484.818 257.808L483.05 256.856L482.576 257.736ZM486.112 259.641L487.88 260.593L488.354 259.713L486.586 258.76L486.112 259.641ZM489.648 261.545L491.416 262.498L491.89 261.617L490.122 260.665L489.648 261.545ZM493.184 263.45L494.951 264.402L495.426 263.522L493.658 262.57L493.184 263.45ZM496.719 265.355L498.487 266.307L498.962 265.427L497.194 264.474L496.719 265.355ZM500.255 267.259L502.023 268.212L502.497 267.331L500.73 266.379L500.255 267.259ZM503.791 269.164L505.559 270.116L506.033 269.236L504.265 268.284L503.791 269.164ZM507.327 271.069L509.095 272.021L509.569 271.141L507.801 270.188L507.327 271.069ZM510.863 272.973L512.631 273.926L513.105 273.045L511.337 272.093L510.863 272.973ZM514.399 274.878L516.167 275.83L516.641 274.95L514.873 273.998L514.399 274.878ZM517.935 276.783L519.702 277.735L520.177 276.855L518.409 275.902L517.935 276.783ZM521.47 278.687L523.238 279.64L523.713 278.759L521.945 277.807L521.47 278.687ZM525.006 280.592L526.774 281.545L527.248 280.664L525.481 279.712L525.006 280.592ZM528.542 282.497L530.31 283.449L530.784 282.569L529.016 281.616L528.542 282.497ZM532.078 284.402L533.846 285.354L534.32 284.473L532.552 283.521L532.078 284.402ZM535.614 286.306L537.382 287.259L537.856 286.378L536.088 285.426L535.614 286.306ZM539.15 288.211L540.918 289.163L541.392 288.283L539.624 287.331L539.15 288.211ZM542.686 290.116L544.454 291.068L544.928 290.188L543.16 289.235L542.686 290.116ZM546.221 292.02L547.989 292.973L548.464 292.092L546.696 291.14L546.221 292.02ZM549.757 293.925L551.525 294.877L552 293.997L550.232 293.045L549.757 293.925ZM553.293 295.83L555.061 296.782L555.535 295.902L553.767 294.949L553.293 295.83ZM556.829 297.734L558.597 298.687L559.071 297.806L557.303 296.854L556.829 297.734ZM560.365 299.639L562.133 300.591L562.607 299.711L560.839 298.759L560.365 299.639ZM563.901 301.544L565.669 302.496L566.143 301.616L564.375 300.663L563.901 301.544ZM567.437 303.448L569.205 304.401L569.679 303.52L567.911 302.568L567.437 303.448ZM570.973 305.353L572.74 306.305L573.215 305.425L571.447 304.473L570.973 305.353ZM574.508 307.258L576.276 308.21L576.751 307.33L574.983 306.377L574.508 307.258ZM578.044 309.162L579.812 310.115L580.286 309.234L578.518 308.282L578.044 309.162ZM581.58 311.067L583.348 312.019L583.822 311.139L582.054 310.187L581.58 311.067ZM585.116 312.972L586.884 313.924L587.358 313.044L585.59 312.091L585.116 312.972ZM588.652 314.876L590.42 315.829L590.894 314.948L589.126 313.996L588.652 314.876ZM592.188 316.781L593.956 317.734L594.43 316.853L592.662 315.901L592.188 316.781ZM595.724 318.686L597.491 319.638L597.966 318.758L596.198 317.805L595.724 318.686ZM599.259 320.591L601.027 321.543L601.502 320.662L599.734 319.71L599.259 320.591ZM602.795 322.495L603.68 322.972L604.154 322.091L603.27 321.615L602.795 322.495ZM603.593 322.15L602.735 322.878L603.382 323.641L604.24 322.913L603.593 322.15ZM601.018 324.335L599.301 325.791L599.948 326.553L601.665 325.097L601.018 324.335ZM597.584 327.247L595.867 328.703L596.514 329.466L598.231 328.01L597.584 327.247ZM594.151 330.16L593.292 330.888L593.939 331.65L594.797 330.922L594.151 330.16ZM593.853 330.829L592.974 330.354L592.499 331.235L593.378 331.709L593.853 330.829ZM591.215 329.406L589.456 328.457L588.981 329.337L590.74 330.286L591.215 329.406ZM587.697 327.508L585.939 326.559L585.464 327.439L587.223 328.388L587.697 327.508ZM584.18 325.61L582.421 324.661L581.947 325.541L583.705 326.49L584.18 325.61ZM580.663 323.712L578.904 322.763L578.429 323.643L580.188 324.592L580.663 323.712ZM577.145 321.814L575.387 320.865L574.912 321.745L576.67 322.694L577.145 321.814ZM573.628 319.916L571.869 318.967L571.394 319.847L573.153 320.796L573.628 319.916ZM570.11 318.018L568.352 317.07L567.877 317.95L569.636 318.899L570.11 318.018ZM566.593 316.121L564.834 315.172L564.359 316.052L566.118 317.001L566.593 316.121ZM563.076 314.223L561.317 313.274L560.842 314.154L562.601 315.103L563.076 314.223ZM559.558 312.325L557.8 311.376L557.325 312.256L559.083 313.205L559.558 312.325ZM556.041 310.427L554.282 309.478L553.807 310.358L555.566 311.307L556.041 310.427ZM552.523 308.529L550.765 307.58L550.29 308.46L552.049 309.409L552.523 308.529ZM549.006 306.631L547.247 305.682L546.772 306.563L548.531 307.511L549.006 306.631ZM545.489 304.734L543.73 303.785L543.255 304.665L545.014 305.614L545.489 304.734ZM541.971 302.836L540.213 301.887L539.738 302.767L541.496 303.716L541.971 302.836ZM538.454 300.938L536.695 299.989L536.22 300.869L537.979 301.818L538.454 300.938ZM534.936 299.04L533.178 298.091L532.703 298.971L534.462 299.92L534.936 299.04ZM531.419 297.142L529.66 296.193L529.185 297.073L530.944 298.022L531.419 297.142ZM527.902 295.244L526.143 294.295L525.668 295.175L527.427 296.124L527.902 295.244ZM524.384 293.346L522.625 292.397L522.151 293.278L523.909 294.226L524.384 293.346ZM520.867 291.449L519.108 290.5L518.633 291.38L520.392 292.329L520.867 291.449ZM517.349 289.551L515.591 288.602L515.116 289.482L516.875 290.431L517.349 289.551ZM513.832 287.653L512.073 286.704L511.598 287.584L513.357 288.533L513.832 287.653ZM510.315 285.755L508.556 284.806L508.081 285.686L509.84 286.635L510.315 285.755ZM506.797 283.857L505.038 282.908L504.564 283.788L506.322 284.737L506.797 283.857ZM503.28 281.959L501.521 281.01L501.046 281.89L502.805 282.839L503.28 281.959ZM499.762 280.061L498.004 279.113L497.529 279.993L499.287 280.942L499.762 280.061ZM496.245 278.164L494.486 277.215L494.011 278.095L495.77 279.044L496.245 278.164ZM492.728 276.266L490.969 275.317L490.494 276.197L492.253 277.146L492.728 276.266ZM489.21 274.368L487.451 273.419L486.977 274.299L488.735 275.248L489.21 274.368ZM485.693 272.47L483.934 271.521L483.459 272.401L485.218 273.35L485.693 272.47ZM482.175 270.572L480.417 269.623L479.942 270.503L481.7 271.452L482.175 270.572ZM478.658 268.674L476.899 267.725L476.424 268.605L478.183 269.554L478.658 268.674ZM475.14 266.776L473.382 265.828L472.907 266.708L474.666 267.657L475.14 266.776ZM471.623 264.879L469.864 263.93L469.39 264.81L471.148 265.759L471.623 264.879ZM468.106 262.981L466.347 262.032L465.872 262.912L467.631 263.861L468.106 262.981ZM464.588 261.083L462.83 260.134L462.355 261.014L464.113 261.963L464.588 261.083ZM461.071 259.185L459.312 258.236L458.837 259.116L460.596 260.065L461.071 259.185ZM457.554 257.287L455.795 256.338L455.32 257.218L457.079 258.167L457.554 257.287ZM454.036 255.389L452.277 254.44L451.803 255.321L453.561 256.269L454.036 255.389ZM450.519 253.492L448.76 252.543L448.285 253.423L450.044 254.372L450.519 253.492ZM447.001 251.594L445.243 250.645L444.768 251.525L446.526 252.474L447.001 251.594ZM443.484 249.696L441.725 248.747L441.25 249.627L443.009 250.576L443.484 249.696ZM439.967 247.798L438.208 246.849L437.733 247.729L439.492 248.678L439.967 247.798ZM436.449 245.9L434.69 244.951L434.216 245.831L435.974 246.78L436.449 245.9ZM432.932 244.002L431.173 243.053L430.698 243.933L432.457 244.882L432.932 244.002ZM429.414 242.104L427.656 241.156L427.181 242.036L428.94 242.985L429.414 242.104ZM425.897 240.207L424.138 239.258L423.663 240.138L425.422 241.087L425.897 240.207ZM422.38 238.309L420.621 237.36L420.146 238.24L421.905 239.189L422.38 238.309ZM418.862 236.411L417.103 235.462L416.629 236.342L418.387 237.291L418.862 236.411ZM415.345 234.513L413.586 233.564L413.111 234.444L414.87 235.393L415.345 234.513ZM411.827 232.615L410.069 231.666L409.594 232.546L411.353 233.495L411.827 232.615ZM408.31 230.717L406.551 229.769L406.076 230.649L407.835 231.597L408.31 230.717ZM404.793 228.82L403.034 227.871L402.559 228.751L404.318 229.7L404.793 228.82ZM401.275 226.922L399.516 225.973L399.042 226.853L400.8 227.802L401.275 226.922ZM397.758 225.024L395.999 224.075L395.524 224.955L397.283 225.904L397.758 225.024ZM394.24 223.126L392.482 222.177L392.007 223.057L393.766 224.006L394.24 223.126ZM390.723 221.228L388.964 220.279L388.489 221.159L390.248 222.108L390.723 221.228ZM387.206 219.33L385.447 218.381L384.972 219.261L386.731 220.21L387.206 219.33ZM383.688 217.432L381.929 216.484L381.455 217.364L383.213 218.313L383.688 217.432ZM380.171 215.535L378.412 214.586L377.937 215.466L379.696 216.415L380.171 215.535ZM376.653 213.637L374.895 212.688L374.42 213.568L376.179 214.517L376.653 213.637ZM373.136 211.739L371.377 210.79L370.902 211.67L372.661 212.619L373.136 211.739ZM369.619 209.841L367.86 208.892L367.385 209.772L369.144 210.721L369.619 209.841ZM366.101 207.943L364.343 206.994L363.868 207.874L365.626 208.823L366.101 207.943ZM362.584 206.045L360.825 205.096L360.35 205.977L362.109 206.925L362.584 206.045ZM359.066 204.148L357.308 203.199L356.833 204.079L358.592 205.028L359.066 204.148ZM355.549 202.25L353.79 201.301L353.315 202.181L355.074 203.13L355.549 202.25ZM352.032 200.352L350.273 199.403L349.798 200.283L351.557 201.232L352.032 200.352ZM348.514 198.454L346.755 197.505L346.281 198.385L348.039 199.334L348.514 198.454ZM344.997 196.556L343.238 195.607L342.763 196.487L344.522 197.436L344.997 196.556ZM341.479 194.658L339.721 193.709L339.246 194.589L341.004 195.538L341.479 194.658ZM337.962 192.76L336.203 191.811L335.728 192.692L337.487 193.64L337.962 192.76ZM334.444 190.863L332.686 189.914L332.211 190.794L333.97 191.743L334.444 190.863ZM330.927 188.965L329.168 188.016L328.693 188.896L330.452 189.845L330.927 188.965ZM327.41 187.067L325.651 186.118L325.176 186.998L326.935 187.947L327.41 187.067ZM323.892 185.169L322.133 184.22L321.659 185.1L323.417 186.049L323.892 185.169ZM320.375 183.271L318.616 182.322L318.141 183.202L319.9 184.151L320.375 183.271ZM316.857 181.373L315.099 180.424L314.624 181.304L316.382 182.253L316.857 181.373ZM313.34 179.475L311.581 178.526L311.106 179.407L312.865 180.355L313.34 179.475ZM309.822 177.578L308.064 176.629L307.589 177.509L309.348 178.458L309.822 177.578ZM306.305 175.68L304.546 174.731L304.071 175.611L305.83 176.56L306.305 175.68ZM302.788 173.782L301.029 172.833L300.554 173.713L302.313 174.662L302.788 173.782ZM299.27 171.884L297.511 170.935L297.037 171.815L298.795 172.764L299.27 171.884ZM295.753 169.986L293.994 169.037L293.519 169.917L295.278 170.866L295.753 169.986ZM292.235 168.088L290.477 167.139L290.002 168.019L291.761 168.968L292.235 168.088ZM288.718 166.19L286.959 165.241L286.484 166.121L288.243 167.07L288.718 166.19ZM285.201 164.292L283.442 163.344L282.967 164.224L284.726 165.173L285.201 164.292ZM281.683 162.395L279.924 161.446L279.45 162.326L281.208 163.275L281.683 162.395ZM278.166 160.497L276.407 159.548L275.932 160.428L277.691 161.377L278.166 160.497ZM274.648 158.599L272.89 157.65L272.415 158.53L274.173 159.479L274.648 158.599ZM271.131 156.701L269.372 155.752L268.897 156.632L270.656 157.581L271.131 156.701ZM267.613 154.803L265.855 153.854L265.38 154.734L267.139 155.683L267.613 154.803ZM264.096 152.905L262.337 151.956L261.862 152.836L263.621 153.785L264.096 152.905ZM260.579 151.007L258.82 150.059L258.345 150.939L260.104 151.888L260.579 151.007ZM257.061 149.11L255.302 148.161L254.828 149.041L256.586 149.99L257.061 149.11ZM253.544 147.212L251.785 146.263L251.31 147.143L253.069 148.092L253.544 147.212ZM250.026 145.314L248.268 144.365L247.793 145.245L249.551 146.194L250.026 145.314ZM246.509 143.416L244.75 142.467L244.275 143.347L246.034 144.296L246.509 143.416ZM242.991 141.518L242.112 141.044L241.638 141.924L242.517 142.398L242.991 141.518Z" fill="#9AA2AC"/>
<path d="M788.116 357.915L787.904 372.067L658.12 390.316L658.332 376.175L788.116 357.915Z" fill="#EFF2FF" stroke="#9AA2AC" stroke-linejoin="round"/>
<path d="M658.12 390.319L576.582 345.932L576.794 331.779L658.332 376.178L658.12 390.319Z" fill="#EFF2FF" stroke="#9AA2AC" stroke-linejoin="round"/>
<path d="M658.333 376.175L576.795 331.777L706.579 313.528L788.116 357.915L658.333 376.175Z" fill="#EFF2FF" stroke="#9AA2AC" stroke-linejoin="round"/>
<path d="M789 320.68L788.788 349.017L659.004 367.266L659.217 338.94L789 320.68Z" fill="#F9FAFB" stroke="#9AA2AC" stroke-linejoin="round"/>
<path d="M659.004 367.268L577.466 322.881L577.679 294.544L659.216 338.943L659.004 367.268Z" fill="#F9FAFB" stroke="#9AA2AC" stroke-linejoin="round"/>
<path d="M659.216 338.94L577.678 294.542L707.462 276.293L789 320.68L659.216 338.94Z" fill="#F9FAFB" stroke="#9AA2AC" stroke-linejoin="round"/>
<path d="M623.1 285.438L687.388 276.64V207.926L623.1 216.733V285.438Z" fill="#F9FAFB" stroke="#9AA2AC" stroke-linejoin="round"/>
<path d="M620.506 214.041L623.118 215.696L687.361 206.799L684.681 204.904L620.506 214.041Z" fill="#F9FAFB" stroke="#9AA2AC" stroke-linejoin="round"/>
<path d="M623.096 215.751L620.502 214.05V282.76L623.096 284.141L623.096 215.751Z" fill="#F9FAFB" stroke="#9AA2AC" stroke-linejoin="round"/>
<path d="M709.8 270.273L763.102 299.226V230.512L709.942 201.548L709.8 270.273Z" fill="#FFFB9E" stroke="#9AA2AC" stroke-linejoin="round"/>
<path d="M712.421 200.455L709.938 201.803L763.074 230.661L765.684 229.394L712.421 200.455Z" fill="#FFFB9E" stroke="#9AA2AC" stroke-linejoin="round"/>
<path d="M765.709 229.399L763.11 230.642L763.11 299.226L765.709 298.678V229.399Z" fill="#FFFB9E" stroke="#9AA2AC" stroke-linejoin="round"/>
<path d="M700.684 187.038L700.489 284.708L607.239 297.639L607.238 200.15L700.684 187.038Z" fill="#F3F5F7" fill-opacity="0.64" stroke="#DDE0E3" stroke-linejoin="round"/>
<path d="M662.949 328.081L607.431 297.851L701.013 284.74L756.53 314.96L662.949 328.081Z" fill="#F3F5F7" stroke="#9AA2AC" stroke-linejoin="round"/>
<path d="M700.693 284.708L756.527 314.809V217.154L700.888 187.038L700.693 284.708Z" fill="#F3F5F7" fill-opacity="0.64" stroke="#9AA2AC" stroke-linejoin="round"/>
<path d="M607.241 297.815L663.075 327.915V230.26L607.436 200.144L607.241 297.815Z" fill="#F0F7C8" fill-opacity="0.64" stroke="#9AA2AC" stroke-linejoin="round"/>
<path d="M662.952 230.378L607.434 200.148L701.016 187.038L756.534 217.258L662.952 230.378Z" fill="#F3F5F7" fill-opacity="0.64" stroke="#9AA2AC" stroke-linejoin="round"/>
<path d="M775.284 211.75L775.101 216.582L663.209 232.221L663.211 227.519L775.284 211.75Z" fill="#FFFB9E" stroke="#9AA2AC" stroke-linejoin="round"/>
<path d="M663.213 232.275L592.619 193.995L592.802 189.164L663.213 227.504V232.275Z" fill="#FFFB9E" stroke="#9AA2AC" stroke-linejoin="round"/>
<path d="M663.216 227.508L592.805 189.168L704.878 173.409L775.29 211.739L663.216 227.508Z" fill="#FFFB9E" stroke="#9AA2AC" stroke-linejoin="round"/>
<path d="M755.411 198.891L755.26 209.048L663.203 221.981L663.204 211.864L755.411 198.891Z" fill="#F9FAFB" stroke="#9AA2AC" stroke-linejoin="round"/>
<path d="M663.206 221.983L605.125 190.479L605.276 180.323L663.206 211.866V221.983Z" fill="#F9FAFB" stroke="#9AA2AC" stroke-linejoin="round"/>
<path d="M663.209 211.862L605.279 180.318L697.486 167.353L755.416 198.888L663.209 211.862Z" fill="#F9FAFB" stroke="#9AA2AC" stroke-linejoin="round"/>
<path d="M775.284 194.136L775.101 198.968L663.209 214.607L663.211 209.905L775.284 194.136Z" fill="#FFFB9E" stroke="#9AA2AC" stroke-linejoin="round"/>
<path d="M663.213 214.661L592.619 176.381L592.802 171.55L663.213 209.889V214.661Z" fill="#FFFB9E" stroke="#9AA2AC" stroke-linejoin="round"/>
<path d="M663.216 209.894L592.805 171.554L704.878 155.795L775.29 194.125L663.216 209.894Z" fill="#FFFB9E" stroke="#9AA2AC" stroke-linejoin="round"/>
<path d="M594.485 278.085L647.788 307.037V238.323L594.628 209.359L594.485 278.085Z" fill="#FFFB9E" stroke="#9AA2AC" stroke-linejoin="round"/>
<path d="M597.106 208.283L594.623 209.63L647.759 238.489L650.369 237.222L597.106 208.283Z" fill="#FFFB9E" stroke="#9AA2AC" stroke-linejoin="round"/>
<path d="M650.394 237.226L647.795 238.469L647.795 307.054L650.394 306.506V237.226Z" fill="#FFFB9E" stroke="#9AA2AC" stroke-linejoin="round"/>
<path d="M756.524 219.199V314.913L663.075 328.077V232.25L756.524 219.199Z" fill="#F0F7C8" fill-opacity="0.64" stroke="#9AA2AC" stroke-linejoin="round"/>
<path d="M679.123 311.553L743.41 302.755V234.041L679.123 242.848V311.553Z" fill="#FFFB9E" stroke="#9AA2AC" stroke-linejoin="round"/>
<path d="M676.53 241.455L679.141 243.11L743.384 234.212L740.704 232.317L676.53 241.455Z" fill="#FFFB9E" stroke="#9AA2AC" stroke-linejoin="round"/>
<path d="M679.12 243.165L676.525 241.464V310.174L679.12 311.555L679.12 243.165Z" fill="#FFFB9E" stroke="#9AA2AC" stroke-linejoin="round"/>
<path d="M720.23 286.797L712.009 282.302L718.631 274.201L726.849 278.696L720.23 286.797Z" fill="#F9EF00" stroke="#3C4149" stroke-linecap="round" stroke-linejoin="round"/>
<path d="M726.848 278.697L718.63 274.202L718.65 261.036L726.87 265.531L726.848 278.697Z" fill="#F9EF00" stroke="#3C4149" stroke-linecap="round" stroke-linejoin="round"/>
<path d="M708.1 288.509L699.881 284.014L712.012 282.3L720.233 286.795L708.1 288.509Z" fill="#F9EF00" stroke="#3C4149" stroke-linecap="round" stroke-linejoin="round"/>
<path d="M723.117 255.571L713.928 256.869L704.658 258.18L712.877 262.674L722.147 261.364L731.338 260.066L723.117 255.571Z" fill="#F9EF00" stroke="#3C4149" stroke-linecap="round" stroke-linejoin="round"/>
<path d="M704.657 258.18L712.876 262.675L703.667 273.976L695.448 269.482L704.657 258.18Z" fill="#F9EF00" stroke="#3C4149" stroke-linecap="round" stroke-linejoin="round"/>
<path d="M731.339 260.06L731.307 280.064L722.071 291.367L703.633 293.972L703.651 283.888L703.669 273.97L712.878 262.669L722.147 261.359L731.339 260.06ZM720.232 286.794L726.851 278.693L726.873 265.529L714.721 267.245L708.125 275.34L708.101 288.508L720.234 286.794" fill="#F9EF00"/>
<path d="M720.232 286.794L726.851 278.693L726.873 265.529L714.721 267.245L708.125 275.34L708.101 288.508L720.234 286.794M731.339 260.06L731.307 280.064L722.071 291.367L703.633 293.972L703.651 283.888L703.669 273.97L712.878 262.669L722.147 261.359L731.339 260.06Z" stroke="#3C4149" stroke-linecap="round" stroke-linejoin="round"/>
<path d="M695.449 269.478L695.429 279.396L695.412 289.48L703.63 293.975L703.65 283.89L703.667 273.973L695.449 269.478Z" fill="#F9EF00" stroke="#3C4149" stroke-linecap="round" stroke-linejoin="round"/>
<path d="M739.94 256.393L739.939 261.315L735.072 262L735.073 257.077L739.94 256.393Z" fill="#3CBF30" stroke="#3C4149" stroke-linejoin="round"/>
<path d="M735.072 262L731.339 259.969L731.341 255.049L735.073 257.081L735.072 262Z" fill="#3CBF30" stroke="#3C4149" stroke-linejoin="round"/>
<path d="M735.057 257.071L731.341 255.049L736.234 254.362L739.949 256.385L735.057 257.071Z" fill="#3CBF30" stroke="#3C4149" stroke-linejoin="round"/>
<path d="M627.95 275.909L618.071 277.386L628.312 269.185L637.616 267.662L627.95 275.909Z" fill="#F9EF00" stroke="#3C4149" stroke-linejoin="round"/>
<path d="M611.84 239.667L628.137 248.172L628.138 269.148L618.052 277.411L602.544 269.266L602.544 247.39L611.84 239.667Z" fill="#F9EF00" stroke="#3C4149" stroke-linejoin="round"/>
<path d="M611.958 245.62L623.632 251.749V267.102L617.379 271.671L606.918 266.181V250.03L611.958 245.62Z" fill="#F9FAFB" stroke="#3C4149" stroke-linejoin="round"/>
<path d="M621.658 238.256L611.8 239.696L628.171 248.457L637.506 246.952L621.658 238.256Z" fill="#F9EF00" stroke="#3C4149" stroke-linejoin="round"/>
<path d="M628.138 248.399L637.535 247.013V267.712L628.138 269.382V248.399Z" fill="#F9EF00" stroke="#3C4149" stroke-linejoin="round"/>
<path d="M616.316 247.969V263.504L606.918 266.087V249.915L611.943 245.635L616.316 247.969Z" fill="#F9EF00" stroke="#3C4149" stroke-linejoin="round"/>
<path d="M616.919 248.252L606.907 250.105" stroke="#3C4149" stroke-linejoin="round"/>
<path d="M606.906 266.09L616.128 263.634L623.064 267.548L617.455 271.747L606.906 266.09Z" fill="#F9EF00" stroke="#3C4149" stroke-linejoin="round"/>
<path d="M633.406 248.713L633.404 254.254L627.926 255.025L627.928 249.483L633.406 248.713Z" fill="#3CBF30" stroke="#3C4149" stroke-linejoin="round"/>
<path d="M627.924 255.022L623.723 252.736L623.725 247.198L627.926 249.484L627.924 255.022Z" fill="#3CBF30" stroke="#3C4149" stroke-linejoin="round"/>
<path d="M627.908 249.477L623.725 247.2L629.233 246.427L633.415 248.704L627.908 249.477Z" fill="#3CBF30" stroke="#3C4149" stroke-linejoin="round"/>
<path d="M678.678 353.963L677.263 354.162V344.11L678.678 343.911V353.963ZM683.643 353.405C681.522 353.703 680.094 352.35 680.094 350.012C680.094 347.814 681.578 345.996 683.602 345.711C685.792 345.403 687.248 346.991 686.998 349.434L681.522 350.203C681.633 351.7 682.382 352.477 683.616 352.303C684.655 352.157 685.376 351.482 685.612 350.483L686.998 350.288C686.638 351.99 685.376 353.162 683.643 353.405ZM683.574 346.779C682.451 346.937 681.689 347.856 681.536 349.263L685.515 348.704C685.446 347.342 684.711 346.619 683.574 346.779ZM689.887 352.388L688.487 352.584V345.164L689.79 344.981V346.213C690.289 345.289 691.08 344.66 692.092 344.518C693.173 344.366 693.991 344.811 694.324 345.744C694.837 344.72 695.682 344.013 696.805 343.855C698.317 343.643 699.287 344.501 699.287 346.265V351.067L697.887 351.263V346.909C697.887 345.677 697.346 345.025 696.32 345.17C695.364 345.304 694.587 346.225 694.587 347.471V351.727L693.187 351.924V347.57C693.187 346.338 692.646 345.686 691.62 345.83C690.65 345.967 689.887 346.886 689.887 348.132V352.388ZM704.237 350.511C702.158 350.803 700.633 349.366 700.633 347.168C700.633 344.97 702.158 343.103 704.237 342.811C706.317 342.519 707.842 343.956 707.842 346.154C707.842 348.352 706.317 350.219 704.237 350.511ZM704.237 349.265C705.443 349.095 706.4 347.981 706.4 346.357C706.4 344.733 705.443 343.901 704.237 344.071C703.031 344.24 702.088 345.339 702.088 346.963C702.088 348.587 703.031 349.434 704.237 349.265ZM710.669 345.281V349.467L709.269 349.664V342.244L710.572 342.061V343.293C711.071 342.396 711.903 341.734 712.915 341.591C714.427 341.379 715.425 342.219 715.425 343.997V348.799L714.024 348.995V344.669C714.024 343.395 713.47 342.759 712.43 342.906C711.474 343.04 710.669 343.965 710.669 345.281ZM719.184 347.262C719.184 347.892 718.754 348.401 718.116 348.49C717.492 348.578 717.049 348.192 717.049 347.562C717.049 346.904 717.492 346.394 718.116 346.306C718.754 346.217 719.184 346.604 719.184 347.262ZM722.286 347.834L720.886 348.031V340.611L722.189 340.428V341.66C722.688 340.736 723.478 340.107 724.49 339.965C725.571 339.813 726.389 340.258 726.722 341.191C727.235 340.167 728.081 339.46 729.204 339.302C730.715 339.09 731.685 339.947 731.685 341.711V346.513L730.285 346.71V342.356C730.285 341.124 729.744 340.472 728.719 340.616C727.762 340.751 726.986 341.672 726.986 342.918V347.174L725.585 347.371V343.017C725.585 341.785 725.045 341.133 724.019 341.277C723.048 341.413 722.286 342.332 722.286 343.578V347.834ZM738.008 345.625V344.477C737.551 345.367 736.733 345.944 735.651 346.096C734.126 346.31 733.128 345.569 733.128 344.211C733.128 342.755 734.279 341.837 736.469 341.529C736.899 341.469 737.246 341.434 737.842 341.42V340.874C737.842 339.81 737.273 339.288 736.303 339.424C735.277 339.569 734.653 340.272 734.611 341.314L733.336 341.493C733.405 339.818 734.584 338.546 736.303 338.304C738.119 338.049 739.173 338.937 739.173 340.701V345.461L738.008 345.625ZM734.459 343.982C734.459 344.752 735.027 345.176 735.929 345.049C737.107 344.883 737.842 344.038 737.842 342.904V342.302C737.301 342.308 736.913 342.349 736.552 342.399C735.152 342.596 734.459 343.114 734.459 343.982ZM742.445 341.207V345.001L741.045 345.198V337.778L742.348 337.595V339.163C742.861 338.069 743.97 337.269 745.176 337.099V338.569C743.596 338.707 742.445 339.569 742.445 341.207ZM747.685 344.265L746.284 344.462V334.41L747.685 334.213V340.163L750.832 336.403L752.481 336.171L749.085 340.246L752.8 343.546L750.998 343.799L747.685 340.751V344.265ZM756.455 343.172C754.334 343.47 752.906 342.117 752.906 339.779C752.906 337.581 754.389 335.763 756.414 335.478C758.604 335.17 760.06 336.758 759.81 339.201L754.334 339.97C754.445 341.467 755.194 342.244 756.427 342.07C757.467 341.924 758.188 341.249 758.424 340.25L759.81 340.055C759.45 341.757 758.188 342.929 756.455 343.172ZM756.386 336.546C755.263 336.704 754.5 337.623 754.348 339.03L758.327 338.471C758.257 337.109 757.523 336.386 756.386 336.546ZM765.417 340.401V341.647C764.987 341.903 764.613 342.026 764.169 342.088C762.811 342.279 761.868 341.669 761.868 340.031V336.055L760.246 336.283V335.079L761.868 334.851V332.653L763.268 332.457V334.655L765.486 334.343V335.547L763.268 335.859V339.513C763.268 340.535 763.753 340.831 764.502 340.725C764.835 340.679 765.126 340.582 765.417 340.401ZM772.618 338.549C772.618 340.005 771.495 341.058 769.541 341.333C767.6 341.606 766.449 340.802 766.31 339.225L767.655 339.036C767.711 339.952 768.445 340.423 769.568 340.265C770.553 340.127 771.204 339.685 771.204 338.985C771.204 338.369 770.83 338.156 769.915 338.103L768.723 338.046C767.364 337.971 766.602 337.378 766.602 336.258C766.602 334.956 767.725 333.888 769.43 333.649C771.19 333.401 772.383 334.186 772.508 335.694L771.163 335.883C771.08 334.999 770.428 334.572 769.444 334.711C768.556 334.835 767.96 335.297 767.96 335.941C767.96 336.543 768.335 336.771 769.222 336.814L770.47 336.877C771.925 336.938 772.618 337.485 772.618 338.549Z" fill="#3C4149"/>
<path d="M220.71 152.106L220.734 163.781L121.784 178.638L121.76 166.971L220.71 152.106Z" fill="#EFF2FF" stroke="#9AA2AC" stroke-linejoin="round"/>
<path d="M121.785 178.632L59.2244 145.33L59.2005 133.654L121.761 166.964L121.785 178.632Z" fill="#EFF2FF" stroke="#9AA2AC" stroke-linejoin="round"/>
<path d="M121.761 166.967L59.2009 133.658L158.151 118.801L220.711 152.102L121.761 166.967Z" fill="#EFF2FF" stroke="#9AA2AC" stroke-linejoin="round"/>
<path d="M220.82 115.851L220.843 144.371L121.893 159.228L121.87 130.716L220.82 115.851Z" fill="#F9FAFB" stroke="#9AA2AC" stroke-linejoin="round"/>
<path d="M121.893 159.226L59.3321 125.924L59.3087 97.4028L121.87 130.713L121.893 159.226Z" fill="#F9FAFB" stroke="#9AA2AC" stroke-linejoin="round"/>
<path d="M121.87 130.711L59.31 97.4017L158.26 82.5452L220.82 115.846L121.87 130.711Z" fill="#F9FAFB" stroke="#9AA2AC" stroke-linejoin="round"/>
<path d="M143.971 145.68C141.198 146.07 139.049 144.09 139.049 141.122C139.049 138.168 141.198 135.598 143.971 135.208C146.466 134.857 148.463 136.257 148.837 138.682L147.215 138.91C146.938 137.325 145.634 136.36 143.985 136.592C142.016 136.869 140.63 138.674 140.63 140.9C140.63 143.154 142.016 144.569 143.985 144.292C145.634 144.06 146.938 142.715 147.215 141.052L148.837 140.824C148.463 143.369 146.466 145.329 143.971 145.68ZM154.9 140.882V136.514L156.3 136.317V143.737L154.997 143.92V142.744C154.609 143.569 153.749 144.236 152.751 144.376C151.267 144.584 150.242 143.847 150.242 141.943V137.169L151.642 136.972V141.466C151.642 142.754 152.28 143.196 153.195 143.068C154.137 142.935 154.9 142.044 154.9 140.882ZM164.067 140.434C164.067 141.89 162.944 142.943 160.99 143.218C159.049 143.491 157.898 142.687 157.759 141.11L159.104 140.921C159.16 141.837 159.894 142.308 161.017 142.15C162.002 142.012 162.653 141.57 162.653 140.87C162.653 140.254 162.279 140.041 161.364 139.987L160.172 139.931C158.813 139.856 158.051 139.263 158.051 138.143C158.051 136.841 159.173 135.773 160.879 135.534C162.639 135.286 163.832 136.071 163.956 137.579L162.612 137.768C162.529 136.884 161.877 136.457 160.893 136.596C160.005 136.72 159.409 137.182 159.409 137.826C159.409 138.428 159.783 138.656 160.671 138.699L161.919 138.762C163.374 138.823 164.067 139.37 164.067 140.434ZM169.647 140.489V141.735C169.217 141.992 168.843 142.114 168.399 142.177C167.04 142.368 166.098 141.758 166.098 140.12V136.144L164.475 136.372V135.168L166.098 134.94V132.742L167.498 132.545V134.743L169.716 134.432V135.636L167.498 135.947V139.601C167.498 140.623 167.983 140.919 168.732 140.814C169.064 140.767 169.356 140.67 169.647 140.489ZM173.927 141.4C171.847 141.692 170.322 140.254 170.322 138.056C170.322 135.858 171.847 133.992 173.927 133.7C176.007 133.408 177.532 134.845 177.532 137.043C177.532 139.241 176.007 141.108 173.927 141.4ZM173.927 140.154C175.133 139.984 176.09 138.87 176.09 137.246C176.09 135.622 175.133 134.79 173.927 134.96C172.721 135.129 171.778 136.228 171.778 137.852C171.778 139.476 172.721 140.323 173.927 140.154ZM180.359 140.356L178.959 140.553V133.133L180.262 132.95V134.182C180.761 133.257 181.552 132.628 182.564 132.486C183.645 132.334 184.463 132.779 184.796 133.712C185.309 132.688 186.154 131.981 187.277 131.824C188.788 131.611 189.759 132.469 189.759 134.233V139.035L188.359 139.232V134.878C188.359 133.646 187.818 132.994 186.792 133.138C185.835 133.272 185.059 134.193 185.059 135.439V139.695L183.659 139.892V135.538C183.659 134.306 183.118 133.654 182.092 133.798C181.122 133.935 180.359 134.854 180.359 136.1V140.356ZM194.654 138.487C192.532 138.785 191.105 137.432 191.105 135.094C191.105 132.896 192.588 131.077 194.612 130.793C196.803 130.485 198.258 132.072 198.009 134.515L192.532 135.285C192.643 136.781 193.392 137.558 194.626 137.385C195.666 137.239 196.387 136.563 196.622 135.564L198.009 135.369C197.648 137.072 196.387 138.243 194.654 138.487ZM194.584 131.861C193.461 132.018 192.699 132.938 192.546 134.345L196.525 133.786C196.456 132.424 195.721 131.701 194.584 131.861ZM200.898 133.675V137.469L199.497 137.666V130.246L200.801 130.063V131.631C201.314 130.537 202.423 129.737 203.629 129.568V131.038C202.048 131.176 200.898 132.037 200.898 133.675Z" fill="#3C4149"/>
<path d="M159.112 1L158.896 82.4345L59.5289 97.2405L59.5283 16.0071L159.112 1Z" fill="#FDFAC3" fill-opacity="0.64" stroke="#9AA2AC" stroke-linejoin="round"/>
<path d="M158.832 82.8603L220.865 115.85V34.4328L159.118 1.01025L158.832 82.8603Z" fill="#FDFAC3" fill-opacity="0.64" stroke="#9AA2AC" stroke-linejoin="round"/>
<path d="M158.065 50.5314L158.065 97.0377L151.923 100.964L151.914 54.3873L158.065 50.5314Z" fill="#F9FAFB" stroke="#9AA2AC" stroke-linejoin="round"/>
<path d="M172.767 51.2593L172.775 97.8389L158.089 97.0801L158.089 50.5575L172.767 51.2593Z" fill="#F9FAFB" stroke="#9AA2AC" stroke-linejoin="round"/>
<path d="M151.923 100.968L130.324 89.4696L130.316 42.8901L151.915 54.3917L151.923 100.968Z" fill="#F9FAFB" stroke="#9AA2AC" stroke-linejoin="round"/>
<path d="M135.717 51.4392V61.2885L146.161 66.9585V57.0524" stroke="#9AA2AC" stroke-linejoin="round"/>
<path d="M151.919 54.3866L130.319 42.8849L144.61 43.3268L151.172 39.7555L172.771 51.2542L158.08 50.5701L151.919 54.3866Z" fill="#DDE0E3" stroke="#9AA2AC" stroke-linejoin="round"/>
<path d="M144.958 42.0999L144.958 49.3972" stroke="#9AA2AC"/>
<path d="M151.175 38.6553L151.175 52.7791" stroke="#9AA2AC"/>
<path d="M131.686 55.497L131.686 102.003L125.543 105.93L125.535 59.3529L131.686 55.497Z" fill="#F9FAFB" stroke="#9AA2AC" stroke-linejoin="round"/>
<path d="M146.387 56.2255L146.396 102.805L131.71 102.046L131.71 55.5237L146.387 56.2255Z" fill="#F9FAFB" stroke="#9AA2AC" stroke-linejoin="round"/>
<path d="M125.543 105.934L103.944 94.4352L103.935 47.8557L125.535 59.3573L125.543 105.934Z" fill="#F9FAFB" stroke="#9AA2AC" stroke-linejoin="round"/>
<path d="M109.337 56.3918V66.2412L119.782 71.9111V62.005" stroke="#9AA2AC" stroke-linejoin="round"/>
<path d="M125.538 59.3527L103.939 47.851L118.229 48.2929L124.792 44.7215L146.391 56.2203L131.7 55.5362L125.538 59.3527Z" fill="#DDE0E3" stroke="#9AA2AC" stroke-linejoin="round"/>
<path d="M118.579 47.0519L118.579 54.3492" stroke="#9AA2AC"/>
<path d="M124.795 43.6079L124.795 57.7317" stroke="#9AA2AC"/>
<path d="M105.306 60.463L105.306 106.969L99.1637 110.896L99.1554 64.319L105.306 60.463Z" fill="#F9FAFB" stroke="#9AA2AC" stroke-linejoin="round"/>
<path d="M120.008 61.1909L120.016 107.771L105.33 107.012L105.33 60.4891L120.008 61.1909Z" fill="#F9FAFB" stroke="#9AA2AC" stroke-linejoin="round"/>
<path d="M99.1637 110.9L77.5643 99.4013L77.5559 52.8217L99.1554 64.3234L99.1637 110.9Z" fill="#F9FAFB" stroke="#9AA2AC" stroke-linejoin="round"/>
<path d="M82.9578 61.3438V71.1931L93.4022 76.863V66.9569" stroke="#9AA2AC" stroke-linejoin="round"/>
<path d="M99.1591 64.3188L77.5594 52.8171L91.85 53.2589L98.4122 49.6876L120.012 61.1864L105.321 60.5022L99.1591 64.3188Z" fill="#DDE0E3" stroke="#9AA2AC" stroke-linejoin="round"/>
<path d="M92.1995 52.0044L92.1994 59.3017" stroke="#9AA2AC"/>
<path d="M98.4155 48.5598L98.4155 62.6836" stroke="#9AA2AC"/>
<path d="M185.831 64.8991L185.831 111.405L179.689 115.332L179.681 68.755L185.831 64.8991Z" fill="#F9FAFB" stroke="#9AA2AC" stroke-linejoin="round"/>
<path d="M200.533 65.6276L200.541 112.207L185.855 111.448L185.855 64.9258L200.533 65.6276Z" fill="#F9FAFB" stroke="#9AA2AC" stroke-linejoin="round"/>
<path d="M179.689 115.336L158.09 103.838L158.081 57.2583L179.681 68.7599L179.689 115.336Z" fill="#F9FAFB" stroke="#9AA2AC" stroke-linejoin="round"/>
<path d="M163.482 65.7678V75.6172L173.927 81.2871V71.381" stroke="#9AA2AC" stroke-linejoin="round"/>
<path d="M179.684 68.7542L158.085 57.2525L172.375 57.6944L178.937 54.123L200.537 65.6218L185.846 64.9377L179.684 68.7542Z" fill="#DDE0E3" stroke="#9AA2AC" stroke-linejoin="round"/>
<path d="M172.799 56.428L172.799 63.7253" stroke="#9AA2AC"/>
<path d="M178.941 52.9839L178.941 67.1077" stroke="#9AA2AC"/>
<path d="M159.452 69.8621L159.452 116.368L153.309 120.295L153.301 73.718L159.452 69.8621Z" fill="#F9FAFB" stroke="#9AA2AC" stroke-linejoin="round"/>
<path d="M174.153 70.5906L174.161 117.17L159.476 116.411L159.476 69.8888L174.153 70.5906Z" fill="#F9FAFB" stroke="#9AA2AC" stroke-linejoin="round"/>
<path d="M153.31 120.299L131.71 108.8L131.702 62.2208L153.301 73.7224L153.31 120.299Z" fill="#F9FAFB" stroke="#9AA2AC" stroke-linejoin="round"/>
<path d="M137.103 70.7168V80.5661L147.548 86.2361V76.33" stroke="#9AA2AC" stroke-linejoin="round"/>
<path d="M153.305 73.7172L131.705 62.2155L145.996 62.6574L152.558 59.086L174.158 70.5848L159.467 69.9007L153.305 73.7172Z" fill="#DDE0E3" stroke="#9AA2AC" stroke-linejoin="round"/>
<path d="M146.42 61.3768L146.42 68.6742" stroke="#9AA2AC"/>
<path d="M152.561 57.9329L152.561 72.0567" stroke="#9AA2AC"/>
<path d="M133.073 74.828L133.073 121.334L126.93 125.261L126.922 78.684L133.073 74.828Z" fill="#F9FAFB" stroke="#9AA2AC" stroke-linejoin="round"/>
<path d="M147.774 75.557L147.782 122.137L133.096 121.378L133.096 74.8552L147.774 75.557Z" fill="#F9FAFB" stroke="#9AA2AC" stroke-linejoin="round"/>
<path d="M126.93 125.265L105.331 113.767L105.323 67.1872L126.922 78.6888L126.93 125.265Z" fill="#F9FAFB" stroke="#9AA2AC" stroke-linejoin="round"/>
<path d="M110.724 75.6692V85.5185L121.168 91.1885V81.2824" stroke="#9AA2AC" stroke-linejoin="round"/>
<path d="M126.925 78.6838L105.326 67.182L119.616 67.6239L126.179 64.0526L147.778 75.5514L133.087 74.8672L126.925 78.6838Z" fill="#DDE0E3" stroke="#9AA2AC" stroke-linejoin="round"/>
<path d="M120.04 66.3297L120.04 73.6271" stroke="#9AA2AC"/>
<path d="M126.181 62.8853L126.181 77.009" stroke="#9AA2AC"/>
<path d="M516.472 459.97L513.121 451.855V460.441L510.661 460.787V447.863L513.905 447.407L517.613 456.462L521.338 446.362L524.583 445.907V458.831L522.123 459.176V450.518L518.736 459.652L516.472 459.97ZM531.191 458.082C528.428 458.47 526.36 456.565 526.36 453.775C526.36 450.967 528.428 448.498 531.191 448.11C533.954 447.722 536.021 449.609 536.021 452.417C536.021 455.207 533.954 457.694 531.191 458.082ZM531.191 455.868C532.421 455.695 533.472 454.557 533.472 452.775C533.472 450.993 532.421 450.169 531.191 450.342C529.961 450.515 528.909 451.634 528.909 453.416C528.909 455.198 529.961 456.041 531.191 455.868ZM536.979 452.282C536.979 449.438 538.636 447.063 541.203 446.703C542.344 446.542 543.306 446.911 544.019 447.729V443.175L546.479 442.829V455.753L544.215 456.071V454.685C543.467 455.799 542.433 456.502 541.203 456.675C538.636 457.035 536.979 455.09 536.979 452.282ZM539.528 451.924C539.528 453.724 540.544 454.535 541.756 454.365C542.986 454.192 544.002 453.077 544.002 451.259C544.002 449.441 542.968 448.669 541.756 448.839C540.544 449.009 539.528 450.088 539.528 451.924ZM554.484 450.578V445.016L556.944 444.671V454.283L554.68 454.601V453.341C554.163 454.259 553.111 455.001 551.899 455.171C549.992 455.439 548.602 454.465 548.602 451.963V445.843L551.079 445.495V451.129C551.079 452.479 551.739 452.98 552.737 452.84C553.628 452.714 554.484 451.874 554.484 450.578ZM561.665 453.619L559.17 453.97V441.046L561.665 440.695V453.619ZM569.555 452.51V451.322C568.932 452.31 567.987 452.91 566.686 453.093C564.707 453.371 563.388 452.387 563.388 450.587C563.388 448.715 564.885 447.496 567.666 447.106C568.201 447.03 568.664 447.001 569.252 446.991V446.415C569.252 445.335 568.646 444.79 567.613 444.935C566.543 445.085 565.901 445.806 565.812 446.898L563.584 447.211C563.727 444.977 565.313 443.314 567.613 442.991C570.108 442.64 571.57 443.821 571.57 446.179V452.227L569.555 452.51ZM565.723 450.187C565.723 450.997 566.293 451.42 567.22 451.29C568.486 451.112 569.252 450.303 569.252 449.187V448.503C568.664 448.495 568.254 448.517 567.826 448.577C566.418 448.775 565.723 449.323 565.723 450.187ZM576.182 446.917V451.579L573.705 451.927V442.315L575.986 441.994V443.848C576.681 442.527 578.161 441.581 579.694 441.365V443.957C577.591 444.091 576.182 444.793 576.182 446.917ZM594.207 444.24C594.207 447.048 592.549 449.459 589.982 449.819C588.752 449.992 587.718 449.579 586.988 448.674V450.06L584.706 450.381V437.457L587.184 437.109V441.663C587.879 440.629 588.841 440.008 589.982 439.847C592.549 439.487 594.207 441.396 594.207 444.24ZM591.658 444.598C591.658 442.762 590.642 441.969 589.43 442.139C588.235 442.307 587.201 443.37 587.201 445.188C587.201 447.006 588.2 447.838 589.43 447.665C590.642 447.495 591.658 446.398 591.658 444.598ZM598.272 443.812V448.474L595.794 448.822V439.21L598.076 438.89V440.744C598.771 439.422 600.25 438.476 601.783 438.261V440.853C599.68 440.986 598.272 441.688 598.272 443.812ZM607.207 447.398C604.445 447.787 602.377 445.881 602.377 443.091C602.377 440.283 604.445 437.815 607.207 437.426C609.97 437.038 612.038 438.926 612.038 441.733C612.038 444.524 609.97 447.01 607.207 447.398ZM607.207 445.184C608.437 445.012 609.489 443.874 609.489 442.092C609.489 440.31 608.437 439.486 607.207 439.658C605.978 439.831 604.926 440.951 604.926 442.733C604.926 444.515 605.978 445.357 607.207 445.184ZM616.097 445.969L613.619 446.317V433.393L616.097 433.045V440.425L619.573 435.869L622.425 435.468L618.485 440.629L622.888 445.015L619.733 445.458L616.097 441.505V445.969ZM627.572 444.518C624.72 444.919 622.813 443.189 622.813 440.183C622.813 437.321 624.791 434.955 627.536 434.569C630.549 434.146 632.545 436.331 632.1 439.526L625.344 440.475C625.504 442.019 626.253 442.778 627.519 442.6C628.606 442.447 629.337 441.804 629.622 440.81L632.082 440.465C631.547 442.718 629.889 444.193 627.572 444.518ZM627.483 436.413C626.324 436.576 625.593 437.434 625.38 438.886L629.479 438.31C629.408 436.988 628.659 436.248 627.483 436.413ZM636.237 438.477V443.139L633.759 443.487V433.875L636.041 433.554V435.408C636.736 434.086 638.215 433.141 639.748 432.925V435.517C637.645 435.651 636.237 436.353 636.237 438.477ZM646.704 441.668V440.48C646.08 441.467 645.135 442.068 643.834 442.251C641.855 442.529 640.536 441.544 640.536 439.744C640.536 437.872 642.033 436.654 644.814 436.263C645.349 436.188 645.812 436.159 646.4 436.148V435.572C646.4 434.492 645.794 433.947 644.761 434.093C643.691 434.243 643.049 434.963 642.96 436.056L640.732 436.369C640.875 434.135 642.461 432.472 644.761 432.149C647.256 431.798 648.718 432.978 648.718 435.336V441.384L646.704 441.668ZM642.871 439.344C642.871 440.154 643.442 440.578 644.368 440.448C645.634 440.27 646.4 439.46 646.4 438.344V437.66C645.812 437.653 645.402 437.674 644.974 437.735C643.566 437.932 642.871 438.48 642.871 439.344ZM654.899 444.17C652.332 444.531 650.621 443.367 650.514 441.168L652.903 440.832C653.01 441.915 653.705 442.394 654.881 442.228C656.254 442.035 656.967 441.197 656.967 439.811V438.407C656.45 439.398 655.469 440.076 654.311 440.238C651.976 440.567 650.229 438.814 650.229 436.096C650.229 433.306 651.869 431.15 654.222 430.819C655.505 430.639 656.468 431.007 657.163 431.9V430.586L659.427 430.267V439.429C659.427 441.985 657.715 443.774 654.899 444.17ZM652.707 435.748C652.707 437.314 653.509 438.191 654.792 438.011C656.093 437.828 656.949 436.682 656.949 435.17C656.949 433.604 656.093 432.716 654.792 432.899C653.527 433.077 652.707 434.182 652.707 435.748ZM665.798 439.146C662.946 439.547 661.039 437.817 661.039 434.811C661.039 431.949 663.017 429.583 665.762 429.197C668.775 428.774 670.771 430.959 670.325 434.154L663.57 435.103C663.73 436.647 664.479 437.405 665.744 437.228C666.832 437.075 667.563 436.432 667.848 435.438L670.308 435.092C669.773 437.345 668.115 438.82 665.798 439.146ZM665.709 431.041C664.55 431.203 663.819 432.062 663.605 433.514L667.705 432.938C667.634 431.616 666.885 430.875 665.709 431.041ZM683.749 433.383C683.749 435.399 682.234 436.854 679.525 437.235C676.815 437.616 675.3 436.515 675.104 434.4L677.475 434.067C677.493 435.054 678.33 435.567 679.56 435.394C680.523 435.259 681.254 434.85 681.254 434.166C681.254 433.554 680.861 433.357 679.952 433.305L678.241 433.221C676.53 433.156 675.496 432.347 675.496 430.853C675.496 429.071 677.011 427.616 679.382 427.283C681.771 426.947 683.41 427.995 683.589 430.04L681.218 430.373C681.129 429.449 680.434 428.971 679.382 429.119C678.473 429.247 677.867 429.674 677.867 430.286C677.867 430.862 678.259 431.041 679.115 431.082L680.951 431.166C682.804 431.266 683.749 431.997 683.749 433.383ZM689.576 435.804C686.724 436.205 684.817 434.475 684.817 431.469C684.817 428.607 686.795 426.241 689.54 425.855C692.553 425.432 694.549 427.617 694.103 430.812L687.348 431.761C687.508 433.305 688.257 434.064 689.522 433.886C690.61 433.733 691.341 433.09 691.626 432.096L694.086 431.75C693.551 434.004 691.893 435.479 689.576 435.804ZM689.487 427.699C688.328 427.862 687.597 428.72 687.384 430.172L691.483 429.596C691.412 428.274 690.663 427.533 689.487 427.699ZM698.241 429.763V434.425L695.763 434.773V425.161L698.045 424.84V426.694C698.74 425.372 700.219 424.426 701.752 424.211V426.803C699.649 426.937 698.241 427.639 698.241 429.763ZM711.787 422.909L708.293 433.012L705.584 433.392L702.072 424.274L704.746 423.898L707.01 430.348L709.291 423.259L711.787 422.909ZM715.744 420.121C715.744 420.967 715.067 421.692 714.086 421.83C713.124 421.965 712.446 421.43 712.446 420.584C712.446 419.702 713.124 418.977 714.086 418.842C715.067 418.704 715.744 419.239 715.744 420.121ZM715.352 432.02L712.874 432.368V422.756L715.352 422.408V432.02ZM721.567 431.326C718.822 431.712 716.933 429.925 716.933 426.991C716.933 424.111 718.893 421.73 721.567 421.354C724.045 421.006 725.881 422.44 726.184 424.989L723.581 425.355C723.457 424.095 722.69 423.41 721.567 423.568C720.284 423.749 719.464 424.926 719.464 426.636C719.464 428.364 720.266 429.295 721.567 429.112C722.708 428.952 723.439 428.093 723.581 426.759L726.184 426.393C725.899 429.079 724.116 430.968 721.567 431.326ZM731.875 429.859C729.023 430.26 727.116 428.53 727.116 425.524C727.116 422.662 729.094 420.296 731.839 419.91C734.852 419.487 736.848 421.673 736.403 424.867L729.647 425.817C729.807 427.36 730.556 428.119 731.822 427.941C732.909 427.788 733.64 427.145 733.925 426.151L736.385 425.806C735.85 428.059 734.192 429.534 731.875 429.859ZM731.786 421.754C730.627 421.917 729.897 422.776 729.683 424.228L733.782 423.651C733.711 422.329 732.962 421.589 731.786 421.754ZM547.246 482.347L545.859 482.542C544.722 480.952 544.099 478.73 544.099 476.406C544.099 474.096 544.722 471.698 545.859 469.788L547.246 469.593C546.095 471.505 545.54 473.893 545.54 476.203C545.54 478.527 546.095 480.759 547.246 482.347ZM551.302 479.229C549.292 479.512 547.877 478.115 547.877 475.847C547.877 473.607 549.319 471.794 551.302 471.515C553.118 471.26 554.435 472.293 554.698 474.188L553.229 474.395C553.076 473.226 552.342 472.615 551.316 472.759C550.11 472.929 549.319 474.076 549.319 475.644C549.319 477.226 550.11 478.137 551.316 477.967C552.355 477.821 553.076 477.02 553.243 475.793L554.698 475.588C554.449 477.583 553.146 478.97 551.302 479.229ZM559.118 478.117C557.038 478.409 555.513 476.972 555.513 474.774C555.513 472.576 557.038 470.709 559.118 470.417C561.197 470.125 562.722 471.562 562.722 473.76C562.722 475.958 561.197 477.825 559.118 478.117ZM559.118 476.871C560.324 476.701 561.281 475.587 561.281 473.963C561.281 472.339 560.324 471.507 559.118 471.677C557.912 471.846 556.969 472.945 556.969 474.569C556.969 476.193 557.912 477.04 559.118 476.871ZM567.228 476.977C565.148 477.269 563.623 475.832 563.623 473.634C563.623 471.436 565.148 469.569 567.228 469.277C569.307 468.985 570.832 470.423 570.832 472.621C570.832 474.819 569.307 476.685 567.228 476.977ZM567.228 475.731C568.434 475.562 569.39 474.447 569.39 472.823C569.39 471.199 568.434 470.368 567.228 470.537C566.022 470.707 565.079 471.805 565.079 473.429C565.079 475.053 566.022 475.901 567.228 475.731ZM579.275 471.434C579.275 473.674 577.999 475.463 576.031 475.74C575.032 475.88 574.187 475.495 573.66 474.673V478.635L572.26 478.832V468.71L573.563 468.527V469.885C574.09 468.859 574.991 468.186 576.031 468.04C577.985 467.765 579.275 469.194 579.275 471.434ZM577.819 471.639C577.819 469.973 576.946 469.157 575.739 469.327C574.575 469.491 573.66 470.557 573.66 472.223C573.66 473.861 574.561 474.687 575.739 474.521C576.946 474.351 577.819 473.305 577.819 471.639ZM583.717 474.66C581.596 474.958 580.168 473.605 580.168 471.267C580.168 469.069 581.651 467.25 583.675 466.966C585.866 466.658 587.321 468.245 587.072 470.688L581.596 471.458C581.706 472.954 582.455 473.731 583.689 473.558C584.729 473.412 585.45 472.736 585.685 471.737L587.072 471.542C586.711 473.245 585.45 474.416 583.717 474.66ZM583.647 468.034C582.524 468.191 581.762 469.111 581.609 470.518L585.588 469.959C585.519 468.597 584.784 467.874 583.647 468.034ZM589.961 469.848V473.642L588.56 473.839V466.419L589.864 466.236V467.804C590.377 466.71 591.486 465.91 592.692 465.74V467.21C591.111 467.349 589.961 468.21 589.961 469.848ZM598.25 472.477V471.329C597.793 472.22 596.975 472.797 595.893 472.948C594.368 473.163 593.37 472.421 593.37 471.063C593.37 469.607 594.521 468.689 596.711 468.382C597.141 468.321 597.488 468.286 598.084 468.273V467.727C598.084 466.663 597.515 466.141 596.545 466.277C595.519 466.421 594.895 467.125 594.854 468.167L593.578 468.346C593.647 466.67 594.826 465.399 596.545 465.157C598.361 464.902 599.415 465.79 599.415 467.554V472.314L598.25 472.477ZM594.701 470.834C594.701 471.604 595.269 472.028 596.171 471.902C597.349 471.736 598.084 470.891 598.084 469.757V469.155C597.543 469.161 597.155 469.201 596.795 469.252C595.394 469.449 594.701 469.966 594.701 470.834ZM605.364 470.105V471.351C604.935 471.608 604.56 471.73 604.117 471.793C602.758 471.984 601.815 471.374 601.815 469.736V465.76L600.193 465.988V464.784L601.815 464.556V462.358L603.216 462.161V464.359L605.434 464.048V465.252L603.216 465.563V469.217C603.216 470.239 603.701 470.535 604.449 470.43C604.782 470.383 605.073 470.286 605.364 470.105ZM608.475 461.898C608.475 462.43 608.059 462.895 607.463 462.978C606.867 463.062 606.437 462.717 606.437 462.185C606.437 461.639 606.867 461.186 607.463 461.102C608.059 461.019 608.475 461.352 608.475 461.898ZM608.17 471.083L606.77 471.28V463.86L608.17 463.663V471.083ZM613.192 470.517C611.112 470.81 609.587 469.372 609.587 467.174C609.587 464.976 611.112 463.11 613.192 462.817C615.272 462.525 616.797 463.963 616.797 466.161C616.797 468.359 615.272 470.225 613.192 470.517ZM613.192 469.271C614.398 469.102 615.355 467.987 615.355 466.363C615.355 464.739 614.398 463.908 613.192 464.077C611.986 464.247 611.043 465.345 611.043 466.969C611.043 468.593 611.986 469.441 613.192 469.271ZM619.624 465.287V469.473L618.224 469.67V462.25L619.527 462.067V463.299C620.026 462.403 620.858 461.74 621.87 461.598C623.381 461.385 624.379 462.225 624.379 464.003V468.805L622.979 469.002V464.676C622.979 463.402 622.425 462.766 621.385 462.912C620.428 463.046 619.624 463.971 619.624 465.287ZM633.587 467.511V466.363C633.129 467.253 632.311 467.83 631.23 467.982C629.705 468.197 628.706 467.455 628.706 466.097C628.706 464.641 629.857 463.723 632.048 463.415C632.477 463.355 632.824 463.32 633.42 463.306V462.76C633.42 461.696 632.852 461.174 631.881 461.311C630.855 461.455 630.231 462.159 630.19 463.2L628.914 463.38C628.984 461.704 630.162 460.432 631.881 460.191C633.697 459.935 634.751 460.823 634.751 462.587V467.347L633.587 467.511ZM630.037 465.868C630.037 466.638 630.606 467.062 631.507 466.935C632.685 466.77 633.42 465.924 633.42 464.79V464.188C632.879 464.194 632.491 464.235 632.131 464.286C630.731 464.482 630.037 465 630.037 465.868ZM639.562 469.527C637.635 469.798 636.388 468.937 636.304 467.269L637.663 467.078C637.746 468.102 638.412 468.569 639.548 468.409C640.81 468.232 641.476 467.452 641.476 466.178V464.834C641.06 465.789 640.228 466.424 639.23 466.564C637.4 466.821 636.096 465.478 636.096 463.294C636.096 461.082 637.344 459.423 639.188 459.164C640.242 459.016 641.073 459.417 641.573 460.285V458.969L642.876 458.786V465.954C642.876 467.9 641.642 469.235 639.562 469.527ZM637.511 463.096C637.511 464.636 638.259 465.468 639.479 465.297C640.671 465.129 641.476 464.05 641.476 462.58C641.476 461.04 640.685 460.171 639.479 460.341C638.273 460.51 637.511 461.57 637.511 463.096ZM646.214 461.942V465.736L644.814 465.933V458.513L646.117 458.33V459.898C646.63 458.804 647.739 458.004 648.946 457.834V459.304C647.365 459.443 646.214 460.304 646.214 461.942ZM653.049 464.916C650.928 465.214 649.5 463.861 649.5 461.523C649.5 459.325 650.983 457.506 653.007 457.222C655.198 456.914 656.654 458.501 656.404 460.944L650.928 461.714C651.039 463.21 651.787 463.987 653.021 463.814C654.061 463.668 654.782 462.992 655.018 461.993L656.404 461.798C656.044 463.501 654.782 464.672 653.049 464.916ZM652.98 458.29C651.857 458.447 651.094 459.367 650.942 460.774L654.921 460.215C654.851 458.852 654.116 458.13 652.98 458.29ZM660.78 463.829C658.658 464.127 657.231 462.774 657.231 460.436C657.231 458.238 658.714 456.42 660.738 456.135C662.929 455.827 664.384 457.415 664.135 459.858L658.658 460.627C658.769 462.124 659.518 462.901 660.752 462.727C661.792 462.581 662.513 461.906 662.748 460.907L664.135 460.712C663.774 462.414 662.513 463.586 660.78 463.829ZM660.71 457.203C659.587 457.361 658.825 458.28 658.672 459.687L662.651 459.128C662.582 457.766 661.847 457.043 660.71 457.203ZM667.024 462.812L665.623 463.009V455.589L666.927 455.405V456.637C667.426 455.713 668.216 455.084 669.228 454.942C670.309 454.79 671.127 455.235 671.46 456.168C671.973 455.144 672.819 454.437 673.942 454.28C675.453 454.067 676.423 454.925 676.423 456.689V461.491L675.023 461.688V457.334C675.023 456.102 674.482 455.45 673.456 455.594C672.5 455.728 671.723 456.649 671.723 457.895V462.151L670.323 462.348V457.994C670.323 456.762 669.783 456.11 668.757 456.254C667.786 456.391 667.024 457.31 667.024 458.556V462.812ZM681.318 460.943C679.197 461.241 677.769 459.888 677.769 457.55C677.769 455.352 679.252 453.533 681.276 453.249C683.467 452.941 684.923 454.528 684.673 456.971L679.197 457.741C679.308 459.237 680.056 460.014 681.29 459.841C682.33 459.695 683.051 459.019 683.287 458.02L684.673 457.825C684.313 459.528 683.051 460.699 681.318 460.943ZM681.249 454.317C680.126 454.474 679.363 455.394 679.211 456.801L683.19 456.242C683.12 454.88 682.386 454.157 681.249 454.317ZM687.562 455.739V459.925L686.162 460.122V452.702L687.465 452.519V453.751C687.964 452.855 688.796 452.192 689.808 452.05C691.319 451.837 692.317 452.677 692.317 454.455V459.257L690.917 459.454V455.128C690.917 453.854 690.362 453.218 689.323 453.364C688.366 453.498 687.562 454.423 687.562 455.739ZM698.295 457.045V458.291C697.865 458.547 697.491 458.67 697.047 458.732C695.689 458.923 694.746 458.314 694.746 456.676V452.7L693.124 452.928V451.724L694.746 451.496V449.298L696.146 449.101V451.299L698.364 450.987V452.191L696.146 452.503V456.157C696.146 457.179 696.631 457.475 697.38 457.369C697.713 457.323 698.004 457.226 698.295 457.045ZM700.446 460.817L699.06 461.011C700.21 459.1 700.779 456.71 700.779 454.386C700.779 452.076 700.21 449.846 699.06 448.257L700.446 448.063C701.583 449.653 702.207 451.875 702.207 454.185C702.207 456.509 701.583 458.907 700.446 460.817Z" fill="#3C4149"/>
<path d="M339.686 353L3.11034 172.813C1.47062 171.467 1.02652 169.21 1.04462 168.706C0.691652 165.819 2.5311 163.843 3.11034 163.286C3.66754 162.664 5.30581 162.186 6.0553 162.024L84.455 150C87.5723 150 89.917 150.832 90.7281 153.949C92.1377 159.367 89.3975 161.53 86.5426 162.18L27.581 171.246C26.9505 171.323 26.1068 171.401 25.5433 171.108L350 344.299L339.686 353Z" fill="#F3F5F7"/>
<path d="M3.11034 172.813L2.79317 173.2L2.8311 173.231L2.87435 173.254L3.11034 172.813ZM339.686 353L339.45 353.441L339.749 353.601L340.008 353.382L339.686 353ZM3.11034 163.286L3.45711 163.646L3.47037 163.633L3.48266 163.619L3.11034 163.286ZM1.04462 168.706L1.5443 168.724L1.54571 168.684L1.54092 168.645L1.04462 168.706ZM350 344.299L350.322 344.681L350.886 344.205L350.235 343.857L350 344.299ZM84.455 150L84.455 149.5L84.4169 149.5L84.3792 149.506L84.455 150ZM6.0553 162.024L5.9795 161.53L5.96471 161.533L5.95008 161.536L6.0553 162.024ZM86.5426 162.18L86.6186 162.674L86.6362 162.671L86.6535 162.667L86.5426 162.18ZM27.581 171.246L27.6421 171.742L27.6496 171.741L27.657 171.74L27.581 171.246ZM90.7281 153.949L91.2119 153.824L91.2119 153.824L90.7281 153.949ZM25.5433 171.108L25.7738 170.664L25.7648 170.66L25.5433 171.108ZM25.3129 171.552C25.5148 171.657 25.7311 171.721 25.9431 171.76L26.1242 170.776C25.9828 170.75 25.8663 170.712 25.7737 170.664L25.3129 171.552ZM27.1037 171.798C27.2952 171.783 27.4785 171.762 27.6421 171.742L27.52 170.75C27.3625 170.769 27.197 170.788 27.0284 170.8L27.1037 171.798ZM27.657 171.74L28.6397 171.589L28.4878 170.601L27.5051 170.752L27.657 171.74ZM30.6051 171.287L32.5705 170.985L32.4185 169.996L30.4531 170.298L30.6051 171.287ZM34.5359 170.682L36.5013 170.38L36.3493 169.392L34.3839 169.694L34.5359 170.682ZM38.4666 170.078L40.432 169.776L40.2801 168.787L38.3147 169.09L38.4666 170.078ZM42.3974 169.474L44.3628 169.171L44.2108 168.183L42.2454 168.485L42.3974 169.474ZM46.3282 168.869L48.2936 168.567L48.1416 167.579L46.1762 167.881L46.3282 168.869ZM50.259 168.265L52.2243 167.963L52.0724 166.974L50.107 167.276L50.259 168.265ZM54.1897 167.66L56.1551 167.358L56.0031 166.37L54.0377 166.672L54.1897 167.66ZM58.1205 167.056L60.0859 166.754L59.9339 165.765L57.9685 166.068L58.1205 167.056ZM62.0513 166.452L64.0167 166.149L63.8647 165.161L61.8993 165.463L62.0513 166.452ZM65.982 165.847L67.9474 165.545L67.7954 164.557L65.8301 164.859L65.982 165.847ZM69.9128 165.243L71.8782 164.941L71.7262 163.952L69.7608 164.254L69.9128 165.243ZM73.8436 164.638L75.809 164.336L75.657 163.348L73.6916 163.65L73.8436 164.638ZM77.7744 164.034L79.7397 163.732L79.5878 162.743L77.6224 163.046L77.7744 164.034ZM81.7051 163.43L83.6705 163.127L83.5185 162.139L81.5531 162.441L81.7051 163.43ZM85.6359 162.825L86.6186 162.674L86.4666 161.686L85.4839 161.837L85.6359 162.825ZM86.6535 162.667C86.9549 162.599 87.2565 162.514 87.5537 162.411L87.2258 161.466C86.9659 161.556 86.7 161.631 86.4317 161.692L86.6535 162.667ZM89.2469 161.558C89.7633 161.195 90.2298 160.744 90.6097 160.191L89.7853 159.624C89.4793 160.07 89.1005 160.438 88.6717 160.74L89.2469 161.558ZM91.3984 158.432C91.5435 157.866 91.6174 157.242 91.6093 156.555L90.6094 156.567C90.6165 157.174 90.551 157.71 90.4297 158.184L91.3984 158.432ZM91.4142 154.717C91.359 154.428 91.2918 154.131 91.2119 153.824L90.2442 154.075C90.3188 154.362 90.3811 154.639 90.4319 154.905L91.4142 154.717ZM91.2119 153.824C91.1154 153.453 90.9975 153.108 90.8585 152.789L89.9418 153.189C90.0582 153.456 90.1596 153.75 90.2442 154.075L91.2119 153.824ZM89.5622 150.975C88.9995 150.48 88.3405 150.137 87.6145 149.908L87.3134 150.861C87.9309 151.056 88.4608 151.338 88.9016 151.726L89.5622 150.975ZM85.5044 149.534C85.1634 149.511 84.8131 149.5 84.455 149.5L84.455 150.5C84.7934 150.5 85.1203 150.51 85.435 150.532L85.5044 149.534ZM84.3792 149.506L83.3992 149.656L83.5508 150.645L84.5308 150.494L84.3792 149.506ZM81.4392 149.957L79.4792 150.257L79.6308 151.246L81.5908 150.945L81.4392 149.957ZM77.5192 150.558L75.5592 150.859L75.7108 151.847L77.6708 151.546L77.5192 150.558ZM73.5993 151.159L71.6393 151.46L71.7909 152.448L73.7509 152.148L73.5993 151.159ZM69.6793 151.76L67.7193 152.061L67.8709 153.049L69.8309 152.749L69.6793 151.76ZM65.7593 152.362L63.7993 152.662L63.9509 153.651L65.9109 153.35L65.7593 152.362ZM61.8393 152.963L59.8793 153.263L60.0309 154.252L61.9909 153.951L61.8393 152.963ZM57.9193 153.564L55.9593 153.865L56.1109 154.853L58.0709 154.552L57.9193 153.564ZM53.9993 154.165L52.0393 154.466L52.1909 155.454L54.1509 155.154L53.9993 154.165ZM50.0793 154.766L48.1193 155.067L48.271 156.056L50.2309 155.755L50.0793 154.766ZM46.1594 155.368L44.1994 155.668L44.351 156.657L46.311 156.356L46.1594 155.368ZM42.2394 155.969L40.2794 156.27L40.431 157.258L42.391 156.957L42.2394 155.969ZM38.3194 156.57L36.3594 156.871L36.511 157.859L38.471 157.559L38.3194 156.57ZM34.3994 157.171L32.4394 157.472L32.591 158.46L34.551 158.16L34.3994 157.171ZM30.4794 157.773L28.5194 158.073L28.671 159.062L30.631 158.761L30.4794 157.773ZM26.5594 158.374L24.5995 158.674L24.7511 159.663L26.711 159.362L26.5594 158.374ZM22.6395 158.975L20.6795 159.276L20.8311 160.264L22.7911 159.963L22.6395 158.975ZM18.7195 159.576L16.7595 159.877L16.9111 160.865L18.8711 160.565L18.7195 159.576ZM14.7995 160.177L12.8395 160.478L12.9911 161.467L14.9511 161.166L14.7995 160.177ZM10.8795 160.779L8.91952 161.079L9.07113 162.068L11.0311 161.767L10.8795 160.779ZM6.95953 161.38L5.9795 161.53L6.1311 162.519L7.11113 162.368L6.95953 161.38ZM5.95008 161.536C5.72984 161.583 5.4424 161.655 5.12941 161.748L5.41363 162.707C5.70352 162.621 5.96635 162.555 6.16053 162.513L5.95008 161.536ZM3.52941 162.373C3.23715 162.528 2.94659 162.719 2.73802 162.952L3.48266 163.619C3.57673 163.514 3.74827 163.389 3.99866 163.256L3.52941 162.373ZM2.76357 162.925C2.62976 163.054 2.4351 163.252 2.21546 163.513L2.98073 164.157C3.17306 163.928 3.34257 163.756 3.45711 163.646L2.76357 162.925ZM1.31268 164.838C1.07722 165.276 0.863578 165.779 0.714458 166.341L1.68102 166.597C1.80736 166.121 1.9895 165.691 2.19332 165.312L1.31268 164.838ZM0.500049 167.953C0.499016 168.217 0.514259 168.488 0.548313 168.766L1.54092 168.645C1.51201 168.409 1.49917 168.179 1.50004 167.957L0.500049 167.953ZM0.544938 168.688C0.535393 168.954 0.609309 169.445 0.775499 170.004L1.73407 169.719C1.58127 169.205 1.54036 168.833 1.5443 168.724L0.544938 168.688ZM1.89938 172.265C2.15086 172.596 2.44667 172.915 2.79317 173.2L3.42751 172.426C3.14877 172.198 2.90627 171.937 2.69619 171.66L1.89938 172.265ZM2.87435 173.254L3.76008 173.728L4.23205 172.846L3.34633 172.372L2.87435 173.254ZM5.53153 174.676L7.30298 175.625L7.77495 174.743L6.0035 173.795L5.53153 174.676ZM9.07443 176.573L10.8459 177.521L11.3179 176.64L9.5464 175.691L9.07443 176.573ZM12.6173 178.47L14.3888 179.418L14.8608 178.536L13.0893 177.588L12.6173 178.47ZM16.1602 180.366L17.9317 181.315L18.4037 180.433L16.6322 179.485L16.1602 180.366ZM19.7031 182.263L21.4746 183.212L21.9466 182.33L20.1751 181.382L19.7031 182.263ZM23.246 184.16L25.0175 185.108L25.4895 184.227L23.718 183.278L23.246 184.16ZM26.7889 186.057L28.5604 187.005L29.0324 186.123L27.2609 185.175L26.7889 186.057ZM30.3318 187.953L32.1033 188.902L32.5753 188.02L30.8038 187.072L30.3318 187.953ZM33.8747 189.85L35.6462 190.798L36.1182 189.917L34.3467 188.968L33.8747 189.85ZM37.4176 191.747L39.1891 192.695L39.6611 191.813L37.8896 190.865L37.4176 191.747ZM40.9605 193.643L42.732 194.592L43.204 193.71L41.4325 192.762L40.9605 193.643ZM44.5034 195.54L46.2749 196.488L46.7469 195.607L44.9754 194.658L44.5034 195.54ZM48.0463 197.437L49.8178 198.385L50.2898 197.504L48.5183 196.555L48.0463 197.437ZM51.5892 199.334L53.3607 200.282L53.8327 199.4L52.0612 198.452L51.5892 199.334ZM55.1321 201.23L56.9036 202.179L57.3756 201.297L55.6041 200.349L55.1321 201.23ZM58.675 203.127L60.4465 204.075L60.9185 203.194L59.147 202.245L58.675 203.127ZM62.2179 205.024L63.9894 205.972L64.4614 205.09L62.6899 204.142L62.2179 205.024ZM65.7608 206.92L67.5323 207.869L68.0043 206.987L66.2328 206.039L65.7608 206.92ZM69.3037 208.817L71.0752 209.765L71.5472 208.884L69.7757 207.935L69.3037 208.817ZM72.8467 210.714L74.6181 211.662L75.0901 210.78L73.3186 209.832L72.8467 210.714ZM76.3896 212.61L78.161 213.559L78.633 212.677L76.8615 211.729L76.3896 212.61ZM79.9325 214.507L81.7039 215.455L82.1759 214.574L80.4044 213.626L79.9325 214.507ZM83.4754 216.404L85.2468 217.352L85.7188 216.471L83.9473 215.522L83.4754 216.404ZM87.0183 218.301L88.7897 219.249L89.2617 218.367L87.4902 217.419L87.0183 218.301ZM90.5612 220.197L92.3326 221.146L92.8046 220.264L91.0331 219.316L90.5612 220.197ZM94.1041 222.094L95.8755 223.042L96.3475 222.161L94.576 221.212L94.1041 222.094ZM97.647 223.991L99.4184 224.939L99.8904 224.057L98.1189 223.109L97.647 223.991ZM101.19 225.887L102.961 226.836L103.433 225.954L101.662 225.006L101.19 225.887ZM104.733 227.784L106.504 228.732L106.976 227.851L105.205 226.902L104.733 227.784ZM108.276 229.681L110.047 230.629L110.519 229.748L108.748 228.799L108.276 229.681ZM111.819 231.577L113.59 232.526L114.062 231.644L112.291 230.696L111.819 231.577ZM115.361 233.474L117.133 234.423L117.605 233.541L115.833 232.593L115.361 233.474ZM118.904 235.371L120.676 236.319L121.148 235.438L119.376 234.489L118.904 235.371ZM122.447 237.268L124.219 238.216L124.691 237.334L122.919 236.386L122.447 237.268ZM125.99 239.164L127.762 240.113L128.234 239.231L126.462 238.283L125.99 239.164ZM129.533 241.061L131.304 242.009L131.776 241.128L130.005 240.179L129.533 241.061ZM133.076 242.958L134.847 243.906L135.319 243.024L133.548 242.076L133.076 242.958ZM136.619 244.854L138.39 245.803L138.862 244.921L137.091 243.973L136.619 244.854ZM140.162 246.751L141.933 247.699L142.405 246.818L140.634 245.869L140.162 246.751ZM143.705 248.648L145.476 249.596L145.948 248.715L144.177 247.766L143.705 248.648ZM147.247 250.544L149.019 251.493L149.491 250.611L147.719 249.663L147.247 250.544ZM150.79 252.441L152.562 253.39L153.034 252.508L151.262 251.56L150.79 252.441ZM154.333 254.338L156.105 255.286L156.577 254.405L154.805 253.456L154.333 254.338ZM157.876 256.235L159.648 257.183L160.12 256.301L158.348 255.353L157.876 256.235ZM161.419 258.131L163.19 259.08L163.662 258.198L161.891 257.25L161.419 258.131ZM164.962 260.028L166.733 260.976L167.205 260.095L165.434 259.146L164.962 260.028ZM168.505 261.925L170.276 262.873L170.748 261.991L168.977 261.043L168.505 261.925ZM172.048 263.821L173.819 264.77L174.291 263.888L172.52 262.94L172.048 263.821ZM175.591 265.718L177.362 266.666L177.834 265.785L176.063 264.836L175.591 265.718ZM179.133 267.615L180.905 268.563L181.377 267.682L179.605 266.733L179.133 267.615ZM182.676 269.511L184.448 270.46L184.92 269.578L183.148 268.63L182.676 269.511ZM186.219 271.408L187.991 272.357L188.463 271.475L186.691 270.527L186.219 271.408ZM189.762 273.305L191.534 274.253L192.006 273.372L190.234 272.423L189.762 273.305ZM193.305 275.202L195.076 276.15L195.548 275.268L193.777 274.32L193.305 275.202ZM196.848 277.098L198.619 278.047L199.091 277.165L197.32 276.217L196.848 277.098ZM200.391 278.995L202.162 279.943L202.634 279.062L200.863 278.113L200.391 278.995ZM203.934 280.892L205.705 281.84L206.177 280.958L204.406 280.01L203.934 280.892ZM207.477 282.788L209.248 283.737L209.72 282.855L207.949 281.907L207.477 282.788ZM211.019 284.685L212.791 285.633L213.263 284.752L211.491 283.803L211.019 284.685ZM214.562 286.582L216.334 287.53L216.806 286.648L215.034 285.7L214.562 286.582ZM218.105 288.478L219.877 289.427L220.349 288.545L218.577 287.597L218.105 288.478ZM221.648 290.375L223.42 291.323L223.892 290.442L222.12 289.494L221.648 290.375ZM225.191 292.272L226.962 293.22L227.434 292.339L225.663 291.39L225.191 292.272ZM228.734 294.169L230.505 295.117L230.977 294.235L229.206 293.287L228.734 294.169ZM232.277 296.065L234.048 297.014L234.52 296.132L232.749 295.184L232.277 296.065ZM235.82 297.962L237.591 298.91L238.063 298.029L236.292 297.08L235.82 297.962ZM239.363 299.859L241.134 300.807L241.606 299.925L239.835 298.977L239.363 299.859ZM242.906 301.755L244.677 302.704L245.149 301.822L243.378 300.874L242.906 301.755ZM246.448 303.652L248.22 304.6L248.692 303.719L246.92 302.77L246.448 303.652ZM249.991 305.549L251.763 306.497L252.235 305.616L250.463 304.667L249.991 305.549ZM253.534 307.446L255.306 308.394L255.778 307.512L254.006 306.564L253.534 307.446ZM257.077 309.342L258.849 310.291L259.321 309.409L257.549 308.461L257.077 309.342ZM260.62 311.239L262.392 312.187L262.864 311.306L261.092 310.357L260.62 311.239ZM264.163 313.136L265.934 314.084L266.406 313.202L264.635 312.254L264.163 313.136ZM267.706 315.032L269.477 315.981L269.949 315.099L268.178 314.151L267.706 315.032ZM271.249 316.929L273.02 317.877L273.492 316.996L271.721 316.047L271.249 316.929ZM274.792 318.826L276.563 319.774L277.035 318.893L275.264 317.944L274.792 318.826ZM278.335 320.723L280.106 321.671L280.578 320.789L278.807 319.841L278.335 320.723ZM281.878 322.619L283.649 323.568L284.121 322.686L282.35 321.738L281.878 322.619ZM285.421 324.516L287.192 325.464L287.664 324.583L285.892 323.634L285.421 324.516ZM288.963 326.413L290.735 327.361L291.207 326.479L289.435 325.531L288.963 326.413ZM292.506 328.309L294.278 329.258L294.75 328.376L292.978 327.428L292.506 328.309ZM296.049 330.206L297.821 331.154L298.293 330.273L296.521 329.324L296.049 330.206ZM299.592 332.103L301.364 333.051L301.836 332.17L300.064 331.221L299.592 332.103ZM303.135 334L304.907 334.948L305.379 334.066L303.607 333.118L303.135 334ZM306.678 335.896L308.449 336.845L308.921 335.963L307.15 335.015L306.678 335.896ZM310.221 337.793L311.992 338.741L312.464 337.86L310.693 336.911L310.221 337.793ZM313.764 339.69L315.535 340.638L316.007 339.756L314.236 338.808L313.764 339.69ZM317.307 341.586L319.078 342.535L319.55 341.653L317.779 340.705L317.307 341.586ZM320.85 343.483L322.621 344.431L323.093 343.55L321.322 342.601L320.85 343.483ZM324.393 345.38L326.164 346.328L326.636 345.447L324.865 344.498L324.393 345.38ZM327.935 347.277L329.707 348.225L330.179 347.343L328.407 346.395L327.935 347.277ZM331.478 349.173L333.25 350.122L333.722 349.24L331.95 348.292L331.478 349.173ZM335.021 351.07L336.793 352.018L337.265 351.137L335.493 350.188L335.021 351.07ZM338.564 352.967L339.45 353.441L339.922 352.559L339.036 352.085L338.564 352.967ZM340.008 353.382L340.868 352.657L340.223 351.893L339.364 352.618L340.008 353.382ZM342.587 351.207L344.306 349.757L343.661 348.992L341.942 350.442L342.587 351.207ZM346.025 348.306L347.744 346.856L347.099 346.092L345.38 347.542L346.025 348.306ZM349.463 345.406L350.322 344.681L349.678 343.916L348.818 344.642L349.463 345.406ZM350.235 343.857L349.354 343.387L348.883 344.269L349.765 344.74L350.235 343.857ZM347.59 342.446L345.827 341.504L345.356 342.387L347.12 343.328L347.59 342.446ZM344.064 340.563L342.3 339.622L341.829 340.504L343.593 341.445L344.064 340.563ZM340.537 338.681L338.774 337.739L338.303 338.622L340.066 339.563L340.537 338.681ZM337.01 336.798L335.247 335.857L334.776 336.739L336.539 337.68L337.01 336.798ZM333.484 334.916L331.72 333.974L331.249 334.857L333.013 335.798L333.484 334.916ZM329.957 333.033L328.194 332.092L327.723 332.974L329.486 333.915L329.957 333.033ZM326.43 331.151L324.667 330.209L324.196 331.092L325.959 332.033L326.43 331.151ZM322.904 329.268L321.14 328.327L320.669 329.209L322.433 330.15L322.904 329.268ZM319.377 327.386L317.613 326.444L317.143 327.326L318.906 328.268L319.377 327.386ZM315.85 325.503L314.087 324.562L313.616 325.444L315.379 326.385L315.85 325.503ZM312.323 323.621L310.56 322.679L310.089 323.561L311.853 324.503L312.323 323.621ZM308.797 321.738L307.033 320.797L306.562 321.679L308.326 322.62L308.797 321.738ZM305.27 319.856L303.507 318.914L303.036 319.796L304.799 320.738L305.27 319.856ZM301.743 317.973L299.98 317.032L299.509 317.914L301.272 318.855L301.743 317.973ZM298.217 316.091L296.453 315.149L295.982 316.031L297.746 316.973L298.217 316.091ZM294.69 314.208L292.927 313.267L292.456 314.149L294.219 315.09L294.69 314.208ZM291.163 312.326L289.4 311.384L288.929 312.266L290.692 313.208L291.163 312.326ZM287.636 310.443L285.873 309.502L285.402 310.384L287.166 311.325L287.636 310.443ZM284.11 308.561L282.346 307.619L281.876 308.501L283.639 309.443L284.11 308.561ZM280.583 306.678L278.82 305.737L278.349 306.619L280.112 307.56L280.583 306.678ZM277.056 304.795L275.293 303.854L274.822 304.736L276.585 305.678L277.056 304.795ZM273.53 302.913L271.766 301.972L271.295 302.854L273.059 303.795L273.53 302.913ZM270.003 301.03L268.24 300.089L267.769 300.971L269.532 301.913L270.003 301.03ZM266.476 299.148L264.713 298.207L264.242 299.089L266.005 300.03L266.476 299.148ZM262.95 297.265L261.186 296.324L260.715 297.206L262.479 298.148L262.95 297.265ZM259.423 295.383L257.66 294.442L257.189 295.324L258.952 296.265L259.423 295.383ZM255.896 293.5L254.133 292.559L253.662 293.441L255.425 294.383L255.896 293.5ZM252.369 291.618L250.606 290.677L250.135 291.559L251.899 292.5L252.369 291.618ZM248.843 289.735L247.079 288.794L246.609 289.676L248.372 290.618L248.843 289.735ZM245.316 287.853L243.553 286.912L243.082 287.794L244.845 288.735L245.316 287.853ZM241.789 285.97L240.026 285.029L239.555 285.911L241.318 286.853L241.789 285.97ZM238.263 284.088L236.499 283.147L236.028 284.029L237.792 284.97L238.263 284.088ZM234.736 282.205L232.973 281.264L232.502 282.146L234.265 283.088L234.736 282.205ZM231.209 280.323L229.446 279.382L228.975 280.264L230.738 281.205L231.209 280.323ZM227.683 278.44L225.919 277.499L225.448 278.381L227.212 279.323L227.683 278.44ZM224.156 276.558L222.392 275.617L221.922 276.499L223.685 277.44L224.156 276.558ZM220.629 274.675L218.866 273.734L218.395 274.616L220.158 275.558L220.629 274.675ZM217.102 272.793L215.339 271.852L214.868 272.734L216.632 273.675L217.102 272.793ZM213.576 270.91L211.812 269.969L211.341 270.851L213.105 271.793L213.576 270.91ZM210.049 269.028L208.286 268.087L207.815 268.969L209.578 269.91L210.049 269.028ZM206.522 267.145L204.759 266.204L204.288 267.086L206.051 268.028L206.522 267.145ZM202.996 265.263L201.232 264.322L200.761 265.204L202.525 266.145L202.996 265.263ZM199.469 263.38L197.706 262.439L197.235 263.321L198.998 264.263L199.469 263.38ZM195.942 261.498L194.179 260.557L193.708 261.439L195.471 262.38L195.942 261.498ZM192.416 259.615L190.652 258.674L190.181 259.556L191.945 260.498L192.416 259.615ZM188.889 257.733L187.125 256.792L186.655 257.674L188.418 258.615L188.889 257.733ZM185.362 255.85L183.599 254.909L183.128 255.791L184.891 256.733L185.362 255.85ZM181.835 253.968L180.072 253.027L179.601 253.909L181.365 254.85L181.835 253.968ZM178.309 252.085L176.545 251.144L176.074 252.026L177.838 252.968L178.309 252.085ZM174.782 250.203L173.019 249.262L172.548 250.144L174.311 251.085L174.782 250.203ZM171.255 248.32L169.492 247.379L169.021 248.261L170.784 249.203L171.255 248.32ZM167.729 246.438L165.965 245.497L165.494 246.379L167.258 247.32L167.729 246.438ZM164.202 244.555L162.439 243.614L161.968 244.496L163.731 245.438L164.202 244.555ZM160.675 242.673L158.912 241.732L158.441 242.614L160.204 243.555L160.675 242.673ZM157.149 240.79L155.385 239.849L154.914 240.731L156.678 241.672L157.149 240.79ZM153.622 238.908L151.858 237.967L151.388 238.849L153.151 239.79L153.622 238.908ZM150.095 237.025L148.332 236.084L147.861 236.966L149.624 237.907L150.095 237.025ZM146.568 235.143L144.805 234.202L144.334 235.084L146.098 236.025L146.568 235.143ZM143.042 233.26L141.278 232.319L140.807 233.201L142.571 234.142L143.042 233.26ZM139.515 231.378L137.752 230.437L137.281 231.319L139.044 232.26L139.515 231.378ZM135.988 229.495L134.225 228.554L133.754 229.436L135.517 230.377L135.988 229.495ZM132.462 227.613L130.698 226.672L130.227 227.554L131.991 228.495L132.462 227.613ZM128.935 225.73L127.172 224.789L126.701 225.671L128.464 226.612L128.935 225.73ZM125.408 223.848L123.645 222.906L123.174 223.789L124.937 224.73L125.408 223.848ZM121.881 221.965L120.118 221.024L119.647 221.906L121.411 222.847L121.881 221.965ZM118.355 220.083L116.591 219.141L116.121 220.024L117.884 220.965L118.355 220.083ZM114.828 218.2L113.065 217.259L112.594 218.141L114.357 219.082L114.828 218.2ZM111.301 216.318L109.538 215.376L109.067 216.259L110.83 217.2L111.301 216.318ZM107.775 214.435L106.011 213.494L105.54 214.376L107.304 215.317L107.775 214.435ZM104.248 212.553L102.485 211.611L102.014 212.494L103.777 213.435L104.248 212.553ZM100.721 210.67L98.9579 209.729L98.487 210.611L100.25 211.552L100.721 210.67ZM97.1946 208.788L95.4312 207.846L94.9603 208.729L96.7237 209.67L97.1946 208.788ZM93.6679 206.905L91.9045 205.964L91.4336 206.846L93.197 207.787L93.6679 206.905ZM90.1412 205.023L88.3778 204.081L87.9069 204.964L89.6703 205.905L90.1412 205.023ZM86.6145 203.14L84.8511 202.199L84.3802 203.081L86.1436 204.022L86.6145 203.14ZM83.0878 201.258L81.3244 200.316L80.8535 201.199L82.6169 202.14L83.0878 201.258ZM79.5611 199.375L77.7977 198.434L77.3268 199.316L79.0902 200.257L79.5611 199.375ZM76.0344 197.493L74.271 196.551L73.8001 197.434L75.5635 198.375L76.0344 197.493ZM72.5077 195.61L70.7443 194.669L70.2734 195.551L72.0368 196.492L72.5077 195.61ZM68.981 193.728L67.2176 192.786L66.7467 193.669L68.5101 194.61L68.981 193.728ZM65.4542 191.845L63.6909 190.904L63.22 191.786L64.9833 192.727L65.4542 191.845ZM61.9275 189.963L60.1642 189.021L59.6933 189.904L61.4566 190.845L61.9275 189.963ZM58.4009 188.08L56.6375 187.139L56.1666 188.021L57.93 188.962L58.4009 188.08ZM54.8742 186.198L53.1108 185.256L52.6399 186.139L54.4033 187.08L54.8742 186.198ZM51.3475 184.315L49.5841 183.374L49.1132 184.256L50.8766 185.197L51.3475 184.315ZM47.8208 182.433L46.0574 181.491L45.5865 182.374L47.3499 183.315L47.8208 182.433ZM44.2941 180.55L42.5307 179.609L42.0598 180.491L43.8232 181.432L44.2941 180.55ZM40.7674 178.668L39.004 177.726L38.5331 178.609L40.2965 179.55L40.7674 178.668ZM37.2406 176.785L35.4773 175.844L35.0064 176.726L36.7698 177.667L37.2406 176.785ZM33.7139 174.903L31.9506 173.961L31.4797 174.844L33.243 175.785L33.7139 174.903ZM30.1872 173.02L28.4239 172.079L27.953 172.961L29.7163 173.902L30.1872 173.02ZM26.6605 171.138L25.7788 170.667L25.3079 171.549L26.1896 172.02L26.6605 171.138ZM16.5193 167.207L17.6196 167.751L18.0626 166.854L16.9623 166.31L16.5193 167.207ZM19.8203 168.838L22.0209 169.925L22.4639 169.029L20.2632 167.941L19.8203 168.838ZM24.2215 171.013L25.3218 171.556L25.7648 170.66L24.6645 170.116L24.2215 171.013Z" fill="#9AA2AC"/>
<path d="M460 376.042L607.577 355C610.586 355 612.849 355.815 613.631 358.868C614.992 364.174 612.347 366.293 609.592 366.929L466.639 387.49C464.621 387.78 462.708 386.507 462.197 384.533L460 376.042Z" fill="#F3F5F7" stroke="#9AA2AC" stroke-linejoin="round" stroke-dasharray="2 2"/>
<path d="M473.242 428.754L382.497 379.424L382.946 360.343L473.242 410.573V428.754Z" fill="#EFF2FF" stroke="#9AA2AC" stroke-linejoin="round"/>
<path d="M513.237 404.823L513.001 423.106L473.241 428.697V410.519L513.237 404.823Z" fill="#EFF2FF" stroke="#9AA2AC" stroke-linejoin="round"/>
<path d="M410.44 419.275L410.204 437.557L368.937 443.361L369.173 425.091L410.44 419.275Z" fill="#EFF2FF" stroke="#9AA2AC" stroke-linejoin="round"/>
<path d="M368.937 443.364L281.565 395.8V377.44L369.173 425.094L368.937 443.364Z" fill="#EFF2FF" stroke="#9AA2AC" stroke-linejoin="round"/>
<path d="M281.546 377.411L369.174 425.09L410.605 419.401L324.382 371.388L281.546 377.411Z" fill="#EFF2FF"/>
<path d="M422.729 355.55L324.382 371.388M324.382 371.388L281.546 377.411L369.174 425.09L410.605 419.401L324.382 371.388Z" stroke="#9AA2AC" stroke-linejoin="round"/>
<path d="M467.649 397.587V300.879L379.208 313.279L379.191 409.883L390.684 408.271L410.274 419.53V423.7L453.459 418.14V399.632L467.649 397.587Z" fill="#F9FAFB" stroke="#9AA2AC" stroke-linejoin="round"/>
<path d="M389.713 376.289L389.708 394.818L379.191 396.29L379.196 377.761L389.713 376.289Z" fill="#F3F5F7" stroke="#9AA2AC" stroke-linejoin="round"/>
<path d="M467.649 365.641L467.644 384.17L457.127 385.643L457.132 367.114L467.649 365.641Z" fill="#F3F5F7" stroke="#9AA2AC" stroke-linejoin="round"/>
<path d="M379.19 409.887L322.355 379.044L322.372 282.441L379.207 313.284L379.19 409.887Z" fill="#F9FAFB" stroke="#9AA2AC" stroke-linejoin="round"/>
<path d="M379.205 313.283L322.37 282.44L410.817 270.034L467.646 300.883L379.205 313.283Z" fill="#F9FAFB" stroke="#9AA2AC" stroke-linejoin="round"/>
<path d="M471.014 347.797L471.026 342.791C471.222 335.347 468.348 317.627 454.171 311.723L389.015 320.487C398.404 324.047 408.154 332.936 408.943 351.495L408.931 356.501L471.014 347.797Z" fill="#FFFB9E" stroke="#9AA2AC" stroke-linejoin="round"/>
<path d="M408.931 356.501L408.943 351.496C408.949 331.377 395.678 322.427 389.042 320.467V345.708L408.931 356.501Z" fill="#FFFB9E" stroke="#9AA2AC" stroke-linejoin="round"/>
<path d="M379.186 396.367L369.293 390.998L369.296 372.431L379.189 377.8L379.186 396.367Z" fill="#F3F5F7" stroke="#9AA2AC" stroke-linejoin="round"/>
<path d="M332.248 374.742L322.355 369.374L322.358 350.806L332.251 356.175L332.248 374.742Z" fill="#F3F5F7" stroke="#9AA2AC" stroke-linejoin="round"/>
<path d="M332.248 322.271L322.355 316.902L322.358 298.335L332.251 303.703L332.248 322.271Z" fill="#F3F5F7" stroke="#9AA2AC" stroke-linejoin="round"/>
<path d="M321.245 367.91L334.766 365.915C337.257 365.915 339.13 366.581 339.778 369.078C340.904 373.417 338.715 375.15 336.434 375.67L327.69 376.656C325.667 376.884 324.138 378.595 324.138 380.631V388.31C323.364 389.537 322.004 390.209 319.491 390.209C316.96 390.054 315.48 389.193 314.524 388.31L314.523 378.463C314.523 373.427 315.249 368.359 321.245 367.91Z" fill="#EAECEF" stroke="#9AA2AC" stroke-linejoin="round"/>
<path d="M345.773 380.172L359.294 378.177C361.785 378.177 363.658 378.844 364.305 381.34C365.432 385.679 363.243 387.412 360.962 387.932L352.218 388.918C350.195 389.146 348.666 390.857 348.666 392.893V400.572C347.892 401.799 346.532 402.471 344.018 402.471C341.488 402.316 340.008 401.455 339.052 400.572L339.051 390.725C339.051 385.689 339.777 380.621 345.773 380.172Z" fill="#EAECEF" stroke="#9AA2AC" stroke-linejoin="round"/>
<path d="M409.015 347.152L470.97 338.479" stroke="#9AA2AC"/>
<path d="M407.846 339.414L469.8 330.741" stroke="#9AA2AC"/>
<path d="M404.966 332.417L467.648 323.664" stroke="#9AA2AC"/>
<path d="M399.688 325.539L462.995 316.655" stroke="#9AA2AC"/>
<path d="M467.643 397.47V379.944L513.229 404.672L473.181 410.438L453.505 399.528L467.643 397.47Z" fill="#EFF2FF" stroke="#9AA2AC" stroke-linejoin="round"/>
<path d="M408.034 230.53L407.91 277.23L348.565 285.459L348.564 238.875L408.034 230.53Z" fill="#FDFAC3" fill-opacity="0.64" stroke="#F3F5F7" stroke-linejoin="round"/>
<path d="M384.019 304.833L348.687 285.595L408.244 277.251L443.576 296.483L384.019 304.833Z" fill="#FDFAC3" stroke="#9AA2AC" stroke-linejoin="round"/>
<path d="M408.04 277.23L443.573 296.387V249.697L408.164 230.531L408.04 277.23Z" fill="#FDFAC3" fill-opacity="0.64" stroke="#9AA2AC" stroke-linejoin="round"/>
<path d="M348.566 285.573L384.099 304.729V258.04L348.69 238.874L348.566 285.573Z" fill="#FDFAC3" fill-opacity="0.64" stroke="#9AA2AC" stroke-linejoin="round"/>
<path d="M384.02 258.113L348.688 238.874L408.245 230.531L443.577 249.763L384.02 258.113Z" fill="#FDFAC3" fill-opacity="0.64" stroke="#9AA2AC" stroke-linejoin="round"/>
<path d="M451.804 246.017L451.694 248.932L384.179 258.369L384.179 255.532L451.804 246.017Z" fill="#F3F5F7" stroke="#9AA2AC" stroke-linejoin="round"/>
<path d="M384.181 258.402L341.584 235.304L341.695 232.388L384.181 255.523V258.402Z" fill="#F3F5F7" stroke="#9AA2AC" stroke-linejoin="round"/>
<path d="M384.182 255.525L341.696 232.391L409.321 222.883L451.807 246.011L384.182 255.525Z" fill="#F3F5F7" stroke="#9AA2AC" stroke-linejoin="round"/>
<path d="M446.573 238.127L446.471 244.997L384.203 253.745L384.204 246.902L446.573 238.127Z" fill="#F9FAFB" stroke="#9AA2AC" stroke-linejoin="round"/>
<path d="M384.205 253.746L344.918 232.436L345.02 225.567L384.205 246.903V253.746Z" fill="#F9FAFB" stroke="#9AA2AC" stroke-linejoin="round"/>
<path d="M384.207 246.901L345.022 225.564L407.392 216.795L446.576 238.126L384.207 246.901Z" fill="#F9FAFB" stroke="#9AA2AC" stroke-linejoin="round"/>
<path d="M405.44 381.2L403.513 381.471V384.971L401.988 385.186V375.134L405.44 374.648C407.672 374.335 409.114 375.28 409.114 377.38C409.114 379.494 407.672 380.887 405.44 381.2ZM405.426 375.952L403.513 376.221V380.169L405.426 379.9C406.771 379.711 407.589 378.854 407.589 377.608C407.589 376.362 406.771 375.763 405.426 375.952ZM414.843 383.379V382.231C414.386 383.121 413.568 383.698 412.486 383.85C410.961 384.064 409.963 383.323 409.963 381.965C409.963 380.509 411.114 379.591 413.304 379.283C413.734 379.223 414.081 379.188 414.677 379.174V378.628C414.677 377.564 414.108 377.042 413.138 377.178C412.112 377.323 411.488 378.026 411.446 379.068L410.171 379.247C410.24 377.572 411.419 376.3 413.138 376.058C414.954 375.803 416.008 376.691 416.008 378.455V383.215L414.843 383.379ZM411.294 381.736C411.294 382.506 411.862 382.93 412.764 382.803C413.942 382.637 414.677 381.792 414.677 380.658V380.056C414.136 380.062 413.748 380.103 413.387 380.153C411.987 380.35 411.294 380.868 411.294 381.736ZM419.28 378.961V382.755L417.88 382.952V375.532L419.183 375.349V376.917C419.696 375.823 420.805 375.023 422.011 374.853V376.323C420.431 376.462 419.28 377.323 419.28 378.961ZM427.711 380.198V381.444C427.282 381.701 426.907 381.823 426.464 381.886C425.105 382.077 424.162 381.467 424.162 379.829V375.853L422.54 376.081V374.877L424.162 374.649V372.451L425.562 372.254V374.452L427.781 374.141V375.345L425.562 375.656V379.31C425.562 380.332 426.048 380.628 426.796 380.523C427.129 380.476 427.42 380.379 427.711 380.198ZM430.517 376.99V381.176L429.117 381.373V373.953L430.42 373.77V375.002C430.919 374.105 431.751 373.443 432.763 373.3C434.274 373.088 435.273 373.928 435.273 375.706V380.508L433.872 380.704V376.378C433.872 375.104 433.318 374.468 432.278 374.615C431.321 374.749 430.517 375.674 430.517 376.99ZM440.154 379.962C438.033 380.26 436.605 378.906 436.605 376.568C436.605 374.37 438.089 372.552 440.113 372.267C442.303 371.96 443.759 373.547 443.509 375.99L438.033 376.76C438.144 378.256 438.893 379.033 440.127 378.859C441.166 378.713 441.887 378.038 442.123 377.039L443.509 376.844C443.149 378.547 441.887 379.718 440.154 379.962ZM440.085 373.335C438.962 373.493 438.2 374.412 438.047 375.82L442.026 375.261C441.957 373.898 441.222 373.176 440.085 373.335ZM446.398 375.15V378.944L444.998 379.141V371.721L446.301 371.538V373.106C446.814 372.012 447.923 371.212 449.129 371.042V372.512C447.549 372.65 446.398 373.512 446.398 375.15Z" fill="#3C4149"/>
</svg>
