<svg width="711" height="497" viewBox="0 0 711 497" fill="none" xmlns="http://www.w3.org/2000/svg">
<path d="M166.712 155.785L166.736 167.745L65.3774 182.963L65.353 171.012L166.712 155.785Z" fill="#EFF2FF" stroke="#9AA2AC" stroke-linejoin="round"/>
<path d="M65.3784 182.957L1.29445 148.844L1.26997 136.884L65.354 171.005L65.3784 182.957Z" fill="#EFF2FF" stroke="#9AA2AC" stroke-linejoin="round"/>
<path d="M65.3537 171.008L1.26992 136.888L102.629 121.67L166.713 155.781L65.3537 171.008Z" fill="#EFF2FF" stroke="#9AA2AC" stroke-linejoin="round"/>
<path d="M166.824 118.647L166.848 147.862L65.4888 163.081L65.4649 133.875L166.824 118.647Z" fill="#F9FAFB" stroke="#9AA2AC" stroke-linejoin="round"/>
<path d="M65.4886 163.078L1.40423 128.965L1.38019 99.7498L65.4646 133.872L65.4886 163.078Z" fill="#F9FAFB" stroke="#9AA2AC" stroke-linejoin="round"/>
<path d="M65.4655 133.869L1.38174 99.749L102.741 84.5307L166.825 118.642L65.4655 133.869Z" fill="#F9FAFB" stroke="#9AA2AC" stroke-linejoin="round"/>
<path d="M88.7654 148.038C85.9926 148.428 83.8437 146.448 83.8437 143.48C83.8437 140.526 85.9926 137.956 88.7654 137.566C91.2608 137.215 93.2572 138.615 93.6315 141.04L92.0095 141.268C91.7322 139.683 90.429 138.718 88.7792 138.95C86.8106 139.227 85.4242 141.031 85.4242 143.257C85.4242 145.511 86.8106 146.927 88.7792 146.65C90.429 146.418 91.7322 145.073 92.0095 143.41L93.6315 143.182C93.2572 145.727 91.2608 147.687 88.7654 148.038ZM99.6944 143.24V138.872L101.095 138.675V146.095L99.7915 146.278V145.102C99.4033 145.927 98.5437 146.594 97.5456 146.734C96.0621 146.942 95.0362 146.205 95.0362 144.301V139.527L96.4365 139.33V143.824C96.4365 145.112 97.0742 145.554 97.9892 145.426C98.9319 145.293 99.6944 144.402 99.6944 143.24ZM108.862 142.791C108.862 144.247 107.739 145.301 105.784 145.576C103.843 145.849 102.693 145.045 102.554 143.468L103.899 143.279C103.954 144.195 104.689 144.666 105.812 144.508C106.796 144.37 107.448 143.928 107.448 143.228C107.448 142.612 107.074 142.399 106.159 142.345L104.966 142.289C103.608 142.214 102.845 141.621 102.845 140.501C102.845 139.199 103.968 138.131 105.673 137.892C107.434 137.644 108.626 138.429 108.751 139.937L107.406 140.126C107.323 139.242 106.672 138.815 105.687 138.954C104.8 139.078 104.204 139.54 104.204 140.184C104.204 140.786 104.578 141.014 105.465 141.057L106.713 141.12C108.169 141.181 108.862 141.727 108.862 142.791ZM114.441 142.847V144.093C114.012 144.35 113.637 144.472 113.194 144.535C111.835 144.726 110.892 144.116 110.892 142.478V138.502L109.27 138.73V137.526L110.892 137.298V135.1L112.292 134.903V137.101L114.511 136.79V137.994L112.292 138.305V141.959C112.292 142.981 112.778 143.277 113.526 143.172C113.859 143.125 114.15 143.028 114.441 142.847ZM118.722 143.758C116.642 144.05 115.117 142.612 115.117 140.414C115.117 138.216 116.642 136.35 118.722 136.058C120.801 135.766 122.326 137.203 122.326 139.401C122.326 141.599 120.801 143.466 118.722 143.758ZM118.722 142.512C119.928 142.342 120.884 141.228 120.884 139.604C120.884 137.98 119.928 137.148 118.722 137.318C117.516 137.487 116.573 138.586 116.573 140.21C116.573 141.834 117.516 142.681 118.722 142.512ZM125.154 142.714L123.754 142.911V135.491L125.057 135.307V136.539C125.556 135.615 126.346 134.986 127.358 134.844C128.44 134.692 129.258 135.137 129.59 136.07C130.103 135.046 130.949 134.339 132.072 134.182C133.583 133.969 134.554 134.827 134.554 136.591V141.393L133.153 141.59V137.236C133.153 136.004 132.613 135.352 131.587 135.496C130.63 135.63 129.854 136.551 129.854 137.797V142.053L128.453 142.25V137.896C128.453 136.664 127.913 136.012 126.887 136.156C125.916 136.293 125.154 137.212 125.154 138.458V142.714ZM139.448 140.845C137.327 141.143 135.899 139.79 135.899 137.452C135.899 135.254 137.383 133.435 139.407 133.151C141.597 132.843 143.053 134.43 142.803 136.873L137.327 137.643C137.438 139.139 138.187 139.916 139.421 139.743C140.46 139.597 141.181 138.921 141.417 137.922L142.803 137.727C142.443 139.43 141.181 140.601 139.448 140.845ZM139.379 134.219C138.256 134.376 137.494 135.296 137.341 136.703L141.32 136.144C141.251 134.782 140.516 134.059 139.379 134.219ZM145.692 136.033V139.827L144.292 140.024V132.604L145.595 132.421V133.989C146.108 132.895 147.217 132.095 148.423 131.926V133.396C146.843 133.534 145.692 134.395 145.692 136.033Z" fill="#3C4149"/>
<path d="M103.614 1L103.392 84.4174L1.60555 99.5838L1.60498 16.3725L103.614 1Z" fill="#FDFAC3" fill-opacity="0.64" stroke="#9AA2AC" stroke-linejoin="round"/>
<path d="M103.326 84.8537L166.87 118.646V35.2469L103.62 1.01062L103.326 84.8537Z" fill="#FDFAC3" fill-opacity="0.64" stroke="#9AA2AC" stroke-linejoin="round"/>
<path d="M102.541 51.7362L102.541 99.3749L96.249 103.397L96.2405 55.686L102.541 51.7362Z" fill="#F9FAFB" stroke="#9AA2AC" stroke-linejoin="round"/>
<path d="M117.6 52.4823L117.609 100.196L102.565 99.4189L102.566 51.7635L117.6 52.4823Z" fill="#F9FAFB" stroke="#9AA2AC" stroke-linejoin="round"/>
<path d="M96.2492 103.402L74.1239 91.6229L74.1153 43.9092L96.2407 55.6908L96.2492 103.402Z" fill="#F9FAFB" stroke="#9AA2AC" stroke-linejoin="round"/>
<path d="M79.6484 51.989V62.0782L90.3472 67.8862V57.7389" stroke="#9AA2AC" stroke-linejoin="round"/>
<path d="M96.2443 55.6854L74.1187 43.9037L88.7572 44.3563L95.4792 40.698L117.605 52.4767L102.556 51.776L96.2443 55.6854Z" fill="#DDE0E3" stroke="#9AA2AC" stroke-linejoin="round"/>
<path d="M89.1157 44.2321L89.1157 51.7071" stroke="#9AA2AC"/>
<path d="M95.4817 40.7051L95.4817 55.1728" stroke="#9AA2AC"/>
<path d="M75.5189 56.8233L75.5189 104.462L69.2268 108.484L69.2183 60.7732L75.5189 56.8233Z" fill="#F9FAFB" stroke="#9AA2AC" stroke-linejoin="round"/>
<path d="M90.5782 57.5694L90.5867 105.283L75.5433 104.506L75.5433 56.8505L90.5782 57.5694Z" fill="#F9FAFB" stroke="#9AA2AC" stroke-linejoin="round"/>
<path d="M69.227 108.489L47.1017 96.71L47.0931 48.9963L69.2185 60.778L69.227 108.489Z" fill="#F9FAFB" stroke="#9AA2AC" stroke-linejoin="round"/>
<path d="M52.6262 57.062V67.1512L63.325 72.9592V62.8119" stroke="#9AA2AC" stroke-linejoin="round"/>
<path d="M69.222 60.7726L47.0965 48.9908L61.735 49.4435L68.457 45.7852L90.5825 57.5639L75.534 56.8631L69.222 60.7726Z" fill="#DDE0E3" stroke="#9AA2AC" stroke-linejoin="round"/>
<path d="M62.0938 49.3051L62.0937 56.7801" stroke="#9AA2AC"/>
<path d="M68.4614 45.7781L68.4614 60.2458" stroke="#9AA2AC"/>
<path d="M48.4974 61.9105L48.4974 109.549L42.2053 113.571L42.1968 65.8603L48.4974 61.9105Z" fill="#F9FAFB" stroke="#9AA2AC" stroke-linejoin="round"/>
<path d="M63.5567 62.6565L63.5652 110.37L48.5218 109.593L48.5218 61.9377L63.5567 62.6565Z" fill="#F9FAFB" stroke="#9AA2AC" stroke-linejoin="round"/>
<path d="M42.2055 113.576L20.0802 101.797L20.0716 54.0835L42.197 65.8652L42.2055 113.576Z" fill="#F9FAFB" stroke="#9AA2AC" stroke-linejoin="round"/>
<path d="M25.6047 62.1355V72.2247L36.3035 78.0327V67.8853" stroke="#9AA2AC" stroke-linejoin="round"/>
<path d="M42.2006 65.8597L20.075 54.078L34.7135 54.5306L41.4355 50.8723L63.561 62.6511L48.5125 61.9503L42.2006 65.8597Z" fill="#DDE0E3" stroke="#9AA2AC" stroke-linejoin="round"/>
<path d="M35.0723 54.3781L35.0722 61.8531" stroke="#9AA2AC"/>
<path d="M41.438 50.8511L41.438 65.3188" stroke="#9AA2AC"/>
<path d="M130.983 66.4547L130.983 114.093L124.691 118.115L124.682 70.4045L130.983 66.4547Z" fill="#F9FAFB" stroke="#9AA2AC" stroke-linejoin="round"/>
<path d="M146.042 67.2007L146.051 114.914L131.007 114.137L131.007 66.4818L146.042 67.2007Z" fill="#F9FAFB" stroke="#9AA2AC" stroke-linejoin="round"/>
<path d="M124.691 118.12L102.566 106.341L102.557 58.6275L124.682 70.4092L124.691 118.12Z" fill="#F9FAFB" stroke="#9AA2AC" stroke-linejoin="round"/>
<path d="M108.09 66.6667V76.7559L118.789 82.5639V72.4166" stroke="#9AA2AC" stroke-linejoin="round"/>
<path d="M124.686 70.4038L102.56 58.622L117.199 59.0747L123.921 55.4164L146.046 67.1951L130.998 66.4943L124.686 70.4038Z" fill="#DDE0E3" stroke="#9AA2AC" stroke-linejoin="round"/>
<path d="M117.634 58.908L117.634 66.383" stroke="#9AA2AC"/>
<path d="M123.923 55.3811L123.923 69.8488" stroke="#9AA2AC"/>
<path d="M103.961 71.5382L103.961 119.177L97.6692 123.199L97.6607 75.488L103.961 71.5382Z" fill="#F9FAFB" stroke="#9AA2AC" stroke-linejoin="round"/>
<path d="M119.021 72.2842L119.029 119.998L103.986 119.221L103.986 71.5653L119.021 72.2842Z" fill="#F9FAFB" stroke="#9AA2AC" stroke-linejoin="round"/>
<path d="M97.6694 123.203L75.544 111.425L75.5355 63.711L97.6609 75.4927L97.6694 123.203Z" fill="#F9FAFB" stroke="#9AA2AC" stroke-linejoin="round"/>
<path d="M81.0686 71.7362V81.8254L91.7674 87.6334V77.4861" stroke="#9AA2AC" stroke-linejoin="round"/>
<path d="M97.6644 75.4873L75.5389 63.7055L90.1774 64.1582L96.8994 60.4999L119.025 72.2786L103.976 71.5778L97.6644 75.4873Z" fill="#DDE0E3" stroke="#9AA2AC" stroke-linejoin="round"/>
<path d="M90.6121 63.981L90.612 71.456" stroke="#9AA2AC"/>
<path d="M96.9036 60.454L96.9036 74.9217" stroke="#9AA2AC"/>
<path d="M76.9398 76.6247L76.9398 124.263L70.6477 128.285L70.6392 80.5746L76.9398 76.6247Z" fill="#F9FAFB" stroke="#9AA2AC" stroke-linejoin="round"/>
<path d="M91.9991 77.3709L92.0076 125.085L76.9641 124.307L76.9642 76.652L91.9991 77.3709Z" fill="#F9FAFB" stroke="#9AA2AC" stroke-linejoin="round"/>
<path d="M70.6479 128.29L48.5226 116.511L48.514 68.7977L70.6394 80.5794L70.6479 128.29Z" fill="#F9FAFB" stroke="#9AA2AC" stroke-linejoin="round"/>
<path d="M54.0471 76.8086V86.8978L64.7459 92.7057V82.5584" stroke="#9AA2AC" stroke-linejoin="round"/>
<path d="M70.6429 80.574L48.5174 68.7922L63.1559 69.2448L69.8779 65.5865L92.0034 77.3653L76.9549 76.6645L70.6429 80.574Z" fill="#DDE0E3" stroke="#9AA2AC" stroke-linejoin="round"/>
<path d="M63.5906 69.0533L63.5906 76.5284" stroke="#9AA2AC"/>
<path d="M69.8804 65.5264L69.8804 79.9941" stroke="#9AA2AC"/>
<path d="M419.167 458.17C419.167 460.564 417.42 462.213 414.604 462.609L409.595 463.313V450.389L414.408 449.713C417.099 449.335 418.757 450.326 418.757 452.54C418.757 453.728 418.097 454.774 416.957 455.529C418.383 455.832 419.167 456.748 419.167 458.17ZM414.194 451.903L412.055 452.204V455.21L414.194 454.909C415.513 454.724 416.19 454.052 416.19 453.116C416.19 452.198 415.513 451.718 414.194 451.903ZM414.39 457.059L412.055 457.388V460.808L414.39 460.479C415.851 460.274 416.618 459.518 416.618 458.42C416.618 457.394 415.851 456.854 414.39 457.059ZM423.4 456.711V461.373L420.922 461.721V452.109L423.203 451.789V453.643C423.899 452.321 425.378 451.375 426.911 451.16V453.752C424.808 453.885 423.4 454.587 423.4 456.711ZM432.335 460.297C429.572 460.686 427.505 458.78 427.505 455.99C427.505 453.182 429.572 450.714 432.335 450.325C435.098 449.937 437.166 451.824 437.166 454.632C437.166 457.422 435.098 459.909 432.335 460.297ZM432.335 458.083C433.565 457.91 434.617 456.773 434.617 454.991C434.617 453.209 433.565 452.384 432.335 452.557C431.105 452.73 430.054 453.85 430.054 455.632C430.054 457.414 431.105 458.256 432.335 458.083ZM441.224 458.868L438.747 459.216V446.292L441.224 445.944V453.324L444.7 448.767L447.552 448.367L443.613 453.528L448.016 457.914L444.861 458.357L441.224 454.404V458.868ZM452.7 457.417C449.848 457.818 447.94 456.088 447.94 453.082C447.94 450.22 449.919 447.854 452.664 447.468C455.676 447.045 457.673 449.23 457.227 452.425L450.472 453.374C450.632 454.918 451.381 455.677 452.646 455.499C453.734 455.346 454.464 454.703 454.75 453.709L457.209 453.363C456.675 455.617 455.017 457.092 452.7 457.417ZM452.611 449.312C451.452 449.475 450.721 450.333 450.507 451.785L454.607 451.209C454.536 449.887 453.787 449.146 452.611 449.312ZM461.364 451.376V456.038L458.887 456.386V446.774L461.168 446.453V448.307C461.863 446.985 463.343 446.039 464.876 445.824V448.416C462.773 448.55 461.364 449.252 461.364 451.376ZM471.831 454.566V453.378C471.207 454.366 470.263 454.967 468.961 455.15C466.983 455.428 465.664 454.443 465.664 452.643C465.664 450.771 467.161 449.553 469.942 449.162C470.476 449.087 470.94 449.058 471.528 449.047V448.471C471.528 447.391 470.922 446.846 469.888 446.992C468.819 447.142 468.177 447.862 468.088 448.955L465.86 449.268C466.002 447.034 467.589 445.371 469.888 445.048C472.384 444.697 473.845 445.877 473.845 448.235V454.283L471.831 454.566ZM467.999 452.243C467.999 453.053 468.569 453.477 469.496 453.347C470.762 453.169 471.528 452.359 471.528 451.243V450.559C470.94 450.552 470.53 450.573 470.102 450.633C468.694 450.831 467.999 451.379 467.999 452.243ZM480.027 457.069C477.46 457.429 475.749 456.266 475.642 454.067L478.03 453.731C478.137 454.814 478.832 455.293 480.009 455.127C481.381 454.934 482.094 454.096 482.094 452.71V451.306C481.577 452.297 480.597 452.975 479.438 453.137C477.103 453.466 475.357 451.713 475.357 448.995C475.357 446.205 476.996 444.049 479.349 443.718C480.633 443.538 481.595 443.906 482.29 444.799V443.485L484.554 443.166V452.328C484.554 454.884 482.843 456.673 480.027 457.069ZM477.834 448.647C477.834 450.213 478.636 451.09 479.92 450.91C481.221 450.727 482.077 449.581 482.077 448.069C482.077 446.503 481.221 445.615 479.92 445.798C478.654 445.976 477.834 447.081 477.834 448.647ZM490.926 452.045C488.074 452.446 486.166 450.716 486.166 447.71C486.166 444.848 488.145 442.482 490.89 442.096C493.902 441.673 495.899 443.858 495.453 447.053L488.697 448.002C488.858 449.546 489.607 450.304 490.872 450.126C491.959 449.974 492.69 449.331 492.975 448.337L495.435 447.991C494.9 450.244 493.243 451.719 490.926 452.045ZM490.836 443.939C489.678 444.102 488.947 444.961 488.733 446.413L492.833 445.837C492.762 444.515 492.013 443.774 490.836 443.939ZM505.044 450.079C502.282 450.467 500.214 448.562 500.214 445.772C500.214 442.964 502.282 440.495 505.044 440.107C507.807 439.718 509.875 441.606 509.875 444.414C509.875 447.204 507.807 449.69 505.044 450.079ZM505.044 447.865C506.274 447.692 507.326 446.554 507.326 444.772C507.326 442.99 506.274 442.166 505.044 442.339C503.814 442.512 502.763 443.631 502.763 445.413C502.763 447.195 503.814 448.038 505.044 447.865ZM517.249 444.133V438.571L519.709 438.226V447.838L517.445 448.156V446.896C516.928 447.815 515.877 448.556 514.664 448.727C512.757 448.995 511.367 448.02 511.367 445.518V439.398L513.845 439.05V444.684C513.845 446.034 514.504 446.535 515.502 446.395C516.393 446.27 517.249 445.429 517.249 444.133ZM527.853 444.263V446.441C527.247 446.832 526.676 447.038 525.946 447.141C523.985 447.417 522.755 446.456 522.755 444.296V439.94L520.83 440.21V438.068L522.755 437.798V434.954L525.215 434.608V437.452L527.942 437.069V439.211L525.215 439.594V443.374C525.215 444.49 525.714 444.87 526.605 444.745C527.069 444.679 527.496 444.511 527.853 444.263ZM537.424 442.27C537.424 444.286 535.909 445.741 533.2 446.122C530.49 446.502 528.975 445.401 528.779 443.287L531.15 442.954C531.168 443.941 532.006 444.454 533.235 444.281C534.198 444.145 534.929 443.737 534.929 443.053C534.929 442.441 534.537 442.244 533.628 442.192L531.916 442.108C530.205 442.043 529.171 441.234 529.171 439.74C529.171 437.958 530.686 436.503 533.057 436.17C535.446 435.834 537.086 436.882 537.264 438.927L534.893 439.26C534.804 438.336 534.109 437.858 533.057 438.006C532.148 438.133 531.542 438.561 531.542 439.173C531.542 439.749 531.934 439.928 532.79 439.969L534.626 440.053C536.48 440.153 537.424 440.884 537.424 442.27ZM543.322 444.699C540.56 445.087 538.492 443.182 538.492 440.392C538.492 437.584 540.56 435.115 543.322 434.727C546.085 434.339 548.153 436.226 548.153 439.034C548.153 441.824 546.085 444.311 543.322 444.699ZM543.322 442.485C544.552 442.312 545.604 441.174 545.604 439.392C545.604 437.61 544.552 436.786 543.322 436.959C542.093 437.132 541.041 438.252 541.041 440.034C541.041 441.816 542.093 442.658 543.322 442.485ZM555.527 438.754V433.192L557.987 432.846V442.458L555.723 442.776V441.516C555.206 442.435 554.155 443.177 552.943 443.347C551.035 443.615 549.645 442.64 549.645 440.138V434.018L552.123 433.67V439.304C552.123 440.654 552.782 441.156 553.78 441.015C554.672 440.89 555.527 440.05 555.527 438.754ZM562.691 437.135V441.797L560.213 442.145V432.533L562.495 432.213V434.067C563.19 432.745 564.669 431.799 566.202 431.583V434.175C564.099 434.309 562.691 435.011 562.691 437.135ZM571.43 440.749C568.685 441.135 566.796 439.348 566.796 436.414C566.796 433.534 568.757 431.153 571.43 430.777C573.908 430.429 575.744 431.863 576.047 434.412L573.444 434.778C573.32 433.517 572.553 432.833 571.43 432.991C570.147 433.171 569.327 434.348 569.327 436.058C569.327 437.786 570.129 438.718 571.43 438.535C572.571 438.374 573.302 437.516 573.444 436.182L576.047 435.816C575.762 438.502 573.979 440.391 571.43 440.749ZM580.507 427.449C580.507 428.295 579.83 429.02 578.85 429.158C577.887 429.293 577.21 428.758 577.21 427.912C577.21 427.03 577.887 426.305 578.85 426.17C579.83 426.032 580.507 426.567 580.507 427.449ZM580.115 439.348L577.638 439.696V430.084L580.115 429.736V439.348ZM584.798 433.452V438.69L582.32 439.038V429.426L584.602 429.106V430.474C585.297 429.422 586.277 428.69 587.525 428.515C589.432 428.247 590.751 429.321 590.751 431.643V437.853L588.291 438.199V432.835C588.291 431.413 587.739 430.699 586.616 430.857C585.636 430.994 584.798 431.904 584.798 433.452ZM596.932 440.639C594.366 440.999 592.654 439.836 592.548 437.637L594.936 437.301C595.043 438.384 595.738 438.862 596.915 438.697C598.287 438.504 599 437.666 599 436.28V434.876C598.483 435.867 597.503 436.544 596.344 436.707C594.009 437.035 592.262 435.283 592.262 432.565C592.262 429.775 593.902 427.619 596.255 427.288C597.538 427.107 598.501 427.476 599.196 428.369V427.055L601.46 426.736V435.898C601.46 438.454 599.749 440.243 596.932 440.639ZM594.74 432.217C594.74 433.783 595.542 434.66 596.825 434.48C598.127 434.297 598.982 433.151 598.982 431.639C598.982 430.073 598.127 429.185 596.825 429.368C595.56 429.546 594.74 430.651 594.74 432.217ZM615.46 431.303C615.46 433.319 613.945 434.774 611.236 435.154C608.526 435.535 607.011 434.434 606.815 432.32L609.186 431.987C609.204 432.974 610.041 433.486 611.271 433.313C612.234 433.178 612.965 432.769 612.965 432.085C612.965 431.473 612.572 431.277 611.663 431.224L609.952 431.141C608.241 431.075 607.207 430.267 607.207 428.773C607.207 426.991 608.722 425.536 611.093 425.203C613.482 424.867 615.121 425.914 615.3 427.959L612.929 428.292C612.84 427.369 612.145 426.891 611.093 427.039C610.184 427.166 609.578 427.593 609.578 428.205C609.578 428.781 609.97 428.96 610.826 429.002L612.662 429.086C614.515 429.186 615.46 429.917 615.46 431.303ZM621.287 433.724C618.435 434.125 616.528 432.395 616.528 429.389C616.528 426.527 618.506 424.161 621.251 423.775C624.264 423.351 626.26 425.537 625.815 428.732L619.059 429.681C619.219 431.224 619.968 431.983 621.234 431.805C622.321 431.653 623.052 431.01 623.337 430.016L625.797 429.67C625.262 431.923 623.604 433.398 621.287 433.724ZM621.198 425.618C620.039 425.781 619.308 426.64 619.095 428.092L623.194 427.516C623.123 426.194 622.374 425.453 621.198 425.618ZM629.952 427.682V432.344L627.474 432.692V423.08L629.756 422.76V424.614C630.451 423.292 631.93 422.346 633.463 422.131V424.723C631.36 424.856 629.952 425.558 629.952 427.682ZM643.498 420.828L640.004 430.931L637.295 431.312L633.783 422.194L636.457 421.818L638.721 428.268L641.003 421.179L643.498 420.828ZM647.455 418.04C647.455 418.886 646.778 419.611 645.797 419.749C644.835 419.884 644.157 419.35 644.157 418.504C644.157 417.622 644.835 416.896 645.797 416.761C646.778 416.623 647.455 417.158 647.455 418.04ZM647.063 429.939L644.585 430.287V420.675L647.063 420.327V429.939ZM653.278 429.246C650.533 429.632 648.644 427.845 648.644 424.911C648.644 422.031 650.605 419.65 653.278 419.274C655.756 418.926 657.592 420.36 657.895 422.909L655.292 423.275C655.168 422.014 654.401 421.33 653.278 421.488C651.995 421.668 651.175 422.845 651.175 424.555C651.175 426.283 651.977 427.215 653.278 427.032C654.419 426.871 655.15 426.013 655.292 424.679L657.895 424.313C657.61 426.999 655.827 428.888 653.278 429.246ZM663.586 427.779C660.734 428.18 658.827 426.45 658.827 423.444C658.827 420.582 660.805 418.216 663.551 417.83C666.563 417.407 668.559 419.592 668.114 422.787L661.358 423.736C661.518 425.28 662.267 426.038 663.533 425.861C664.62 425.708 665.351 425.065 665.636 424.071L668.096 423.725C667.561 425.978 665.903 427.453 663.586 427.779ZM663.497 419.674C662.338 419.836 661.608 420.695 661.394 422.147L665.493 421.571C665.422 420.249 664.673 419.508 663.497 419.674ZM525.863 473.675L524.477 473.87C523.34 472.279 522.716 470.057 522.716 467.733C522.716 465.423 523.34 463.025 524.477 461.116L525.863 460.921C524.712 462.833 524.158 465.22 524.158 467.53C524.158 469.854 524.712 472.087 525.863 473.675ZM534.175 466.921C534.175 468.755 532.844 469.992 530.779 470.282L527.132 470.794V460.742L530.585 460.257C532.595 459.975 533.801 460.743 533.801 462.437C533.801 463.389 533.232 464.281 532.276 464.836C533.51 465.012 534.175 465.773 534.175 466.921ZM530.487 461.503L528.533 461.778V464.802L530.487 464.527C531.694 464.357 532.345 463.692 532.345 462.754C532.345 461.816 531.694 461.333 530.487 461.503ZM530.682 465.732L528.533 466.034V469.366L530.682 469.064C531.985 468.88 532.72 468.147 532.72 467.083C532.72 466.061 531.985 465.548 530.682 465.732ZM539.385 465.572L537.458 465.843V469.343L535.933 469.558V459.506L539.385 459.02C541.617 458.707 543.059 459.652 543.059 461.752C543.059 463.866 541.617 465.259 539.385 465.572ZM539.371 460.324L537.458 460.593V464.541L539.371 464.272C540.716 464.083 541.534 463.226 541.534 461.98C541.534 460.734 540.716 460.135 539.371 460.324ZM549.062 467.922C546.178 468.328 544.002 466.352 544.002 463.384C544.002 460.416 546.178 457.856 549.062 457.45C551.946 457.045 554.122 458.993 554.122 461.961C554.122 464.929 551.946 467.517 549.062 467.922ZM549.062 466.536C551.169 466.24 552.542 464.339 552.542 462.183C552.542 460.027 551.169 458.54 549.062 458.836C546.955 459.133 545.582 461.005 545.582 463.161C545.582 465.317 546.955 466.833 549.062 466.536ZM556.198 469.411L554.812 469.606C555.963 467.695 556.531 465.305 556.531 462.981C556.531 460.671 555.963 458.441 554.812 456.852L556.198 456.657C557.335 458.248 557.959 460.47 557.959 462.78C557.959 465.104 557.335 467.502 556.198 469.411Z" fill="#3C4149"/>
<path d="M123.53 165.237L225 219.118L214.481 228L117.152 176.114C115.48 174.741 115.027 172.437 115.046 171.922C114.686 168.975 116.562 166.959 117.152 166.389C119.074 164.665 122.205 164.903 123.53 165.237Z" fill="#F3F5F7" stroke="#9AA2AC" stroke-miterlimit="10" stroke-dasharray="2 2"/>
<path d="M348.067 290.92L255.112 240.389L255.572 220.844L348.067 272.296V290.92Z" fill="#EFF2FF" stroke="#9AA2AC" stroke-linejoin="round"/>
<path d="M389.036 266.407L388.795 285.135L348.066 290.862V272.242L389.036 266.407Z" fill="#EFF2FF" stroke="#9AA2AC" stroke-linejoin="round"/>
<path d="M283.735 281.21L283.494 299.938L241.222 305.883L241.463 287.168L283.735 281.21Z" fill="#EFF2FF" stroke="#9AA2AC" stroke-linejoin="round"/>
<path d="M241.222 305.887L151.723 257.164V238.358L241.463 287.171L241.222 305.887Z" fill="#EFF2FF" stroke="#9AA2AC" stroke-linejoin="round"/>
<path d="M151.703 238.327L241.465 287.167L283.904 281.339L195.582 232.157L151.703 238.327Z" fill="#EFF2FF"/>
<path d="M296.323 215.933L195.582 232.157M195.582 232.157L151.703 238.327L241.465 287.167L283.904 281.339L195.582 232.157Z" stroke="#9AA2AC" stroke-linejoin="round"/>
<path d="M342.337 258.994V159.932L251.743 172.634L251.725 271.589L263.499 269.939L283.566 281.471V285.743L327.802 280.047V261.089L342.337 258.994Z" fill="#F9FAFB" stroke="#9AA2AC" stroke-linejoin="round"/>
<path d="M262.503 237.178L262.498 256.158L251.725 257.667L251.73 238.686L262.503 237.178Z" fill="#F3F5F7" stroke="#9AA2AC" stroke-linejoin="round"/>
<path d="M342.337 226.271L342.332 245.251L331.559 246.759L331.564 227.779L342.337 226.271Z" fill="#F3F5F7" stroke="#9AA2AC" stroke-linejoin="round"/>
<path d="M251.724 271.594L193.506 240L193.523 141.045L251.742 172.638L251.724 271.594Z" fill="#F9FAFB" stroke="#9AA2AC" stroke-linejoin="round"/>
<path d="M251.74 172.637L193.521 141.044L284.122 128.336L342.335 159.935L251.74 172.637Z" fill="#F9FAFB" stroke="#9AA2AC" stroke-linejoin="round"/>
<path d="M345.784 207.992L345.796 202.865C345.996 195.239 343.053 177.087 328.53 171.04L261.788 180.017C271.406 183.664 281.393 192.77 282.202 211.781L282.19 216.908L345.784 207.992Z" fill="#FFFB9E" stroke="#9AA2AC" stroke-linejoin="round"/>
<path d="M282.189 216.91L282.201 211.782C282.207 191.174 268.613 182.006 261.815 179.998V205.853L282.189 216.91Z" fill="#FFFB9E" stroke="#9AA2AC" stroke-linejoin="round"/>
<path d="M251.721 257.745L241.587 252.245L241.59 233.226L251.724 238.725L251.721 257.745Z" fill="#F3F5F7" stroke="#9AA2AC" stroke-linejoin="round"/>
<path d="M203.639 235.594L193.506 230.094L193.509 211.075L203.642 216.574L203.639 235.594Z" fill="#F3F5F7" stroke="#9AA2AC" stroke-linejoin="round"/>
<path d="M203.639 181.844L193.506 176.345L193.509 157.325L203.642 162.825L203.639 181.844Z" fill="#F3F5F7" stroke="#9AA2AC" stroke-linejoin="round"/>
<path d="M192.369 228.678L206.219 226.634C208.77 226.634 210.689 227.317 211.353 229.874C212.506 234.319 210.264 236.094 207.927 236.627L198.884 237.647C196.861 237.875 195.332 239.586 195.332 241.621V249.575C194.539 250.832 193.146 251.519 190.572 251.519C187.98 251.361 186.463 250.479 185.484 249.575L185.483 239.488C185.483 234.329 186.227 229.138 192.369 228.678Z" fill="#EAECEF" stroke="#9AA2AC" stroke-linejoin="round"/>
<path d="M217.494 241.239L231.344 239.195C233.895 239.195 235.814 239.878 236.477 242.435C237.631 246.88 235.388 248.655 233.052 249.188L224.009 250.207C221.986 250.435 220.457 252.146 220.457 254.182V262.136C219.664 263.392 218.271 264.08 215.696 264.08C213.104 263.921 211.588 263.04 210.609 262.136L210.608 252.049C210.608 246.889 211.352 241.699 217.494 241.239Z" fill="#EAECEF" stroke="#9AA2AC" stroke-linejoin="round"/>
<path d="M282.276 207.415L345.739 198.531" stroke="#9AA2AC"/>
<path d="M280.707 199.38L344.17 190.496" stroke="#9AA2AC"/>
<path d="M276.767 192.524L340.976 183.558" stroke="#9AA2AC"/>
<path d="M271.362 185.478L336.21 176.377" stroke="#9AA2AC"/>
<path d="M342.331 258.96V241.007L389.027 266.337L348.004 272.243L327.849 261.068L342.331 258.96Z" fill="#EFF2FF" stroke="#9AA2AC" stroke-linejoin="round"/>
<path d="M281.271 87.8705L281.144 135.707L220.353 144.137L220.353 96.4182L281.271 87.8705Z" fill="#FDFAC3" fill-opacity="0.64" stroke="#F3F5F7" stroke-linejoin="round"/>
<path d="M256.671 163.982L220.479 144.275L281.485 135.728L317.678 155.429L256.671 163.982Z" fill="#FDFAC3" stroke="#9AA2AC" stroke-linejoin="round"/>
<path d="M281.277 135.707L317.675 155.33V107.504L281.404 87.8704L281.277 135.707Z" fill="#FDFAC3" fill-opacity="0.64" stroke="#9AA2AC" stroke-linejoin="round"/>
<path d="M220.355 144.253L256.753 163.876V116.049L220.482 96.4163L220.355 144.253Z" fill="#FDFAC3" fill-opacity="0.64" stroke="#9AA2AC" stroke-linejoin="round"/>
<path d="M256.672 116.125L220.48 96.4173L281.487 87.8704L317.679 107.571L256.672 116.125Z" fill="#FDFAC3" fill-opacity="0.64" stroke="#9AA2AC" stroke-linejoin="round"/>
<path d="M326.107 103.734L325.994 106.72L256.834 116.386L256.835 113.48L326.107 103.734Z" fill="#F3F5F7" stroke="#9AA2AC" stroke-linejoin="round"/>
<path d="M256.837 116.42L213.203 92.7598L213.316 89.7736L256.837 113.471V116.42Z" fill="#F3F5F7" stroke="#9AA2AC" stroke-linejoin="round"/>
<path d="M256.838 113.474L213.317 89.7763L282.589 80.0361L326.11 103.728L256.838 113.474Z" fill="#F3F5F7" stroke="#9AA2AC" stroke-linejoin="round"/>
<path d="M320.748 95.6519L320.643 102.689L256.859 111.65L256.86 104.641L320.748 95.6519Z" fill="#F9FAFB" stroke="#9AA2AC" stroke-linejoin="round"/>
<path d="M256.861 111.651L216.618 89.8227L216.723 82.7856L256.861 104.641V111.651Z" fill="#F9FAFB" stroke="#9AA2AC" stroke-linejoin="round"/>
<path d="M256.863 104.639L216.725 82.7832L280.613 73.7999L320.752 95.6502L256.863 104.639Z" fill="#F9FAFB" stroke="#9AA2AC" stroke-linejoin="round"/>
<path d="M279.092 241.872L277.165 242.143V245.643L275.64 245.857V235.805L279.092 235.32C281.324 235.006 282.766 235.952 282.766 238.052C282.766 240.166 281.324 241.558 279.092 241.872ZM279.078 236.624L277.165 236.893V240.841L279.078 240.572C280.423 240.383 281.241 239.526 281.241 238.28C281.241 237.034 280.423 236.435 279.078 236.624ZM288.495 244.05V242.902C288.038 243.793 287.22 244.37 286.138 244.522C284.613 244.736 283.615 243.994 283.615 242.636C283.615 241.18 284.766 240.263 286.956 239.955C287.386 239.894 287.733 239.86 288.329 239.846V239.3C288.329 238.236 287.76 237.714 286.79 237.85C285.764 237.994 285.14 238.698 285.099 239.74L283.823 239.919C283.892 238.243 285.071 236.972 286.79 236.73C288.606 236.475 289.66 237.363 289.66 239.127V243.887L288.495 244.05ZM284.946 242.407C284.946 243.177 285.514 243.601 286.416 243.475C287.594 243.309 288.329 242.464 288.329 241.33V240.728C287.788 240.734 287.4 240.774 287.039 240.825C285.639 241.022 284.946 241.539 284.946 242.407ZM292.932 239.633V243.427L291.532 243.624V236.204L292.835 236.02V237.588C293.348 236.494 294.457 235.694 295.663 235.525V236.995C294.083 237.133 292.932 237.995 292.932 239.633ZM301.363 240.87V242.116C300.934 242.372 300.559 242.495 300.116 242.557C298.757 242.748 297.814 242.139 297.814 240.501V236.525L296.192 236.753V235.549L297.814 235.321V233.123L299.215 232.926V235.124L301.433 234.812V236.016L299.215 236.328V239.982C299.215 241.004 299.7 241.3 300.448 241.194C300.781 241.148 301.072 241.051 301.363 240.87ZM304.169 237.662V241.848L302.769 242.044V234.624L304.072 234.441V235.673C304.571 234.777 305.403 234.114 306.415 233.972C307.926 233.759 308.925 234.599 308.925 236.377V241.179L307.524 241.376V237.05C307.524 235.776 306.97 235.14 305.93 235.286C304.973 235.421 304.169 236.346 304.169 237.662ZM313.806 240.633C311.685 240.931 310.257 239.578 310.257 237.24C310.257 235.042 311.741 233.223 313.765 232.939C315.955 232.631 317.411 234.219 317.161 236.662L311.685 237.431C311.796 238.928 312.545 239.704 313.779 239.531C314.818 239.385 315.539 238.71 315.775 237.71L317.161 237.516C316.801 239.218 315.539 240.39 313.806 240.633ZM313.737 234.007C312.614 234.165 311.852 235.084 311.699 236.491L315.678 235.932C315.609 234.57 314.874 233.847 313.737 234.007ZM320.05 235.822V239.616L318.65 239.812V232.392L319.953 232.209V233.777C320.466 232.683 321.575 231.883 322.782 231.714V233.184C321.201 233.322 320.05 234.184 320.05 235.822Z" fill="#3C4149"/>
<path d="M307.53 268.241L409 322.977L398.481 332L301.152 279.291C299.48 277.895 299.027 275.555 299.046 275.032C298.686 272.038 300.562 269.99 301.152 269.411C303.074 267.659 306.205 267.901 307.53 268.241Z" fill="#F3F5F7" stroke="#9AA2AC" stroke-miterlimit="10" stroke-dasharray="2 2"/>
<path d="M583.027 383.682L582.81 398.179L449.866 416.872L450.084 402.387L583.027 383.682Z" fill="#EFF2FF" stroke="#9AA2AC" stroke-linejoin="round"/>
<path d="M449.866 416.875L366.343 371.407L366.56 356.91L450.083 402.389L449.866 416.875Z" fill="#EFF2FF" stroke="#9AA2AC" stroke-linejoin="round"/>
<path d="M450.084 402.387L366.561 356.907L499.504 338.214L583.027 383.682L450.084 402.387Z" fill="#EFF2FF" stroke="#9AA2AC" stroke-linejoin="round"/>
<path d="M583.933 345.541L583.716 374.567L450.772 393.261L450.989 364.245L583.933 345.541Z" fill="#F9FAFB" stroke="#9AA2AC" stroke-linejoin="round"/>
<path d="M450.772 393.263L367.249 347.795L367.466 318.768L450.989 364.247L450.772 393.263Z" fill="#F9FAFB" stroke="#9AA2AC" stroke-linejoin="round"/>
<path d="M450.989 364.245L367.466 318.766L500.41 300.073L583.933 345.54L450.989 364.245Z" fill="#F9FAFB" stroke="#9AA2AC" stroke-linejoin="round"/>
<path d="M413.993 309.44L479.846 300.427V230.04L413.993 239.062V309.44Z" fill="#F9FAFB" stroke="#9AA2AC" stroke-linejoin="round"/>
<path d="M411.336 236.305L414.012 238L479.819 228.886L477.073 226.944L411.336 236.305Z" fill="#F9FAFB" stroke="#9AA2AC" stroke-linejoin="round"/>
<path d="M413.99 238.056L411.332 236.313V306.697L413.99 308.111L413.99 238.056Z" fill="#F9FAFB" stroke="#9AA2AC" stroke-linejoin="round"/>
<path d="M502.804 293.906L557.405 323.563V253.176L502.95 223.506L502.804 293.906Z" fill="#FFFB9E" stroke="#9AA2AC" stroke-linejoin="round"/>
<path d="M505.489 222.387L502.945 223.768L557.375 253.329L560.049 252.031L505.489 222.387Z" fill="#FFFB9E" stroke="#9AA2AC" stroke-linejoin="round"/>
<path d="M560.074 252.036L557.412 253.309L557.412 323.563L560.074 323.002V252.036Z" fill="#FFFB9E" stroke="#9AA2AC" stroke-linejoin="round"/>
<path d="M493.466 208.644L493.266 308.693L397.746 321.938L397.745 222.075L493.466 208.644Z" fill="#F3F5F7" fill-opacity="0.64" stroke="#DDE0E3" stroke-linejoin="round"/>
<path d="M454.812 353.121L397.942 322.155L493.803 308.725L550.673 339.681L454.812 353.121Z" fill="#F3F5F7" stroke="#9AA2AC" stroke-linejoin="round"/>
<path d="M493.476 308.693L550.669 339.526V239.493L493.676 208.644L493.476 308.693Z" fill="#F3F5F7" fill-opacity="0.64" stroke="#9AA2AC" stroke-linejoin="round"/>
<path d="M397.748 322.118L454.941 352.952V252.919L397.948 222.069L397.748 322.118Z" fill="#F0F7C8" fill-opacity="0.64" stroke="#9AA2AC" stroke-linejoin="round"/>
<path d="M454.815 253.04L397.945 222.073L493.806 208.644L550.676 239.599L454.815 253.04Z" fill="#F3F5F7" fill-opacity="0.64" stroke="#9AA2AC" stroke-linejoin="round"/>
<path d="M569.883 233.958L569.695 238.907L455.079 254.927L455.08 250.11L569.883 233.958Z" fill="#FFFB9E" stroke="#9AA2AC" stroke-linejoin="round"/>
<path d="M455.083 254.983L382.77 215.771L382.957 210.822L455.083 250.095V254.983Z" fill="#FFFB9E" stroke="#9AA2AC" stroke-linejoin="round"/>
<path d="M455.086 250.099L382.96 210.826L497.763 194.684L569.889 233.947L455.086 250.099Z" fill="#FFFB9E" stroke="#9AA2AC" stroke-linejoin="round"/>
<path d="M549.526 220.786L549.372 231.19L455.073 244.438L455.074 234.075L549.526 220.786Z" fill="#F9FAFB" stroke="#9AA2AC" stroke-linejoin="round"/>
<path d="M455.076 244.44L395.581 212.169L395.735 201.765L455.076 234.077V244.44Z" fill="#F9FAFB" stroke="#9AA2AC" stroke-linejoin="round"/>
<path d="M455.079 234.072L395.738 201.76L490.191 188.479L549.531 220.783L455.079 234.072Z" fill="#F9FAFB" stroke="#9AA2AC" stroke-linejoin="round"/>
<path d="M569.883 215.915L569.695 220.864L455.079 236.884L455.08 232.067L569.883 215.915Z" fill="#FFFB9E" stroke="#9AA2AC" stroke-linejoin="round"/>
<path d="M455.083 236.94L382.77 197.728L382.957 192.779L455.083 232.052V236.94Z" fill="#FFFB9E" stroke="#9AA2AC" stroke-linejoin="round"/>
<path d="M455.086 232.056L382.96 192.783L497.763 176.641L569.889 215.904L455.086 232.056Z" fill="#FFFB9E" stroke="#9AA2AC" stroke-linejoin="round"/>
<path d="M384.682 301.907L439.282 331.565V261.177L384.828 231.508L384.682 301.907Z" fill="#FFFB9E" stroke="#9AA2AC" stroke-linejoin="round"/>
<path d="M387.367 230.405L384.823 231.786L439.253 261.347L441.927 260.049L387.367 230.405Z" fill="#FFFB9E" stroke="#9AA2AC" stroke-linejoin="round"/>
<path d="M441.951 260.054L439.29 261.327L439.29 331.582L441.951 331.02V260.054Z" fill="#FFFB9E" stroke="#9AA2AC" stroke-linejoin="round"/>
<path d="M550.666 241.588V339.632L454.941 353.117V254.957L550.666 241.588Z" fill="#F0F7C8" fill-opacity="0.64" stroke="#9AA2AC" stroke-linejoin="round"/>
<path d="M471.38 336.191L537.233 327.179V256.791L471.38 265.813V336.191Z" fill="#FFFB9E" stroke="#9AA2AC" stroke-linejoin="round"/>
<path d="M468.724 264.386L471.399 266.081L537.206 256.967L534.461 255.026L468.724 264.386Z" fill="#FFFB9E" stroke="#9AA2AC" stroke-linejoin="round"/>
<path d="M471.377 266.137L468.72 264.394V334.778L471.377 336.192L471.377 266.137Z" fill="#FFFB9E" stroke="#9AA2AC" stroke-linejoin="round"/>
<path d="M513.488 310.832L505.067 306.228L511.85 297.93L520.269 302.534L513.488 310.832Z" fill="#F9EF00" stroke="#3C4149" stroke-linecap="round" stroke-linejoin="round"/>
<path d="M520.268 302.534L511.849 297.93L511.869 284.444L520.29 289.048L520.268 302.534Z" fill="#F9EF00" stroke="#3C4149" stroke-linecap="round" stroke-linejoin="round"/>
<path d="M501.062 312.585L492.644 307.981L505.07 306.225L513.49 310.83L501.062 312.585Z" fill="#F9EF00" stroke="#3C4149" stroke-linecap="round" stroke-linejoin="round"/>
<path d="M516.446 278.846L507.033 280.176L497.537 281.518L505.956 286.122L515.451 284.78L524.866 283.45L516.446 278.846Z" fill="#F9EF00" stroke="#3C4149" stroke-linecap="round" stroke-linejoin="round"/>
<path d="M497.536 281.519L505.955 286.123L496.522 297.699L488.103 293.095L497.536 281.519Z" fill="#F9EF00" stroke="#3C4149" stroke-linecap="round" stroke-linejoin="round"/>
<path d="M524.867 283.444L524.835 303.935L515.374 315.514L496.487 318.182L496.505 307.852L496.524 297.693L505.957 286.117L515.452 284.774L524.867 283.444ZM513.49 310.829L520.271 302.53L520.293 289.046L507.844 290.804L501.088 299.096L501.064 312.584L513.492 310.829" fill="#F9EF00"/>
<path d="M513.49 310.829L520.271 302.53L520.293 289.046L507.844 290.804L501.088 299.096L501.064 312.584L513.492 310.829M524.867 283.444L524.835 303.935L515.374 315.514L496.487 318.182L496.505 307.852L496.524 297.693L505.957 286.117L515.452 284.774L524.867 283.444Z" stroke="#3C4149" stroke-linecap="round" stroke-linejoin="round"/>
<path d="M488.104 293.091L488.084 303.251L488.065 313.58L496.484 318.185L496.504 307.855L496.522 297.696L488.104 293.091Z" fill="#F9EF00" stroke="#3C4149" stroke-linecap="round" stroke-linejoin="round"/>
<path d="M533.678 279.687L533.677 284.73L528.691 285.431L528.693 280.388L533.678 279.687Z" fill="#3CBF30" stroke="#3C4149" stroke-linejoin="round"/>
<path d="M528.691 285.432L524.868 283.351L524.87 278.312L528.693 280.392L528.691 285.432Z" fill="#3CBF30" stroke="#3C4149" stroke-linejoin="round"/>
<path d="M528.676 280.382L524.87 278.31L529.882 277.607L533.688 279.679L528.676 280.382Z" fill="#3CBF30" stroke="#3C4149" stroke-linejoin="round"/>
<path d="M418.961 299.68L408.842 301.193L419.333 292.791L428.863 291.231L418.961 299.68Z" fill="#F9EF00" stroke="#3C4149" stroke-linejoin="round"/>
<path d="M402.459 262.555L419.153 271.268L419.154 292.753L408.823 301.218L392.937 292.874L392.937 270.466L402.459 262.555Z" fill="#F9EF00" stroke="#3C4149" stroke-linejoin="round"/>
<path d="M402.58 268.653L414.538 274.931V290.658L408.133 295.337L397.418 289.714V273.17L402.58 268.653Z" fill="#F9FAFB" stroke="#3C4149" stroke-linejoin="round"/>
<path d="M412.516 261.11L402.417 262.585L419.187 271.559L428.749 270.018L412.516 261.11Z" fill="#F9EF00" stroke="#3C4149" stroke-linejoin="round"/>
<path d="M419.154 271.499L428.78 270.079V291.282L419.154 292.993V271.499Z" fill="#F9EF00" stroke="#3C4149" stroke-linejoin="round"/>
<path d="M407.044 271.058V286.972L397.418 289.617V273.052L402.565 268.668L407.044 271.058Z" fill="#F9EF00" stroke="#3C4149" stroke-linejoin="round"/>
<path d="M407.662 271.348L397.406 273.247" stroke="#3C4149" stroke-linejoin="round"/>
<path d="M397.404 289.621L406.852 287.105L413.956 291.115L408.21 295.416L397.404 289.621Z" fill="#F9EF00" stroke="#3C4149" stroke-linejoin="round"/>
<path d="M424.55 271.821L424.548 277.497L418.936 278.286L418.938 272.61L424.55 271.821Z" fill="#3CBF30" stroke="#3C4149" stroke-linejoin="round"/>
<path d="M418.935 278.284L414.632 275.941L414.634 270.269L418.937 272.611L418.935 278.284Z" fill="#3CBF30" stroke="#3C4149" stroke-linejoin="round"/>
<path d="M418.918 272.603L414.633 270.271L420.275 269.479L424.559 271.812L418.918 272.603Z" fill="#3CBF30" stroke="#3C4149" stroke-linejoin="round"/>
<path d="M472.046 379.086L470.632 379.285V369.233L472.046 369.034V379.086ZM477.011 378.528C474.89 378.826 473.462 377.473 473.462 375.135C473.462 372.937 474.946 371.119 476.97 370.834C479.16 370.526 480.616 372.114 480.366 374.557L474.89 375.326C475.001 376.823 475.75 377.6 476.984 377.426C478.024 377.28 478.744 376.605 478.98 375.606L480.366 375.411C480.006 377.113 478.744 378.285 477.011 378.528ZM476.942 371.902C475.819 372.06 475.057 372.979 474.904 374.386L478.883 373.827C478.814 372.465 478.079 371.742 476.942 371.902ZM483.255 377.511L481.855 377.708V370.288L483.158 370.104V371.336C483.657 370.412 484.448 369.783 485.46 369.641C486.541 369.489 487.359 369.934 487.692 370.867C488.205 369.843 489.05 369.136 490.173 368.979C491.685 368.766 492.655 369.624 492.655 371.388V376.19L491.255 376.387V372.033C491.255 370.801 490.714 370.149 489.688 370.293C488.732 370.427 487.955 371.348 487.955 372.594V376.85L486.555 377.047V372.693C486.555 371.461 486.014 370.809 484.988 370.953C484.018 371.09 483.255 372.009 483.255 373.255V377.511ZM497.605 375.634C495.526 375.926 494.001 374.489 494.001 372.291C494.001 370.093 495.526 368.226 497.605 367.934C499.685 367.642 501.21 369.079 501.21 371.277C501.21 373.475 499.685 375.342 497.605 375.634ZM497.605 374.388C498.811 374.219 499.768 373.104 499.768 371.48C499.768 369.856 498.811 369.025 497.605 369.194C496.399 369.364 495.456 370.462 495.456 372.086C495.456 373.71 496.399 374.558 497.605 374.388ZM504.038 370.404V374.59L502.637 374.787V367.367L503.94 367.184V368.416C504.44 367.52 505.271 366.857 506.283 366.714C507.795 366.502 508.793 367.342 508.793 369.12V373.922L507.393 374.119V369.793C507.393 368.519 506.838 367.882 505.798 368.029C504.842 368.163 504.038 369.088 504.038 370.404ZM512.552 372.385C512.552 373.015 512.122 373.524 511.484 373.613C510.86 373.701 510.417 373.316 510.417 372.686C510.417 372.028 510.86 371.517 511.484 371.429C512.122 371.34 512.552 371.727 512.552 372.385ZM515.654 372.957L514.254 373.154V365.734L515.557 365.551V366.783C516.056 365.859 516.846 365.23 517.858 365.088C518.94 364.936 519.758 365.381 520.09 366.314C520.603 365.29 521.449 364.583 522.572 364.425C524.083 364.213 525.053 365.07 525.053 366.834V371.636L523.653 371.833V367.479C523.653 366.247 523.113 365.595 522.087 365.739C521.13 365.874 520.354 366.795 520.354 368.041V372.297L518.953 372.494V368.14C518.953 366.908 518.413 366.256 517.387 366.4C516.416 366.536 515.654 367.455 515.654 368.701V372.957ZM531.376 370.748V369.6C530.919 370.49 530.101 371.067 529.019 371.219C527.494 371.433 526.496 370.692 526.496 369.334C526.496 367.878 527.647 366.96 529.837 366.652C530.267 366.592 530.614 366.557 531.21 366.543V365.997C531.21 364.933 530.641 364.411 529.671 364.547C528.645 364.692 528.021 365.395 527.98 366.437L526.704 366.616C526.773 364.941 527.952 363.669 529.671 363.427C531.487 363.172 532.541 364.06 532.541 365.824V370.584L531.376 370.748ZM527.827 369.105C527.827 369.875 528.395 370.299 529.297 370.172C530.475 370.006 531.21 369.161 531.21 368.027V367.425C530.669 367.431 530.281 367.472 529.921 367.522C528.52 367.719 527.827 368.237 527.827 369.105ZM535.813 366.33V370.124L534.413 370.321V362.901L535.716 362.718V364.286C536.229 363.192 537.338 362.392 538.544 362.222V363.692C536.964 363.831 535.813 364.692 535.813 366.33ZM541.053 369.388L539.652 369.585V359.533L541.053 359.336V365.286L544.2 361.526L545.85 361.294L542.453 365.369L546.168 368.669L544.366 368.922L541.053 365.874V369.388ZM549.823 368.295C547.702 368.593 546.274 367.24 546.274 364.902C546.274 362.704 547.758 360.886 549.782 360.601C551.972 360.293 553.428 361.881 553.178 364.324L547.702 365.093C547.813 366.59 548.562 367.367 549.796 367.193C550.835 367.047 551.556 366.372 551.792 365.373L553.178 365.178C552.818 366.88 551.556 368.052 549.823 368.295ZM549.754 361.669C548.631 361.827 547.868 362.746 547.716 364.153L551.695 363.594C551.626 362.232 550.891 361.509 549.754 361.669ZM558.785 365.524V366.77C558.355 367.026 557.981 367.149 557.537 367.211C556.179 367.402 555.236 366.793 555.236 365.155V361.179L553.614 361.407V360.203L555.236 359.975V357.777L556.636 357.58V359.778L558.854 359.466V360.67L556.636 360.982V364.636C556.636 365.658 557.122 365.954 557.87 365.848C558.203 365.802 558.494 365.705 558.785 365.524ZM565.987 363.672C565.987 365.128 564.864 366.181 562.909 366.456C560.968 366.729 559.817 365.925 559.679 364.348L561.023 364.159C561.079 365.075 561.814 365.546 562.937 365.388C563.921 365.25 564.572 364.808 564.572 364.108C564.572 363.492 564.198 363.279 563.283 363.226L562.091 363.169C560.732 363.094 559.97 362.501 559.97 361.381C559.97 360.079 561.093 359.011 562.798 358.772C564.559 358.524 565.751 359.309 565.876 360.817L564.531 361.006C564.448 360.122 563.796 359.696 562.812 359.834C561.924 359.959 561.328 360.42 561.328 361.064C561.328 361.666 561.703 361.894 562.59 361.937L563.838 362C565.293 362.061 565.987 362.608 565.987 363.672Z" fill="#3C4149"/>
</svg>
