<svg width="283" height="213" viewBox="0 0 283 213" fill="none" xmlns="http://www.w3.org/2000/svg">
<path d="M273.992 109.774L274.001 23.5274L228.662 29.865L228.653 116.112L273.992 109.774Z" fill="#FDFAC3" stroke="#9AA2AC" stroke-linejoin="round"/>
<path d="M228.652 116.145L197.291 99.1734L197.3 12.892L228.662 29.864L228.652 116.145Z" fill="#FDFAC3" stroke="#9AA2AC" stroke-linejoin="round"/>
<path d="M228.662 29.8665L197.3 12.8944L242.625 6.5549L273.984 23.53L228.662 29.8665Z" fill="#FDFAC3" stroke="#9AA2AC" stroke-linejoin="round"/>
<path d="M266.526 19.9349L266.533 14.2974L230.213 19.2641L230.206 24.9015L266.526 19.9349Z" fill="#FFFB9E" stroke="#9AA2AC" stroke-linejoin="round"/>
<path d="M230.206 24.9398L205.622 11.6357L205.629 6.00791L230.213 19.312L230.206 24.9398Z" fill="#FFFB9E" stroke="#9AA2AC" stroke-linejoin="round"/>
<path d="M230.214 19.2735L205.63 5.96946L241.938 1L266.52 14.3065L230.214 19.2735Z" fill="#FFFB9E" stroke="#9AA2AC" stroke-linejoin="round"/>
<path d="M197.222 24.7269L228.305 42.0659" stroke="#9AA2AC" stroke-linejoin="round"/>
<path d="M197.222 37.3736L228.305 54.7125" stroke="#9AA2AC" stroke-linejoin="round"/>
<path d="M197.222 50.022L228.305 67.361" stroke="#9AA2AC" stroke-linejoin="round"/>
<path d="M197.222 62.6668L228.305 80.0058" stroke="#9AA2AC" stroke-linejoin="round"/>
<path d="M197.222 75.3135L228.305 92.6524" stroke="#9AA2AC" stroke-linejoin="round"/>
<path d="M197.222 87.9583L228.305 105.297" stroke="#9AA2AC" stroke-linejoin="round"/>
<path d="M228.65 41.8675L274.072 35.3568" stroke="#9AA2AC" stroke-linejoin="round"/>
<path d="M228.65 54.516L274.072 48.0053" stroke="#9AA2AC" stroke-linejoin="round"/>
<path d="M228.65 67.1627L274.072 60.6519" stroke="#9AA2AC" stroke-linejoin="round"/>
<path d="M228.65 79.8093L274.072 73.2985" stroke="#9AA2AC" stroke-linejoin="round"/>
<path d="M228.65 92.4523L274.072 85.9415" stroke="#9AA2AC" stroke-linejoin="round"/>
<path d="M228.65 105.101L274.072 98.59" stroke="#9AA2AC" stroke-linejoin="round"/>
<path d="M281.892 189.916L281.92 116.666L142.648 136.134L142.619 209.384L281.892 189.916Z" fill="#F9FAFB" stroke="#9AA2AC" stroke-linejoin="round"/>
<path d="M142.62 209.398L94.4514 183.331L46.2832 157.264L46.3118 84.0138L142.648 136.148L142.62 209.398Z" fill="#F9FAFB" stroke="#9AA2AC" stroke-linejoin="round"/>
<path d="M142.647 136.143L46.3103 84.0092L185.539 64.5355L281.866 116.679L142.647 136.143Z" fill="#F9FAFB" stroke="#9AA2AC" stroke-linejoin="round"/>
<path d="M174.956 119.996L108.282 84.1769L147.003 78.8661L214.016 115.23L174.956 119.996Z" fill="#F9FAFB" stroke="#9AA2AC" stroke-linejoin="round"/>
<path d="M147.042 94.9074V78.8661L213.969 115.124L191.201 118.051L147.042 94.9074Z" fill="#F9FAFB" stroke="#9AA2AC" stroke-linejoin="round"/>
<path d="M147.043 92.8605V78.936L108.271 84.1695L128.231 94.8952L147.043 92.8605Z" fill="#F9FAFB" stroke="#9AA2AC" stroke-linejoin="round"/>
<path d="M196.382 117.28L196.398 80.4202L186.784 81.7268L186.768 118.586L196.382 117.28Z" fill="#EAECEF" stroke="#9AA2AC" stroke-linejoin="round"/>
<path d="M186.768 118.589L174.948 119.974L134.945 98.4025L134.962 53.6856L186.784 81.7297L186.768 118.589Z" fill="#EAECEF" stroke="#9AA2AC" stroke-linejoin="round"/>
<path d="M186.784 81.7287L134.963 53.6846L144.565 52.3398L196.381 80.3891L186.784 81.7287Z" fill="#EAECEF" stroke="#9AA2AC" stroke-linejoin="round"/>
<path d="M156.594 115.453V115.754L156.86 115.895L159.139 117.107L159.874 117.497V116.665V113.567C162.361 114.627 164.516 114.869 166.277 114.154L166.278 114.153C168.308 113.322 169.234 111.358 169.234 108.552C169.234 106.996 168.996 105.542 168.515 104.195C168.06 102.828 167.337 101.548 166.354 100.356C165.417 99.2034 164.451 98.1733 163.454 97.267C162.506 96.4046 161.311 95.4278 159.874 94.3371V84.443C162.508 86.4283 163.96 88.8652 164.29 91.7587L164.32 92.0201L164.552 92.1436L167.848 93.8965L168.691 94.3446L168.58 93.3966C167.919 87.7773 164.999 83.3425 159.874 80.111V77.8535V77.553L159.608 77.412L157.329 76.2001L156.594 75.8095V76.6416V78.4049C154.225 77.4041 152.188 77.1762 150.552 77.8749C148.68 78.6424 147.844 80.5044 147.844 83.1439C147.844 84.606 148.055 85.9815 148.48 87.267L148.48 87.267L148.481 87.2706C148.908 88.5294 149.575 89.7321 150.474 90.8787L150.474 90.8787L150.477 90.8821C151.384 92.0189 152.296 93.0198 153.21 93.8831L153.21 93.8832L153.22 93.8914C154.111 94.6925 155.237 95.6304 156.594 96.7046V107.466C154.892 106.266 153.608 104.904 152.725 103.385C151.736 101.65 151.144 99.6319 150.959 97.3202L150.937 97.0472L150.695 96.9186L147.276 95.1008L146.502 94.6891L146.542 95.5652C146.682 98.6132 147.59 101.601 149.253 104.525L149.253 104.525L149.255 104.529C150.917 107.389 153.371 109.815 156.594 111.815V115.453ZM153.246 82.2025L153.246 82.2026L153.258 82.1976C154.021 81.879 155.109 81.9447 156.594 82.55V91.8228C155.081 90.5698 153.98 89.4423 153.272 88.4405C152.459 87.2587 152.059 86.005 152.059 84.6691C152.059 83.1969 152.521 82.4827 153.246 82.2025ZM163.614 102.977C164.468 104.114 164.897 105.421 164.897 106.915C164.897 107.707 164.76 108.308 164.52 108.749C164.287 109.178 163.942 109.481 163.466 109.667C162.561 110.015 161.381 109.942 159.874 109.328V99.3155C161.605 100.734 162.845 101.953 163.614 102.977Z" fill="#F9FAFB" stroke="#9AA2AC"/>
<line x1="145.321" y1="103.932" x2="172.157" y2="118.34" stroke="#9AA2AC"/>
<path d="M174.943 120.334L140.613 102.003L132.71 102.934L163.775 120.334H174.943Z" fill="#F9FAFB"/>
<path d="M255.775 199.328V209.798H255.765V209.782C255.765 210.655 253.077 212.353 249.78 212.353C246.483 212.353 243.842 210.655 243.842 209.782V202.577C243.842 200.647 243.69 199.182 242.942 198.506C242.498 198.104 241.841 197.581 240.061 196.667L225.815 188.427C224.133 187.032 223.677 184.692 223.696 184.169C223.334 181.176 225.221 179.128 225.815 178.55C227.748 176.798 230.897 177.04 232.23 177.38L250.642 187.646C255.775 189.607 255.775 194.88 255.775 199.328Z" fill="#EAECEF"/>
<path d="M255.775 209.798V199.328C255.775 194.88 255.775 189.607 250.642 187.646L232.23 177.38C230.897 177.04 227.748 176.798 225.815 178.55C225.221 179.128 223.334 181.176 223.696 184.169C223.677 184.692 224.133 187.032 225.815 188.427L240.061 196.667C241.841 197.581 242.498 198.104 242.942 198.506C243.69 199.182 243.842 200.647 243.842 202.577V209.798V209.782C243.842 210.655 246.483 212.353 249.78 212.353C253.077 212.353 255.765 210.655 255.765 209.782V209.798H255.775Z" stroke="#9AA2AC" stroke-miterlimit="10"/>
<path d="M81.0699 165.259L102.483 162C105.473 162 107.722 162.8 108.5 165.798C109.852 171.008 107.224 173.088 104.485 173.713L88.0405 175.797C86.0418 176.05 84.5435 177.751 84.5435 179.765V189.752C83.6135 191.225 81.9807 192.031 78.9633 192.031C75.9252 191.845 74.1478 190.812 73.0003 189.752L72.9995 177.929C72.9995 171.882 73.8711 165.798 81.0699 165.259Z" fill="#EAECEF" stroke="#9AA2AC" stroke-linejoin="round"/>
<path d="M57.4117 191.007L57.4185 127.631L24.102 132.288L24.0951 195.664L57.4117 191.007Z" fill="#FDFAC3" stroke="#9AA2AC" stroke-linejoin="round"/>
<path d="M24.0943 195.687L1.0489 183.216L1.05574 119.814L24.1012 132.285L24.0943 195.687Z" fill="#FDFAC3" stroke="#9AA2AC" stroke-linejoin="round"/>
<path d="M24.1016 132.289L1.05619 119.818L34.3622 115.159L57.4053 127.633L24.1016 132.289Z" fill="#FDFAC3" stroke="#9AA2AC" stroke-linejoin="round"/>
<path d="M51.9254 124.988L51.9307 120.846L25.2418 124.495L25.2365 128.638L51.9254 124.988Z" fill="#FFFB9E" stroke="#9AA2AC" stroke-linejoin="round"/>
<path d="M25.236 128.661L7.17105 118.885L7.17641 114.749L25.2413 124.525L25.236 128.661Z" fill="#FFFB9E" stroke="#9AA2AC" stroke-linejoin="round"/>
<path d="M25.242 124.502L7.17702 114.726L33.8576 111.074L51.9208 120.852L25.242 124.502Z" fill="#FFFB9E" stroke="#9AA2AC" stroke-linejoin="round"/>
<path d="M1 128.507L23.841 141.249" stroke="#9AA2AC" stroke-linejoin="round"/>
<path d="M1 137.799L23.841 150.54" stroke="#9AA2AC" stroke-linejoin="round"/>
<path d="M1 147.1L23.841 159.841" stroke="#9AA2AC" stroke-linejoin="round"/>
<path d="M1 156.393L23.841 169.134" stroke="#9AA2AC" stroke-linejoin="round"/>
<path d="M1 165.681L23.841 178.422" stroke="#9AA2AC" stroke-linejoin="round"/>
<path d="M1 174.972L23.841 187.713" stroke="#9AA2AC" stroke-linejoin="round"/>
<path d="M24.094 141.105L57.471 136.321" stroke="#9AA2AC" stroke-linejoin="round"/>
<path d="M24.094 150.398L57.471 145.614" stroke="#9AA2AC" stroke-linejoin="round"/>
<path d="M24.094 159.695L57.471 154.911" stroke="#9AA2AC" stroke-linejoin="round"/>
<path d="M24.094 168.985L57.471 164.201" stroke="#9AA2AC" stroke-linejoin="round"/>
<path d="M24.094 178.28L57.471 173.496" stroke="#9AA2AC" stroke-linejoin="round"/>
<path d="M24.094 187.572L57.471 182.787" stroke="#9AA2AC" stroke-linejoin="round"/>
</svg>
