<svg width="28" height="28" viewBox="0 0 28 28" fill="none" xmlns="http://www.w3.org/2000/svg">
<path d="M8.44141 3.47754C8.44141 2.99429 8.83316 2.60254 9.31641 2.60254H11.2122C11.6955 2.60254 12.0872 2.99429 12.0872 3.47754C12.0872 3.96079 11.6955 4.35254 11.2122 4.35254H10.1914V7.26921H11.2122C11.6955 7.26921 12.0872 7.66096 12.0872 8.14421C12.0872 8.62745 11.6955 9.01921 11.2122 9.01921H9.31641C8.83316 9.01921 8.44141 8.62745 8.44141 8.14421V3.47754Z" fill="black"/>
<path d="M25.3691 8.14453C25.3691 8.62778 24.9774 9.01953 24.4941 9.01953H22.5983C22.1151 9.01953 21.7233 8.62778 21.7233 8.14453C21.7233 7.66128 22.1151 7.26953 22.5983 7.26953H23.6191V4.35286H22.5983C22.1151 4.35286 21.7233 3.96111 21.7233 3.47786C21.7233 2.99462 22.1151 2.60286 22.5983 2.60286H24.4941C24.9774 2.60286 25.3691 2.99462 25.3691 3.47786V8.14453Z" fill="black"/>
<path d="M14.1367 3.47754C14.1367 2.99429 14.5285 2.60254 15.0117 2.60254H18.8034C19.2866 2.60254 19.6784 2.99429 19.6784 3.47754C19.6784 3.96079 19.2866 4.35254 18.8034 4.35254H15.0117C14.5285 4.35254 14.1367 3.96079 14.1367 3.47754Z" fill="black"/>
<path d="M14.1367 8.14453C14.1367 7.66128 14.5285 7.26953 15.0117 7.26953H18.8034C19.2866 7.26953 19.6784 7.66128 19.6784 8.14453C19.6784 8.62778 19.2866 9.01953 18.8034 9.01953H15.0117C14.5285 9.01953 14.1367 8.62778 14.1367 8.14453Z" fill="black"/>
<path d="M8.44141 19.7354C8.44141 19.2521 8.83316 18.8604 9.31641 18.8604H11.2122C11.6955 18.8604 12.0872 19.2521 12.0872 19.7354C12.0872 20.2186 11.6955 20.6104 11.2122 20.6104H10.1914V23.527H11.2122C11.6955 23.527 12.0872 23.9188 12.0872 24.402C12.0872 24.8853 11.6955 25.277 11.2122 25.277H9.31641C8.83316 25.277 8.44141 24.8853 8.44141 24.402V19.7354Z" fill="black"/>
<path d="M25.3691 24.4023C25.3691 24.8856 24.9774 25.2773 24.4941 25.2773H22.5983C22.1151 25.2773 21.7233 24.8856 21.7233 24.4023C21.7233 23.9191 22.1151 23.5273 22.5983 23.5273H23.6191V20.6107H22.5983C22.1151 20.6107 21.7233 20.2189 21.7233 19.7357C21.7233 19.2524 22.1151 18.8607 22.5983 18.8607H24.4941C24.9774 18.8607 25.3691 19.2524 25.3691 19.7357V24.4023Z" fill="black"/>
<path d="M14.1367 19.7354C14.1367 19.2521 14.5285 18.8604 15.0117 18.8604H18.8034C19.2866 18.8604 19.6784 19.2521 19.6784 19.7354C19.6784 20.2186 19.2866 20.6104 18.8034 20.6104H15.0117C14.5285 20.6104 14.1367 20.2186 14.1367 19.7354Z" fill="black"/>
<path d="M14.1367 24.4023C14.1367 23.9191 14.5285 23.5273 15.0117 23.5273H18.8034C19.2866 23.5273 19.6784 23.9191 19.6784 24.4023C19.6784 24.8856 19.2866 25.2773 18.8034 25.2773H15.0117C14.5285 25.2773 14.1367 24.8856 14.1367 24.4023Z" fill="black"/>
<path fill-rule="evenodd" clip-rule="evenodd" d="M2.62305 6.39388C2.62305 5.58846 3.27596 4.93555 4.08138 4.93555H9.25769V6.68555H4.37305V13.0647H24.154V14.8147H4.37305V21.1938H9.02642V22.9438H4.08138C3.27596 22.9438 2.62305 22.2909 2.62305 21.4855V6.39388Z" fill="black"/>
<path fill-rule="evenodd" clip-rule="evenodd" d="M24.4863 17.1481C24.974 17.1481 25.3695 16.7564 25.3695 16.2731V11.6064C25.3695 11.1232 24.974 10.7314 24.4863 10.7314H9.32461C8.83683 10.7314 8.44141 11.1232 8.44141 11.6064V16.2731C8.44141 16.7564 8.83683 17.1481 9.32461 17.1481H24.4863ZM23.6031 15.3981V12.4814L10.2078 12.4814V15.3981H23.6031Z" fill="black"/>
</svg>
