<svg width="42" height="40" viewBox="0 0 42 40" fill="none" xmlns="http://www.w3.org/2000/svg">
<path fill-rule="evenodd" clip-rule="evenodd" d="M36.4899 27.0835C37.2096 27.0835 37.7931 27.6431 37.7931 28.3335V31.6668C37.7931 34.1981 35.6537 36.2502 33.0147 36.2502H29.5395C28.8198 36.2502 28.2363 35.6905 28.2363 35.0002C28.2363 34.3098 28.8198 33.7502 29.5395 33.7502H33.0147C34.2143 33.7502 35.1867 32.8174 35.1867 31.6668V28.3335C35.1867 27.6431 35.7701 27.0835 36.4899 27.0835Z" fill="black"/>
<path fill-rule="evenodd" clip-rule="evenodd" d="M8.68853 6.25C7.48897 6.25 6.51654 7.18274 6.51654 8.33333V15C6.51654 15.6904 5.93308 16.25 5.21335 16.25C4.49361 16.25 3.91016 15.6904 3.91016 15V8.33333C3.91016 5.80203 6.0495 3.75 8.68853 3.75H12.1637C12.8834 3.75 13.4669 4.30964 13.4669 5C13.4669 5.69036 12.8834 6.25 12.1637 6.25H8.68853Z" fill="black"/>
<path fill-rule="evenodd" clip-rule="evenodd" d="M20.8526 6.25C19.653 6.25 18.6806 7.18274 18.6806 8.33333V13.3333C18.6806 14.0237 18.0971 14.5833 17.3774 14.5833C16.6577 14.5833 16.0742 14.0237 16.0742 13.3333V8.33333C16.0742 5.80203 18.2136 3.75 20.8526 3.75H33.0157C35.6547 3.75 37.7941 5.80203 37.7941 8.33333V20C37.7941 22.5313 35.6547 24.5833 33.0157 24.5833H24.3278C23.608 24.5833 23.0246 24.0237 23.0246 23.3333C23.0246 22.643 23.608 22.0833 24.3278 22.0833H33.0157C34.2153 22.0833 35.1877 21.1506 35.1877 20V8.33333C35.1877 7.18274 34.2153 6.25 33.0157 6.25H20.8526Z" fill="black"/>
<path fill-rule="evenodd" clip-rule="evenodd" d="M21.2852 11.6665C21.2852 10.9761 21.8686 10.4165 22.5883 10.4165H31.2763C31.996 10.4165 32.5795 10.9761 32.5795 11.6665C32.5795 12.3569 31.996 12.9165 31.2763 12.9165H22.5883C21.8686 12.9165 21.2852 12.3569 21.2852 11.6665Z" fill="black"/>
<path fill-rule="evenodd" clip-rule="evenodd" d="M23.0234 16.6665C23.0234 15.9761 23.6069 15.4165 24.3266 15.4165H31.277C31.9967 15.4165 32.5802 15.9761 32.5802 16.6665C32.5802 17.3569 31.9967 17.9165 31.277 17.9165H24.3266C23.6069 17.9165 23.0234 17.3569 23.0234 16.6665Z" fill="black"/>
<path fill-rule="evenodd" clip-rule="evenodd" d="M13.9011 19.5835C12.2217 19.5835 10.8603 20.8893 10.8603 22.5002C10.8603 24.111 12.2217 25.4168 13.9011 25.4168C15.5804 25.4168 16.9418 24.111 16.9418 22.5002C16.9418 20.8893 15.5804 19.5835 13.9011 19.5835ZM8.25391 22.5002C8.25391 19.5086 10.7822 17.0835 13.9011 17.0835C17.0199 17.0835 19.5482 19.5086 19.5482 22.5002C19.5482 25.4917 17.0199 27.9168 13.9011 27.9168C10.7822 27.9168 8.25391 25.4917 8.25391 22.5002Z" fill="black"/>
<path fill-rule="evenodd" clip-rule="evenodd" d="M3.91016 35.0002C3.91016 32.0086 6.43848 29.5835 9.55732 29.5835H18.2453C21.3641 29.5835 23.8924 32.0086 23.8924 35.0002C23.8924 35.6905 23.309 36.2502 22.5892 36.2502C21.8695 36.2502 21.286 35.6905 21.286 35.0002C21.286 33.3893 19.9246 32.0835 18.2453 32.0835H9.55732C7.87794 32.0835 6.51654 33.3893 6.51654 35.0002C6.51654 35.6905 5.93308 36.2502 5.21335 36.2502C4.49361 36.2502 3.91016 35.6905 3.91016 35.0002Z" fill="black"/>
</svg>
