<svg width="28" height="28" viewBox="0 0 28 28" fill="none" xmlns="http://www.w3.org/2000/svg">
<path fill-rule="evenodd" clip-rule="evenodd" d="M2.62305 6.3942C2.62305 5.58879 3.27596 4.93587 4.08138 4.93587L24.1196 4.93555V6.68555L4.37305 6.68587V13.065H23.8827V14.815H4.37305V21.1941H23.9424V22.9441H4.08138C3.27596 22.9441 2.62305 22.2912 2.62305 21.4858V6.3942Z" fill="black"/>
<path fill-rule="evenodd" clip-rule="evenodd" d="M24.4863 9.01921C24.974 9.01921 25.3695 8.62745 25.3695 8.14421V3.47754C25.3695 2.99429 24.974 2.60254 24.4863 2.60254H9.32461C8.83683 2.60254 8.44141 2.99429 8.44141 3.47754V8.14421C8.44141 8.62745 8.83683 9.01921 9.32461 9.01921H24.4863ZM23.6031 7.26921V4.35254L10.2078 4.35254V7.26921H23.6031Z" fill="black"/>
<path fill-rule="evenodd" clip-rule="evenodd" d="M24.4863 17.2087C24.974 17.2087 25.3695 16.8169 25.3695 16.3337V11.667C25.3695 11.1837 24.974 10.792 24.4863 10.792H9.32461C8.83683 10.792 8.44141 11.1837 8.44141 11.667V16.3337C8.44141 16.8169 8.83683 17.2087 9.32461 17.2087H24.4863ZM23.6031 15.4587V12.542L10.2078 12.542V15.4587H23.6031Z" fill="black"/>
<path fill-rule="evenodd" clip-rule="evenodd" d="M24.4863 25.277C24.974 25.277 25.3695 24.8853 25.3695 24.402V19.7354C25.3695 19.2521 24.974 18.8604 24.4863 18.8604H9.32461C8.83683 18.8604 8.44141 19.2521 8.44141 19.7354V24.402C8.44141 24.8853 8.83683 25.277 9.32461 25.277H24.4863ZM23.6031 23.527V20.6104L10.2078 20.6104V23.527H23.6031Z" fill="black"/>
</svg>
