<svg width="28" height="28" viewBox="0 0 28 28" fill="none" xmlns="http://www.w3.org/2000/svg">
<path fill-rule="evenodd" clip-rule="evenodd" d="M6.41667 9.04199C5.28909 9.04199 4.375 9.95608 4.375 11.0837V21.0003C4.375 22.4501 5.55025 23.6253 7 23.6253H12.8333C13.3166 23.6253 13.7083 24.0171 13.7083 24.5003C13.7083 24.9836 13.3166 25.3753 12.8333 25.3753H7C4.58375 25.3753 2.625 23.4166 2.625 21.0003V11.0837C2.625 8.98958 4.32259 7.29199 6.41667 7.29199H21.5833C23.6774 7.29199 25.375 8.98958 25.375 11.0837V12.8337C25.375 13.3169 24.9832 13.7087 24.5 13.7087C24.0168 13.7087 23.625 13.3169 23.625 12.8337V11.0837C23.625 9.95608 22.7109 9.04199 21.5833 9.04199H6.41667Z" fill="black"/>
<path fill-rule="evenodd" clip-rule="evenodd" d="M9.04102 5.83333C9.04102 4.06142 10.4774 2.625 12.2493 2.625H15.7493C17.5213 2.625 18.9577 4.06142 18.9577 5.83333V8.16667C18.9577 8.64992 18.5659 9.04167 18.0827 9.04167C17.5994 9.04167 17.2077 8.64992 17.2077 8.16667V5.83333C17.2077 5.02792 16.5548 4.375 15.7493 4.375H12.2493C11.4439 4.375 10.791 5.02792 10.791 5.83333V8.16667C10.791 8.64992 10.3993 9.04167 9.91602 9.04167C9.43277 9.04167 9.04102 8.64992 9.04102 8.16667V5.83333Z" fill="black"/>
<path fill-rule="evenodd" clip-rule="evenodd" d="M2.625 15.167C2.625 14.6837 3.01675 14.292 3.5 14.292H14C14.4832 14.292 14.875 14.6837 14.875 15.167C14.875 15.6502 14.4832 16.042 14 16.042H3.5C3.01675 16.042 2.625 15.6502 2.625 15.167Z" fill="black"/>
<path fill-rule="evenodd" clip-rule="evenodd" d="M21.0007 17.208C18.9066 17.208 17.209 18.9056 17.209 20.9997C17.209 23.0938 18.9066 24.7913 21.0007 24.7913C23.0947 24.7913 24.7923 23.0938 24.7923 20.9997C24.7923 18.9056 23.0947 17.208 21.0007 17.208ZM15.459 20.9997C15.459 17.9391 17.9401 15.458 21.0007 15.458C24.0612 15.458 26.5423 17.9391 26.5423 20.9997C26.5423 24.0603 24.0612 26.5413 21.0007 26.5413C17.9401 26.5413 15.459 24.0603 15.459 20.9997Z" fill="black"/>
<path fill-rule="evenodd" clip-rule="evenodd" d="M23.0764 19.6664C23.4181 20.0081 23.4181 20.5622 23.0764 20.9039L21.3264 22.6539C20.9847 22.9956 20.4307 22.9956 20.089 22.6539L18.9223 21.4872C18.5806 21.1455 18.5806 20.5915 18.9223 20.2498C19.264 19.9081 19.818 19.9081 20.1597 20.2498L20.7077 20.7977L21.839 19.6664C22.1807 19.3247 22.7347 19.3247 23.0764 19.6664Z" fill="black"/>
</svg>
