<svg width="28" height="28" viewBox="0 0 28 28" fill="none" xmlns="http://www.w3.org/2000/svg">
<path fill-rule="evenodd" clip-rule="evenodd" d="M20.7083 4.375V6.70833H23.0417V4.375H20.7083ZM20.7083 8.45833H23.3333C24.1387 8.45833 24.7917 7.80541 24.7917 7V4.08333C24.7917 3.27792 24.1387 2.625 23.3333 2.625H20.4167C19.6112 2.625 18.9583 3.27792 18.9583 4.08333V6.70833H10.6041C9.19002 6.70833 7.82946 7.24888 6.80097 8.2193L4.36357 10.5191C3.25394 11.566 2.625 13.0242 2.625 14.5498V20.4167C2.625 22.8329 4.58375 24.7917 7 24.7917H13.0278C14.4404 24.7917 15.7996 24.2522 16.8278 23.2836L18.9667 21.2686C20.0782 20.2215 20.7083 18.7621 20.7083 17.235V8.45833ZM18.9583 8.45833H10.6041C9.63656 8.45833 8.70565 8.82818 8.00195 9.49215L5.56455 11.7919C4.80532 12.5083 4.375 13.5059 4.375 14.5498V20.4167C4.375 21.8664 5.55025 23.0417 7 23.0417H13.0278C13.9943 23.0417 14.9243 22.6726 15.6278 22.0098L17.7667 19.9948C18.5272 19.2784 18.9583 18.2798 18.9583 17.235V8.45833Z" fill="black"/>
</svg>
