<svg width="28" height="28" viewBox="0 0 28 28" fill="none" xmlns="http://www.w3.org/2000/svg">
<path fill-rule="evenodd" clip-rule="evenodd" d="M14.291 12.25C14.291 11.7668 14.6828 11.375 15.166 11.375H17.4993C17.9826 11.375 18.3743 11.7668 18.3743 12.25C18.3743 12.7332 17.9826 13.125 17.4993 13.125H15.166C14.6828 13.125 14.291 12.7332 14.291 12.25Z" fill="black"/>
<path fill-rule="evenodd" clip-rule="evenodd" d="M14.3184 8.75C14.3184 8.26675 14.7101 7.875 15.1934 7.875H18.6662C19.1494 7.875 19.5412 8.26675 19.5412 8.75C19.5412 9.23325 19.1494 9.625 18.6662 9.625H15.1934C14.7101 9.625 14.3184 9.23325 14.3184 8.75Z" fill="black"/>
<path fill-rule="evenodd" clip-rule="evenodd" d="M14.291 19.25C14.291 18.7668 14.6828 18.375 15.166 18.375H17.4993C17.9826 18.375 18.3743 18.7668 18.3743 19.25C18.3743 19.7332 17.9826 20.125 17.4993 20.125H15.166C14.6828 20.125 14.291 19.7332 14.291 19.25Z" fill="black"/>
<path fill-rule="evenodd" clip-rule="evenodd" d="M9.91602 9.625C9.43277 9.625 9.04102 10.0168 9.04102 10.5C9.04102 10.9832 9.43277 11.375 9.91602 11.375C10.3993 11.375 10.791 10.9832 10.791 10.5C10.791 10.0168 10.3993 9.625 9.91602 9.625ZM7.29102 10.5C7.29102 9.05025 8.46627 7.875 9.91602 7.875C11.3658 7.875 12.541 9.05025 12.541 10.5C12.541 11.9497 11.3658 13.125 9.91602 13.125C8.46627 13.125 7.29102 11.9497 7.29102 10.5Z" fill="black"/>
<path fill-rule="evenodd" clip-rule="evenodd" d="M9.91602 16.625C9.43277 16.625 9.04102 17.0168 9.04102 17.5C9.04102 17.9832 9.43277 18.375 9.91602 18.375C10.3993 18.375 10.791 17.9832 10.791 17.5C10.791 17.0168 10.3993 16.625 9.91602 16.625ZM7.29102 17.5C7.29102 16.0503 8.46627 14.875 9.91602 14.875C11.3658 14.875 12.541 16.0503 12.541 17.5C12.541 18.9497 11.3658 20.125 9.91602 20.125C8.46627 20.125 7.29102 18.9497 7.29102 17.5Z" fill="black"/>
<path fill-rule="evenodd" clip-rule="evenodd" d="M14.291 15.75C14.291 15.2668 14.6828 14.875 15.166 14.875H18.6388C19.1221 14.875 19.5138 15.2668 19.5138 15.75C19.5138 16.2332 19.1221 16.625 18.6388 16.625H15.166C14.6828 16.625 14.291 16.2332 14.291 15.75Z" fill="black"/>
<path fill-rule="evenodd" clip-rule="evenodd" d="M9.91602 11.375C10.3993 11.375 10.791 11.7668 10.791 12.25V15.75C10.791 16.2332 10.3993 16.625 9.91602 16.625C9.43277 16.625 9.04102 16.2332 9.04102 15.75V12.25C9.04102 11.7668 9.43277 11.375 9.91602 11.375Z" fill="black"/>
<path fill-rule="evenodd" clip-rule="evenodd" d="M2.625 9.96154C2.625 5.90968 5.90968 2.625 9.96154 2.625H18.0385C22.0903 2.625 25.375 5.90968 25.375 9.96154V18.0385C25.375 22.0903 22.0903 25.375 18.0385 25.375H9.96154C5.90968 25.375 2.625 22.0903 2.625 18.0385V9.96154ZM9.96154 4.375C6.87618 4.375 4.375 6.87618 4.375 9.96154V18.0385C4.375 21.1238 6.87618 23.625 9.96154 23.625H18.0385C21.1238 23.625 23.625 21.1238 23.625 18.0385V9.96154C23.625 6.87618 21.1238 4.375 18.0385 4.375H9.96154Z" fill="black"/>
</svg>
