<svg width="28" height="28" viewBox="0 0 28 28" fill="none" xmlns="http://www.w3.org/2000/svg">
<path fill-rule="evenodd" clip-rule="evenodd" d="M5.83398 4.375C4.38424 4.375 3.20898 5.55025 3.20898 7V15.1667C3.20898 16.6164 4.38424 17.7917 5.83398 17.7917H10.5007C10.9839 17.7917 11.3757 18.1834 11.3757 18.6667C11.3757 19.1499 10.9839 19.5417 10.5007 19.5417H5.83398C3.41774 19.5417 1.45898 17.5829 1.45898 15.1667V7C1.45898 4.58375 3.41774 2.625 5.83398 2.625H22.1673C24.5836 2.625 26.5423 4.58375 26.5423 7V14C26.5423 14.4832 26.1506 14.875 25.6673 14.875C25.1841 14.875 24.7923 14.4832 24.7923 14V7C24.7923 5.55025 23.6171 4.375 22.1673 4.375H5.83398Z" fill="black"/>
<path fill-rule="evenodd" clip-rule="evenodd" d="M11.6313 8.71429C11.973 8.37258 12.527 8.37258 12.8687 8.71429L14.6187 10.4643C14.9604 10.806 14.9604 11.36 14.6187 11.7017L12.8687 13.4517C12.527 13.7934 11.973 13.7934 11.6313 13.4517C11.2896 13.11 11.2896 12.556 11.6313 12.2143L12.7626 11.083L11.6313 9.95173C11.2896 9.61002 11.2896 9.056 11.6313 8.71429Z" fill="black"/>
<path fill-rule="evenodd" clip-rule="evenodd" d="M9.36872 8.71429C9.71043 9.056 9.71043 9.61002 9.36872 9.95173L8.23744 11.083L9.36872 12.2143C9.71043 12.556 9.71043 13.11 9.36872 13.4517C9.02701 13.7934 8.47299 13.7934 8.13128 13.4517L6.38128 11.7017C6.03957 11.36 6.03957 10.806 6.38128 10.4643L8.13128 8.71429C8.47299 8.37258 9.02701 8.37258 9.36872 8.71429Z" fill="black"/>
<path fill-rule="evenodd" clip-rule="evenodd" d="M16.625 14.583C16.625 13.1333 17.8002 11.958 19.25 11.958C20.6997 11.958 21.875 13.1333 21.875 14.583V16.4649L23.8495 16.7869L23.7086 17.6505L23.8495 16.7869C25.5522 17.0646 26.7305 18.6392 26.5167 20.3512L26.5167 20.3512L26.0944 23.7308L26.0944 23.7308C25.8937 25.3364 24.5289 26.5413 22.9108 26.5413H18.4821C17.4093 26.5414 16.4074 26.0052 15.8124 25.1125L15.8124 25.1125L13.549 21.7169C12.8815 20.7154 13.0136 19.382 13.8646 18.5309C14.3382 18.0574 14.9804 17.7913 15.6501 17.7913C15.9881 17.7913 16.3191 17.8591 16.625 17.9871V14.583ZM15.1021 19.7684C15.1021 19.7684 15.1021 19.7684 15.1021 19.7684C14.8408 20.0296 14.8003 20.4389 15.0052 20.7463L14.2771 21.2316L15.0052 20.7463L17.2685 24.1419C17.539 24.5476 17.9944 24.7913 18.4821 24.7913H22.9108C23.6463 24.7913 24.2667 24.2437 24.3579 23.5139C24.3579 23.5139 24.3579 23.5138 24.3579 23.5138L24.7802 20.1342C24.8774 19.356 24.3418 18.6403 23.5678 18.5141L20.8591 18.0724C20.4358 18.0034 20.125 17.6377 20.125 17.2088V14.583C20.125 14.0998 19.7332 13.708 19.25 13.708C18.7667 13.708 18.375 14.0998 18.375 14.583V19.8327C18.375 20.1866 18.1618 20.5057 17.8348 20.6411C17.5078 20.7766 17.1315 20.7017 16.8812 20.4514L16.1982 19.7684C16.0528 19.623 15.8557 19.5413 15.6501 19.5413C15.4446 19.5413 15.2474 19.623 15.1021 19.7684Z" fill="black"/>
</svg>
