<svg width="28" height="28" viewBox="0 0 28 28" fill="none" xmlns="http://www.w3.org/2000/svg">
<path fill-rule="evenodd" clip-rule="evenodd" d="M6.99935 4.375C6.19343 4.375 5.54102 5.02742 5.54102 5.83333V8.16667C5.54102 8.97258 6.19343 9.625 6.99935 9.625H20.9993C21.8053 9.625 22.4577 8.97258 22.4577 8.16667V5.83333C22.4577 5.02742 21.8053 4.375 20.9993 4.375H6.99935ZM3.79102 5.83333C3.79102 4.06092 5.22693 2.625 6.99935 2.625H20.9993C22.7718 2.625 24.2077 4.06092 24.2077 5.83333V8.16667C24.2077 9.93908 22.7718 11.375 20.9993 11.375H6.99935C5.22693 11.375 3.79102 9.93908 3.79102 8.16667V5.83333Z" fill="black"/>
<path fill-rule="evenodd" clip-rule="evenodd" d="M14 9.625C14.4832 9.625 14.875 10.0168 14.875 10.5V19.8333C14.875 20.3166 14.4832 20.7083 14 20.7083C13.5168 20.7083 13.125 20.3166 13.125 19.8333V10.5C13.125 10.0168 13.5168 9.625 14 9.625Z" fill="black"/>
<path fill-rule="evenodd" clip-rule="evenodd" d="M12.7895 20.708C12.6521 20.708 12.541 20.8191 12.541 20.9565V23.3762C12.541 23.5136 12.6521 23.6247 12.7895 23.6247H15.2092C15.3466 23.6247 15.4577 23.5136 15.4577 23.3762V20.9565C15.4577 20.8191 15.3466 20.708 15.2092 20.708H12.7895ZM10.791 20.9565C10.791 19.8526 11.6856 18.958 12.7895 18.958H15.2092C16.3131 18.958 17.2077 19.8526 17.2077 20.9565V23.3762C17.2077 24.4801 16.3131 25.3747 15.2092 25.3747H12.7895C11.6856 25.3747 10.791 24.4801 10.791 23.3762V20.9565Z" fill="black"/>
<path fill-rule="evenodd" clip-rule="evenodd" d="M4.95898 17.5003C4.95898 15.7279 6.3949 14.292 8.16732 14.292H19.834C21.6064 14.292 23.0423 15.7279 23.0423 17.5003V19.654C23.0423 20.1372 22.6506 20.529 22.1673 20.529C21.6841 20.529 21.2923 20.1372 21.2923 19.654V17.5003C21.2923 16.6944 20.6399 16.042 19.834 16.042H8.16732C7.3614 16.042 6.70898 16.6944 6.70898 17.5003V19.654C6.70898 20.1372 6.31723 20.529 5.83398 20.529C5.35074 20.529 4.95898 20.1372 4.95898 19.654V17.5003Z" fill="black"/>
<path fill-rule="evenodd" clip-rule="evenodd" d="M20.9575 20.708C20.8201 20.708 20.709 20.8191 20.709 20.9565V23.3762C20.709 23.5136 20.8201 23.6247 20.9575 23.6247H23.3772C23.5146 23.6247 23.6257 23.5136 23.6257 23.3762V20.9565C23.6257 20.8191 23.5146 20.708 23.3772 20.708H20.9575ZM18.959 20.9565C18.959 19.8526 19.8536 18.958 20.9575 18.958H23.3772C24.4811 18.958 25.3757 19.8526 25.3757 20.9565V23.3762C25.3757 24.4801 24.4811 25.3747 23.3772 25.3747H20.9575C19.8536 25.3747 18.959 24.4801 18.959 23.3762V20.9565Z" fill="black"/>
<path fill-rule="evenodd" clip-rule="evenodd" d="M4.6235 20.708C4.48608 20.708 4.375 20.8191 4.375 20.9565V23.3762C4.375 23.5136 4.48608 23.6247 4.6235 23.6247H7.04317C7.18058 23.6247 7.29167 23.5136 7.29167 23.3762V20.9565C7.29167 20.8191 7.18058 20.708 7.04317 20.708H4.6235ZM2.625 20.9565C2.625 19.8526 3.51958 18.958 4.6235 18.958H7.04317C8.14708 18.958 9.04167 19.8526 9.04167 20.9565V23.3762C9.04167 24.4801 8.14708 25.3747 7.04317 25.3747H4.6235C3.51958 25.3747 2.625 24.4801 2.625 23.3762V20.9565Z" fill="black"/>
</svg>
