<svg width="28" height="28" viewBox="0 0 28 28" fill="none" xmlns="http://www.w3.org/2000/svg">
<path fill-rule="evenodd" clip-rule="evenodd" d="M14.291 12.8335C14.291 12.3502 14.6828 11.9585 15.166 11.9585H18.666C19.1493 11.9585 19.541 12.3502 19.541 12.8335C19.541 13.3167 19.1493 13.7085 18.666 13.7085H15.166C14.6828 13.7085 14.291 13.3167 14.291 12.8335Z" fill="black"/>
<path fill-rule="evenodd" clip-rule="evenodd" d="M15.459 9.3335C15.459 8.85025 15.8507 8.4585 16.334 8.4585H18.6673C19.1506 8.4585 19.5423 8.85025 19.5423 9.3335C19.5423 9.81675 19.1506 10.2085 18.6673 10.2085H16.334C15.8507 10.2085 15.459 9.81675 15.459 9.3335Z" fill="black"/>
<path fill-rule="evenodd" clip-rule="evenodd" d="M8.45898 16.3335C8.45898 15.8502 8.85074 15.4585 9.33398 15.4585H18.6673C19.1506 15.4585 19.5423 15.8502 19.5423 16.3335C19.5423 16.8167 19.1506 17.2085 18.6673 17.2085H9.33398C8.85074 17.2085 8.45898 16.8167 8.45898 16.3335Z" fill="black"/>
<path fill-rule="evenodd" clip-rule="evenodd" d="M8.45898 9.3335C8.45898 8.85025 8.85074 8.4585 9.33398 8.4585H12.834C13.3172 8.4585 13.709 8.85025 13.709 9.3335C13.709 9.81675 13.3172 10.2085 12.834 10.2085H9.33398C8.85074 10.2085 8.45898 9.81675 8.45898 9.3335Z" fill="black"/>
<path fill-rule="evenodd" clip-rule="evenodd" d="M11.084 8.4585C11.5672 8.4585 11.959 8.85025 11.959 9.3335V12.8335C11.959 13.3167 11.5672 13.7085 11.084 13.7085C10.6007 13.7085 10.209 13.3167 10.209 12.8335V9.3335C10.209 8.85025 10.6007 8.4585 11.084 8.4585Z" fill="black"/>
<path fill-rule="evenodd" clip-rule="evenodd" d="M2.625 7C2.625 4.58375 4.58375 2.625 7 2.625H21C23.4162 2.625 25.375 4.58375 25.375 7V18.6667C25.375 21.0829 23.4162 23.0417 21 23.0417H17.179L15.4437 24.777L15.4436 24.777C14.6463 25.5743 13.3537 25.5743 12.5564 24.777L12.5563 24.777L10.821 23.0417H7C4.58375 23.0417 2.625 21.0829 2.625 18.6667V7ZM7 4.375C5.55025 4.375 4.375 5.55025 4.375 7V18.6667C4.375 20.1164 5.55025 21.2917 7 21.2917H11.1835C11.4155 21.2917 11.6381 21.3839 11.8022 21.5479L13.7938 23.5395C13.7938 23.5395 13.7938 23.5395 13.7938 23.5396C13.9077 23.6534 14.0923 23.6534 14.2062 23.5396C14.2062 23.5395 14.2062 23.5395 14.2062 23.5395L16.1978 21.5479C16.3619 21.3839 16.5845 21.2917 16.8165 21.2917H21C22.4497 21.2917 23.625 20.1164 23.625 18.6667V7C23.625 5.55025 22.4497 4.375 21 4.375H7Z" fill="black"/>
</svg>
