<?xml version="1.0" encoding="UTF-8"?>
<svg id="Warstwa_2" data-name="Warstwa 2" xmlns="http://www.w3.org/2000/svg" viewBox="0 0 214.94 192.31">
  <defs>
    <style>
      .cls-1 {
        fill: #f3f3f7;
      }

      .cls-1, .cls-2 {
        stroke: #141428;
        stroke-linejoin: round;
        stroke-width: 1.3px;
      }

      .cls-2 {
        fill: #141428;
      }

      .cls-3 {
        isolation: isolate;
      }
    </style>
  </defs>
  <g id="Warstwa_1-2" data-name="Warstwa 1">
    <g>
      <g class="cls-3">
        <polygon class="cls-1" points="214.29 153.4 214.26 169.54 56.88 191.66 56.91 175.52 214.29 153.4"/>
        <polygon class="cls-1" points="56.88 191.66 .65 161.08 .68 144.94 56.91 175.52 56.88 191.66"/>
        <polygon class="cls-1" points="56.91 175.52 .68 144.94 158.07 122.82 214.29 153.4 56.91 175.52"/>
      </g>
      <g class="cls-3">
        <polygon class="cls-1" points="189.32 20.49 189.21 135.83 179.5 137.19 179.62 21.85 189.32 20.49"/>
        <polygon class="cls-1" points="179.5 137.19 143.03 117.35 143.14 2.01 179.62 21.85 179.5 137.19"/>
        <polygon class="cls-1" points="179.62 21.85 143.14 2.01 152.85 .65 189.32 20.49 179.62 21.85"/>
        <polygon class="cls-2" points="179.62 151.49 143.14 131.65 152.85 130.29 189.32 150.13 179.62 151.49"/>
      </g>
      <g class="cls-3">
        <polygon class="cls-1" points="166.18 68.03 166.07 153.65 156.36 155.01 156.47 69.39 166.18 68.03"/>
        <polygon class="cls-1" points="156.36 155.01 119.89 135.17 120 49.55 156.47 69.39 156.36 155.01"/>
        <polygon class="cls-1" points="156.47 69.39 120 49.55 129.71 48.19 166.18 68.03 156.47 69.39"/>
      </g>
      <g>
        <polygon class="cls-2" points="56.1 161.01 39.91 152.2 65.67 148.58 81.86 157.39 56.1 161.01"/>
        <polygon class="cls-1" points="81.86 29.3 81.82 149.02 56.05 152.64 56.1 32.92 81.86 29.3"/>
        <polygon class="cls-1" points="56.05 152.64 39.86 143.84 39.91 24.11 56.1 32.92 56.05 152.64"/>
        <polygon class="cls-1" points="56.1 32.92 39.91 24.11 65.67 20.49 81.86 29.3 56.1 32.92"/>
      </g>
    </g>
  </g>
</svg>