<?xml version="1.0" encoding="UTF-8"?>
<svg id="Warstwa_2" data-name="Warstwa 2" xmlns="http://www.w3.org/2000/svg" viewBox="0 0 231.46 215.92">
  <defs>
    <style>
      .cls-1 {
        fill: none;
      }

      .cls-1, .cls-2, .cls-3 {
        stroke: #141428;
        stroke-linejoin: round;
        stroke-width: 1.3px;
      }

      .cls-4, .cls-2 {
        fill: #141428;
      }

      .cls-3 {
        fill: #f4f4f8;
      }

      .cls-5 {
        isolation: isolate;
      }
    </style>
  </defs>
  <g id="Warstwa_1-2" data-name="Warstwa 1">
    <g>
      <polygon class="cls-4" points="99.76 215.92 30.85 178.44 140.53 163.03 209.43 200.51 99.76 215.92"/>
      <g class="cls-5">
        <polygon class="cls-3" points="209.43 85.52 209.25 184.21 99.58 199.62 99.76 100.93 209.43 85.52"/>
        <polygon class="cls-3" points="99.58 199.62 30.67 162.14 30.85 63.45 99.76 100.93 99.58 199.62"/>
        <polygon class="cls-3" points="99.76 100.93 30.85 63.45 140.53 48.03 209.43 85.52 99.76 100.93"/>
      </g>
      <g class="cls-5">
        <polygon class="cls-3" points="59.56 172.66 33.72 158.6 33.74 148.97 59.58 163.03 59.56 172.66"/>
        <polygon class="cls-3" points="59.58 163.03 33.74 148.97 53.69 146.17 79.53 160.22 59.58 163.03"/>
        <polygon class="cls-3" points="43.53 184.54 17.69 170.48 17.71 160.85 43.55 174.91 43.53 184.54"/>
        <polygon class="cls-3" points="43.55 174.91 17.71 160.85 33.72 158.6 59.56 172.66 43.55 174.91"/>
        <polygon class="cls-3" points="79.53 160.22 79.48 188.71 26.49 196.16 26.51 186.93 43.53 184.54 43.55 174.91 59.56 172.66 59.58 163.03 79.53 160.22"/>
        <polygon class="cls-3" points="26.49 196.16 .65 182.1 .67 172.87 26.51 186.93 26.49 196.16"/>
        <polygon class="cls-3" points="26.51 186.93 .67 172.87 17.69 170.48 43.53 184.54 26.51 186.93"/>
      </g>
      <polygon class="cls-3" points="51.37 133.89 41.89 128.74 41.92 105.45 51.4 110.61 51.37 133.89"/>
      <polygon class="cls-2" points="79.48 160.22 64.6 152.13 64.65 115.55 79.53 123.65 79.48 160.22"/>
      <g class="cls-5">
        <polygon class="cls-3" points="76.26 139.04 76.23 156.66 62.41 158.6 62.44 140.99 76.26 139.04"/>
        <polygon class="cls-3" points="62.41 158.6 52.93 153.45 52.96 135.83 62.44 140.99 62.41 158.6"/>
        <polygon class="cls-3" points="62.44 140.99 52.96 135.83 66.79 133.89 76.26 139.04 62.44 140.99"/>
      </g>
      <g>
        <polygon class="cls-3" points="209.43 85.52 209.25 184.21 99.58 199.62 99.76 100.93 209.43 85.52"/>
        <polygon class="cls-1" points="159.42 117.1 159.36 148.3 116.06 154.38 116.13 123.18 159.42 117.1"/>
        <polygon class="cls-1" points="192.87 112.39 192.81 143.6 171.27 146.63 171.33 115.43 192.87 112.39"/>
      </g>
      <g class="cls-5">
        <polygon class="cls-3" points="155.63 40.33 82.69 .65 157.86 30.81 230.81 70.5 155.63 40.33"/>
        <polygon class="cls-3" points="155.63 40.33 230.81 70.5 230.78 84.39 80.27 105.54 80.3 91.65 155.63 40.33"/>
        <polygon class="cls-3" points="80.27 105.54 7.33 65.86 7.36 51.97 80.3 91.65 80.27 105.54"/>
        <polygon class="cls-3" points="80.3 91.65 7.36 51.97 82.69 .65 155.63 40.33 80.3 91.65"/>
      </g>
      <line class="cls-1" x1="80.3" y1="91.65" x2="230.81" y2="70.5"/>
    </g>
  </g>
</svg>