<?xml version="1.0" encoding="UTF-8"?>
<svg id="Warstwa_2" data-name="Warstwa 2" xmlns="http://www.w3.org/2000/svg" viewBox="0 0 266.38 239.63">
  <defs>
    <style>
      .cls-1, .cls-2 {
        fill: #141428;
      }

      .cls-2, .cls-3 {
        stroke: #141428;
        stroke-linejoin: round;
        stroke-width: 1.3px;
      }

      .cls-3 {
        fill: #f4f4f8;
      }

      .cls-4 {
        isolation: isolate;
      }
    </style>
  </defs>
  <g id="Warstwa_1-2" data-name="Warstwa 1">
    <g>
      <g class="cls-4">
        <polygon class="cls-2" points="57.09 146.25 46.51 140.5 63.35 138.13 73.93 143.89 57.09 146.25"/>
        <polygon class="cls-3" points="73.93 112.32 73.9 138.2 57.06 140.57 57.09 114.68 73.93 112.32"/>
        <polygon class="cls-3" points="57.06 140.57 46.48 134.81 46.51 108.93 57.09 114.68 57.06 140.57"/>
        <polygon class="cls-3" points="57.09 114.68 46.51 108.93 63.35 106.56 73.93 112.32 57.09 114.68"/>
      </g>
      <g class="cls-4">
        <polygon class="cls-3" points="250.57 14.81 250.5 143.32 209.08 149.15 209.15 20.63 250.57 14.81"/>
        <polygon class="cls-3" points="209.08 149.15 183.05 134.99 183.12 6.47 209.15 20.63 209.08 149.15"/>
        <polygon class="cls-3" points="209.15 20.63 183.12 6.47 224.54 .65 250.57 14.81 209.15 20.63"/>
      </g>
      <g class="cls-4">
        <polygon class="cls-1" points="248.89 173.98 238.31 168.22 255.15 165.86 265.73 171.61 248.89 173.98"/>
        <polygon class="cls-3" points="265.73 140.04 265.7 165.93 248.86 168.29 248.89 142.41 265.73 140.04"/>
        <polygon class="cls-3" points="248.86 168.29 238.28 162.54 238.31 136.65 248.89 142.41 248.86 168.29"/>
        <polygon class="cls-3" points="248.89 142.41 238.31 136.65 255.15 134.29 265.73 140.04 248.89 142.41"/>
      </g>
      <g class="cls-4">
        <polygon class="cls-3" points="227 75.99 226.83 197.48 129.67 211.14 129.83 89.65 227 75.99"/>
        <polygon class="cls-3" points="129.67 211.14 68.63 177.93 68.79 56.44 129.83 89.65 129.67 211.14"/>
        <polygon class="cls-3" points="129.83 89.65 68.79 56.44 165.95 42.79 227 75.99 129.83 89.65"/>
        <g>
          <polygon class="cls-3" points="213.27 95.77 213.25 116.09 199.79 117.98 199.82 97.65 213.27 95.77"/>
          <polygon class="cls-3" points="185.9 99.61 185.88 119.94 172.42 121.83 172.45 101.5 185.9 99.61"/>
          <polygon class="cls-3" points="158.53 103.46 158.51 123.78 145.05 125.67 145.08 105.34 158.53 103.46"/>
          <polygon class="cls-3" points="158.45 168.06 158.42 188.39 144.96 190.28 144.99 169.95 158.45 168.06"/>
          <polygon class="cls-3" points="158.49 135.76 158.46 156.09 145.01 157.98 145.04 137.65 158.49 135.76"/>
          <polygon class="cls-3" points="213.24 128.07 213.21 148.39 199.75 150.28 199.78 129.96 213.24 128.07"/>
          <polygon class="cls-3" points="185.86 131.91 185.83 152.24 172.38 154.13 172.41 133.8 185.86 131.91"/>
          <polygon class="cls-3" points="213.19 160.37 213.16 180.7 199.7 182.59 199.73 162.26 213.19 160.37"/>
          <polygon class="cls-3" points="185.82 164.22 185.79 184.54 172.33 186.43 172.36 166.11 185.82 164.22"/>
        </g>
      </g>
      <g class="cls-4">
        <polygon class="cls-3" points="99.32 154.63 99.23 201.53 47.12 208.85 47.2 161.95 99.32 154.63"/>
        <polygon class="cls-3" points="47.12 208.85 14.38 191.04 14.46 144.14 47.2 161.95 47.12 208.85"/>
        <polygon class="cls-3" points="47.2 161.95 14.46 144.14 66.58 136.81 99.32 154.63 47.2 161.95"/>
      </g>
      <g class="cls-4">
        <polygon class="cls-2" points="134.72 82.77 90.27 58.59 161.02 48.64 205.47 72.82 134.72 82.77"/>
        <polygon class="cls-3" points="205.47 53.86 205.36 67.61 134.6 77.55 134.72 63.8 205.47 53.86"/>
        <polygon class="cls-3" points="134.6 77.55 90.15 53.37 90.27 39.62 134.72 63.8 134.6 77.55"/>
        <polygon class="cls-3" points="134.72 63.8 90.27 39.62 161.02 29.68 205.47 53.86 134.72 63.8"/>
      </g>
      <g class="cls-4">
        <polygon class="cls-1" points="185.8 239.63 175.22 233.87 192.06 231.51 202.64 237.26 185.8 239.63"/>
        <polygon class="cls-3" points="202.64 205.69 202.61 231.58 185.77 233.94 185.8 208.06 202.64 205.69"/>
        <polygon class="cls-3" points="185.77 233.94 175.19 228.19 175.22 202.31 185.8 208.06 185.77 233.94"/>
        <polygon class="cls-3" points="185.8 208.06 175.22 202.31 192.06 199.94 202.64 205.69 185.8 208.06"/>
      </g>
      <g class="cls-4">
        <polygon class="cls-1" points="11.26 210.16 .68 204.41 17.52 202.04 28.1 207.8 11.26 210.16"/>
        <polygon class="cls-3" points="28.1 176.23 28.07 202.11 11.23 204.48 11.26 178.6 28.1 176.23"/>
        <polygon class="cls-3" points="11.23 204.48 .65 198.72 .68 172.84 11.26 178.6 11.23 204.48"/>
        <polygon class="cls-3" points="11.26 178.6 .68 172.84 17.52 170.47 28.1 176.23 11.26 178.6"/>
      </g>
    </g>
  </g>
</svg>