<svg xmlns="http://www.w3.org/2000/svg" width="95" height="107" fill="none"><g clip-path="url(#a)"><path fill="#F2F2F6" stroke="#141428" stroke-linejoin="round" d="M47.23 98.4798.5 85.3498l46.73-11.05 46.72 11.05-46.72 13.13Z"/><path fill="#F2F2F6" stroke="#141428" stroke-linejoin="round" d="M47.2305 106.07v-7.5904l46.72-13.13v7.58l-46.72 13.1404ZM.5 92.9296v-7.58l46.73 13.13v7.5904L.5 92.9296Z"/><path fill="#F2F2F6" stroke="#141428" stroke-miterlimit="10" d="M67.2689 80.9202c0 3.65-8.87 6.61-19.82 6.61-10.95 0-19.82-2.96-19.82-6.61l3.61-49.64c0-2.95 7.16-5.33 15.99-5.33s15.99 2.39 15.99 5.33l4.04 49.64h.01Z"/><path fill="#F2F2F6" stroke="#141428" stroke-miterlimit="10" d="M65.5092 19.85c0-3.37-8.18-6.1-18.28-6.1-10.1 0-18.28 2.73-18.28 6.1v8.71c0 3.37 8.18 6.1 18.28 6.1 10.1 0 18.28-2.73 18.28-6.1v-8.71Z"/><path fill="#F2F2F6" stroke="#141428" stroke-miterlimit="10" d="M47.2292 25.95c10.0958 0 18.28-2.7311 18.28-6.1 0-3.3689-8.1842-6.1-18.28-6.1-10.0957 0-18.28 2.7311-18.28 6.1 0 3.3689 8.1843 6.1 18.28 6.1Z"/><path fill="#141428" stroke="#141428" stroke-miterlimit="10" d="M52.3303 76.2696c0-2.69-2.18-4.88-4.88-4.88-2.7 0-4.88 2.18-4.88 4.88v11.2001h9.75V76.2696h.01Z"/><path fill="#141428" d="M47.4503 92.9402c3.2474 0 5.88-.5014 5.88-1.12 0-.6186-2.6326-1.12-5.88-1.12s-5.88.5014-5.88 1.12c0 .6186 2.6326 1.12 5.88 1.12Z"/><path fill="#F7FB2B" stroke="#141428" stroke-miterlimit="10" d="M47.4503 91.51c3.2474 0 5.88-2.6326 5.88-5.88s-2.6326-5.88-5.88-5.88-5.88 2.6326-5.88 5.88 2.6326 5.88 5.88 5.88ZM53.8403 47.3998c0 3.52-2.86 6.38-6.39 6.38-.33 0-.65-.03-.97-.07l-.38-.07c-2.88-.62-5.03-3.17-5.03-6.24 0-3.07 2.27-5.75 5.26-6.29.36-.07.75-.1 1.13-.1 3.53 0 6.39 2.86 6.39 6.39h-.01ZM93.7573 47.4002c0 7.03-5.71 12.74-12.74 12.74-.86 0-1.7-.09-2.51-.25l-.2-.04c-5.73-1.24-10.03-6.35-10.03-12.45s4.28-11.19 9.99-12.45l.18-.03c.82-.17 1.69-.26 2.57-.26 7.03 0 12.74 5.71 12.74 12.75v-.01Z"/><path fill="#F7FB2B" stroke="#141428" stroke-miterlimit="10" d="M53.8403 47.4002c0-3.53-2.86-6.39-6.39-6.39-.38 0-.77.03-1.13.1l31.95-6.16c-5.71 1.26-9.99 6.35-9.99 12.45s4.3 11.21 10.03 12.45l-31.83-6.14c.32.05.64.07.97.07 3.53 0 6.39-2.86 6.39-6.38Z"/><path fill="#F2F2F6" stroke="#141428" stroke-miterlimit="10" d="M61.6695 14.95c0-7.98-6.47-14.45-14.45-14.45-7.98 0-14.45 6.47-14.45 14.45v3.46c0 2.54 6.47 4.59 14.45 4.59 7.98 0 14.45-2.05 14.45-4.59v-3.46Z"/></g><defs><clipPath id="a"><path fill="#fff" d="M0 0h94.45v106.57H0z"/></clipPath></defs></svg>